%TF.GenerationSoftware,KiCad,Pcbnew,(5.1.8)-1*%
%TF.CreationDate,2022-06-16T12:56:30+03:00*%
%TF.ProjectId,FORWARD_CONVERTER,464f5257-4152-4445-9f43-4f4e56455254,rev?*%
%TF.SameCoordinates,Original*%
%TF.FileFunction,Copper,L2,Bot*%
%TF.FilePolarity,Positive*%
%FSLAX46Y46*%
G04 Gerber Fmt 4.6, Leading zero omitted, Abs format (unit mm)*
G04 Created by KiCad (PCBNEW (5.1.8)-1) date 2022-06-16 12:56:30*
%MOMM*%
%LPD*%
G01*
G04 APERTURE LIST*
%TA.AperFunction,NonConductor*%
%ADD10C,0.150000*%
%TD*%
%TA.AperFunction,ComponentPad*%
%ADD11O,1.500000X1.050000*%
%TD*%
%TA.AperFunction,ComponentPad*%
%ADD12R,1.500000X1.050000*%
%TD*%
%TA.AperFunction,ComponentPad*%
%ADD13R,2.000000X1.905000*%
%TD*%
%TA.AperFunction,ComponentPad*%
%ADD14O,2.000000X1.905000*%
%TD*%
%TA.AperFunction,ComponentPad*%
%ADD15C,2.400000*%
%TD*%
%TA.AperFunction,ComponentPad*%
%ADD16O,2.400000X2.400000*%
%TD*%
%TA.AperFunction,ComponentPad*%
%ADD17R,1.600000X1.600000*%
%TD*%
%TA.AperFunction,ComponentPad*%
%ADD18C,1.600000*%
%TD*%
%TA.AperFunction,ComponentPad*%
%ADD19O,1.600000X1.600000*%
%TD*%
%TA.AperFunction,ComponentPad*%
%ADD20C,2.340000*%
%TD*%
%TA.AperFunction,ComponentPad*%
%ADD21R,1.700000X1.700000*%
%TD*%
%TA.AperFunction,ComponentPad*%
%ADD22O,1.700000X1.700000*%
%TD*%
%TA.AperFunction,ComponentPad*%
%ADD23R,3.000000X3.000000*%
%TD*%
%TA.AperFunction,ComponentPad*%
%ADD24C,3.000000*%
%TD*%
%TA.AperFunction,ComponentPad*%
%ADD25R,2.800000X2.800000*%
%TD*%
%TA.AperFunction,ComponentPad*%
%ADD26O,2.800000X2.800000*%
%TD*%
%TA.AperFunction,ComponentPad*%
%ADD27R,2.200000X2.200000*%
%TD*%
%TA.AperFunction,ComponentPad*%
%ADD28O,2.200000X2.200000*%
%TD*%
%TA.AperFunction,ComponentPad*%
%ADD29R,2.400000X2.400000*%
%TD*%
%TA.AperFunction,ViaPad*%
%ADD30C,2.000000*%
%TD*%
%TA.AperFunction,ViaPad*%
%ADD31C,2.500000*%
%TD*%
%TA.AperFunction,Conductor*%
%ADD32C,1.000000*%
%TD*%
%TA.AperFunction,Conductor*%
%ADD33C,0.025400*%
%TD*%
%TA.AperFunction,Conductor*%
%ADD34C,0.100000*%
%TD*%
%TA.AperFunction,Conductor*%
%ADD35C,0.254000*%
%TD*%
G04 APERTURE END LIST*
D10*
X111680952Y-61682380D02*
X111871428Y-61682380D01*
X111966666Y-61730000D01*
X112061904Y-61825238D01*
X112109523Y-62015714D01*
X112109523Y-62349047D01*
X112061904Y-62539523D01*
X111966666Y-62634761D01*
X111871428Y-62682380D01*
X111680952Y-62682380D01*
X111585714Y-62634761D01*
X111490476Y-62539523D01*
X111442857Y-62349047D01*
X111442857Y-62015714D01*
X111490476Y-61825238D01*
X111585714Y-61730000D01*
X111680952Y-61682380D01*
X111585714Y-61349047D02*
X111633333Y-61396666D01*
X111585714Y-61444285D01*
X111538095Y-61396666D01*
X111585714Y-61349047D01*
X111585714Y-61444285D01*
X111966666Y-61349047D02*
X112014285Y-61396666D01*
X111966666Y-61444285D01*
X111919047Y-61396666D01*
X111966666Y-61349047D01*
X111966666Y-61444285D01*
X112538095Y-62682380D02*
X112538095Y-62015714D01*
X112538095Y-62110952D02*
X112585714Y-62063333D01*
X112680952Y-62015714D01*
X112823809Y-62015714D01*
X112919047Y-62063333D01*
X112966666Y-62158571D01*
X112966666Y-62682380D01*
X112966666Y-62158571D02*
X113014285Y-62063333D01*
X113109523Y-62015714D01*
X113252380Y-62015714D01*
X113347619Y-62063333D01*
X113395238Y-62158571D01*
X113395238Y-62682380D01*
X114252380Y-62634761D02*
X114157142Y-62682380D01*
X113966666Y-62682380D01*
X113871428Y-62634761D01*
X113823809Y-62539523D01*
X113823809Y-62158571D01*
X113871428Y-62063333D01*
X113966666Y-62015714D01*
X114157142Y-62015714D01*
X114252380Y-62063333D01*
X114300000Y-62158571D01*
X114300000Y-62253809D01*
X113823809Y-62349047D01*
X114728571Y-62682380D02*
X114728571Y-62015714D01*
X114728571Y-62206190D02*
X114776190Y-62110952D01*
X114823809Y-62063333D01*
X114919047Y-62015714D01*
X115014285Y-62015714D01*
X116109523Y-62682380D02*
X116109523Y-61682380D01*
X116680952Y-62682380D02*
X116252380Y-62110952D01*
X116680952Y-61682380D02*
X116109523Y-62253809D01*
X117109523Y-62587142D02*
X117157142Y-62634761D01*
X117109523Y-62682380D01*
X117061904Y-62634761D01*
X117109523Y-62587142D01*
X117109523Y-62682380D01*
D11*
%TO.P,Q2,2*%
%TO.N,LOW_PWM_IN*%
X172720000Y-95123000D03*
%TO.P,Q2,3*%
%TO.N,Net-(Q2-Pad3)*%
X172720000Y-93853000D03*
D12*
%TO.P,Q2,1*%
%TO.N,+3V3*%
X172720000Y-96393000D03*
%TD*%
D13*
%TO.P,Q1,1*%
%TO.N,Net-(D3-Pad2)*%
X108204000Y-79248000D03*
D14*
%TO.P,Q1,2*%
%TO.N,Net-(Q1-Pad2)*%
X108204000Y-76708000D03*
%TO.P,Q1,3*%
%TO.N,GND1*%
X108204000Y-74168000D03*
%TD*%
D15*
%TO.P,R3,1*%
%TO.N,Net-(Q1-Pad2)*%
X113284000Y-85725000D03*
D16*
%TO.P,R3,2*%
%TO.N,Net-(C3-Pad2)*%
X113284000Y-73025000D03*
%TD*%
D17*
%TO.P,C3,1*%
%TO.N,GND1*%
X112395000Y-67945000D03*
D18*
%TO.P,C3,2*%
%TO.N,Net-(C3-Pad2)*%
X114895000Y-67945000D03*
%TD*%
D13*
%TO.P,U3,1*%
%TO.N,+12V*%
X145415000Y-92075000D03*
D14*
%TO.P,U3,2*%
%TO.N,GND1*%
X145415000Y-89535000D03*
%TO.P,U3,3*%
%TO.N,+5V*%
X145415000Y-86995000D03*
%TD*%
D17*
%TO.P,U2,1*%
%TO.N,GATE*%
X122555000Y-93980000D03*
D19*
%TO.P,U2,8*%
%TO.N,Net-(U2-Pad8)*%
X137795000Y-86360000D03*
%TO.P,U2,2*%
%TO.N,GND1*%
X125095000Y-93980000D03*
%TO.P,U2,9*%
%TO.N,+5V*%
X135255000Y-86360000D03*
%TO.P,U2,3*%
%TO.N,+12V*%
X127635000Y-93980000D03*
%TO.P,U2,10*%
%TO.N,GND1*%
X132715000Y-86360000D03*
%TO.P,U2,4*%
%TO.N,Net-(U2-Pad4)*%
X130175000Y-93980000D03*
%TO.P,U2,11*%
%TO.N,GND1*%
X130175000Y-86360000D03*
%TO.P,U2,5*%
X132715000Y-93980000D03*
%TO.P,U2,12*%
%TO.N,LIN*%
X127635000Y-86360000D03*
%TO.P,U2,6*%
%TO.N,Net-(U2-Pad6)*%
X135255000Y-93980000D03*
%TO.P,U2,13*%
%TO.N,GND1*%
X125095000Y-86360000D03*
%TO.P,U2,7*%
%TO.N,Net-(U2-Pad7)*%
X137795000Y-93980000D03*
%TO.P,U2,14*%
%TO.N,Net-(U2-Pad14)*%
X122555000Y-86360000D03*
%TD*%
D17*
%TO.P,U1,1*%
%TO.N,Net-(Q2-Pad3)*%
X172720000Y-91440000D03*
D19*
%TO.P,U1,3*%
%TO.N,LIN*%
X162560000Y-88900000D03*
%TO.P,U1,2*%
%TO.N,Net-(R7-Pad2)*%
X172720000Y-88900000D03*
%TO.P,U1,4*%
%TO.N,+12V*%
X162560000Y-91440000D03*
%TD*%
D20*
%TO.P,RV2,3*%
%TO.N,Vout-*%
X164940000Y-103505000D03*
%TO.P,RV2,2*%
%TO.N,I_ADC*%
X159940000Y-103505000D03*
%TO.P,RV2,1*%
%TO.N,Net-(R10-Pad2)*%
X154940000Y-103505000D03*
%TD*%
%TO.P,RV1,3*%
%TO.N,Vout-*%
X185260000Y-103505000D03*
%TO.P,RV1,2*%
%TO.N,P_ADC*%
X180260000Y-103505000D03*
%TO.P,RV1,1*%
%TO.N,+3V3*%
X175260000Y-103505000D03*
%TD*%
D15*
%TO.P,R10,1*%
%TO.N,+3V3*%
X169545000Y-96520000D03*
D16*
%TO.P,R10,2*%
%TO.N,Net-(R10-Pad2)*%
X156845000Y-96520000D03*
%TD*%
D15*
%TO.P,R7,1*%
%TO.N,Vout-*%
X181737000Y-90424000D03*
D16*
%TO.P,R7,2*%
%TO.N,Net-(R7-Pad2)*%
X194437000Y-90424000D03*
%TD*%
D15*
%TO.P,R6,1*%
%TO.N,LIN*%
X157480000Y-79375000D03*
D16*
%TO.P,R6,2*%
%TO.N,GND1*%
X157480000Y-92075000D03*
%TD*%
D15*
%TO.P,R5,1*%
%TO.N,Net-(D3-Pad2)*%
X117475000Y-78105000D03*
D16*
%TO.P,R5,2*%
%TO.N,GND1*%
X117475000Y-90805000D03*
%TD*%
D15*
%TO.P,R4,1*%
%TO.N,GATE*%
X124460000Y-76835000D03*
D16*
%TO.P,R4,2*%
%TO.N,Net-(D3-Pad2)*%
X137160000Y-76835000D03*
%TD*%
D15*
%TO.P,R2,1*%
%TO.N,OUTPUT_TO_ADC*%
X189230000Y-81915000D03*
D16*
%TO.P,R2,2*%
%TO.N,Vout-*%
X176530000Y-81915000D03*
%TD*%
D15*
%TO.P,R1,1*%
%TO.N,Vout+*%
X176530000Y-76835000D03*
D16*
%TO.P,R1,2*%
%TO.N,OUTPUT_TO_ADC*%
X189230000Y-76835000D03*
%TD*%
D15*
%TO.P,L2,1*%
%TO.N,Net-(L1-Pad2)*%
X167005000Y-80010000D03*
D16*
%TO.P,L2,2*%
%TO.N,Vout+*%
X172085000Y-80010000D03*
%TD*%
D15*
%TO.P,L1,1*%
%TO.N,Net-(D1-Pad1)*%
X163195000Y-66040000D03*
D16*
%TO.P,L1,2*%
%TO.N,Net-(L1-Pad2)*%
X170815000Y-66040000D03*
%TD*%
D21*
%TO.P,J5,1*%
%TO.N,Net-(J5-Pad1)*%
X198755000Y-86995000D03*
D22*
%TO.P,J5,2*%
%TO.N,OUTPUT_TO_ADC*%
X198755000Y-89535000D03*
%TO.P,J5,3*%
%TO.N,Net-(J5-Pad3)*%
X198755000Y-92075000D03*
%TO.P,J5,4*%
%TO.N,LOW_PWM_IN*%
X198755000Y-94615000D03*
%TO.P,J5,5*%
%TO.N,+3V3*%
X198755000Y-97155000D03*
%TO.P,J5,6*%
%TO.N,P_ADC*%
X198755000Y-99695000D03*
%TO.P,J5,7*%
%TO.N,I_ADC*%
X198755000Y-102235000D03*
%TO.P,J5,8*%
%TO.N,Vout-*%
X198755000Y-104775000D03*
%TD*%
D23*
%TO.P,J4,1*%
%TO.N,+12V*%
X106680000Y-100330000D03*
D24*
%TO.P,J4,2*%
%TO.N,GND1*%
X106680000Y-105410000D03*
%TD*%
D21*
%TO.P,J2,1*%
%TO.N,Vout+*%
X189230000Y-60960000D03*
D22*
%TO.P,J2,2*%
X191770000Y-60960000D03*
%TO.P,J2,3*%
X194310000Y-60960000D03*
%TO.P,J2,4*%
%TO.N,Vout-*%
X196850000Y-60960000D03*
%TO.P,J2,5*%
X199390000Y-60960000D03*
%TD*%
D23*
%TO.P,J1,1*%
%TO.N,Net-(J1-Pad1)*%
X106680000Y-62230000D03*
D24*
%TO.P,J1,2*%
%TO.N,GND1*%
X106680000Y-67310000D03*
%TD*%
D25*
%TO.P,D5,1*%
%TO.N,OUTPUT_TO_ADC*%
X189357000Y-86995000D03*
D26*
%TO.P,D5,2*%
%TO.N,Vout-*%
X176657000Y-86995000D03*
%TD*%
D27*
%TO.P,D3,1*%
%TO.N,GATE*%
X124460000Y-81915000D03*
D28*
%TO.P,D3,2*%
%TO.N,Net-(D3-Pad2)*%
X137160000Y-81915000D03*
%TD*%
D27*
%TO.P,D2,1*%
%TO.N,Net-(D1-Pad1)*%
X152400000Y-60960000D03*
D28*
%TO.P,D2,2*%
%TO.N,Vout-*%
X152400000Y-73660000D03*
%TD*%
D27*
%TO.P,D1,1*%
%TO.N,Net-(D1-Pad1)*%
X147955000Y-73660000D03*
D28*
%TO.P,D1,2*%
%TO.N,Net-(D1-Pad2)*%
X147955000Y-60960000D03*
%TD*%
D17*
%TO.P,C12,1*%
%TO.N,GND1*%
X151765000Y-80010000D03*
D18*
%TO.P,C12,2*%
%TO.N,+5V*%
X151765000Y-82510000D03*
%TD*%
D17*
%TO.P,C11,1*%
%TO.N,GND1*%
X151765000Y-88900000D03*
D18*
%TO.P,C11,2*%
%TO.N,+5V*%
X151765000Y-86400000D03*
%TD*%
D17*
%TO.P,C10,1*%
%TO.N,GND1*%
X151765000Y-92710000D03*
D18*
%TO.P,C10,2*%
%TO.N,+12V*%
X151765000Y-95210000D03*
%TD*%
D29*
%TO.P,C9,1*%
%TO.N,+12V*%
X139700000Y-103505000D03*
D15*
%TO.P,C9,2*%
%TO.N,GND1*%
X144700000Y-103505000D03*
%TD*%
D17*
%TO.P,C8,1*%
%TO.N,GND1*%
X114300000Y-105410000D03*
D18*
%TO.P,C8,2*%
%TO.N,+12V*%
X114300000Y-102910000D03*
%TD*%
D17*
%TO.P,C7,1*%
%TO.N,Vout-*%
X196215000Y-80010000D03*
D18*
%TO.P,C7,2*%
%TO.N,OUTPUT_TO_ADC*%
X196215000Y-82510000D03*
%TD*%
D29*
%TO.P,C6,1*%
%TO.N,+12V*%
X122555000Y-104140000D03*
D15*
%TO.P,C6,2*%
%TO.N,GND1*%
X130055000Y-104140000D03*
%TD*%
D17*
%TO.P,C5,1*%
%TO.N,+5V*%
X143510000Y-81915000D03*
D18*
%TO.P,C5,2*%
%TO.N,GND1*%
X143510000Y-79415000D03*
%TD*%
D29*
%TO.P,C4,1*%
%TO.N,+5V*%
X106680000Y-88392000D03*
D15*
%TO.P,C4,2*%
%TO.N,GND1*%
X106680000Y-93392000D03*
%TD*%
D29*
%TO.P,C2,1*%
%TO.N,Vout+*%
X176530000Y-66040000D03*
D15*
%TO.P,C2,2*%
%TO.N,Vout-*%
X184030000Y-66040000D03*
%TD*%
D29*
%TO.P,C1,1*%
%TO.N,Vout+*%
X191770000Y-69850000D03*
D15*
%TO.P,C1,2*%
%TO.N,Vout-*%
X199270000Y-69850000D03*
%TD*%
D30*
%TO.N,GND1*%
X134112000Y-104140000D03*
X134112000Y-97536000D03*
%TO.N,+5V*%
X117475000Y-86613998D03*
X135509000Y-89281000D03*
%TO.N,LIN*%
X130048000Y-89313000D03*
D31*
X160020000Y-88900000D03*
D30*
%TO.N,Vout-*%
X192659000Y-103505000D03*
D31*
X160020000Y-74930000D03*
X163830000Y-99060000D03*
X182880000Y-77470000D03*
X196850000Y-76200000D03*
X170053000Y-103505000D03*
%TD*%
D32*
%TO.N,GND1*%
X134112000Y-104140000D02*
X134112000Y-97536000D01*
%TO.N,+5V*%
X135509000Y-86489998D02*
X135509000Y-89281000D01*
X133579001Y-84559999D02*
X135509000Y-86489998D01*
X119528999Y-84559999D02*
X133579001Y-84559999D01*
X117475000Y-86613998D02*
X119528999Y-84559999D01*
%TO.N,LIN*%
X143614999Y-94027501D02*
X141027498Y-91440000D01*
X147215001Y-94027501D02*
X143614999Y-94027501D01*
X150542501Y-90700001D02*
X147215001Y-94027501D01*
X153365001Y-90700001D02*
X150542501Y-90700001D01*
X141027498Y-91440000D02*
X132175000Y-91440000D01*
X155165002Y-88900000D02*
X153365001Y-90700001D01*
X132175000Y-91440000D02*
X130048000Y-89313000D01*
X160020000Y-88900000D02*
X155165002Y-88900000D01*
%TO.N,Vout-*%
X190119000Y-106045000D02*
X192659000Y-103505000D01*
X172593000Y-106045000D02*
X190119000Y-106045000D01*
X170053000Y-103505000D02*
X172593000Y-106045000D01*
%TD*%
D33*
%TO.N,GND1*%
X134602947Y-102373103D02*
X134602966Y-102373630D01*
X134614060Y-102565016D01*
X134614119Y-102565708D01*
X134632897Y-102731776D01*
X134633022Y-102732619D01*
X134659722Y-102879563D01*
X134659926Y-102880490D01*
X134694784Y-103014502D01*
X134695050Y-103015391D01*
X134738301Y-103142663D01*
X134738573Y-103143389D01*
X134790455Y-103270113D01*
X134790666Y-103270598D01*
X134851415Y-103402966D01*
X134851527Y-103403205D01*
X134921378Y-103547411D01*
X134921395Y-103547446D01*
X134996694Y-103701706D01*
X134112000Y-104621678D01*
X133227306Y-103701706D01*
X133302604Y-103547446D01*
X133302621Y-103547411D01*
X133372472Y-103403205D01*
X133372584Y-103402966D01*
X133433333Y-103270598D01*
X133433544Y-103270113D01*
X133485426Y-103143389D01*
X133485698Y-103142663D01*
X133528949Y-103015391D01*
X133529215Y-103014502D01*
X133564073Y-102880490D01*
X133564277Y-102879563D01*
X133590977Y-102732619D01*
X133591102Y-102731776D01*
X133609880Y-102565708D01*
X133609939Y-102565016D01*
X133621033Y-102373630D01*
X133621052Y-102373103D01*
X133624494Y-102162700D01*
X134599506Y-102162700D01*
X134602947Y-102373103D01*
%TA.AperFunction,Conductor*%
D34*
G36*
X134602947Y-102373103D02*
G01*
X134602966Y-102373630D01*
X134614060Y-102565016D01*
X134614119Y-102565708D01*
X134632897Y-102731776D01*
X134633022Y-102732619D01*
X134659722Y-102879563D01*
X134659926Y-102880490D01*
X134694784Y-103014502D01*
X134695050Y-103015391D01*
X134738301Y-103142663D01*
X134738573Y-103143389D01*
X134790455Y-103270113D01*
X134790666Y-103270598D01*
X134851415Y-103402966D01*
X134851527Y-103403205D01*
X134921378Y-103547411D01*
X134921395Y-103547446D01*
X134996694Y-103701706D01*
X134112000Y-104621678D01*
X133227306Y-103701706D01*
X133302604Y-103547446D01*
X133302621Y-103547411D01*
X133372472Y-103403205D01*
X133372584Y-103402966D01*
X133433333Y-103270598D01*
X133433544Y-103270113D01*
X133485426Y-103143389D01*
X133485698Y-103142663D01*
X133528949Y-103015391D01*
X133529215Y-103014502D01*
X133564073Y-102880490D01*
X133564277Y-102879563D01*
X133590977Y-102732619D01*
X133591102Y-102731776D01*
X133609880Y-102565708D01*
X133609939Y-102565016D01*
X133621033Y-102373630D01*
X133621052Y-102373103D01*
X133624494Y-102162700D01*
X134599506Y-102162700D01*
X134602947Y-102373103D01*
G37*
%TD.AperFunction*%
%TD*%
D33*
%TO.N,GND1*%
X134996694Y-97974294D02*
X134921395Y-98128553D01*
X134921378Y-98128588D01*
X134851527Y-98272794D01*
X134851415Y-98273033D01*
X134790666Y-98405401D01*
X134790455Y-98405886D01*
X134738573Y-98532610D01*
X134738301Y-98533336D01*
X134695050Y-98660608D01*
X134694784Y-98661497D01*
X134659926Y-98795509D01*
X134659722Y-98796436D01*
X134633022Y-98943380D01*
X134632897Y-98944223D01*
X134614119Y-99110291D01*
X134614060Y-99110983D01*
X134602966Y-99302369D01*
X134602947Y-99302896D01*
X134599506Y-99513300D01*
X133624494Y-99513300D01*
X133621052Y-99302896D01*
X133621033Y-99302369D01*
X133609939Y-99110983D01*
X133609880Y-99110291D01*
X133591102Y-98944223D01*
X133590977Y-98943380D01*
X133564277Y-98796436D01*
X133564073Y-98795509D01*
X133529215Y-98661497D01*
X133528949Y-98660608D01*
X133485698Y-98533336D01*
X133485426Y-98532610D01*
X133433544Y-98405886D01*
X133433333Y-98405401D01*
X133372584Y-98273033D01*
X133372472Y-98272794D01*
X133302621Y-98128588D01*
X133302604Y-98128553D01*
X133227306Y-97974294D01*
X134112000Y-97054322D01*
X134996694Y-97974294D01*
%TA.AperFunction,Conductor*%
D34*
G36*
X134996694Y-97974294D02*
G01*
X134921395Y-98128553D01*
X134921378Y-98128588D01*
X134851527Y-98272794D01*
X134851415Y-98273033D01*
X134790666Y-98405401D01*
X134790455Y-98405886D01*
X134738573Y-98532610D01*
X134738301Y-98533336D01*
X134695050Y-98660608D01*
X134694784Y-98661497D01*
X134659926Y-98795509D01*
X134659722Y-98796436D01*
X134633022Y-98943380D01*
X134632897Y-98944223D01*
X134614119Y-99110291D01*
X134614060Y-99110983D01*
X134602966Y-99302369D01*
X134602947Y-99302896D01*
X134599506Y-99513300D01*
X133624494Y-99513300D01*
X133621052Y-99302896D01*
X133621033Y-99302369D01*
X133609939Y-99110983D01*
X133609880Y-99110291D01*
X133591102Y-98944223D01*
X133590977Y-98943380D01*
X133564277Y-98796436D01*
X133564073Y-98795509D01*
X133529215Y-98661497D01*
X133528949Y-98660608D01*
X133485698Y-98533336D01*
X133485426Y-98532610D01*
X133433544Y-98405886D01*
X133433333Y-98405401D01*
X133372584Y-98273033D01*
X133372472Y-98272794D01*
X133302621Y-98128588D01*
X133302604Y-98128553D01*
X133227306Y-97974294D01*
X134112000Y-97054322D01*
X134996694Y-97974294D01*
G37*
%TD.AperFunction*%
%TD*%
D33*
%TO.N,+5V*%
X135999947Y-87514103D02*
X135999966Y-87514630D01*
X136011060Y-87706016D01*
X136011119Y-87706708D01*
X136029897Y-87872776D01*
X136030022Y-87873619D01*
X136056722Y-88020563D01*
X136056926Y-88021490D01*
X136091784Y-88155502D01*
X136092050Y-88156391D01*
X136135301Y-88283663D01*
X136135573Y-88284389D01*
X136187455Y-88411113D01*
X136187666Y-88411598D01*
X136248415Y-88543966D01*
X136248527Y-88544205D01*
X136318378Y-88688411D01*
X136318395Y-88688446D01*
X136393694Y-88842706D01*
X135509000Y-89762678D01*
X134624306Y-88842706D01*
X134699604Y-88688446D01*
X134699621Y-88688411D01*
X134769472Y-88544205D01*
X134769584Y-88543966D01*
X134830333Y-88411598D01*
X134830544Y-88411113D01*
X134882426Y-88284389D01*
X134882698Y-88283663D01*
X134925949Y-88156391D01*
X134926215Y-88155502D01*
X134961073Y-88021490D01*
X134961277Y-88020563D01*
X134987977Y-87873619D01*
X134988102Y-87872776D01*
X135006880Y-87706708D01*
X135006939Y-87706016D01*
X135018033Y-87514630D01*
X135018052Y-87514103D01*
X135021494Y-87303700D01*
X135996506Y-87303700D01*
X135999947Y-87514103D01*
%TA.AperFunction,Conductor*%
D34*
G36*
X135999947Y-87514103D02*
G01*
X135999966Y-87514630D01*
X136011060Y-87706016D01*
X136011119Y-87706708D01*
X136029897Y-87872776D01*
X136030022Y-87873619D01*
X136056722Y-88020563D01*
X136056926Y-88021490D01*
X136091784Y-88155502D01*
X136092050Y-88156391D01*
X136135301Y-88283663D01*
X136135573Y-88284389D01*
X136187455Y-88411113D01*
X136187666Y-88411598D01*
X136248415Y-88543966D01*
X136248527Y-88544205D01*
X136318378Y-88688411D01*
X136318395Y-88688446D01*
X136393694Y-88842706D01*
X135509000Y-89762678D01*
X134624306Y-88842706D01*
X134699604Y-88688446D01*
X134699621Y-88688411D01*
X134769472Y-88544205D01*
X134769584Y-88543966D01*
X134830333Y-88411598D01*
X134830544Y-88411113D01*
X134882426Y-88284389D01*
X134882698Y-88283663D01*
X134925949Y-88156391D01*
X134926215Y-88155502D01*
X134961073Y-88021490D01*
X134961277Y-88020563D01*
X134987977Y-87873619D01*
X134988102Y-87872776D01*
X135006880Y-87706708D01*
X135006939Y-87706016D01*
X135018033Y-87514630D01*
X135018052Y-87514103D01*
X135021494Y-87303700D01*
X135996506Y-87303700D01*
X135999947Y-87514103D01*
G37*
%TD.AperFunction*%
%TD*%
D33*
%TO.N,+5V*%
X136034765Y-86469700D02*
X136018043Y-86610978D01*
X136018010Y-86611288D01*
X136005357Y-86746514D01*
X136005330Y-86746858D01*
X135997012Y-86872520D01*
X135996994Y-86872863D01*
X135992252Y-86994138D01*
X135992244Y-86994433D01*
X135990316Y-87116497D01*
X135990314Y-87116711D01*
X135990442Y-87244738D01*
X135990443Y-87244855D01*
X135991865Y-87384023D01*
X135991865Y-87384053D01*
X135993823Y-87539501D01*
X135995553Y-87716400D01*
X135996253Y-87907298D01*
X135021542Y-87907298D01*
X135019844Y-87771340D01*
X135019831Y-87770901D01*
X135013641Y-87639650D01*
X135013594Y-87639004D01*
X135002130Y-87522566D01*
X135002012Y-87521683D01*
X134984334Y-87417622D01*
X134984093Y-87416509D01*
X134959262Y-87322391D01*
X134958853Y-87321118D01*
X134925930Y-87234508D01*
X134925352Y-87233210D01*
X134883398Y-87151672D01*
X134882714Y-87150501D01*
X134830789Y-87071600D01*
X134830105Y-87070658D01*
X134767270Y-86991960D01*
X134766678Y-86991271D01*
X134697815Y-86916647D01*
X135134017Y-85998004D01*
X136034765Y-86469700D01*
%TA.AperFunction,Conductor*%
D34*
G36*
X136034765Y-86469700D02*
G01*
X136018043Y-86610978D01*
X136018010Y-86611288D01*
X136005357Y-86746514D01*
X136005330Y-86746858D01*
X135997012Y-86872520D01*
X135996994Y-86872863D01*
X135992252Y-86994138D01*
X135992244Y-86994433D01*
X135990316Y-87116497D01*
X135990314Y-87116711D01*
X135990442Y-87244738D01*
X135990443Y-87244855D01*
X135991865Y-87384023D01*
X135991865Y-87384053D01*
X135993823Y-87539501D01*
X135995553Y-87716400D01*
X135996253Y-87907298D01*
X135021542Y-87907298D01*
X135019844Y-87771340D01*
X135019831Y-87770901D01*
X135013641Y-87639650D01*
X135013594Y-87639004D01*
X135002130Y-87522566D01*
X135002012Y-87521683D01*
X134984334Y-87417622D01*
X134984093Y-87416509D01*
X134959262Y-87322391D01*
X134958853Y-87321118D01*
X134925930Y-87234508D01*
X134925352Y-87233210D01*
X134883398Y-87151672D01*
X134882714Y-87150501D01*
X134830789Y-87071600D01*
X134830105Y-87070658D01*
X134767270Y-86991960D01*
X134766678Y-86991271D01*
X134697815Y-86916647D01*
X135134017Y-85998004D01*
X136034765Y-86469700D01*
G37*
%TD.AperFunction*%
%TD*%
D33*
%TO.N,+5V*%
X134840323Y-85129376D02*
X134840607Y-85129645D01*
X134939830Y-85220584D01*
X134940191Y-85220902D01*
X135030365Y-85297470D01*
X135030799Y-85297822D01*
X135114583Y-85362843D01*
X135115063Y-85363198D01*
X135195117Y-85419497D01*
X135195591Y-85419815D01*
X135274577Y-85470219D01*
X135274977Y-85470464D01*
X135355555Y-85517796D01*
X135355824Y-85517949D01*
X135440654Y-85565035D01*
X135440771Y-85565099D01*
X135532495Y-85614754D01*
X135626005Y-85665581D01*
X135476104Y-86671112D01*
X134477018Y-86481992D01*
X134461759Y-86399378D01*
X134461644Y-86398827D01*
X134442618Y-86316438D01*
X134442413Y-86315663D01*
X134419798Y-86239910D01*
X134419471Y-86238955D01*
X134391867Y-86167697D01*
X134391414Y-86166666D01*
X134357418Y-86097763D01*
X134356879Y-86096781D01*
X134315092Y-86028091D01*
X134314539Y-86027258D01*
X134263558Y-85956641D01*
X134263060Y-85955996D01*
X134201485Y-85881311D01*
X134201081Y-85880845D01*
X134127510Y-85799951D01*
X134127211Y-85799633D01*
X134048993Y-85719367D01*
X134738368Y-85029992D01*
X134840323Y-85129376D01*
%TA.AperFunction,Conductor*%
D34*
G36*
X134840323Y-85129376D02*
G01*
X134840607Y-85129645D01*
X134939830Y-85220584D01*
X134940191Y-85220902D01*
X135030365Y-85297470D01*
X135030799Y-85297822D01*
X135114583Y-85362843D01*
X135115063Y-85363198D01*
X135195117Y-85419497D01*
X135195591Y-85419815D01*
X135274577Y-85470219D01*
X135274977Y-85470464D01*
X135355555Y-85517796D01*
X135355824Y-85517949D01*
X135440654Y-85565035D01*
X135440771Y-85565099D01*
X135532495Y-85614754D01*
X135626005Y-85665581D01*
X135476104Y-86671112D01*
X134477018Y-86481992D01*
X134461759Y-86399378D01*
X134461644Y-86398827D01*
X134442618Y-86316438D01*
X134442413Y-86315663D01*
X134419798Y-86239910D01*
X134419471Y-86238955D01*
X134391867Y-86167697D01*
X134391414Y-86166666D01*
X134357418Y-86097763D01*
X134356879Y-86096781D01*
X134315092Y-86028091D01*
X134314539Y-86027258D01*
X134263558Y-85956641D01*
X134263060Y-85955996D01*
X134201485Y-85881311D01*
X134201081Y-85880845D01*
X134127510Y-85799951D01*
X134127211Y-85799633D01*
X134048993Y-85719367D01*
X134738368Y-85029992D01*
X134840323Y-85129376D01*
G37*
%TD.AperFunction*%
%TD*%
D33*
%TO.N,+5V*%
X119217880Y-85560555D02*
X119071536Y-85711766D01*
X119071177Y-85712152D01*
X118943691Y-85855326D01*
X118943244Y-85855858D01*
X118839094Y-85986565D01*
X118838585Y-85987249D01*
X118753560Y-86110034D01*
X118753049Y-86110834D01*
X118682936Y-86230242D01*
X118682496Y-86231059D01*
X118623085Y-86351637D01*
X118622764Y-86352342D01*
X118569843Y-86478635D01*
X118569649Y-86479127D01*
X118519006Y-86615681D01*
X118518916Y-86615930D01*
X118466339Y-86767291D01*
X118466327Y-86767327D01*
X118410494Y-86929648D01*
X117134403Y-86954595D01*
X117159350Y-85678504D01*
X117321670Y-85622670D01*
X117321706Y-85622658D01*
X117473067Y-85570081D01*
X117473316Y-85569991D01*
X117609870Y-85519348D01*
X117610362Y-85519154D01*
X117736655Y-85466233D01*
X117737360Y-85465912D01*
X117857938Y-85406501D01*
X117858755Y-85406061D01*
X117978163Y-85335948D01*
X117978963Y-85335437D01*
X118101748Y-85250412D01*
X118102432Y-85249903D01*
X118233139Y-85145753D01*
X118233671Y-85145306D01*
X118376845Y-85017820D01*
X118377231Y-85017461D01*
X118528442Y-84871117D01*
X119217880Y-85560555D01*
%TA.AperFunction,Conductor*%
D34*
G36*
X119217880Y-85560555D02*
G01*
X119071536Y-85711766D01*
X119071177Y-85712152D01*
X118943691Y-85855326D01*
X118943244Y-85855858D01*
X118839094Y-85986565D01*
X118838585Y-85987249D01*
X118753560Y-86110034D01*
X118753049Y-86110834D01*
X118682936Y-86230242D01*
X118682496Y-86231059D01*
X118623085Y-86351637D01*
X118622764Y-86352342D01*
X118569843Y-86478635D01*
X118569649Y-86479127D01*
X118519006Y-86615681D01*
X118518916Y-86615930D01*
X118466339Y-86767291D01*
X118466327Y-86767327D01*
X118410494Y-86929648D01*
X117134403Y-86954595D01*
X117159350Y-85678504D01*
X117321670Y-85622670D01*
X117321706Y-85622658D01*
X117473067Y-85570081D01*
X117473316Y-85569991D01*
X117609870Y-85519348D01*
X117610362Y-85519154D01*
X117736655Y-85466233D01*
X117737360Y-85465912D01*
X117857938Y-85406501D01*
X117858755Y-85406061D01*
X117978163Y-85335948D01*
X117978963Y-85335437D01*
X118101748Y-85250412D01*
X118102432Y-85249903D01*
X118233139Y-85145753D01*
X118233671Y-85145306D01*
X118376845Y-85017820D01*
X118377231Y-85017461D01*
X118528442Y-84871117D01*
X119217880Y-85560555D01*
G37*
%TD.AperFunction*%
%TD*%
D33*
%TO.N,LIN*%
X130983494Y-88997350D02*
X131039327Y-89159670D01*
X131039339Y-89159706D01*
X131091916Y-89311067D01*
X131092006Y-89311316D01*
X131142649Y-89447870D01*
X131142843Y-89448362D01*
X131195764Y-89574655D01*
X131196085Y-89575360D01*
X131255496Y-89695938D01*
X131255936Y-89696755D01*
X131326049Y-89816163D01*
X131326560Y-89816963D01*
X131411585Y-89939748D01*
X131412094Y-89940432D01*
X131516244Y-90071139D01*
X131516691Y-90071671D01*
X131644177Y-90214845D01*
X131644536Y-90215231D01*
X131790880Y-90366443D01*
X131101443Y-91055880D01*
X130950231Y-90909536D01*
X130949845Y-90909177D01*
X130806671Y-90781691D01*
X130806139Y-90781244D01*
X130675432Y-90677094D01*
X130674748Y-90676585D01*
X130551963Y-90591560D01*
X130551163Y-90591049D01*
X130431755Y-90520936D01*
X130430938Y-90520496D01*
X130310360Y-90461085D01*
X130309655Y-90460764D01*
X130183362Y-90407843D01*
X130182870Y-90407649D01*
X130046316Y-90357006D01*
X130046067Y-90356916D01*
X129894706Y-90304339D01*
X129894670Y-90304327D01*
X129732350Y-90248494D01*
X129707403Y-88972403D01*
X130983494Y-88997350D01*
%TA.AperFunction,Conductor*%
D34*
G36*
X130983494Y-88997350D02*
G01*
X131039327Y-89159670D01*
X131039339Y-89159706D01*
X131091916Y-89311067D01*
X131092006Y-89311316D01*
X131142649Y-89447870D01*
X131142843Y-89448362D01*
X131195764Y-89574655D01*
X131196085Y-89575360D01*
X131255496Y-89695938D01*
X131255936Y-89696755D01*
X131326049Y-89816163D01*
X131326560Y-89816963D01*
X131411585Y-89939748D01*
X131412094Y-89940432D01*
X131516244Y-90071139D01*
X131516691Y-90071671D01*
X131644177Y-90214845D01*
X131644536Y-90215231D01*
X131790880Y-90366443D01*
X131101443Y-91055880D01*
X130950231Y-90909536D01*
X130949845Y-90909177D01*
X130806671Y-90781691D01*
X130806139Y-90781244D01*
X130675432Y-90677094D01*
X130674748Y-90676585D01*
X130551963Y-90591560D01*
X130551163Y-90591049D01*
X130431755Y-90520936D01*
X130430938Y-90520496D01*
X130310360Y-90461085D01*
X130309655Y-90460764D01*
X130183362Y-90407843D01*
X130182870Y-90407649D01*
X130046316Y-90357006D01*
X130046067Y-90356916D01*
X129894706Y-90304339D01*
X129894670Y-90304327D01*
X129732350Y-90248494D01*
X129707403Y-88972403D01*
X130983494Y-88997350D01*
G37*
%TD.AperFunction*%
%TD*%
D33*
%TO.N,LIN*%
X160501678Y-88900000D02*
X159581706Y-89784694D01*
X159427446Y-89709395D01*
X159427411Y-89709378D01*
X159283205Y-89639527D01*
X159282966Y-89639415D01*
X159150598Y-89578666D01*
X159150113Y-89578455D01*
X159023389Y-89526573D01*
X159022663Y-89526301D01*
X158895391Y-89483050D01*
X158894502Y-89482784D01*
X158760490Y-89447926D01*
X158759563Y-89447722D01*
X158612619Y-89421022D01*
X158611776Y-89420897D01*
X158445708Y-89402119D01*
X158445016Y-89402060D01*
X158253630Y-89390966D01*
X158253103Y-89390947D01*
X158042700Y-89387506D01*
X158042700Y-88412494D01*
X158253103Y-88409052D01*
X158253630Y-88409033D01*
X158445016Y-88397939D01*
X158445708Y-88397880D01*
X158611776Y-88379102D01*
X158612619Y-88378977D01*
X158759563Y-88352277D01*
X158760490Y-88352073D01*
X158894502Y-88317215D01*
X158895391Y-88316949D01*
X159022663Y-88273698D01*
X159023389Y-88273426D01*
X159150113Y-88221544D01*
X159150598Y-88221333D01*
X159282966Y-88160584D01*
X159283205Y-88160472D01*
X159427411Y-88090621D01*
X159427446Y-88090604D01*
X159581706Y-88015306D01*
X160501678Y-88900000D01*
%TA.AperFunction,Conductor*%
D34*
G36*
X160501678Y-88900000D02*
G01*
X159581706Y-89784694D01*
X159427446Y-89709395D01*
X159427411Y-89709378D01*
X159283205Y-89639527D01*
X159282966Y-89639415D01*
X159150598Y-89578666D01*
X159150113Y-89578455D01*
X159023389Y-89526573D01*
X159022663Y-89526301D01*
X158895391Y-89483050D01*
X158894502Y-89482784D01*
X158760490Y-89447926D01*
X158759563Y-89447722D01*
X158612619Y-89421022D01*
X158611776Y-89420897D01*
X158445708Y-89402119D01*
X158445016Y-89402060D01*
X158253630Y-89390966D01*
X158253103Y-89390947D01*
X158042700Y-89387506D01*
X158042700Y-88412494D01*
X158253103Y-88409052D01*
X158253630Y-88409033D01*
X158445016Y-88397939D01*
X158445708Y-88397880D01*
X158611776Y-88379102D01*
X158612619Y-88378977D01*
X158759563Y-88352277D01*
X158760490Y-88352073D01*
X158894502Y-88317215D01*
X158895391Y-88316949D01*
X159022663Y-88273698D01*
X159023389Y-88273426D01*
X159150113Y-88221544D01*
X159150598Y-88221333D01*
X159282966Y-88160584D01*
X159283205Y-88160472D01*
X159427411Y-88090621D01*
X159427446Y-88090604D01*
X159581706Y-88015306D01*
X160501678Y-88900000D01*
G37*
%TD.AperFunction*%
%TD*%
D33*
%TO.N,Vout-*%
X192974650Y-104440494D02*
X192812329Y-104496327D01*
X192812293Y-104496339D01*
X192660932Y-104548916D01*
X192660683Y-104549006D01*
X192524129Y-104599649D01*
X192523637Y-104599843D01*
X192397344Y-104652764D01*
X192396639Y-104653085D01*
X192276061Y-104712496D01*
X192275244Y-104712936D01*
X192155836Y-104783049D01*
X192155036Y-104783560D01*
X192032251Y-104868585D01*
X192031567Y-104869094D01*
X191900860Y-104973244D01*
X191900328Y-104973691D01*
X191757154Y-105101177D01*
X191756768Y-105101536D01*
X191605557Y-105247880D01*
X190916119Y-104558442D01*
X191062463Y-104407231D01*
X191062822Y-104406845D01*
X191190308Y-104263671D01*
X191190755Y-104263139D01*
X191294905Y-104132432D01*
X191295414Y-104131748D01*
X191380439Y-104008963D01*
X191380950Y-104008163D01*
X191451063Y-103888755D01*
X191451503Y-103887938D01*
X191510914Y-103767360D01*
X191511235Y-103766655D01*
X191564156Y-103640362D01*
X191564350Y-103639870D01*
X191614993Y-103503316D01*
X191615083Y-103503067D01*
X191667660Y-103351706D01*
X191667672Y-103351670D01*
X191723506Y-103189350D01*
X192999597Y-103164403D01*
X192974650Y-104440494D01*
%TA.AperFunction,Conductor*%
D34*
G36*
X192974650Y-104440494D02*
G01*
X192812329Y-104496327D01*
X192812293Y-104496339D01*
X192660932Y-104548916D01*
X192660683Y-104549006D01*
X192524129Y-104599649D01*
X192523637Y-104599843D01*
X192397344Y-104652764D01*
X192396639Y-104653085D01*
X192276061Y-104712496D01*
X192275244Y-104712936D01*
X192155836Y-104783049D01*
X192155036Y-104783560D01*
X192032251Y-104868585D01*
X192031567Y-104869094D01*
X191900860Y-104973244D01*
X191900328Y-104973691D01*
X191757154Y-105101177D01*
X191756768Y-105101536D01*
X191605557Y-105247880D01*
X190916119Y-104558442D01*
X191062463Y-104407231D01*
X191062822Y-104406845D01*
X191190308Y-104263671D01*
X191190755Y-104263139D01*
X191294905Y-104132432D01*
X191295414Y-104131748D01*
X191380439Y-104008963D01*
X191380950Y-104008163D01*
X191451063Y-103888755D01*
X191451503Y-103887938D01*
X191510914Y-103767360D01*
X191511235Y-103766655D01*
X191564156Y-103640362D01*
X191564350Y-103639870D01*
X191614993Y-103503316D01*
X191615083Y-103503067D01*
X191667660Y-103351706D01*
X191667672Y-103351670D01*
X191723506Y-103189350D01*
X192999597Y-103164403D01*
X192974650Y-104440494D01*
G37*
%TD.AperFunction*%
%TD*%
D33*
%TO.N,Vout-*%
X170988494Y-103189350D02*
X171044327Y-103351670D01*
X171044339Y-103351706D01*
X171096916Y-103503067D01*
X171097006Y-103503316D01*
X171147649Y-103639870D01*
X171147843Y-103640362D01*
X171200764Y-103766655D01*
X171201085Y-103767360D01*
X171260496Y-103887938D01*
X171260936Y-103888755D01*
X171331049Y-104008163D01*
X171331560Y-104008963D01*
X171416585Y-104131748D01*
X171417094Y-104132432D01*
X171521244Y-104263139D01*
X171521691Y-104263671D01*
X171649177Y-104406845D01*
X171649536Y-104407231D01*
X171795880Y-104558443D01*
X171106443Y-105247880D01*
X170955231Y-105101536D01*
X170954845Y-105101177D01*
X170811671Y-104973691D01*
X170811139Y-104973244D01*
X170680432Y-104869094D01*
X170679748Y-104868585D01*
X170556963Y-104783560D01*
X170556163Y-104783049D01*
X170436755Y-104712936D01*
X170435938Y-104712496D01*
X170315360Y-104653085D01*
X170314655Y-104652764D01*
X170188362Y-104599843D01*
X170187870Y-104599649D01*
X170051316Y-104549006D01*
X170051067Y-104548916D01*
X169899706Y-104496339D01*
X169899670Y-104496327D01*
X169737350Y-104440494D01*
X169712403Y-103164403D01*
X170988494Y-103189350D01*
%TA.AperFunction,Conductor*%
D34*
G36*
X170988494Y-103189350D02*
G01*
X171044327Y-103351670D01*
X171044339Y-103351706D01*
X171096916Y-103503067D01*
X171097006Y-103503316D01*
X171147649Y-103639870D01*
X171147843Y-103640362D01*
X171200764Y-103766655D01*
X171201085Y-103767360D01*
X171260496Y-103887938D01*
X171260936Y-103888755D01*
X171331049Y-104008163D01*
X171331560Y-104008963D01*
X171416585Y-104131748D01*
X171417094Y-104132432D01*
X171521244Y-104263139D01*
X171521691Y-104263671D01*
X171649177Y-104406845D01*
X171649536Y-104407231D01*
X171795880Y-104558443D01*
X171106443Y-105247880D01*
X170955231Y-105101536D01*
X170954845Y-105101177D01*
X170811671Y-104973691D01*
X170811139Y-104973244D01*
X170680432Y-104869094D01*
X170679748Y-104868585D01*
X170556963Y-104783560D01*
X170556163Y-104783049D01*
X170436755Y-104712936D01*
X170435938Y-104712496D01*
X170315360Y-104653085D01*
X170314655Y-104652764D01*
X170188362Y-104599843D01*
X170187870Y-104599649D01*
X170051316Y-104549006D01*
X170051067Y-104548916D01*
X169899706Y-104496339D01*
X169899670Y-104496327D01*
X169737350Y-104440494D01*
X169712403Y-103164403D01*
X170988494Y-103189350D01*
G37*
%TD.AperFunction*%
%TD*%
D35*
%TO.N,GND1*%
X103669575Y-60104362D02*
X103576542Y-60411052D01*
X103545128Y-60730000D01*
X103545128Y-63730000D01*
X103576542Y-64048948D01*
X103669575Y-64355638D01*
X103820654Y-64638286D01*
X104023971Y-64886029D01*
X104271714Y-65089346D01*
X104554362Y-65240425D01*
X104861052Y-65333458D01*
X105180000Y-65364872D01*
X105781984Y-65364872D01*
X105523962Y-65502786D01*
X105367952Y-65818347D01*
X106680000Y-67130395D01*
X107992048Y-65818347D01*
X107836038Y-65502786D01*
X107565146Y-65364872D01*
X108180000Y-65364872D01*
X108498948Y-65333458D01*
X108805638Y-65240425D01*
X109088286Y-65089346D01*
X109336029Y-64886029D01*
X109539346Y-64638286D01*
X109550381Y-64617641D01*
X109550381Y-64749500D01*
X119049619Y-64749500D01*
X119049619Y-60072000D01*
X126873000Y-60072000D01*
X126873000Y-72390000D01*
X126875440Y-72414776D01*
X126882667Y-72438601D01*
X126894403Y-72460557D01*
X126910197Y-72479803D01*
X126929443Y-72495597D01*
X126943204Y-72503592D01*
X129483204Y-73773592D01*
X129506456Y-73782490D01*
X129540000Y-73787000D01*
X138303000Y-73787000D01*
X138303000Y-74248523D01*
X137984606Y-74116640D01*
X137438435Y-74008000D01*
X136881565Y-74008000D01*
X136335394Y-74116640D01*
X135820913Y-74329745D01*
X135357892Y-74639125D01*
X134964125Y-75032892D01*
X134654745Y-75495913D01*
X134441640Y-76010394D01*
X134333000Y-76556565D01*
X134333000Y-77113435D01*
X134441640Y-77659606D01*
X134654745Y-78174087D01*
X134964125Y-78637108D01*
X135357892Y-79030875D01*
X135820913Y-79340255D01*
X136035451Y-79429120D01*
X135868281Y-79498364D01*
X135421639Y-79796801D01*
X135041801Y-80176639D01*
X134743364Y-80623281D01*
X134537797Y-81119563D01*
X134433000Y-81646414D01*
X134433000Y-82183586D01*
X134526728Y-82654791D01*
X134396907Y-82585400D01*
X133995966Y-82463775D01*
X133683488Y-82432999D01*
X133683486Y-82432999D01*
X133579001Y-82422708D01*
X133474516Y-82432999D01*
X127194872Y-82432999D01*
X127194872Y-80815000D01*
X127163458Y-80496052D01*
X127070425Y-80189362D01*
X126919346Y-79906714D01*
X126716029Y-79658971D01*
X126468286Y-79455654D01*
X126185638Y-79304575D01*
X125956508Y-79235070D01*
X126262108Y-79030875D01*
X126655875Y-78637108D01*
X126965255Y-78174087D01*
X127178360Y-77659606D01*
X127287000Y-77113435D01*
X127287000Y-76556565D01*
X127178360Y-76010394D01*
X126965255Y-75495913D01*
X126655875Y-75032892D01*
X126262108Y-74639125D01*
X125799087Y-74329745D01*
X125284606Y-74116640D01*
X124738435Y-74008000D01*
X124181565Y-74008000D01*
X123635394Y-74116640D01*
X123120913Y-74329745D01*
X122657892Y-74639125D01*
X122264125Y-75032892D01*
X121954745Y-75495913D01*
X121741640Y-76010394D01*
X121633000Y-76556565D01*
X121633000Y-77113435D01*
X121741640Y-77659606D01*
X121954745Y-78174087D01*
X122264125Y-78637108D01*
X122657892Y-79030875D01*
X122963492Y-79235070D01*
X122734362Y-79304575D01*
X122451714Y-79455654D01*
X122203971Y-79658971D01*
X122000654Y-79906714D01*
X121849575Y-80189362D01*
X121756542Y-80496052D01*
X121725128Y-80815000D01*
X121725128Y-82432999D01*
X119633476Y-82432999D01*
X119528998Y-82422709D01*
X119424521Y-82432999D01*
X119424512Y-82432999D01*
X119112034Y-82463775D01*
X118711093Y-82585400D01*
X118341584Y-82782906D01*
X118017706Y-83048706D01*
X117951098Y-83129868D01*
X117387571Y-83693395D01*
X117261188Y-83815710D01*
X117176508Y-83891111D01*
X117123343Y-83933474D01*
X117095479Y-83952769D01*
X117079828Y-83961959D01*
X117057171Y-83973122D01*
X117007938Y-83993752D01*
X116919034Y-84026724D01*
X116788375Y-84072110D01*
X116708732Y-84087952D01*
X116230649Y-84285981D01*
X115852517Y-84538641D01*
X115789255Y-84385913D01*
X115479875Y-83922892D01*
X115086108Y-83529125D01*
X114623087Y-83219745D01*
X114108606Y-83006640D01*
X113562435Y-82898000D01*
X113005565Y-82898000D01*
X112459394Y-83006640D01*
X111944913Y-83219745D01*
X111481892Y-83529125D01*
X111088125Y-83922892D01*
X110778745Y-84385913D01*
X110565640Y-84900394D01*
X110457000Y-85446565D01*
X110457000Y-86003435D01*
X110565640Y-86549606D01*
X110778745Y-87064087D01*
X111088125Y-87527108D01*
X111481892Y-87920875D01*
X111944913Y-88230255D01*
X112459394Y-88443360D01*
X113005565Y-88552000D01*
X113562435Y-88552000D01*
X114108606Y-88443360D01*
X114623087Y-88230255D01*
X115086108Y-87920875D01*
X115147644Y-87859339D01*
X115434476Y-88288613D01*
X115800385Y-88654522D01*
X116230649Y-88942015D01*
X116708732Y-89140044D01*
X116718133Y-89141914D01*
X116501743Y-89249361D01*
X116216954Y-89469125D01*
X115980511Y-89740226D01*
X115801500Y-90052246D01*
X115686801Y-90393194D01*
X115803146Y-90678000D01*
X117348000Y-90678000D01*
X117348000Y-90658000D01*
X117602000Y-90658000D01*
X117602000Y-90678000D01*
X119146854Y-90678000D01*
X119263199Y-90393194D01*
X119148500Y-90052246D01*
X118969489Y-89740226D01*
X118733046Y-89469125D01*
X118448257Y-89249361D01*
X118231867Y-89141914D01*
X118241268Y-89140044D01*
X118719351Y-88942015D01*
X119149615Y-88654522D01*
X119515524Y-88288613D01*
X119803017Y-87858349D01*
X120001046Y-87380266D01*
X120016890Y-87300615D01*
X120062273Y-87169963D01*
X120095245Y-87081059D01*
X120115875Y-87031826D01*
X120127038Y-87009169D01*
X120136228Y-86993518D01*
X120155523Y-86965654D01*
X120191855Y-86920058D01*
X120221268Y-87067930D01*
X120404221Y-87509615D01*
X120669826Y-87907122D01*
X121007878Y-88245174D01*
X121405385Y-88510779D01*
X121847070Y-88693732D01*
X122315961Y-88787000D01*
X122794039Y-88787000D01*
X123262930Y-88693732D01*
X123704615Y-88510779D01*
X124102122Y-88245174D01*
X124440174Y-87907122D01*
X124580861Y-87696569D01*
X124611913Y-87711246D01*
X124745961Y-87751904D01*
X124968000Y-87629915D01*
X124968000Y-86686999D01*
X125222000Y-86686999D01*
X125222000Y-87629915D01*
X125444039Y-87751904D01*
X125578087Y-87711246D01*
X125609139Y-87696569D01*
X125749826Y-87907122D01*
X126087878Y-88245174D01*
X126485385Y-88510779D01*
X126927070Y-88693732D01*
X127395961Y-88787000D01*
X127474162Y-88787000D01*
X127421000Y-89054263D01*
X127421000Y-89571737D01*
X127521954Y-90079268D01*
X127719983Y-90557351D01*
X128007476Y-90987615D01*
X128373385Y-91353524D01*
X128803649Y-91641017D01*
X129141699Y-91781042D01*
X129025385Y-91829221D01*
X128905000Y-91909659D01*
X128784615Y-91829221D01*
X128342930Y-91646268D01*
X127874039Y-91553000D01*
X127395961Y-91553000D01*
X126927070Y-91646268D01*
X126485385Y-91829221D01*
X126087878Y-92094826D01*
X125749826Y-92432878D01*
X125609139Y-92643431D01*
X125578087Y-92628754D01*
X125444039Y-92588096D01*
X125222000Y-92710085D01*
X125222000Y-93670578D01*
X125208000Y-93740961D01*
X125208000Y-94219039D01*
X125222000Y-94289422D01*
X125222000Y-95249915D01*
X125444039Y-95371904D01*
X125578087Y-95331246D01*
X125609139Y-95316569D01*
X125749826Y-95527122D01*
X126087878Y-95865174D01*
X126485385Y-96130779D01*
X126927070Y-96313732D01*
X127395961Y-96407000D01*
X127874039Y-96407000D01*
X128342930Y-96313732D01*
X128784615Y-96130779D01*
X128905000Y-96050341D01*
X129025385Y-96130779D01*
X129467070Y-96313732D01*
X129935961Y-96407000D01*
X130414039Y-96407000D01*
X130882930Y-96313732D01*
X131324615Y-96130779D01*
X131722122Y-95865174D01*
X132060174Y-95527122D01*
X132200861Y-95316569D01*
X132231913Y-95331246D01*
X132365961Y-95371904D01*
X132588000Y-95249915D01*
X132588000Y-94289422D01*
X132602000Y-94219039D01*
X132602000Y-93833000D01*
X132828000Y-93833000D01*
X132828000Y-94219039D01*
X132842000Y-94289422D01*
X132842000Y-95249915D01*
X133064039Y-95371904D01*
X133198087Y-95331246D01*
X133229139Y-95316569D01*
X133369826Y-95527122D01*
X133707878Y-95865174D01*
X134105385Y-96130779D01*
X134547070Y-96313732D01*
X135015961Y-96407000D01*
X135494039Y-96407000D01*
X135962930Y-96313732D01*
X136404615Y-96130779D01*
X136525000Y-96050341D01*
X136645385Y-96130779D01*
X137087070Y-96313732D01*
X137555961Y-96407000D01*
X138034039Y-96407000D01*
X138502930Y-96313732D01*
X138944615Y-96130779D01*
X139342122Y-95865174D01*
X139680174Y-95527122D01*
X139945779Y-95129615D01*
X140128732Y-94687930D01*
X140222000Y-94219039D01*
X140222000Y-93740961D01*
X140197560Y-93618093D01*
X142037098Y-95457632D01*
X142103706Y-95538794D01*
X142427584Y-95804594D01*
X142797093Y-96002100D01*
X143198034Y-96123725D01*
X143510512Y-96154501D01*
X143510513Y-96154501D01*
X143614998Y-96164792D01*
X143719483Y-96154501D01*
X147110516Y-96154501D01*
X147215001Y-96164792D01*
X147319486Y-96154501D01*
X147319488Y-96154501D01*
X147631966Y-96123725D01*
X148032907Y-96002100D01*
X148402416Y-95804594D01*
X148726294Y-95538794D01*
X148792906Y-95457627D01*
X149352508Y-94898025D01*
X149338000Y-94970961D01*
X149338000Y-95449039D01*
X149431268Y-95917930D01*
X149614221Y-96359615D01*
X149879826Y-96757122D01*
X150217878Y-97095174D01*
X150615385Y-97360779D01*
X151057070Y-97543732D01*
X151525961Y-97637000D01*
X152004039Y-97637000D01*
X152472930Y-97543732D01*
X152914615Y-97360779D01*
X153312122Y-97095174D01*
X153650174Y-96757122D01*
X153915779Y-96359615D01*
X154067263Y-95993902D01*
X154018000Y-96241565D01*
X154018000Y-96798435D01*
X154126640Y-97344606D01*
X154339745Y-97859087D01*
X154649125Y-98322108D01*
X154813000Y-98485983D01*
X154813000Y-100708000D01*
X154664520Y-100708000D01*
X154124145Y-100815488D01*
X153615124Y-101026331D01*
X153157017Y-101332429D01*
X152767429Y-101722017D01*
X152461331Y-102180124D01*
X152250488Y-102689145D01*
X152143000Y-103229520D01*
X152143000Y-103780480D01*
X152250488Y-104320855D01*
X152461331Y-104829876D01*
X152767429Y-105287983D01*
X153157017Y-105677571D01*
X153615124Y-105983669D01*
X154124145Y-106194512D01*
X154644411Y-106298000D01*
X141253424Y-106298000D01*
X141525638Y-106215425D01*
X141808286Y-106064346D01*
X142056029Y-105861029D01*
X142259346Y-105613286D01*
X142410425Y-105330638D01*
X142503458Y-105023948D01*
X142527191Y-104782980D01*
X143601626Y-104782980D01*
X143721514Y-105067836D01*
X144045210Y-105228699D01*
X144394069Y-105323322D01*
X144754684Y-105348067D01*
X145113198Y-105301985D01*
X145455833Y-105186846D01*
X145678486Y-105067836D01*
X145798374Y-104782980D01*
X144700000Y-103684605D01*
X143601626Y-104782980D01*
X142527191Y-104782980D01*
X142534872Y-104705000D01*
X142534872Y-103559684D01*
X142856933Y-103559684D01*
X142903015Y-103918198D01*
X143018154Y-104260833D01*
X143137164Y-104483486D01*
X143422020Y-104603374D01*
X144520395Y-103505000D01*
X144879605Y-103505000D01*
X145977980Y-104603374D01*
X146262836Y-104483486D01*
X146423699Y-104159790D01*
X146518322Y-103810931D01*
X146543067Y-103450316D01*
X146496985Y-103091802D01*
X146381846Y-102749167D01*
X146262836Y-102526514D01*
X145977980Y-102406626D01*
X144879605Y-103505000D01*
X144520395Y-103505000D01*
X143422020Y-102406626D01*
X143137164Y-102526514D01*
X142976301Y-102850210D01*
X142881678Y-103199069D01*
X142856933Y-103559684D01*
X142534872Y-103559684D01*
X142534872Y-102305000D01*
X142527192Y-102227020D01*
X143601626Y-102227020D01*
X144700000Y-103325395D01*
X145798374Y-102227020D01*
X145678486Y-101942164D01*
X145354790Y-101781301D01*
X145005931Y-101686678D01*
X144645316Y-101661933D01*
X144286802Y-101708015D01*
X143944167Y-101823154D01*
X143721514Y-101942164D01*
X143601626Y-102227020D01*
X142527192Y-102227020D01*
X142503458Y-101986052D01*
X142410425Y-101679362D01*
X142259346Y-101396714D01*
X142056029Y-101148971D01*
X141808286Y-100945654D01*
X141525638Y-100794575D01*
X141218948Y-100701542D01*
X140900000Y-100670128D01*
X138500000Y-100670128D01*
X138181052Y-100701542D01*
X137874362Y-100794575D01*
X137591714Y-100945654D01*
X137343971Y-101148971D01*
X137140654Y-101396714D01*
X136989575Y-101679362D01*
X136896542Y-101986052D01*
X136865128Y-102305000D01*
X136865128Y-104705000D01*
X136896542Y-105023948D01*
X136989575Y-105330638D01*
X137140654Y-105613286D01*
X137343971Y-105861029D01*
X137591714Y-106064346D01*
X137874362Y-106215425D01*
X138146576Y-106298000D01*
X125073547Y-106298000D01*
X125114346Y-106248286D01*
X125265425Y-105965638D01*
X125358458Y-105658948D01*
X125382191Y-105417980D01*
X128956626Y-105417980D01*
X129076514Y-105702836D01*
X129400210Y-105863699D01*
X129749069Y-105958322D01*
X130109684Y-105983067D01*
X130468198Y-105936985D01*
X130810833Y-105821846D01*
X131033486Y-105702836D01*
X131153374Y-105417980D01*
X130055000Y-104319605D01*
X128956626Y-105417980D01*
X125382191Y-105417980D01*
X125389872Y-105340000D01*
X125389872Y-104194684D01*
X128211933Y-104194684D01*
X128258015Y-104553198D01*
X128373154Y-104895833D01*
X128492164Y-105118486D01*
X128777020Y-105238374D01*
X129875395Y-104140000D01*
X130234605Y-104140000D01*
X131332980Y-105238374D01*
X131617836Y-105118486D01*
X131778699Y-104794790D01*
X131873322Y-104445931D01*
X131898067Y-104085316D01*
X131851985Y-103726802D01*
X131843526Y-103701629D01*
X133085024Y-103701629D01*
X133086980Y-103726448D01*
X133093740Y-103750409D01*
X133105044Y-103772591D01*
X133120459Y-103792141D01*
X134020459Y-104728030D01*
X134043520Y-104746956D01*
X134065702Y-104758260D01*
X134089663Y-104765020D01*
X134114482Y-104766976D01*
X134139206Y-104764052D01*
X134162885Y-104756360D01*
X134184608Y-104744197D01*
X134203541Y-104728030D01*
X135103541Y-103792141D01*
X135121728Y-103768055D01*
X135132094Y-103745420D01*
X135137845Y-103721197D01*
X135138761Y-103696317D01*
X135134804Y-103671737D01*
X135126129Y-103648401D01*
X135046990Y-103486273D01*
X134977838Y-103343511D01*
X134918729Y-103214717D01*
X134869325Y-103094045D01*
X134828817Y-102974843D01*
X134796322Y-102849919D01*
X134771234Y-102711845D01*
X134753325Y-102553457D01*
X134742585Y-102368184D01*
X134738983Y-102147923D01*
X134736560Y-102125224D01*
X134729333Y-102101399D01*
X134717597Y-102079443D01*
X134701803Y-102060197D01*
X134682557Y-102044403D01*
X134660601Y-102032667D01*
X134636776Y-102025440D01*
X134612000Y-102023000D01*
X133612000Y-102023000D01*
X133589264Y-102025052D01*
X133565325Y-102031888D01*
X133543179Y-102043263D01*
X133523678Y-102058741D01*
X133507571Y-102077725D01*
X133495478Y-102099487D01*
X133487862Y-102123190D01*
X133485017Y-102147923D01*
X133481414Y-102368184D01*
X133470674Y-102553457D01*
X133452765Y-102711845D01*
X133427677Y-102849919D01*
X133395182Y-102974843D01*
X133354674Y-103094045D01*
X133305270Y-103214717D01*
X133246161Y-103343511D01*
X133176946Y-103486403D01*
X133097871Y-103648402D01*
X133087948Y-103676905D01*
X133085024Y-103701629D01*
X131843526Y-103701629D01*
X131736846Y-103384167D01*
X131617836Y-103161514D01*
X131332980Y-103041626D01*
X130234605Y-104140000D01*
X129875395Y-104140000D01*
X128777020Y-103041626D01*
X128492164Y-103161514D01*
X128331301Y-103485210D01*
X128236678Y-103834069D01*
X128211933Y-104194684D01*
X125389872Y-104194684D01*
X125389872Y-102940000D01*
X125382192Y-102862020D01*
X128956626Y-102862020D01*
X130055000Y-103960395D01*
X131153374Y-102862020D01*
X131033486Y-102577164D01*
X130709790Y-102416301D01*
X130360931Y-102321678D01*
X130000316Y-102296933D01*
X129641802Y-102343015D01*
X129299167Y-102458154D01*
X129076514Y-102577164D01*
X128956626Y-102862020D01*
X125382192Y-102862020D01*
X125358458Y-102621052D01*
X125265425Y-102314362D01*
X125114346Y-102031714D01*
X124911029Y-101783971D01*
X124663286Y-101580654D01*
X124380638Y-101429575D01*
X124073948Y-101336542D01*
X123755000Y-101305128D01*
X121355000Y-101305128D01*
X121036052Y-101336542D01*
X120729362Y-101429575D01*
X120446714Y-101580654D01*
X120198971Y-101783971D01*
X119995654Y-102031714D01*
X119844575Y-102314362D01*
X119751542Y-102621052D01*
X119720128Y-102940000D01*
X119720128Y-105340000D01*
X119751542Y-105658948D01*
X119844575Y-105965638D01*
X119995654Y-106248286D01*
X120036453Y-106298000D01*
X115729405Y-106298000D01*
X115738072Y-106210000D01*
X115735000Y-105695750D01*
X115576250Y-105537000D01*
X114427000Y-105537000D01*
X114427000Y-105557000D01*
X114173000Y-105557000D01*
X114173000Y-105537000D01*
X113023750Y-105537000D01*
X112865000Y-105695750D01*
X112861928Y-106210000D01*
X112870595Y-106298000D01*
X108623675Y-106298000D01*
X108678020Y-106191255D01*
X108792044Y-105786449D01*
X108824902Y-105367176D01*
X108775334Y-104949549D01*
X108645243Y-104549617D01*
X108487214Y-104253962D01*
X108171653Y-104097952D01*
X106859605Y-105410000D01*
X106873748Y-105424143D01*
X106694143Y-105603748D01*
X106680000Y-105589605D01*
X106665858Y-105603748D01*
X106486253Y-105424143D01*
X106500395Y-105410000D01*
X105188347Y-104097952D01*
X104872786Y-104253962D01*
X104681980Y-104628745D01*
X104567956Y-105033551D01*
X104535098Y-105452824D01*
X104584666Y-105870451D01*
X104714757Y-106270383D01*
X104729518Y-106298000D01*
X103252000Y-106298000D01*
X103252000Y-98830000D01*
X103545128Y-98830000D01*
X103545128Y-101830000D01*
X103576542Y-102148948D01*
X103669575Y-102455638D01*
X103820654Y-102738286D01*
X104023971Y-102986029D01*
X104271714Y-103189346D01*
X104554362Y-103340425D01*
X104861052Y-103433458D01*
X105180000Y-103464872D01*
X105781984Y-103464872D01*
X105523962Y-103602786D01*
X105367952Y-103918347D01*
X106680000Y-105230395D01*
X107992048Y-103918347D01*
X107836038Y-103602786D01*
X107565146Y-103464872D01*
X108180000Y-103464872D01*
X108498948Y-103433458D01*
X108805638Y-103340425D01*
X109088286Y-103189346D01*
X109336029Y-102986029D01*
X109539346Y-102738286D01*
X109575332Y-102670961D01*
X111873000Y-102670961D01*
X111873000Y-103149039D01*
X111966268Y-103617930D01*
X112149221Y-104059615D01*
X112414826Y-104457122D01*
X112752878Y-104795174D01*
X112863476Y-104869073D01*
X112865000Y-105124250D01*
X113023750Y-105283000D01*
X113789484Y-105283000D01*
X114060961Y-105337000D01*
X114539039Y-105337000D01*
X114810516Y-105283000D01*
X115576250Y-105283000D01*
X115735000Y-105124250D01*
X115736524Y-104869073D01*
X115847122Y-104795174D01*
X116185174Y-104457122D01*
X116450779Y-104059615D01*
X116633732Y-103617930D01*
X116727000Y-103149039D01*
X116727000Y-102670961D01*
X116633732Y-102202070D01*
X116450779Y-101760385D01*
X116185174Y-101362878D01*
X115847122Y-101024826D01*
X115449615Y-100759221D01*
X115007930Y-100576268D01*
X114539039Y-100483000D01*
X114060961Y-100483000D01*
X113592070Y-100576268D01*
X113150385Y-100759221D01*
X112752878Y-101024826D01*
X112414826Y-101362878D01*
X112149221Y-101760385D01*
X111966268Y-102202070D01*
X111873000Y-102670961D01*
X109575332Y-102670961D01*
X109690425Y-102455638D01*
X109783458Y-102148948D01*
X109814872Y-101830000D01*
X109814872Y-98830000D01*
X109783458Y-98511052D01*
X109690425Y-98204362D01*
X109570331Y-97979682D01*
X133085239Y-97979682D01*
X133089195Y-98004262D01*
X133097871Y-98027598D01*
X133176894Y-98189488D01*
X133246161Y-98332488D01*
X133305270Y-98461282D01*
X133354674Y-98581954D01*
X133395182Y-98701156D01*
X133427677Y-98826080D01*
X133452765Y-98964154D01*
X133470674Y-99122542D01*
X133481414Y-99307815D01*
X133485017Y-99528077D01*
X133487440Y-99550776D01*
X133494667Y-99574601D01*
X133506403Y-99596557D01*
X133522197Y-99615803D01*
X133541443Y-99631597D01*
X133563399Y-99643333D01*
X133587224Y-99650560D01*
X133612000Y-99653000D01*
X134612000Y-99653000D01*
X134634737Y-99650948D01*
X134658676Y-99644112D01*
X134680821Y-99632736D01*
X134700322Y-99617259D01*
X134716429Y-99598275D01*
X134728522Y-99576513D01*
X134736138Y-99552810D01*
X134738983Y-99528077D01*
X134742585Y-99307815D01*
X134753325Y-99122542D01*
X134771234Y-98964154D01*
X134796322Y-98826080D01*
X134828817Y-98701156D01*
X134869325Y-98581954D01*
X134918729Y-98461282D01*
X134977838Y-98332488D01*
X135046937Y-98189834D01*
X135046938Y-98189833D01*
X135046990Y-98189726D01*
X135126129Y-98027599D01*
X135136052Y-97999095D01*
X135138976Y-97974371D01*
X135137020Y-97949552D01*
X135130260Y-97925591D01*
X135118956Y-97903409D01*
X135103541Y-97883859D01*
X134203541Y-96947970D01*
X134180480Y-96929044D01*
X134158298Y-96917740D01*
X134134337Y-96910980D01*
X134109518Y-96909024D01*
X134084794Y-96911948D01*
X134061115Y-96919640D01*
X134039392Y-96931803D01*
X134020459Y-96947970D01*
X133120459Y-97883859D01*
X133102273Y-97907945D01*
X133091906Y-97930580D01*
X133086155Y-97954803D01*
X133085239Y-97979682D01*
X109570331Y-97979682D01*
X109539346Y-97921714D01*
X109336029Y-97673971D01*
X109088286Y-97470654D01*
X108805638Y-97319575D01*
X108498948Y-97226542D01*
X108180000Y-97195128D01*
X105180000Y-97195128D01*
X104861052Y-97226542D01*
X104554362Y-97319575D01*
X104271714Y-97470654D01*
X104023971Y-97673971D01*
X103820654Y-97921714D01*
X103669575Y-98204362D01*
X103576542Y-98511052D01*
X103545128Y-98830000D01*
X103252000Y-98830000D01*
X103252000Y-94669980D01*
X105581626Y-94669980D01*
X105701514Y-94954836D01*
X106025210Y-95115699D01*
X106374069Y-95210322D01*
X106734684Y-95235067D01*
X107093198Y-95188985D01*
X107435833Y-95073846D01*
X107658486Y-94954836D01*
X107778374Y-94669980D01*
X106680000Y-93571605D01*
X105581626Y-94669980D01*
X103252000Y-94669980D01*
X103252000Y-93446684D01*
X104836933Y-93446684D01*
X104883015Y-93805198D01*
X104998154Y-94147833D01*
X105117164Y-94370486D01*
X105402020Y-94490374D01*
X106500395Y-93392000D01*
X106859605Y-93392000D01*
X107957980Y-94490374D01*
X108242836Y-94370486D01*
X108403699Y-94046790D01*
X108498322Y-93697931D01*
X108523067Y-93337316D01*
X108502847Y-93180000D01*
X120120128Y-93180000D01*
X120120128Y-94780000D01*
X120151542Y-95098948D01*
X120244575Y-95405638D01*
X120395654Y-95688286D01*
X120598971Y-95936029D01*
X120846714Y-96139346D01*
X121129362Y-96290425D01*
X121436052Y-96383458D01*
X121755000Y-96414872D01*
X123355000Y-96414872D01*
X123673948Y-96383458D01*
X123980638Y-96290425D01*
X124263286Y-96139346D01*
X124511029Y-95936029D01*
X124714346Y-95688286D01*
X124865425Y-95405638D01*
X124901596Y-95286398D01*
X124968000Y-95249915D01*
X124968000Y-95002068D01*
X124989872Y-94780000D01*
X124989872Y-93180000D01*
X124968000Y-92957932D01*
X124968000Y-92710085D01*
X124901596Y-92673602D01*
X124865425Y-92554362D01*
X124714346Y-92271714D01*
X124511029Y-92023971D01*
X124263286Y-91820654D01*
X123980638Y-91669575D01*
X123673948Y-91576542D01*
X123355000Y-91545128D01*
X121755000Y-91545128D01*
X121436052Y-91576542D01*
X121129362Y-91669575D01*
X120846714Y-91820654D01*
X120598971Y-92023971D01*
X120395654Y-92271714D01*
X120244575Y-92554362D01*
X120151542Y-92861052D01*
X120120128Y-93180000D01*
X108502847Y-93180000D01*
X108476985Y-92978802D01*
X108361846Y-92636167D01*
X108242836Y-92413514D01*
X107957980Y-92293626D01*
X106859605Y-93392000D01*
X106500395Y-93392000D01*
X105402020Y-92293626D01*
X105117164Y-92413514D01*
X104956301Y-92737210D01*
X104861678Y-93086069D01*
X104836933Y-93446684D01*
X103252000Y-93446684D01*
X103252000Y-92114020D01*
X105581626Y-92114020D01*
X106680000Y-93212395D01*
X107778374Y-92114020D01*
X107658486Y-91829164D01*
X107334790Y-91668301D01*
X106985931Y-91573678D01*
X106625316Y-91548933D01*
X106266802Y-91595015D01*
X105924167Y-91710154D01*
X105701514Y-91829164D01*
X105581626Y-92114020D01*
X103252000Y-92114020D01*
X103252000Y-87192000D01*
X103845128Y-87192000D01*
X103845128Y-89592000D01*
X103876542Y-89910948D01*
X103969575Y-90217638D01*
X104120654Y-90500286D01*
X104323971Y-90748029D01*
X104571714Y-90951346D01*
X104854362Y-91102425D01*
X105161052Y-91195458D01*
X105480000Y-91226872D01*
X107880000Y-91226872D01*
X107982200Y-91216806D01*
X115686801Y-91216806D01*
X115801500Y-91557754D01*
X115980511Y-91869774D01*
X116216954Y-92140875D01*
X116501743Y-92360639D01*
X116823934Y-92520621D01*
X117063195Y-92593195D01*
X117348000Y-92476432D01*
X117348000Y-90932000D01*
X117602000Y-90932000D01*
X117602000Y-92476432D01*
X117886805Y-92593195D01*
X118126066Y-92520621D01*
X118448257Y-92360639D01*
X118733046Y-92140875D01*
X118969489Y-91869774D01*
X119148500Y-91557754D01*
X119263199Y-91216806D01*
X119146854Y-90932000D01*
X117602000Y-90932000D01*
X117348000Y-90932000D01*
X115803146Y-90932000D01*
X115686801Y-91216806D01*
X107982200Y-91216806D01*
X108198948Y-91195458D01*
X108505638Y-91102425D01*
X108788286Y-90951346D01*
X109036029Y-90748029D01*
X109239346Y-90500286D01*
X109390425Y-90217638D01*
X109483458Y-89910948D01*
X109514872Y-89592000D01*
X109514872Y-87192000D01*
X109483458Y-86873052D01*
X109390425Y-86566362D01*
X109239346Y-86283714D01*
X109036029Y-86035971D01*
X108788286Y-85832654D01*
X108505638Y-85681575D01*
X108198948Y-85588542D01*
X107880000Y-85557128D01*
X105480000Y-85557128D01*
X105161052Y-85588542D01*
X104854362Y-85681575D01*
X104571714Y-85832654D01*
X104323971Y-86035971D01*
X104120654Y-86283714D01*
X103969575Y-86566362D01*
X103876542Y-86873052D01*
X103845128Y-87192000D01*
X103252000Y-87192000D01*
X103252000Y-76708000D01*
X105564519Y-76708000D01*
X105614323Y-77213670D01*
X105731299Y-77599286D01*
X105693575Y-77669862D01*
X105600542Y-77976552D01*
X105569128Y-78295500D01*
X105569128Y-80200500D01*
X105600542Y-80519448D01*
X105693575Y-80826138D01*
X105844654Y-81108786D01*
X106047971Y-81356529D01*
X106295714Y-81559846D01*
X106578362Y-81710925D01*
X106885052Y-81803958D01*
X107204000Y-81835372D01*
X109204000Y-81835372D01*
X109522948Y-81803958D01*
X109829638Y-81710925D01*
X110112286Y-81559846D01*
X110360029Y-81356529D01*
X110563346Y-81108786D01*
X110714425Y-80826138D01*
X110807458Y-80519448D01*
X110838872Y-80200500D01*
X110838872Y-78295500D01*
X110807458Y-77976552D01*
X110761961Y-77826565D01*
X114648000Y-77826565D01*
X114648000Y-78383435D01*
X114756640Y-78929606D01*
X114969745Y-79444087D01*
X115279125Y-79907108D01*
X115672892Y-80300875D01*
X116135913Y-80610255D01*
X116650394Y-80823360D01*
X117196565Y-80932000D01*
X117753435Y-80932000D01*
X118299606Y-80823360D01*
X118814087Y-80610255D01*
X119277108Y-80300875D01*
X119670875Y-79907108D01*
X119980255Y-79444087D01*
X120193360Y-78929606D01*
X120302000Y-78383435D01*
X120302000Y-77826565D01*
X120193360Y-77280394D01*
X119980255Y-76765913D01*
X119670875Y-76302892D01*
X119277108Y-75909125D01*
X118814087Y-75599745D01*
X118299606Y-75386640D01*
X117753435Y-75278000D01*
X117196565Y-75278000D01*
X116650394Y-75386640D01*
X116135913Y-75599745D01*
X115672892Y-75909125D01*
X115279125Y-76302892D01*
X114969745Y-76765913D01*
X114756640Y-77280394D01*
X114648000Y-77826565D01*
X110761961Y-77826565D01*
X110714425Y-77669862D01*
X110676701Y-77599286D01*
X110793677Y-77213670D01*
X110843481Y-76708000D01*
X110793677Y-76202330D01*
X110646178Y-75716092D01*
X110406653Y-75267973D01*
X110084307Y-74875193D01*
X109769794Y-74617079D01*
X109794563Y-74540980D01*
X109674594Y-74295000D01*
X109183009Y-74295000D01*
X108757170Y-74165823D01*
X108378222Y-74128500D01*
X108029778Y-74128500D01*
X107650830Y-74165823D01*
X107224991Y-74295000D01*
X106733406Y-74295000D01*
X106613437Y-74540980D01*
X106638206Y-74617079D01*
X106323693Y-74875193D01*
X106001347Y-75267973D01*
X105761822Y-75716092D01*
X105614323Y-76202330D01*
X105564519Y-76708000D01*
X103252000Y-76708000D01*
X103252000Y-73795020D01*
X106613437Y-73795020D01*
X106733406Y-74041000D01*
X108077000Y-74041000D01*
X108077000Y-72742430D01*
X108331000Y-72742430D01*
X108331000Y-74041000D01*
X109674594Y-74041000D01*
X109794563Y-73795020D01*
X109723571Y-73576906D01*
X109579969Y-73301077D01*
X109385315Y-73058563D01*
X109147089Y-72858684D01*
X108942704Y-72746565D01*
X110457000Y-72746565D01*
X110457000Y-73303435D01*
X110565640Y-73849606D01*
X110778745Y-74364087D01*
X111088125Y-74827108D01*
X111481892Y-75220875D01*
X111944913Y-75530255D01*
X112459394Y-75743360D01*
X113005565Y-75852000D01*
X113562435Y-75852000D01*
X114108606Y-75743360D01*
X114623087Y-75530255D01*
X115086108Y-75220875D01*
X115479875Y-74827108D01*
X115789255Y-74364087D01*
X116002360Y-73849606D01*
X116111000Y-73303435D01*
X116111000Y-72746565D01*
X116002360Y-72200394D01*
X115789255Y-71685913D01*
X115479875Y-71222892D01*
X115086108Y-70829125D01*
X114623087Y-70519745D01*
X114108606Y-70306640D01*
X113562435Y-70198000D01*
X113005565Y-70198000D01*
X112459394Y-70306640D01*
X111944913Y-70519745D01*
X111481892Y-70829125D01*
X111088125Y-71222892D01*
X110778745Y-71685913D01*
X110565640Y-72200394D01*
X110457000Y-72746565D01*
X108942704Y-72746565D01*
X108874446Y-72709121D01*
X108577863Y-72615622D01*
X108331000Y-72742430D01*
X108077000Y-72742430D01*
X107830137Y-72615622D01*
X107533554Y-72709121D01*
X107260911Y-72858684D01*
X107022685Y-73058563D01*
X106828031Y-73301077D01*
X106684429Y-73576906D01*
X106613437Y-73795020D01*
X103252000Y-73795020D01*
X103252000Y-68801653D01*
X105367952Y-68801653D01*
X105523962Y-69117214D01*
X105898745Y-69308020D01*
X106303551Y-69422044D01*
X106722824Y-69454902D01*
X107140451Y-69405334D01*
X107540383Y-69275243D01*
X107836038Y-69117214D01*
X107992048Y-68801653D01*
X107935395Y-68745000D01*
X110956928Y-68745000D01*
X110969188Y-68869482D01*
X111005498Y-68989180D01*
X111064463Y-69099494D01*
X111143815Y-69196185D01*
X111240506Y-69275537D01*
X111350820Y-69334502D01*
X111470518Y-69370812D01*
X111595000Y-69383072D01*
X112109250Y-69380000D01*
X112268000Y-69221250D01*
X112268000Y-68072000D01*
X111118750Y-68072000D01*
X110960000Y-68230750D01*
X110956928Y-68745000D01*
X107935395Y-68745000D01*
X106680000Y-67489605D01*
X105367952Y-68801653D01*
X103252000Y-68801653D01*
X103252000Y-67352824D01*
X104535098Y-67352824D01*
X104584666Y-67770451D01*
X104714757Y-68170383D01*
X104872786Y-68466038D01*
X105188347Y-68622048D01*
X106500395Y-67310000D01*
X106859605Y-67310000D01*
X108171653Y-68622048D01*
X108487214Y-68466038D01*
X108678020Y-68091255D01*
X108792044Y-67686449D01*
X108824902Y-67267176D01*
X108810401Y-67145000D01*
X110956928Y-67145000D01*
X110960000Y-67659250D01*
X111118750Y-67818000D01*
X112268000Y-67818000D01*
X112268000Y-67705961D01*
X112468000Y-67705961D01*
X112468000Y-68184039D01*
X112522000Y-68455516D01*
X112522000Y-69221250D01*
X112680750Y-69380000D01*
X112935927Y-69381524D01*
X113009826Y-69492122D01*
X113347878Y-69830174D01*
X113745385Y-70095779D01*
X114187070Y-70278732D01*
X114655961Y-70372000D01*
X115134039Y-70372000D01*
X115602930Y-70278732D01*
X116044615Y-70095779D01*
X116442122Y-69830174D01*
X116780174Y-69492122D01*
X117045779Y-69094615D01*
X117228732Y-68652930D01*
X117322000Y-68184039D01*
X117322000Y-67705961D01*
X117228732Y-67237070D01*
X117045779Y-66795385D01*
X116780174Y-66397878D01*
X116442122Y-66059826D01*
X116044615Y-65794221D01*
X115602930Y-65611268D01*
X115134039Y-65518000D01*
X114655961Y-65518000D01*
X114187070Y-65611268D01*
X113745385Y-65794221D01*
X113347878Y-66059826D01*
X113009826Y-66397878D01*
X112935927Y-66508476D01*
X112680750Y-66510000D01*
X112522000Y-66668750D01*
X112522000Y-67434484D01*
X112468000Y-67705961D01*
X112268000Y-67705961D01*
X112268000Y-66668750D01*
X112109250Y-66510000D01*
X111595000Y-66506928D01*
X111470518Y-66519188D01*
X111350820Y-66555498D01*
X111240506Y-66614463D01*
X111143815Y-66693815D01*
X111064463Y-66790506D01*
X111005498Y-66900820D01*
X110969188Y-67020518D01*
X110956928Y-67145000D01*
X108810401Y-67145000D01*
X108775334Y-66849549D01*
X108645243Y-66449617D01*
X108487214Y-66153962D01*
X108171653Y-65997952D01*
X106859605Y-67310000D01*
X106500395Y-67310000D01*
X105188347Y-65997952D01*
X104872786Y-66153962D01*
X104681980Y-66528745D01*
X104567956Y-66933551D01*
X104535098Y-67352824D01*
X103252000Y-67352824D01*
X103252000Y-60072000D01*
X103686873Y-60072000D01*
X103669575Y-60104362D01*
%TA.AperFunction,Conductor*%
D34*
G36*
X103669575Y-60104362D02*
G01*
X103576542Y-60411052D01*
X103545128Y-60730000D01*
X103545128Y-63730000D01*
X103576542Y-64048948D01*
X103669575Y-64355638D01*
X103820654Y-64638286D01*
X104023971Y-64886029D01*
X104271714Y-65089346D01*
X104554362Y-65240425D01*
X104861052Y-65333458D01*
X105180000Y-65364872D01*
X105781984Y-65364872D01*
X105523962Y-65502786D01*
X105367952Y-65818347D01*
X106680000Y-67130395D01*
X107992048Y-65818347D01*
X107836038Y-65502786D01*
X107565146Y-65364872D01*
X108180000Y-65364872D01*
X108498948Y-65333458D01*
X108805638Y-65240425D01*
X109088286Y-65089346D01*
X109336029Y-64886029D01*
X109539346Y-64638286D01*
X109550381Y-64617641D01*
X109550381Y-64749500D01*
X119049619Y-64749500D01*
X119049619Y-60072000D01*
X126873000Y-60072000D01*
X126873000Y-72390000D01*
X126875440Y-72414776D01*
X126882667Y-72438601D01*
X126894403Y-72460557D01*
X126910197Y-72479803D01*
X126929443Y-72495597D01*
X126943204Y-72503592D01*
X129483204Y-73773592D01*
X129506456Y-73782490D01*
X129540000Y-73787000D01*
X138303000Y-73787000D01*
X138303000Y-74248523D01*
X137984606Y-74116640D01*
X137438435Y-74008000D01*
X136881565Y-74008000D01*
X136335394Y-74116640D01*
X135820913Y-74329745D01*
X135357892Y-74639125D01*
X134964125Y-75032892D01*
X134654745Y-75495913D01*
X134441640Y-76010394D01*
X134333000Y-76556565D01*
X134333000Y-77113435D01*
X134441640Y-77659606D01*
X134654745Y-78174087D01*
X134964125Y-78637108D01*
X135357892Y-79030875D01*
X135820913Y-79340255D01*
X136035451Y-79429120D01*
X135868281Y-79498364D01*
X135421639Y-79796801D01*
X135041801Y-80176639D01*
X134743364Y-80623281D01*
X134537797Y-81119563D01*
X134433000Y-81646414D01*
X134433000Y-82183586D01*
X134526728Y-82654791D01*
X134396907Y-82585400D01*
X133995966Y-82463775D01*
X133683488Y-82432999D01*
X133683486Y-82432999D01*
X133579001Y-82422708D01*
X133474516Y-82432999D01*
X127194872Y-82432999D01*
X127194872Y-80815000D01*
X127163458Y-80496052D01*
X127070425Y-80189362D01*
X126919346Y-79906714D01*
X126716029Y-79658971D01*
X126468286Y-79455654D01*
X126185638Y-79304575D01*
X125956508Y-79235070D01*
X126262108Y-79030875D01*
X126655875Y-78637108D01*
X126965255Y-78174087D01*
X127178360Y-77659606D01*
X127287000Y-77113435D01*
X127287000Y-76556565D01*
X127178360Y-76010394D01*
X126965255Y-75495913D01*
X126655875Y-75032892D01*
X126262108Y-74639125D01*
X125799087Y-74329745D01*
X125284606Y-74116640D01*
X124738435Y-74008000D01*
X124181565Y-74008000D01*
X123635394Y-74116640D01*
X123120913Y-74329745D01*
X122657892Y-74639125D01*
X122264125Y-75032892D01*
X121954745Y-75495913D01*
X121741640Y-76010394D01*
X121633000Y-76556565D01*
X121633000Y-77113435D01*
X121741640Y-77659606D01*
X121954745Y-78174087D01*
X122264125Y-78637108D01*
X122657892Y-79030875D01*
X122963492Y-79235070D01*
X122734362Y-79304575D01*
X122451714Y-79455654D01*
X122203971Y-79658971D01*
X122000654Y-79906714D01*
X121849575Y-80189362D01*
X121756542Y-80496052D01*
X121725128Y-80815000D01*
X121725128Y-82432999D01*
X119633476Y-82432999D01*
X119528998Y-82422709D01*
X119424521Y-82432999D01*
X119424512Y-82432999D01*
X119112034Y-82463775D01*
X118711093Y-82585400D01*
X118341584Y-82782906D01*
X118017706Y-83048706D01*
X117951098Y-83129868D01*
X117387571Y-83693395D01*
X117261188Y-83815710D01*
X117176508Y-83891111D01*
X117123343Y-83933474D01*
X117095479Y-83952769D01*
X117079828Y-83961959D01*
X117057171Y-83973122D01*
X117007938Y-83993752D01*
X116919034Y-84026724D01*
X116788375Y-84072110D01*
X116708732Y-84087952D01*
X116230649Y-84285981D01*
X115852517Y-84538641D01*
X115789255Y-84385913D01*
X115479875Y-83922892D01*
X115086108Y-83529125D01*
X114623087Y-83219745D01*
X114108606Y-83006640D01*
X113562435Y-82898000D01*
X113005565Y-82898000D01*
X112459394Y-83006640D01*
X111944913Y-83219745D01*
X111481892Y-83529125D01*
X111088125Y-83922892D01*
X110778745Y-84385913D01*
X110565640Y-84900394D01*
X110457000Y-85446565D01*
X110457000Y-86003435D01*
X110565640Y-86549606D01*
X110778745Y-87064087D01*
X111088125Y-87527108D01*
X111481892Y-87920875D01*
X111944913Y-88230255D01*
X112459394Y-88443360D01*
X113005565Y-88552000D01*
X113562435Y-88552000D01*
X114108606Y-88443360D01*
X114623087Y-88230255D01*
X115086108Y-87920875D01*
X115147644Y-87859339D01*
X115434476Y-88288613D01*
X115800385Y-88654522D01*
X116230649Y-88942015D01*
X116708732Y-89140044D01*
X116718133Y-89141914D01*
X116501743Y-89249361D01*
X116216954Y-89469125D01*
X115980511Y-89740226D01*
X115801500Y-90052246D01*
X115686801Y-90393194D01*
X115803146Y-90678000D01*
X117348000Y-90678000D01*
X117348000Y-90658000D01*
X117602000Y-90658000D01*
X117602000Y-90678000D01*
X119146854Y-90678000D01*
X119263199Y-90393194D01*
X119148500Y-90052246D01*
X118969489Y-89740226D01*
X118733046Y-89469125D01*
X118448257Y-89249361D01*
X118231867Y-89141914D01*
X118241268Y-89140044D01*
X118719351Y-88942015D01*
X119149615Y-88654522D01*
X119515524Y-88288613D01*
X119803017Y-87858349D01*
X120001046Y-87380266D01*
X120016890Y-87300615D01*
X120062273Y-87169963D01*
X120095245Y-87081059D01*
X120115875Y-87031826D01*
X120127038Y-87009169D01*
X120136228Y-86993518D01*
X120155523Y-86965654D01*
X120191855Y-86920058D01*
X120221268Y-87067930D01*
X120404221Y-87509615D01*
X120669826Y-87907122D01*
X121007878Y-88245174D01*
X121405385Y-88510779D01*
X121847070Y-88693732D01*
X122315961Y-88787000D01*
X122794039Y-88787000D01*
X123262930Y-88693732D01*
X123704615Y-88510779D01*
X124102122Y-88245174D01*
X124440174Y-87907122D01*
X124580861Y-87696569D01*
X124611913Y-87711246D01*
X124745961Y-87751904D01*
X124968000Y-87629915D01*
X124968000Y-86686999D01*
X125222000Y-86686999D01*
X125222000Y-87629915D01*
X125444039Y-87751904D01*
X125578087Y-87711246D01*
X125609139Y-87696569D01*
X125749826Y-87907122D01*
X126087878Y-88245174D01*
X126485385Y-88510779D01*
X126927070Y-88693732D01*
X127395961Y-88787000D01*
X127474162Y-88787000D01*
X127421000Y-89054263D01*
X127421000Y-89571737D01*
X127521954Y-90079268D01*
X127719983Y-90557351D01*
X128007476Y-90987615D01*
X128373385Y-91353524D01*
X128803649Y-91641017D01*
X129141699Y-91781042D01*
X129025385Y-91829221D01*
X128905000Y-91909659D01*
X128784615Y-91829221D01*
X128342930Y-91646268D01*
X127874039Y-91553000D01*
X127395961Y-91553000D01*
X126927070Y-91646268D01*
X126485385Y-91829221D01*
X126087878Y-92094826D01*
X125749826Y-92432878D01*
X125609139Y-92643431D01*
X125578087Y-92628754D01*
X125444039Y-92588096D01*
X125222000Y-92710085D01*
X125222000Y-93670578D01*
X125208000Y-93740961D01*
X125208000Y-94219039D01*
X125222000Y-94289422D01*
X125222000Y-95249915D01*
X125444039Y-95371904D01*
X125578087Y-95331246D01*
X125609139Y-95316569D01*
X125749826Y-95527122D01*
X126087878Y-95865174D01*
X126485385Y-96130779D01*
X126927070Y-96313732D01*
X127395961Y-96407000D01*
X127874039Y-96407000D01*
X128342930Y-96313732D01*
X128784615Y-96130779D01*
X128905000Y-96050341D01*
X129025385Y-96130779D01*
X129467070Y-96313732D01*
X129935961Y-96407000D01*
X130414039Y-96407000D01*
X130882930Y-96313732D01*
X131324615Y-96130779D01*
X131722122Y-95865174D01*
X132060174Y-95527122D01*
X132200861Y-95316569D01*
X132231913Y-95331246D01*
X132365961Y-95371904D01*
X132588000Y-95249915D01*
X132588000Y-94289422D01*
X132602000Y-94219039D01*
X132602000Y-93833000D01*
X132828000Y-93833000D01*
X132828000Y-94219039D01*
X132842000Y-94289422D01*
X132842000Y-95249915D01*
X133064039Y-95371904D01*
X133198087Y-95331246D01*
X133229139Y-95316569D01*
X133369826Y-95527122D01*
X133707878Y-95865174D01*
X134105385Y-96130779D01*
X134547070Y-96313732D01*
X135015961Y-96407000D01*
X135494039Y-96407000D01*
X135962930Y-96313732D01*
X136404615Y-96130779D01*
X136525000Y-96050341D01*
X136645385Y-96130779D01*
X137087070Y-96313732D01*
X137555961Y-96407000D01*
X138034039Y-96407000D01*
X138502930Y-96313732D01*
X138944615Y-96130779D01*
X139342122Y-95865174D01*
X139680174Y-95527122D01*
X139945779Y-95129615D01*
X140128732Y-94687930D01*
X140222000Y-94219039D01*
X140222000Y-93740961D01*
X140197560Y-93618093D01*
X142037098Y-95457632D01*
X142103706Y-95538794D01*
X142427584Y-95804594D01*
X142797093Y-96002100D01*
X143198034Y-96123725D01*
X143510512Y-96154501D01*
X143510513Y-96154501D01*
X143614998Y-96164792D01*
X143719483Y-96154501D01*
X147110516Y-96154501D01*
X147215001Y-96164792D01*
X147319486Y-96154501D01*
X147319488Y-96154501D01*
X147631966Y-96123725D01*
X148032907Y-96002100D01*
X148402416Y-95804594D01*
X148726294Y-95538794D01*
X148792906Y-95457627D01*
X149352508Y-94898025D01*
X149338000Y-94970961D01*
X149338000Y-95449039D01*
X149431268Y-95917930D01*
X149614221Y-96359615D01*
X149879826Y-96757122D01*
X150217878Y-97095174D01*
X150615385Y-97360779D01*
X151057070Y-97543732D01*
X151525961Y-97637000D01*
X152004039Y-97637000D01*
X152472930Y-97543732D01*
X152914615Y-97360779D01*
X153312122Y-97095174D01*
X153650174Y-96757122D01*
X153915779Y-96359615D01*
X154067263Y-95993902D01*
X154018000Y-96241565D01*
X154018000Y-96798435D01*
X154126640Y-97344606D01*
X154339745Y-97859087D01*
X154649125Y-98322108D01*
X154813000Y-98485983D01*
X154813000Y-100708000D01*
X154664520Y-100708000D01*
X154124145Y-100815488D01*
X153615124Y-101026331D01*
X153157017Y-101332429D01*
X152767429Y-101722017D01*
X152461331Y-102180124D01*
X152250488Y-102689145D01*
X152143000Y-103229520D01*
X152143000Y-103780480D01*
X152250488Y-104320855D01*
X152461331Y-104829876D01*
X152767429Y-105287983D01*
X153157017Y-105677571D01*
X153615124Y-105983669D01*
X154124145Y-106194512D01*
X154644411Y-106298000D01*
X141253424Y-106298000D01*
X141525638Y-106215425D01*
X141808286Y-106064346D01*
X142056029Y-105861029D01*
X142259346Y-105613286D01*
X142410425Y-105330638D01*
X142503458Y-105023948D01*
X142527191Y-104782980D01*
X143601626Y-104782980D01*
X143721514Y-105067836D01*
X144045210Y-105228699D01*
X144394069Y-105323322D01*
X144754684Y-105348067D01*
X145113198Y-105301985D01*
X145455833Y-105186846D01*
X145678486Y-105067836D01*
X145798374Y-104782980D01*
X144700000Y-103684605D01*
X143601626Y-104782980D01*
X142527191Y-104782980D01*
X142534872Y-104705000D01*
X142534872Y-103559684D01*
X142856933Y-103559684D01*
X142903015Y-103918198D01*
X143018154Y-104260833D01*
X143137164Y-104483486D01*
X143422020Y-104603374D01*
X144520395Y-103505000D01*
X144879605Y-103505000D01*
X145977980Y-104603374D01*
X146262836Y-104483486D01*
X146423699Y-104159790D01*
X146518322Y-103810931D01*
X146543067Y-103450316D01*
X146496985Y-103091802D01*
X146381846Y-102749167D01*
X146262836Y-102526514D01*
X145977980Y-102406626D01*
X144879605Y-103505000D01*
X144520395Y-103505000D01*
X143422020Y-102406626D01*
X143137164Y-102526514D01*
X142976301Y-102850210D01*
X142881678Y-103199069D01*
X142856933Y-103559684D01*
X142534872Y-103559684D01*
X142534872Y-102305000D01*
X142527192Y-102227020D01*
X143601626Y-102227020D01*
X144700000Y-103325395D01*
X145798374Y-102227020D01*
X145678486Y-101942164D01*
X145354790Y-101781301D01*
X145005931Y-101686678D01*
X144645316Y-101661933D01*
X144286802Y-101708015D01*
X143944167Y-101823154D01*
X143721514Y-101942164D01*
X143601626Y-102227020D01*
X142527192Y-102227020D01*
X142503458Y-101986052D01*
X142410425Y-101679362D01*
X142259346Y-101396714D01*
X142056029Y-101148971D01*
X141808286Y-100945654D01*
X141525638Y-100794575D01*
X141218948Y-100701542D01*
X140900000Y-100670128D01*
X138500000Y-100670128D01*
X138181052Y-100701542D01*
X137874362Y-100794575D01*
X137591714Y-100945654D01*
X137343971Y-101148971D01*
X137140654Y-101396714D01*
X136989575Y-101679362D01*
X136896542Y-101986052D01*
X136865128Y-102305000D01*
X136865128Y-104705000D01*
X136896542Y-105023948D01*
X136989575Y-105330638D01*
X137140654Y-105613286D01*
X137343971Y-105861029D01*
X137591714Y-106064346D01*
X137874362Y-106215425D01*
X138146576Y-106298000D01*
X125073547Y-106298000D01*
X125114346Y-106248286D01*
X125265425Y-105965638D01*
X125358458Y-105658948D01*
X125382191Y-105417980D01*
X128956626Y-105417980D01*
X129076514Y-105702836D01*
X129400210Y-105863699D01*
X129749069Y-105958322D01*
X130109684Y-105983067D01*
X130468198Y-105936985D01*
X130810833Y-105821846D01*
X131033486Y-105702836D01*
X131153374Y-105417980D01*
X130055000Y-104319605D01*
X128956626Y-105417980D01*
X125382191Y-105417980D01*
X125389872Y-105340000D01*
X125389872Y-104194684D01*
X128211933Y-104194684D01*
X128258015Y-104553198D01*
X128373154Y-104895833D01*
X128492164Y-105118486D01*
X128777020Y-105238374D01*
X129875395Y-104140000D01*
X130234605Y-104140000D01*
X131332980Y-105238374D01*
X131617836Y-105118486D01*
X131778699Y-104794790D01*
X131873322Y-104445931D01*
X131898067Y-104085316D01*
X131851985Y-103726802D01*
X131843526Y-103701629D01*
X133085024Y-103701629D01*
X133086980Y-103726448D01*
X133093740Y-103750409D01*
X133105044Y-103772591D01*
X133120459Y-103792141D01*
X134020459Y-104728030D01*
X134043520Y-104746956D01*
X134065702Y-104758260D01*
X134089663Y-104765020D01*
X134114482Y-104766976D01*
X134139206Y-104764052D01*
X134162885Y-104756360D01*
X134184608Y-104744197D01*
X134203541Y-104728030D01*
X135103541Y-103792141D01*
X135121728Y-103768055D01*
X135132094Y-103745420D01*
X135137845Y-103721197D01*
X135138761Y-103696317D01*
X135134804Y-103671737D01*
X135126129Y-103648401D01*
X135046990Y-103486273D01*
X134977838Y-103343511D01*
X134918729Y-103214717D01*
X134869325Y-103094045D01*
X134828817Y-102974843D01*
X134796322Y-102849919D01*
X134771234Y-102711845D01*
X134753325Y-102553457D01*
X134742585Y-102368184D01*
X134738983Y-102147923D01*
X134736560Y-102125224D01*
X134729333Y-102101399D01*
X134717597Y-102079443D01*
X134701803Y-102060197D01*
X134682557Y-102044403D01*
X134660601Y-102032667D01*
X134636776Y-102025440D01*
X134612000Y-102023000D01*
X133612000Y-102023000D01*
X133589264Y-102025052D01*
X133565325Y-102031888D01*
X133543179Y-102043263D01*
X133523678Y-102058741D01*
X133507571Y-102077725D01*
X133495478Y-102099487D01*
X133487862Y-102123190D01*
X133485017Y-102147923D01*
X133481414Y-102368184D01*
X133470674Y-102553457D01*
X133452765Y-102711845D01*
X133427677Y-102849919D01*
X133395182Y-102974843D01*
X133354674Y-103094045D01*
X133305270Y-103214717D01*
X133246161Y-103343511D01*
X133176946Y-103486403D01*
X133097871Y-103648402D01*
X133087948Y-103676905D01*
X133085024Y-103701629D01*
X131843526Y-103701629D01*
X131736846Y-103384167D01*
X131617836Y-103161514D01*
X131332980Y-103041626D01*
X130234605Y-104140000D01*
X129875395Y-104140000D01*
X128777020Y-103041626D01*
X128492164Y-103161514D01*
X128331301Y-103485210D01*
X128236678Y-103834069D01*
X128211933Y-104194684D01*
X125389872Y-104194684D01*
X125389872Y-102940000D01*
X125382192Y-102862020D01*
X128956626Y-102862020D01*
X130055000Y-103960395D01*
X131153374Y-102862020D01*
X131033486Y-102577164D01*
X130709790Y-102416301D01*
X130360931Y-102321678D01*
X130000316Y-102296933D01*
X129641802Y-102343015D01*
X129299167Y-102458154D01*
X129076514Y-102577164D01*
X128956626Y-102862020D01*
X125382192Y-102862020D01*
X125358458Y-102621052D01*
X125265425Y-102314362D01*
X125114346Y-102031714D01*
X124911029Y-101783971D01*
X124663286Y-101580654D01*
X124380638Y-101429575D01*
X124073948Y-101336542D01*
X123755000Y-101305128D01*
X121355000Y-101305128D01*
X121036052Y-101336542D01*
X120729362Y-101429575D01*
X120446714Y-101580654D01*
X120198971Y-101783971D01*
X119995654Y-102031714D01*
X119844575Y-102314362D01*
X119751542Y-102621052D01*
X119720128Y-102940000D01*
X119720128Y-105340000D01*
X119751542Y-105658948D01*
X119844575Y-105965638D01*
X119995654Y-106248286D01*
X120036453Y-106298000D01*
X115729405Y-106298000D01*
X115738072Y-106210000D01*
X115735000Y-105695750D01*
X115576250Y-105537000D01*
X114427000Y-105537000D01*
X114427000Y-105557000D01*
X114173000Y-105557000D01*
X114173000Y-105537000D01*
X113023750Y-105537000D01*
X112865000Y-105695750D01*
X112861928Y-106210000D01*
X112870595Y-106298000D01*
X108623675Y-106298000D01*
X108678020Y-106191255D01*
X108792044Y-105786449D01*
X108824902Y-105367176D01*
X108775334Y-104949549D01*
X108645243Y-104549617D01*
X108487214Y-104253962D01*
X108171653Y-104097952D01*
X106859605Y-105410000D01*
X106873748Y-105424143D01*
X106694143Y-105603748D01*
X106680000Y-105589605D01*
X106665858Y-105603748D01*
X106486253Y-105424143D01*
X106500395Y-105410000D01*
X105188347Y-104097952D01*
X104872786Y-104253962D01*
X104681980Y-104628745D01*
X104567956Y-105033551D01*
X104535098Y-105452824D01*
X104584666Y-105870451D01*
X104714757Y-106270383D01*
X104729518Y-106298000D01*
X103252000Y-106298000D01*
X103252000Y-98830000D01*
X103545128Y-98830000D01*
X103545128Y-101830000D01*
X103576542Y-102148948D01*
X103669575Y-102455638D01*
X103820654Y-102738286D01*
X104023971Y-102986029D01*
X104271714Y-103189346D01*
X104554362Y-103340425D01*
X104861052Y-103433458D01*
X105180000Y-103464872D01*
X105781984Y-103464872D01*
X105523962Y-103602786D01*
X105367952Y-103918347D01*
X106680000Y-105230395D01*
X107992048Y-103918347D01*
X107836038Y-103602786D01*
X107565146Y-103464872D01*
X108180000Y-103464872D01*
X108498948Y-103433458D01*
X108805638Y-103340425D01*
X109088286Y-103189346D01*
X109336029Y-102986029D01*
X109539346Y-102738286D01*
X109575332Y-102670961D01*
X111873000Y-102670961D01*
X111873000Y-103149039D01*
X111966268Y-103617930D01*
X112149221Y-104059615D01*
X112414826Y-104457122D01*
X112752878Y-104795174D01*
X112863476Y-104869073D01*
X112865000Y-105124250D01*
X113023750Y-105283000D01*
X113789484Y-105283000D01*
X114060961Y-105337000D01*
X114539039Y-105337000D01*
X114810516Y-105283000D01*
X115576250Y-105283000D01*
X115735000Y-105124250D01*
X115736524Y-104869073D01*
X115847122Y-104795174D01*
X116185174Y-104457122D01*
X116450779Y-104059615D01*
X116633732Y-103617930D01*
X116727000Y-103149039D01*
X116727000Y-102670961D01*
X116633732Y-102202070D01*
X116450779Y-101760385D01*
X116185174Y-101362878D01*
X115847122Y-101024826D01*
X115449615Y-100759221D01*
X115007930Y-100576268D01*
X114539039Y-100483000D01*
X114060961Y-100483000D01*
X113592070Y-100576268D01*
X113150385Y-100759221D01*
X112752878Y-101024826D01*
X112414826Y-101362878D01*
X112149221Y-101760385D01*
X111966268Y-102202070D01*
X111873000Y-102670961D01*
X109575332Y-102670961D01*
X109690425Y-102455638D01*
X109783458Y-102148948D01*
X109814872Y-101830000D01*
X109814872Y-98830000D01*
X109783458Y-98511052D01*
X109690425Y-98204362D01*
X109570331Y-97979682D01*
X133085239Y-97979682D01*
X133089195Y-98004262D01*
X133097871Y-98027598D01*
X133176894Y-98189488D01*
X133246161Y-98332488D01*
X133305270Y-98461282D01*
X133354674Y-98581954D01*
X133395182Y-98701156D01*
X133427677Y-98826080D01*
X133452765Y-98964154D01*
X133470674Y-99122542D01*
X133481414Y-99307815D01*
X133485017Y-99528077D01*
X133487440Y-99550776D01*
X133494667Y-99574601D01*
X133506403Y-99596557D01*
X133522197Y-99615803D01*
X133541443Y-99631597D01*
X133563399Y-99643333D01*
X133587224Y-99650560D01*
X133612000Y-99653000D01*
X134612000Y-99653000D01*
X134634737Y-99650948D01*
X134658676Y-99644112D01*
X134680821Y-99632736D01*
X134700322Y-99617259D01*
X134716429Y-99598275D01*
X134728522Y-99576513D01*
X134736138Y-99552810D01*
X134738983Y-99528077D01*
X134742585Y-99307815D01*
X134753325Y-99122542D01*
X134771234Y-98964154D01*
X134796322Y-98826080D01*
X134828817Y-98701156D01*
X134869325Y-98581954D01*
X134918729Y-98461282D01*
X134977838Y-98332488D01*
X135046937Y-98189834D01*
X135046938Y-98189833D01*
X135046990Y-98189726D01*
X135126129Y-98027599D01*
X135136052Y-97999095D01*
X135138976Y-97974371D01*
X135137020Y-97949552D01*
X135130260Y-97925591D01*
X135118956Y-97903409D01*
X135103541Y-97883859D01*
X134203541Y-96947970D01*
X134180480Y-96929044D01*
X134158298Y-96917740D01*
X134134337Y-96910980D01*
X134109518Y-96909024D01*
X134084794Y-96911948D01*
X134061115Y-96919640D01*
X134039392Y-96931803D01*
X134020459Y-96947970D01*
X133120459Y-97883859D01*
X133102273Y-97907945D01*
X133091906Y-97930580D01*
X133086155Y-97954803D01*
X133085239Y-97979682D01*
X109570331Y-97979682D01*
X109539346Y-97921714D01*
X109336029Y-97673971D01*
X109088286Y-97470654D01*
X108805638Y-97319575D01*
X108498948Y-97226542D01*
X108180000Y-97195128D01*
X105180000Y-97195128D01*
X104861052Y-97226542D01*
X104554362Y-97319575D01*
X104271714Y-97470654D01*
X104023971Y-97673971D01*
X103820654Y-97921714D01*
X103669575Y-98204362D01*
X103576542Y-98511052D01*
X103545128Y-98830000D01*
X103252000Y-98830000D01*
X103252000Y-94669980D01*
X105581626Y-94669980D01*
X105701514Y-94954836D01*
X106025210Y-95115699D01*
X106374069Y-95210322D01*
X106734684Y-95235067D01*
X107093198Y-95188985D01*
X107435833Y-95073846D01*
X107658486Y-94954836D01*
X107778374Y-94669980D01*
X106680000Y-93571605D01*
X105581626Y-94669980D01*
X103252000Y-94669980D01*
X103252000Y-93446684D01*
X104836933Y-93446684D01*
X104883015Y-93805198D01*
X104998154Y-94147833D01*
X105117164Y-94370486D01*
X105402020Y-94490374D01*
X106500395Y-93392000D01*
X106859605Y-93392000D01*
X107957980Y-94490374D01*
X108242836Y-94370486D01*
X108403699Y-94046790D01*
X108498322Y-93697931D01*
X108523067Y-93337316D01*
X108502847Y-93180000D01*
X120120128Y-93180000D01*
X120120128Y-94780000D01*
X120151542Y-95098948D01*
X120244575Y-95405638D01*
X120395654Y-95688286D01*
X120598971Y-95936029D01*
X120846714Y-96139346D01*
X121129362Y-96290425D01*
X121436052Y-96383458D01*
X121755000Y-96414872D01*
X123355000Y-96414872D01*
X123673948Y-96383458D01*
X123980638Y-96290425D01*
X124263286Y-96139346D01*
X124511029Y-95936029D01*
X124714346Y-95688286D01*
X124865425Y-95405638D01*
X124901596Y-95286398D01*
X124968000Y-95249915D01*
X124968000Y-95002068D01*
X124989872Y-94780000D01*
X124989872Y-93180000D01*
X124968000Y-92957932D01*
X124968000Y-92710085D01*
X124901596Y-92673602D01*
X124865425Y-92554362D01*
X124714346Y-92271714D01*
X124511029Y-92023971D01*
X124263286Y-91820654D01*
X123980638Y-91669575D01*
X123673948Y-91576542D01*
X123355000Y-91545128D01*
X121755000Y-91545128D01*
X121436052Y-91576542D01*
X121129362Y-91669575D01*
X120846714Y-91820654D01*
X120598971Y-92023971D01*
X120395654Y-92271714D01*
X120244575Y-92554362D01*
X120151542Y-92861052D01*
X120120128Y-93180000D01*
X108502847Y-93180000D01*
X108476985Y-92978802D01*
X108361846Y-92636167D01*
X108242836Y-92413514D01*
X107957980Y-92293626D01*
X106859605Y-93392000D01*
X106500395Y-93392000D01*
X105402020Y-92293626D01*
X105117164Y-92413514D01*
X104956301Y-92737210D01*
X104861678Y-93086069D01*
X104836933Y-93446684D01*
X103252000Y-93446684D01*
X103252000Y-92114020D01*
X105581626Y-92114020D01*
X106680000Y-93212395D01*
X107778374Y-92114020D01*
X107658486Y-91829164D01*
X107334790Y-91668301D01*
X106985931Y-91573678D01*
X106625316Y-91548933D01*
X106266802Y-91595015D01*
X105924167Y-91710154D01*
X105701514Y-91829164D01*
X105581626Y-92114020D01*
X103252000Y-92114020D01*
X103252000Y-87192000D01*
X103845128Y-87192000D01*
X103845128Y-89592000D01*
X103876542Y-89910948D01*
X103969575Y-90217638D01*
X104120654Y-90500286D01*
X104323971Y-90748029D01*
X104571714Y-90951346D01*
X104854362Y-91102425D01*
X105161052Y-91195458D01*
X105480000Y-91226872D01*
X107880000Y-91226872D01*
X107982200Y-91216806D01*
X115686801Y-91216806D01*
X115801500Y-91557754D01*
X115980511Y-91869774D01*
X116216954Y-92140875D01*
X116501743Y-92360639D01*
X116823934Y-92520621D01*
X117063195Y-92593195D01*
X117348000Y-92476432D01*
X117348000Y-90932000D01*
X117602000Y-90932000D01*
X117602000Y-92476432D01*
X117886805Y-92593195D01*
X118126066Y-92520621D01*
X118448257Y-92360639D01*
X118733046Y-92140875D01*
X118969489Y-91869774D01*
X119148500Y-91557754D01*
X119263199Y-91216806D01*
X119146854Y-90932000D01*
X117602000Y-90932000D01*
X117348000Y-90932000D01*
X115803146Y-90932000D01*
X115686801Y-91216806D01*
X107982200Y-91216806D01*
X108198948Y-91195458D01*
X108505638Y-91102425D01*
X108788286Y-90951346D01*
X109036029Y-90748029D01*
X109239346Y-90500286D01*
X109390425Y-90217638D01*
X109483458Y-89910948D01*
X109514872Y-89592000D01*
X109514872Y-87192000D01*
X109483458Y-86873052D01*
X109390425Y-86566362D01*
X109239346Y-86283714D01*
X109036029Y-86035971D01*
X108788286Y-85832654D01*
X108505638Y-85681575D01*
X108198948Y-85588542D01*
X107880000Y-85557128D01*
X105480000Y-85557128D01*
X105161052Y-85588542D01*
X104854362Y-85681575D01*
X104571714Y-85832654D01*
X104323971Y-86035971D01*
X104120654Y-86283714D01*
X103969575Y-86566362D01*
X103876542Y-86873052D01*
X103845128Y-87192000D01*
X103252000Y-87192000D01*
X103252000Y-76708000D01*
X105564519Y-76708000D01*
X105614323Y-77213670D01*
X105731299Y-77599286D01*
X105693575Y-77669862D01*
X105600542Y-77976552D01*
X105569128Y-78295500D01*
X105569128Y-80200500D01*
X105600542Y-80519448D01*
X105693575Y-80826138D01*
X105844654Y-81108786D01*
X106047971Y-81356529D01*
X106295714Y-81559846D01*
X106578362Y-81710925D01*
X106885052Y-81803958D01*
X107204000Y-81835372D01*
X109204000Y-81835372D01*
X109522948Y-81803958D01*
X109829638Y-81710925D01*
X110112286Y-81559846D01*
X110360029Y-81356529D01*
X110563346Y-81108786D01*
X110714425Y-80826138D01*
X110807458Y-80519448D01*
X110838872Y-80200500D01*
X110838872Y-78295500D01*
X110807458Y-77976552D01*
X110761961Y-77826565D01*
X114648000Y-77826565D01*
X114648000Y-78383435D01*
X114756640Y-78929606D01*
X114969745Y-79444087D01*
X115279125Y-79907108D01*
X115672892Y-80300875D01*
X116135913Y-80610255D01*
X116650394Y-80823360D01*
X117196565Y-80932000D01*
X117753435Y-80932000D01*
X118299606Y-80823360D01*
X118814087Y-80610255D01*
X119277108Y-80300875D01*
X119670875Y-79907108D01*
X119980255Y-79444087D01*
X120193360Y-78929606D01*
X120302000Y-78383435D01*
X120302000Y-77826565D01*
X120193360Y-77280394D01*
X119980255Y-76765913D01*
X119670875Y-76302892D01*
X119277108Y-75909125D01*
X118814087Y-75599745D01*
X118299606Y-75386640D01*
X117753435Y-75278000D01*
X117196565Y-75278000D01*
X116650394Y-75386640D01*
X116135913Y-75599745D01*
X115672892Y-75909125D01*
X115279125Y-76302892D01*
X114969745Y-76765913D01*
X114756640Y-77280394D01*
X114648000Y-77826565D01*
X110761961Y-77826565D01*
X110714425Y-77669862D01*
X110676701Y-77599286D01*
X110793677Y-77213670D01*
X110843481Y-76708000D01*
X110793677Y-76202330D01*
X110646178Y-75716092D01*
X110406653Y-75267973D01*
X110084307Y-74875193D01*
X109769794Y-74617079D01*
X109794563Y-74540980D01*
X109674594Y-74295000D01*
X109183009Y-74295000D01*
X108757170Y-74165823D01*
X108378222Y-74128500D01*
X108029778Y-74128500D01*
X107650830Y-74165823D01*
X107224991Y-74295000D01*
X106733406Y-74295000D01*
X106613437Y-74540980D01*
X106638206Y-74617079D01*
X106323693Y-74875193D01*
X106001347Y-75267973D01*
X105761822Y-75716092D01*
X105614323Y-76202330D01*
X105564519Y-76708000D01*
X103252000Y-76708000D01*
X103252000Y-73795020D01*
X106613437Y-73795020D01*
X106733406Y-74041000D01*
X108077000Y-74041000D01*
X108077000Y-72742430D01*
X108331000Y-72742430D01*
X108331000Y-74041000D01*
X109674594Y-74041000D01*
X109794563Y-73795020D01*
X109723571Y-73576906D01*
X109579969Y-73301077D01*
X109385315Y-73058563D01*
X109147089Y-72858684D01*
X108942704Y-72746565D01*
X110457000Y-72746565D01*
X110457000Y-73303435D01*
X110565640Y-73849606D01*
X110778745Y-74364087D01*
X111088125Y-74827108D01*
X111481892Y-75220875D01*
X111944913Y-75530255D01*
X112459394Y-75743360D01*
X113005565Y-75852000D01*
X113562435Y-75852000D01*
X114108606Y-75743360D01*
X114623087Y-75530255D01*
X115086108Y-75220875D01*
X115479875Y-74827108D01*
X115789255Y-74364087D01*
X116002360Y-73849606D01*
X116111000Y-73303435D01*
X116111000Y-72746565D01*
X116002360Y-72200394D01*
X115789255Y-71685913D01*
X115479875Y-71222892D01*
X115086108Y-70829125D01*
X114623087Y-70519745D01*
X114108606Y-70306640D01*
X113562435Y-70198000D01*
X113005565Y-70198000D01*
X112459394Y-70306640D01*
X111944913Y-70519745D01*
X111481892Y-70829125D01*
X111088125Y-71222892D01*
X110778745Y-71685913D01*
X110565640Y-72200394D01*
X110457000Y-72746565D01*
X108942704Y-72746565D01*
X108874446Y-72709121D01*
X108577863Y-72615622D01*
X108331000Y-72742430D01*
X108077000Y-72742430D01*
X107830137Y-72615622D01*
X107533554Y-72709121D01*
X107260911Y-72858684D01*
X107022685Y-73058563D01*
X106828031Y-73301077D01*
X106684429Y-73576906D01*
X106613437Y-73795020D01*
X103252000Y-73795020D01*
X103252000Y-68801653D01*
X105367952Y-68801653D01*
X105523962Y-69117214D01*
X105898745Y-69308020D01*
X106303551Y-69422044D01*
X106722824Y-69454902D01*
X107140451Y-69405334D01*
X107540383Y-69275243D01*
X107836038Y-69117214D01*
X107992048Y-68801653D01*
X107935395Y-68745000D01*
X110956928Y-68745000D01*
X110969188Y-68869482D01*
X111005498Y-68989180D01*
X111064463Y-69099494D01*
X111143815Y-69196185D01*
X111240506Y-69275537D01*
X111350820Y-69334502D01*
X111470518Y-69370812D01*
X111595000Y-69383072D01*
X112109250Y-69380000D01*
X112268000Y-69221250D01*
X112268000Y-68072000D01*
X111118750Y-68072000D01*
X110960000Y-68230750D01*
X110956928Y-68745000D01*
X107935395Y-68745000D01*
X106680000Y-67489605D01*
X105367952Y-68801653D01*
X103252000Y-68801653D01*
X103252000Y-67352824D01*
X104535098Y-67352824D01*
X104584666Y-67770451D01*
X104714757Y-68170383D01*
X104872786Y-68466038D01*
X105188347Y-68622048D01*
X106500395Y-67310000D01*
X106859605Y-67310000D01*
X108171653Y-68622048D01*
X108487214Y-68466038D01*
X108678020Y-68091255D01*
X108792044Y-67686449D01*
X108824902Y-67267176D01*
X108810401Y-67145000D01*
X110956928Y-67145000D01*
X110960000Y-67659250D01*
X111118750Y-67818000D01*
X112268000Y-67818000D01*
X112268000Y-67705961D01*
X112468000Y-67705961D01*
X112468000Y-68184039D01*
X112522000Y-68455516D01*
X112522000Y-69221250D01*
X112680750Y-69380000D01*
X112935927Y-69381524D01*
X113009826Y-69492122D01*
X113347878Y-69830174D01*
X113745385Y-70095779D01*
X114187070Y-70278732D01*
X114655961Y-70372000D01*
X115134039Y-70372000D01*
X115602930Y-70278732D01*
X116044615Y-70095779D01*
X116442122Y-69830174D01*
X116780174Y-69492122D01*
X117045779Y-69094615D01*
X117228732Y-68652930D01*
X117322000Y-68184039D01*
X117322000Y-67705961D01*
X117228732Y-67237070D01*
X117045779Y-66795385D01*
X116780174Y-66397878D01*
X116442122Y-66059826D01*
X116044615Y-65794221D01*
X115602930Y-65611268D01*
X115134039Y-65518000D01*
X114655961Y-65518000D01*
X114187070Y-65611268D01*
X113745385Y-65794221D01*
X113347878Y-66059826D01*
X113009826Y-66397878D01*
X112935927Y-66508476D01*
X112680750Y-66510000D01*
X112522000Y-66668750D01*
X112522000Y-67434484D01*
X112468000Y-67705961D01*
X112268000Y-67705961D01*
X112268000Y-66668750D01*
X112109250Y-66510000D01*
X111595000Y-66506928D01*
X111470518Y-66519188D01*
X111350820Y-66555498D01*
X111240506Y-66614463D01*
X111143815Y-66693815D01*
X111064463Y-66790506D01*
X111005498Y-66900820D01*
X110969188Y-67020518D01*
X110956928Y-67145000D01*
X108810401Y-67145000D01*
X108775334Y-66849549D01*
X108645243Y-66449617D01*
X108487214Y-66153962D01*
X108171653Y-65997952D01*
X106859605Y-67310000D01*
X106500395Y-67310000D01*
X105188347Y-65997952D01*
X104872786Y-66153962D01*
X104681980Y-66528745D01*
X104567956Y-66933551D01*
X104535098Y-67352824D01*
X103252000Y-67352824D01*
X103252000Y-60072000D01*
X103686873Y-60072000D01*
X103669575Y-60104362D01*
G37*
%TD.AperFunction*%
D35*
X139610197Y-78829803D02*
X139629443Y-78845597D01*
X139651399Y-78857333D01*
X139675224Y-78864560D01*
X139700000Y-78867000D01*
X142181764Y-78867000D01*
X142152429Y-78928996D01*
X142083700Y-79203184D01*
X142069783Y-79485512D01*
X142087292Y-79603686D01*
X142084362Y-79604575D01*
X141801714Y-79755654D01*
X141553971Y-79958971D01*
X141350654Y-80206714D01*
X141199575Y-80489362D01*
X141106542Y-80796052D01*
X141075128Y-81115000D01*
X141075128Y-82715000D01*
X141106542Y-83033948D01*
X141199575Y-83340638D01*
X141350654Y-83623286D01*
X141553971Y-83871029D01*
X141801714Y-84074346D01*
X142084362Y-84225425D01*
X142391052Y-84318458D01*
X142710000Y-84349872D01*
X144310000Y-84349872D01*
X144628948Y-84318458D01*
X144935638Y-84225425D01*
X145218286Y-84074346D01*
X145466029Y-83871029D01*
X145669346Y-83623286D01*
X145820425Y-83340638D01*
X145913458Y-83033948D01*
X145944872Y-82715000D01*
X145944872Y-81115000D01*
X145913458Y-80796052D01*
X145820425Y-80489362D01*
X145669346Y-80206714D01*
X145466029Y-79958971D01*
X145218286Y-79755654D01*
X144937351Y-79605491D01*
X144950217Y-79344488D01*
X144908787Y-79064870D01*
X144838025Y-78867000D01*
X150428319Y-78867000D01*
X150375498Y-78965820D01*
X150339188Y-79085518D01*
X150326928Y-79210000D01*
X150330000Y-79724250D01*
X150488750Y-79883000D01*
X151638000Y-79883000D01*
X151638000Y-79863000D01*
X151892000Y-79863000D01*
X151892000Y-79883000D01*
X153041250Y-79883000D01*
X153200000Y-79724250D01*
X153203072Y-79210000D01*
X153190812Y-79085518D01*
X153154502Y-78965820D01*
X153101681Y-78867000D01*
X153617394Y-78867000D01*
X154714870Y-79964476D01*
X154761640Y-80199606D01*
X154813000Y-80323600D01*
X154813000Y-86797378D01*
X154748037Y-86803776D01*
X154480962Y-86884793D01*
X154347096Y-86925401D01*
X154109811Y-87052232D01*
X154192000Y-86639039D01*
X154192000Y-86160961D01*
X154098732Y-85692070D01*
X153915779Y-85250385D01*
X153650174Y-84852878D01*
X153312122Y-84514826D01*
X153222586Y-84455000D01*
X153312122Y-84395174D01*
X153650174Y-84057122D01*
X153915779Y-83659615D01*
X154098732Y-83217930D01*
X154192000Y-82749039D01*
X154192000Y-82270961D01*
X154098732Y-81802070D01*
X153915779Y-81360385D01*
X153650174Y-80962878D01*
X153312122Y-80624826D01*
X153201524Y-80550927D01*
X153200000Y-80295750D01*
X153041250Y-80137000D01*
X152275516Y-80137000D01*
X152004039Y-80083000D01*
X151525961Y-80083000D01*
X151254484Y-80137000D01*
X150488750Y-80137000D01*
X150330000Y-80295750D01*
X150328476Y-80550927D01*
X150217878Y-80624826D01*
X149879826Y-80962878D01*
X149614221Y-81360385D01*
X149431268Y-81802070D01*
X149338000Y-82270961D01*
X149338000Y-82749039D01*
X149431268Y-83217930D01*
X149614221Y-83659615D01*
X149879826Y-84057122D01*
X150217878Y-84395174D01*
X150307414Y-84455000D01*
X150217878Y-84514826D01*
X149879826Y-84852878D01*
X149614221Y-85250385D01*
X149431268Y-85692070D01*
X149338000Y-86160961D01*
X149338000Y-86639039D01*
X149431268Y-87107930D01*
X149614221Y-87549615D01*
X149879826Y-87947122D01*
X150217878Y-88285174D01*
X150328476Y-88359073D01*
X150329817Y-88583657D01*
X150125536Y-88603777D01*
X149774640Y-88710221D01*
X149724595Y-88725402D01*
X149355085Y-88922908D01*
X149195030Y-89054263D01*
X149031208Y-89188708D01*
X148964601Y-89269869D01*
X147860003Y-90374467D01*
X147774346Y-90214214D01*
X147571029Y-89966471D01*
X147323286Y-89763154D01*
X147040638Y-89612075D01*
X146733948Y-89519042D01*
X146415000Y-89487628D01*
X146131511Y-89487628D01*
X146394009Y-89408000D01*
X146885594Y-89408000D01*
X147005563Y-89162020D01*
X146980794Y-89085921D01*
X147295307Y-88827807D01*
X147617653Y-88435027D01*
X147857178Y-87986908D01*
X148004677Y-87500670D01*
X148054481Y-86995000D01*
X148004677Y-86489330D01*
X147857178Y-86003092D01*
X147617653Y-85554973D01*
X147295307Y-85162193D01*
X146902527Y-84839847D01*
X146454408Y-84600322D01*
X145968170Y-84452823D01*
X145589222Y-84415500D01*
X145240778Y-84415500D01*
X144861830Y-84452823D01*
X144375592Y-84600322D01*
X143927473Y-84839847D01*
X143534693Y-85162193D01*
X143212347Y-85554973D01*
X142972822Y-86003092D01*
X142825323Y-86489330D01*
X142775519Y-86995000D01*
X142825323Y-87500670D01*
X142972822Y-87986908D01*
X143212347Y-88435027D01*
X143534693Y-88827807D01*
X143849206Y-89085921D01*
X143824437Y-89162020D01*
X143944406Y-89408000D01*
X144435991Y-89408000D01*
X144698489Y-89487628D01*
X144415000Y-89487628D01*
X144096052Y-89519042D01*
X143789362Y-89612075D01*
X143506714Y-89763154D01*
X143258971Y-89966471D01*
X143055654Y-90214214D01*
X142969997Y-90374467D01*
X142605403Y-90009874D01*
X142538791Y-89928707D01*
X142214913Y-89662907D01*
X141845404Y-89465401D01*
X141444463Y-89343776D01*
X141131985Y-89313000D01*
X141131983Y-89313000D01*
X141027498Y-89302709D01*
X140923013Y-89313000D01*
X138136000Y-89313000D01*
X138136000Y-89022263D01*
X138087104Y-88776445D01*
X138502930Y-88693732D01*
X138944615Y-88510779D01*
X139342122Y-88245174D01*
X139680174Y-87907122D01*
X139945779Y-87509615D01*
X140128732Y-87067930D01*
X140222000Y-86599039D01*
X140222000Y-86120961D01*
X140128732Y-85652070D01*
X139945779Y-85210385D01*
X139680174Y-84812878D01*
X139342122Y-84474826D01*
X138944615Y-84209221D01*
X138753439Y-84130033D01*
X138898361Y-84033199D01*
X139278199Y-83653361D01*
X139576636Y-83206719D01*
X139782203Y-82710437D01*
X139887000Y-82183586D01*
X139887000Y-81646414D01*
X139782203Y-81119563D01*
X139576636Y-80623281D01*
X139278199Y-80176639D01*
X138898361Y-79796801D01*
X138451719Y-79498364D01*
X138284549Y-79429120D01*
X138499087Y-79340255D01*
X138962108Y-79030875D01*
X139355875Y-78637108D01*
X139380559Y-78600165D01*
X139610197Y-78829803D01*
%TA.AperFunction,Conductor*%
D34*
G36*
X139610197Y-78829803D02*
G01*
X139629443Y-78845597D01*
X139651399Y-78857333D01*
X139675224Y-78864560D01*
X139700000Y-78867000D01*
X142181764Y-78867000D01*
X142152429Y-78928996D01*
X142083700Y-79203184D01*
X142069783Y-79485512D01*
X142087292Y-79603686D01*
X142084362Y-79604575D01*
X141801714Y-79755654D01*
X141553971Y-79958971D01*
X141350654Y-80206714D01*
X141199575Y-80489362D01*
X141106542Y-80796052D01*
X141075128Y-81115000D01*
X141075128Y-82715000D01*
X141106542Y-83033948D01*
X141199575Y-83340638D01*
X141350654Y-83623286D01*
X141553971Y-83871029D01*
X141801714Y-84074346D01*
X142084362Y-84225425D01*
X142391052Y-84318458D01*
X142710000Y-84349872D01*
X144310000Y-84349872D01*
X144628948Y-84318458D01*
X144935638Y-84225425D01*
X145218286Y-84074346D01*
X145466029Y-83871029D01*
X145669346Y-83623286D01*
X145820425Y-83340638D01*
X145913458Y-83033948D01*
X145944872Y-82715000D01*
X145944872Y-81115000D01*
X145913458Y-80796052D01*
X145820425Y-80489362D01*
X145669346Y-80206714D01*
X145466029Y-79958971D01*
X145218286Y-79755654D01*
X144937351Y-79605491D01*
X144950217Y-79344488D01*
X144908787Y-79064870D01*
X144838025Y-78867000D01*
X150428319Y-78867000D01*
X150375498Y-78965820D01*
X150339188Y-79085518D01*
X150326928Y-79210000D01*
X150330000Y-79724250D01*
X150488750Y-79883000D01*
X151638000Y-79883000D01*
X151638000Y-79863000D01*
X151892000Y-79863000D01*
X151892000Y-79883000D01*
X153041250Y-79883000D01*
X153200000Y-79724250D01*
X153203072Y-79210000D01*
X153190812Y-79085518D01*
X153154502Y-78965820D01*
X153101681Y-78867000D01*
X153617394Y-78867000D01*
X154714870Y-79964476D01*
X154761640Y-80199606D01*
X154813000Y-80323600D01*
X154813000Y-86797378D01*
X154748037Y-86803776D01*
X154480962Y-86884793D01*
X154347096Y-86925401D01*
X154109811Y-87052232D01*
X154192000Y-86639039D01*
X154192000Y-86160961D01*
X154098732Y-85692070D01*
X153915779Y-85250385D01*
X153650174Y-84852878D01*
X153312122Y-84514826D01*
X153222586Y-84455000D01*
X153312122Y-84395174D01*
X153650174Y-84057122D01*
X153915779Y-83659615D01*
X154098732Y-83217930D01*
X154192000Y-82749039D01*
X154192000Y-82270961D01*
X154098732Y-81802070D01*
X153915779Y-81360385D01*
X153650174Y-80962878D01*
X153312122Y-80624826D01*
X153201524Y-80550927D01*
X153200000Y-80295750D01*
X153041250Y-80137000D01*
X152275516Y-80137000D01*
X152004039Y-80083000D01*
X151525961Y-80083000D01*
X151254484Y-80137000D01*
X150488750Y-80137000D01*
X150330000Y-80295750D01*
X150328476Y-80550927D01*
X150217878Y-80624826D01*
X149879826Y-80962878D01*
X149614221Y-81360385D01*
X149431268Y-81802070D01*
X149338000Y-82270961D01*
X149338000Y-82749039D01*
X149431268Y-83217930D01*
X149614221Y-83659615D01*
X149879826Y-84057122D01*
X150217878Y-84395174D01*
X150307414Y-84455000D01*
X150217878Y-84514826D01*
X149879826Y-84852878D01*
X149614221Y-85250385D01*
X149431268Y-85692070D01*
X149338000Y-86160961D01*
X149338000Y-86639039D01*
X149431268Y-87107930D01*
X149614221Y-87549615D01*
X149879826Y-87947122D01*
X150217878Y-88285174D01*
X150328476Y-88359073D01*
X150329817Y-88583657D01*
X150125536Y-88603777D01*
X149774640Y-88710221D01*
X149724595Y-88725402D01*
X149355085Y-88922908D01*
X149195030Y-89054263D01*
X149031208Y-89188708D01*
X148964601Y-89269869D01*
X147860003Y-90374467D01*
X147774346Y-90214214D01*
X147571029Y-89966471D01*
X147323286Y-89763154D01*
X147040638Y-89612075D01*
X146733948Y-89519042D01*
X146415000Y-89487628D01*
X146131511Y-89487628D01*
X146394009Y-89408000D01*
X146885594Y-89408000D01*
X147005563Y-89162020D01*
X146980794Y-89085921D01*
X147295307Y-88827807D01*
X147617653Y-88435027D01*
X147857178Y-87986908D01*
X148004677Y-87500670D01*
X148054481Y-86995000D01*
X148004677Y-86489330D01*
X147857178Y-86003092D01*
X147617653Y-85554973D01*
X147295307Y-85162193D01*
X146902527Y-84839847D01*
X146454408Y-84600322D01*
X145968170Y-84452823D01*
X145589222Y-84415500D01*
X145240778Y-84415500D01*
X144861830Y-84452823D01*
X144375592Y-84600322D01*
X143927473Y-84839847D01*
X143534693Y-85162193D01*
X143212347Y-85554973D01*
X142972822Y-86003092D01*
X142825323Y-86489330D01*
X142775519Y-86995000D01*
X142825323Y-87500670D01*
X142972822Y-87986908D01*
X143212347Y-88435027D01*
X143534693Y-88827807D01*
X143849206Y-89085921D01*
X143824437Y-89162020D01*
X143944406Y-89408000D01*
X144435991Y-89408000D01*
X144698489Y-89487628D01*
X144415000Y-89487628D01*
X144096052Y-89519042D01*
X143789362Y-89612075D01*
X143506714Y-89763154D01*
X143258971Y-89966471D01*
X143055654Y-90214214D01*
X142969997Y-90374467D01*
X142605403Y-90009874D01*
X142538791Y-89928707D01*
X142214913Y-89662907D01*
X141845404Y-89465401D01*
X141444463Y-89343776D01*
X141131985Y-89313000D01*
X141131983Y-89313000D01*
X141027498Y-89302709D01*
X140923013Y-89313000D01*
X138136000Y-89313000D01*
X138136000Y-89022263D01*
X138087104Y-88776445D01*
X138502930Y-88693732D01*
X138944615Y-88510779D01*
X139342122Y-88245174D01*
X139680174Y-87907122D01*
X139945779Y-87509615D01*
X140128732Y-87067930D01*
X140222000Y-86599039D01*
X140222000Y-86120961D01*
X140128732Y-85652070D01*
X139945779Y-85210385D01*
X139680174Y-84812878D01*
X139342122Y-84474826D01*
X138944615Y-84209221D01*
X138753439Y-84130033D01*
X138898361Y-84033199D01*
X139278199Y-83653361D01*
X139576636Y-83206719D01*
X139782203Y-82710437D01*
X139887000Y-82183586D01*
X139887000Y-81646414D01*
X139782203Y-81119563D01*
X139576636Y-80623281D01*
X139278199Y-80176639D01*
X138898361Y-79796801D01*
X138451719Y-79498364D01*
X138284549Y-79429120D01*
X138499087Y-79340255D01*
X138962108Y-79030875D01*
X139355875Y-78637108D01*
X139380559Y-78600165D01*
X139610197Y-78829803D01*
G37*
%TD.AperFunction*%
D35*
X143703748Y-79400858D02*
X143689605Y-79415000D01*
X143703748Y-79429143D01*
X143652762Y-79480128D01*
X143367238Y-79480128D01*
X143316253Y-79429143D01*
X143330395Y-79415000D01*
X143316253Y-79400858D01*
X143495858Y-79221253D01*
X143510000Y-79235395D01*
X143524143Y-79221253D01*
X143703748Y-79400858D01*
%TA.AperFunction,Conductor*%
D34*
G36*
X143703748Y-79400858D02*
G01*
X143689605Y-79415000D01*
X143703748Y-79429143D01*
X143652762Y-79480128D01*
X143367238Y-79480128D01*
X143316253Y-79429143D01*
X143330395Y-79415000D01*
X143316253Y-79400858D01*
X143495858Y-79221253D01*
X143510000Y-79235395D01*
X143524143Y-79221253D01*
X143703748Y-79400858D01*
G37*
%TD.AperFunction*%
%TD*%
D35*
%TO.N,Vout-*%
X145332797Y-60164563D02*
X145228000Y-60691414D01*
X145228000Y-61228586D01*
X145332797Y-61755437D01*
X145538364Y-62251719D01*
X145836801Y-62698361D01*
X146216639Y-63078199D01*
X146663281Y-63376636D01*
X147159563Y-63582203D01*
X147686414Y-63687000D01*
X148223586Y-63687000D01*
X148750437Y-63582203D01*
X149246719Y-63376636D01*
X149693361Y-63078199D01*
X149892801Y-62878759D01*
X149940654Y-62968286D01*
X150143971Y-63216029D01*
X150391714Y-63419346D01*
X150674362Y-63570425D01*
X150981052Y-63663458D01*
X151300000Y-63694872D01*
X153500000Y-63694872D01*
X153818948Y-63663458D01*
X154125638Y-63570425D01*
X154408286Y-63419346D01*
X154656029Y-63216029D01*
X154859346Y-62968286D01*
X155010425Y-62685638D01*
X155103458Y-62378948D01*
X155134872Y-62060000D01*
X155134872Y-60072000D01*
X186748871Y-60072000D01*
X186745128Y-60110000D01*
X186745128Y-61810000D01*
X186776542Y-62128948D01*
X186869575Y-62435638D01*
X187020654Y-62718286D01*
X187223971Y-62966029D01*
X187471714Y-63169346D01*
X187754362Y-63320425D01*
X188061052Y-63413458D01*
X188380000Y-63444872D01*
X190080000Y-63444872D01*
X190398948Y-63413458D01*
X190705638Y-63320425D01*
X190832348Y-63252697D01*
X191047486Y-63341810D01*
X191526037Y-63437000D01*
X192013963Y-63437000D01*
X192492514Y-63341810D01*
X192943299Y-63155089D01*
X193040000Y-63090475D01*
X193136701Y-63155089D01*
X193587486Y-63341810D01*
X194066037Y-63437000D01*
X194553963Y-63437000D01*
X195032514Y-63341810D01*
X195483299Y-63155089D01*
X195888995Y-62884011D01*
X196234011Y-62538995D01*
X196424561Y-62253818D01*
X196477000Y-62232718D01*
X196477000Y-62175337D01*
X196505089Y-62133299D01*
X196691810Y-61682514D01*
X196761332Y-61333000D01*
X197223000Y-61333000D01*
X197223000Y-62232718D01*
X197443265Y-62321345D01*
X197652328Y-62209615D01*
X197880699Y-62029078D01*
X198069461Y-61807457D01*
X198120000Y-61716925D01*
X198170539Y-61807457D01*
X198359301Y-62029078D01*
X198587672Y-62209615D01*
X198796735Y-62321345D01*
X199017000Y-62232718D01*
X199017000Y-61333000D01*
X197223000Y-61333000D01*
X196761332Y-61333000D01*
X196787000Y-61203963D01*
X196787000Y-60716037D01*
X196757355Y-60567000D01*
X197223000Y-60567000D01*
X197223000Y-60587000D01*
X199017000Y-60587000D01*
X199017000Y-60567000D01*
X199763000Y-60567000D01*
X199763000Y-60587000D01*
X199783000Y-60587000D01*
X199783000Y-61333000D01*
X199763000Y-61333000D01*
X199763000Y-62232718D01*
X199983265Y-62321345D01*
X200192328Y-62209615D01*
X200278001Y-62141887D01*
X200278001Y-68314494D01*
X200168257Y-68424238D01*
X200029634Y-68169867D01*
X199687261Y-68053953D01*
X199328852Y-68007060D01*
X198968181Y-68030990D01*
X198619110Y-68124824D01*
X198510366Y-68169867D01*
X198371742Y-68424240D01*
X199270000Y-69322498D01*
X199284142Y-69308356D01*
X199811644Y-69835858D01*
X199797502Y-69850000D01*
X199811644Y-69864142D01*
X199284142Y-70391644D01*
X199270000Y-70377502D01*
X198371742Y-71275760D01*
X198510366Y-71530133D01*
X198852739Y-71646047D01*
X199211148Y-71692940D01*
X199571819Y-71669010D01*
X199920890Y-71575176D01*
X200029634Y-71530133D01*
X200168257Y-71275762D01*
X200278001Y-71385506D01*
X200278000Y-84659891D01*
X200230638Y-84634575D01*
X199923948Y-84541542D01*
X199605000Y-84510128D01*
X197905000Y-84510128D01*
X197586052Y-84541542D01*
X197507325Y-84565423D01*
X197762122Y-84395174D01*
X198100174Y-84057122D01*
X198365779Y-83659615D01*
X198548732Y-83217930D01*
X198642000Y-82749039D01*
X198642000Y-82270961D01*
X198548732Y-81802070D01*
X198365779Y-81360385D01*
X198100174Y-80962878D01*
X197762122Y-80624826D01*
X197650094Y-80549972D01*
X197650000Y-80541750D01*
X197491250Y-80383000D01*
X197400203Y-80383000D01*
X197364615Y-80359221D01*
X196922930Y-80176268D01*
X196454039Y-80083000D01*
X195975961Y-80083000D01*
X195507070Y-80176268D01*
X195065385Y-80359221D01*
X195029797Y-80383000D01*
X194938750Y-80383000D01*
X194780000Y-80541750D01*
X194779906Y-80549972D01*
X194667878Y-80624826D01*
X194329826Y-80962878D01*
X194064221Y-81360385D01*
X193881268Y-81802070D01*
X193788000Y-82270961D01*
X193788000Y-82749039D01*
X193881268Y-83217930D01*
X194064221Y-83659615D01*
X194329826Y-84057122D01*
X194667878Y-84395174D01*
X195065385Y-84660779D01*
X195507070Y-84843732D01*
X195975961Y-84937000D01*
X196454039Y-84937000D01*
X196922930Y-84843732D01*
X196929019Y-84841210D01*
X196748971Y-84988971D01*
X196545654Y-85236714D01*
X196394575Y-85519362D01*
X196301542Y-85826052D01*
X196270128Y-86145000D01*
X196270128Y-87845000D01*
X196301542Y-88163948D01*
X196356672Y-88345689D01*
X196239108Y-88228125D01*
X195776087Y-87918745D01*
X195261606Y-87705640D01*
X194715435Y-87597000D01*
X194158565Y-87597000D01*
X193612394Y-87705640D01*
X193097913Y-87918745D01*
X192634892Y-88228125D01*
X192383553Y-88479464D01*
X192391872Y-88395000D01*
X192391872Y-85595000D01*
X192360458Y-85276052D01*
X192267425Y-84969362D01*
X192116346Y-84686714D01*
X191913029Y-84438971D01*
X191665286Y-84235654D01*
X191382638Y-84084575D01*
X191133870Y-84009113D01*
X191425875Y-83717108D01*
X191735255Y-83254087D01*
X191948360Y-82739606D01*
X192057000Y-82193435D01*
X192057000Y-81636565D01*
X191948360Y-81090394D01*
X191735255Y-80575913D01*
X191425875Y-80112892D01*
X191032108Y-79719125D01*
X190569087Y-79409745D01*
X190485205Y-79375000D01*
X190569087Y-79340255D01*
X190764027Y-79210000D01*
X194776928Y-79210000D01*
X194780000Y-79478250D01*
X194938750Y-79637000D01*
X195842000Y-79637000D01*
X195842000Y-78733750D01*
X196588000Y-78733750D01*
X196588000Y-79637000D01*
X197491250Y-79637000D01*
X197650000Y-79478250D01*
X197653072Y-79210000D01*
X197640812Y-79085518D01*
X197604502Y-78965820D01*
X197545537Y-78855506D01*
X197466185Y-78758815D01*
X197369494Y-78679463D01*
X197259180Y-78620498D01*
X197139482Y-78584188D01*
X197015000Y-78571928D01*
X196746750Y-78575000D01*
X196588000Y-78733750D01*
X195842000Y-78733750D01*
X195683250Y-78575000D01*
X195415000Y-78571928D01*
X195290518Y-78584188D01*
X195170820Y-78620498D01*
X195060506Y-78679463D01*
X194963815Y-78758815D01*
X194884463Y-78855506D01*
X194825498Y-78965820D01*
X194789188Y-79085518D01*
X194776928Y-79210000D01*
X190764027Y-79210000D01*
X191032108Y-79030875D01*
X191425875Y-78637108D01*
X191735255Y-78174087D01*
X191948360Y-77659606D01*
X192057000Y-77113435D01*
X192057000Y-76556565D01*
X191948360Y-76010394D01*
X191735255Y-75495913D01*
X191425875Y-75032892D01*
X191032108Y-74639125D01*
X190569087Y-74329745D01*
X190054606Y-74116640D01*
X189508435Y-74008000D01*
X188951565Y-74008000D01*
X188405394Y-74116640D01*
X187890913Y-74329745D01*
X187427892Y-74639125D01*
X187034125Y-75032892D01*
X186724745Y-75495913D01*
X186511640Y-76010394D01*
X186403000Y-76556565D01*
X186403000Y-77113435D01*
X186511640Y-77659606D01*
X186724745Y-78174087D01*
X187034125Y-78637108D01*
X187427892Y-79030875D01*
X187890913Y-79340255D01*
X187974795Y-79375000D01*
X187890913Y-79409745D01*
X187427892Y-79719125D01*
X187034125Y-80112892D01*
X186724745Y-80575913D01*
X186511640Y-81090394D01*
X186403000Y-81636565D01*
X186403000Y-82193435D01*
X186511640Y-82739606D01*
X186724745Y-83254087D01*
X187034125Y-83717108D01*
X187385246Y-84068229D01*
X187331362Y-84084575D01*
X187048714Y-84235654D01*
X186800971Y-84438971D01*
X186597654Y-84686714D01*
X186446575Y-84969362D01*
X186353542Y-85276052D01*
X186322128Y-85595000D01*
X186322128Y-88395000D01*
X186353542Y-88713948D01*
X186446575Y-89020638D01*
X186597654Y-89303286D01*
X186800971Y-89551029D01*
X187048714Y-89754346D01*
X187331362Y-89905425D01*
X187638052Y-89998458D01*
X187957000Y-90029872D01*
X190757000Y-90029872D01*
X191075948Y-89998458D01*
X191382638Y-89905425D01*
X191665286Y-89754346D01*
X191692214Y-89732247D01*
X191610000Y-90145565D01*
X191610000Y-90702435D01*
X191718640Y-91248606D01*
X191931745Y-91763087D01*
X192241125Y-92226108D01*
X192634892Y-92619875D01*
X193097913Y-92929255D01*
X193612394Y-93142360D01*
X194158565Y-93251000D01*
X194715435Y-93251000D01*
X195261606Y-93142360D01*
X195776087Y-92929255D01*
X196239108Y-92619875D01*
X196321472Y-92537511D01*
X196373190Y-92797514D01*
X196559911Y-93248299D01*
X196624525Y-93345000D01*
X196559911Y-93441701D01*
X196373190Y-93892486D01*
X196278000Y-94371037D01*
X196278000Y-94858963D01*
X196373190Y-95337514D01*
X196559911Y-95788299D01*
X196624525Y-95885000D01*
X196559911Y-95981701D01*
X196373190Y-96432486D01*
X196278000Y-96911037D01*
X196278000Y-97398963D01*
X196373190Y-97877514D01*
X196559911Y-98328299D01*
X196624525Y-98425000D01*
X196559911Y-98521701D01*
X196373190Y-98972486D01*
X196278000Y-99451037D01*
X196278000Y-99938963D01*
X196373190Y-100417514D01*
X196559911Y-100868299D01*
X196624525Y-100965000D01*
X196559911Y-101061701D01*
X196373190Y-101512486D01*
X196278000Y-101991037D01*
X196278000Y-102478963D01*
X196373190Y-102957514D01*
X196559911Y-103408299D01*
X196830989Y-103813995D01*
X197176005Y-104159011D01*
X197461182Y-104349561D01*
X197482282Y-104402000D01*
X197539663Y-104402000D01*
X197581701Y-104430089D01*
X198032486Y-104616810D01*
X198511037Y-104712000D01*
X198998963Y-104712000D01*
X199477514Y-104616810D01*
X199928299Y-104430089D01*
X199970337Y-104402000D01*
X200027718Y-104402000D01*
X200048818Y-104349561D01*
X200278000Y-104196426D01*
X200278000Y-106298000D01*
X180555589Y-106298000D01*
X181075855Y-106194512D01*
X181584876Y-105983669D01*
X182042983Y-105677571D01*
X182432571Y-105287983D01*
X182685872Y-104908892D01*
X184383610Y-104908892D01*
X184518465Y-105160220D01*
X184855631Y-105273082D01*
X185208337Y-105317997D01*
X185563027Y-105293240D01*
X185906073Y-105199762D01*
X186001535Y-105160220D01*
X186136390Y-104908892D01*
X185786086Y-104558588D01*
X190771305Y-104558588D01*
X190773745Y-104583364D01*
X190780972Y-104607189D01*
X190792708Y-104629145D01*
X190808502Y-104648391D01*
X191515609Y-105355498D01*
X191533137Y-105370124D01*
X191554899Y-105382217D01*
X191578602Y-105389833D01*
X191603335Y-105392678D01*
X191628148Y-105390643D01*
X191652088Y-105383807D01*
X191674233Y-105372431D01*
X191679482Y-105368265D01*
X197393655Y-105368265D01*
X197505385Y-105577328D01*
X197685922Y-105805699D01*
X197907543Y-105994461D01*
X198161732Y-106136360D01*
X198382000Y-106053657D01*
X198382000Y-105148000D01*
X199128000Y-105148000D01*
X199128000Y-106053657D01*
X199348268Y-106136360D01*
X199602457Y-105994461D01*
X199824078Y-105805699D01*
X200004615Y-105577328D01*
X200116345Y-105368265D01*
X200027718Y-105148000D01*
X199128000Y-105148000D01*
X198382000Y-105148000D01*
X197482282Y-105148000D01*
X197393655Y-105368265D01*
X191679482Y-105368265D01*
X191693734Y-105356954D01*
X191852015Y-105203767D01*
X191990642Y-105080330D01*
X192115296Y-104981003D01*
X192230655Y-104901120D01*
X192341977Y-104835755D01*
X192454912Y-104780110D01*
X192575178Y-104729714D01*
X192708051Y-104680436D01*
X192857897Y-104628385D01*
X193028483Y-104569710D01*
X193055655Y-104556572D01*
X193075205Y-104541157D01*
X193091372Y-104522224D01*
X193103535Y-104500501D01*
X193111227Y-104476822D01*
X193114151Y-104452098D01*
X193139529Y-103153929D01*
X193136605Y-103124241D01*
X193128913Y-103100562D01*
X193116750Y-103078839D01*
X193100583Y-103059906D01*
X193081033Y-103044491D01*
X193058851Y-103033187D01*
X193034890Y-103026427D01*
X193010071Y-103024471D01*
X191711902Y-103049849D01*
X191682011Y-103054020D01*
X191658675Y-103062696D01*
X191637480Y-103075757D01*
X191619240Y-103092702D01*
X191604657Y-103112880D01*
X191594290Y-103135516D01*
X191535578Y-103306203D01*
X191483563Y-103455948D01*
X191434285Y-103588821D01*
X191383889Y-103709087D01*
X191328244Y-103822022D01*
X191262879Y-103933344D01*
X191182996Y-104048703D01*
X191083669Y-104173357D01*
X190960243Y-104311972D01*
X190807045Y-104470266D01*
X190792708Y-104488031D01*
X190780972Y-104509987D01*
X190773745Y-104533812D01*
X190771305Y-104558588D01*
X185786086Y-104558588D01*
X185260000Y-104032502D01*
X184383610Y-104908892D01*
X182685872Y-104908892D01*
X182738669Y-104829876D01*
X182949512Y-104320855D01*
X183057000Y-103780480D01*
X183057000Y-103453337D01*
X183447003Y-103453337D01*
X183471760Y-103808027D01*
X183565238Y-104151073D01*
X183604780Y-104246535D01*
X183856108Y-104381390D01*
X184732498Y-103505000D01*
X185787502Y-103505000D01*
X186663892Y-104381390D01*
X186915220Y-104246535D01*
X187028082Y-103909369D01*
X187072997Y-103556663D01*
X187048240Y-103201973D01*
X186954762Y-102858927D01*
X186915220Y-102763465D01*
X186663892Y-102628610D01*
X185787502Y-103505000D01*
X184732498Y-103505000D01*
X183856108Y-102628610D01*
X183604780Y-102763465D01*
X183491918Y-103100631D01*
X183447003Y-103453337D01*
X183057000Y-103453337D01*
X183057000Y-103229520D01*
X182949512Y-102689145D01*
X182738669Y-102180124D01*
X182685873Y-102101108D01*
X184383610Y-102101108D01*
X185260000Y-102977498D01*
X186136390Y-102101108D01*
X186001535Y-101849780D01*
X185664369Y-101736918D01*
X185311663Y-101692003D01*
X184956973Y-101716760D01*
X184613927Y-101810238D01*
X184518465Y-101849780D01*
X184383610Y-102101108D01*
X182685873Y-102101108D01*
X182432571Y-101722017D01*
X182042983Y-101332429D01*
X181584876Y-101026331D01*
X181075855Y-100815488D01*
X180535480Y-100708000D01*
X179984520Y-100708000D01*
X179444145Y-100815488D01*
X178935124Y-101026331D01*
X178477017Y-101332429D01*
X178087429Y-101722017D01*
X177781331Y-102180124D01*
X177760000Y-102231622D01*
X177738669Y-102180124D01*
X177432571Y-101722017D01*
X177042983Y-101332429D01*
X176584876Y-101026331D01*
X176075855Y-100815488D01*
X175535480Y-100708000D01*
X174984520Y-100708000D01*
X174444145Y-100815488D01*
X173935124Y-101026331D01*
X173477017Y-101332429D01*
X173087429Y-101722017D01*
X172781331Y-102180124D01*
X172570488Y-102689145D01*
X172463000Y-103229520D01*
X172463000Y-103780480D01*
X172570488Y-104320855D01*
X172781331Y-104829876D01*
X173087429Y-105287983D01*
X173477017Y-105677571D01*
X173935124Y-105983669D01*
X174444145Y-106194512D01*
X174964411Y-106298000D01*
X160235589Y-106298000D01*
X160755855Y-106194512D01*
X161264876Y-105983669D01*
X161722983Y-105677571D01*
X162112571Y-105287983D01*
X162365872Y-104908892D01*
X164063610Y-104908892D01*
X164198465Y-105160220D01*
X164535631Y-105273082D01*
X164888337Y-105317997D01*
X165243027Y-105293240D01*
X165586073Y-105199762D01*
X165681535Y-105160220D01*
X165816390Y-104908892D01*
X164940000Y-104032502D01*
X164063610Y-104908892D01*
X162365872Y-104908892D01*
X162418669Y-104829876D01*
X162629512Y-104320855D01*
X162737000Y-103780480D01*
X162737000Y-103453337D01*
X163127003Y-103453337D01*
X163151760Y-103808027D01*
X163245238Y-104151073D01*
X163284780Y-104246535D01*
X163536108Y-104381390D01*
X164412498Y-103505000D01*
X165467502Y-103505000D01*
X166343892Y-104381390D01*
X166595220Y-104246535D01*
X166708082Y-103909369D01*
X166752997Y-103556663D01*
X166728240Y-103201973D01*
X166715149Y-103153929D01*
X169572471Y-103153929D01*
X169597849Y-104452098D01*
X169602021Y-104481990D01*
X169610696Y-104505326D01*
X169623758Y-104526521D01*
X169640703Y-104544760D01*
X169660881Y-104559344D01*
X169683517Y-104569710D01*
X169854101Y-104628385D01*
X170003948Y-104680436D01*
X170136821Y-104729714D01*
X170257087Y-104780110D01*
X170370022Y-104835755D01*
X170481344Y-104901120D01*
X170596703Y-104981003D01*
X170721357Y-105080330D01*
X170859984Y-105203767D01*
X171018266Y-105356954D01*
X171036031Y-105371292D01*
X171057987Y-105383028D01*
X171081812Y-105390255D01*
X171106588Y-105392695D01*
X171131364Y-105390255D01*
X171155189Y-105383028D01*
X171177145Y-105371292D01*
X171196391Y-105355498D01*
X171903498Y-104648391D01*
X171918124Y-104630863D01*
X171930217Y-104609101D01*
X171937833Y-104585398D01*
X171940678Y-104560665D01*
X171938643Y-104535852D01*
X171931807Y-104511913D01*
X171920431Y-104489767D01*
X171904954Y-104470266D01*
X171751767Y-104311984D01*
X171628330Y-104173357D01*
X171529003Y-104048703D01*
X171449120Y-103933344D01*
X171383755Y-103822022D01*
X171328110Y-103709087D01*
X171277714Y-103588821D01*
X171228436Y-103455948D01*
X171176385Y-103306101D01*
X171117710Y-103135517D01*
X171104572Y-103108345D01*
X171089157Y-103088795D01*
X171070224Y-103072628D01*
X171048501Y-103060465D01*
X171024822Y-103052773D01*
X171000098Y-103049849D01*
X169701929Y-103024471D01*
X169672241Y-103027395D01*
X169648562Y-103035087D01*
X169626839Y-103047250D01*
X169607906Y-103063417D01*
X169592491Y-103082967D01*
X169581187Y-103105149D01*
X169574427Y-103129110D01*
X169572471Y-103153929D01*
X166715149Y-103153929D01*
X166634762Y-102858927D01*
X166595220Y-102763465D01*
X166343892Y-102628610D01*
X165467502Y-103505000D01*
X164412498Y-103505000D01*
X163536108Y-102628610D01*
X163284780Y-102763465D01*
X163171918Y-103100631D01*
X163127003Y-103453337D01*
X162737000Y-103453337D01*
X162737000Y-103229520D01*
X162629512Y-102689145D01*
X162418669Y-102180124D01*
X162365873Y-102101108D01*
X164063610Y-102101108D01*
X164940000Y-102977498D01*
X165816390Y-102101108D01*
X165681535Y-101849780D01*
X165344369Y-101736918D01*
X164991663Y-101692003D01*
X164636973Y-101716760D01*
X164293927Y-101810238D01*
X164198465Y-101849780D01*
X164063610Y-102101108D01*
X162365873Y-102101108D01*
X162112571Y-101722017D01*
X161722983Y-101332429D01*
X161264876Y-101026331D01*
X160755855Y-100815488D01*
X160215480Y-100708000D01*
X159664520Y-100708000D01*
X159124145Y-100815488D01*
X158615124Y-101026331D01*
X158157017Y-101332429D01*
X157767429Y-101722017D01*
X157461331Y-102180124D01*
X157440000Y-102231622D01*
X157418669Y-102180124D01*
X157112571Y-101722017D01*
X156722983Y-101332429D01*
X156567000Y-101228204D01*
X156567000Y-99347000D01*
X157123435Y-99347000D01*
X157669606Y-99238360D01*
X158184087Y-99025255D01*
X158647108Y-98715875D01*
X159040875Y-98322108D01*
X159350255Y-97859087D01*
X159563360Y-97344606D01*
X159672000Y-96798435D01*
X159672000Y-96241565D01*
X166718000Y-96241565D01*
X166718000Y-96798435D01*
X166826640Y-97344606D01*
X167039745Y-97859087D01*
X167349125Y-98322108D01*
X167742892Y-98715875D01*
X168205913Y-99025255D01*
X168720394Y-99238360D01*
X169266565Y-99347000D01*
X169823435Y-99347000D01*
X170369606Y-99238360D01*
X170884087Y-99025255D01*
X171347108Y-98715875D01*
X171567017Y-98495966D01*
X171651052Y-98521458D01*
X171970000Y-98552872D01*
X173470000Y-98552872D01*
X173788948Y-98521458D01*
X174095638Y-98428425D01*
X174378286Y-98277346D01*
X174626029Y-98074029D01*
X174829346Y-97826286D01*
X174980425Y-97543638D01*
X175073458Y-97236948D01*
X175104872Y-96918000D01*
X175104872Y-95868000D01*
X175073458Y-95549052D01*
X175067413Y-95529123D01*
X175107412Y-95123000D01*
X175065862Y-94701134D01*
X175001208Y-94488000D01*
X175065862Y-94274866D01*
X175107412Y-93853000D01*
X175065862Y-93431134D01*
X174943597Y-93028081D01*
X175030425Y-92865638D01*
X175123458Y-92558948D01*
X175154872Y-92240000D01*
X175154872Y-91849760D01*
X180838742Y-91849760D01*
X180977366Y-92104133D01*
X181319739Y-92220047D01*
X181678148Y-92266940D01*
X182038819Y-92243010D01*
X182387890Y-92149176D01*
X182496634Y-92104133D01*
X182635258Y-91849760D01*
X181737000Y-90951502D01*
X180838742Y-91849760D01*
X175154872Y-91849760D01*
X175154872Y-90640000D01*
X175127802Y-90365148D01*
X179894060Y-90365148D01*
X179917990Y-90725819D01*
X180011824Y-91074890D01*
X180056867Y-91183634D01*
X180311240Y-91322258D01*
X181209498Y-90424000D01*
X182264502Y-90424000D01*
X183162760Y-91322258D01*
X183417133Y-91183634D01*
X183533047Y-90841261D01*
X183579940Y-90482852D01*
X183556010Y-90122181D01*
X183462176Y-89773110D01*
X183417133Y-89664366D01*
X183162760Y-89525742D01*
X182264502Y-90424000D01*
X181209498Y-90424000D01*
X180311240Y-89525742D01*
X180056867Y-89664366D01*
X179940953Y-90006739D01*
X179894060Y-90365148D01*
X175127802Y-90365148D01*
X175123458Y-90321052D01*
X175030425Y-90014362D01*
X174948708Y-89861480D01*
X175053732Y-89607930D01*
X175147000Y-89139039D01*
X175147000Y-88998240D01*
X180838742Y-88998240D01*
X181737000Y-89896498D01*
X182635258Y-88998240D01*
X182496634Y-88743867D01*
X182154261Y-88627953D01*
X181795852Y-88581060D01*
X181435181Y-88604990D01*
X181086110Y-88698824D01*
X180977366Y-88743867D01*
X180838742Y-88998240D01*
X175147000Y-88998240D01*
X175147000Y-88660961D01*
X175066506Y-88256291D01*
X175293689Y-88505844D01*
X175614636Y-88742782D01*
X175975640Y-88912554D01*
X176284000Y-88836784D01*
X176284000Y-87368000D01*
X177030000Y-87368000D01*
X177030000Y-88836784D01*
X177338360Y-88912554D01*
X177699364Y-88742782D01*
X178020311Y-88505844D01*
X178288866Y-88210845D01*
X178494710Y-87869122D01*
X178574544Y-87676359D01*
X178495800Y-87368000D01*
X177030000Y-87368000D01*
X176284000Y-87368000D01*
X174818200Y-87368000D01*
X174762091Y-87587721D01*
X174605174Y-87352878D01*
X174267122Y-87014826D01*
X173869615Y-86749221D01*
X173427930Y-86566268D01*
X172959039Y-86473000D01*
X172480961Y-86473000D01*
X172012070Y-86566268D01*
X171570385Y-86749221D01*
X171172878Y-87014826D01*
X170834826Y-87352878D01*
X170569221Y-87750385D01*
X170386268Y-88192070D01*
X170293000Y-88660961D01*
X170293000Y-89139039D01*
X170386268Y-89607930D01*
X170491292Y-89861480D01*
X170409575Y-90014362D01*
X170316542Y-90321052D01*
X170285128Y-90640000D01*
X170285128Y-92240000D01*
X170316542Y-92558948D01*
X170409575Y-92865638D01*
X170496403Y-93028081D01*
X170374138Y-93431134D01*
X170338261Y-93795405D01*
X169823435Y-93693000D01*
X169266565Y-93693000D01*
X168720394Y-93801640D01*
X168205913Y-94014745D01*
X167742892Y-94324125D01*
X167349125Y-94717892D01*
X167039745Y-95180913D01*
X166826640Y-95695394D01*
X166718000Y-96241565D01*
X159672000Y-96241565D01*
X159563360Y-95695394D01*
X159350255Y-95180913D01*
X159040875Y-94717892D01*
X158869532Y-94546549D01*
X159282108Y-94270875D01*
X159675875Y-93877108D01*
X159985255Y-93414087D01*
X160198360Y-92899606D01*
X160307000Y-92353435D01*
X160307000Y-92342833D01*
X160409221Y-92589615D01*
X160674826Y-92987122D01*
X161012878Y-93325174D01*
X161410385Y-93590779D01*
X161852070Y-93773732D01*
X162320961Y-93867000D01*
X162799039Y-93867000D01*
X163267930Y-93773732D01*
X163709615Y-93590779D01*
X164107122Y-93325174D01*
X164445174Y-92987122D01*
X164710779Y-92589615D01*
X164893732Y-92147930D01*
X164987000Y-91679039D01*
X164987000Y-91200961D01*
X164893732Y-90732070D01*
X164710779Y-90290385D01*
X164630341Y-90170000D01*
X164710779Y-90049615D01*
X164893732Y-89607930D01*
X164987000Y-89139039D01*
X164987000Y-88660961D01*
X164893732Y-88192070D01*
X164710779Y-87750385D01*
X164445174Y-87352878D01*
X164107122Y-87014826D01*
X163709615Y-86749221D01*
X163267930Y-86566268D01*
X162799039Y-86473000D01*
X162320961Y-86473000D01*
X161852070Y-86566268D01*
X161761767Y-86603673D01*
X161382771Y-86350435D01*
X161293943Y-86313641D01*
X174739456Y-86313641D01*
X174818200Y-86622000D01*
X176284000Y-86622000D01*
X176284000Y-85153216D01*
X177030000Y-85153216D01*
X177030000Y-86622000D01*
X178495800Y-86622000D01*
X178574544Y-86313641D01*
X178494710Y-86120878D01*
X178288866Y-85779155D01*
X178020311Y-85484156D01*
X177699364Y-85247218D01*
X177338360Y-85077446D01*
X177030000Y-85153216D01*
X176284000Y-85153216D01*
X175975640Y-85077446D01*
X175614636Y-85247218D01*
X175293689Y-85484156D01*
X175025134Y-85779155D01*
X174819290Y-86120878D01*
X174739456Y-86313641D01*
X161293943Y-86313641D01*
X160859190Y-86133561D01*
X160303360Y-86023000D01*
X159736640Y-86023000D01*
X159180810Y-86133561D01*
X158657229Y-86350435D01*
X158186019Y-86665288D01*
X158079331Y-86771976D01*
X158016718Y-86773000D01*
X156567000Y-86773000D01*
X156567000Y-82056746D01*
X156655394Y-82093360D01*
X157201565Y-82202000D01*
X157758435Y-82202000D01*
X158304606Y-82093360D01*
X158819087Y-81880255D01*
X159282108Y-81570875D01*
X159675875Y-81177108D01*
X159985255Y-80714087D01*
X160198360Y-80199606D01*
X160291459Y-79731565D01*
X164178000Y-79731565D01*
X164178000Y-80288435D01*
X164286640Y-80834606D01*
X164499745Y-81349087D01*
X164809125Y-81812108D01*
X165202892Y-82205875D01*
X165665913Y-82515255D01*
X166180394Y-82728360D01*
X166726565Y-82837000D01*
X167283435Y-82837000D01*
X167829606Y-82728360D01*
X168344087Y-82515255D01*
X168807108Y-82205875D01*
X169200875Y-81812108D01*
X169510255Y-81349087D01*
X169545000Y-81265205D01*
X169579745Y-81349087D01*
X169889125Y-81812108D01*
X170282892Y-82205875D01*
X170745913Y-82515255D01*
X171260394Y-82728360D01*
X171806565Y-82837000D01*
X172363435Y-82837000D01*
X172909606Y-82728360D01*
X173305266Y-82564472D01*
X174813780Y-82564472D01*
X174857193Y-82669313D01*
X175036495Y-82981167D01*
X175273191Y-83252049D01*
X175558185Y-83471549D01*
X175880526Y-83631232D01*
X176157000Y-83552952D01*
X176157000Y-82288000D01*
X176903000Y-82288000D01*
X176903000Y-83552952D01*
X177179474Y-83631232D01*
X177501815Y-83471549D01*
X177786809Y-83252049D01*
X178023505Y-82981167D01*
X178202807Y-82669313D01*
X178246220Y-82564472D01*
X178164223Y-82288000D01*
X176903000Y-82288000D01*
X176157000Y-82288000D01*
X174895777Y-82288000D01*
X174813780Y-82564472D01*
X173305266Y-82564472D01*
X173424087Y-82515255D01*
X173887108Y-82205875D01*
X174280875Y-81812108D01*
X174590255Y-81349087D01*
X174624866Y-81265528D01*
X174813780Y-81265528D01*
X174895777Y-81542000D01*
X176157000Y-81542000D01*
X176157000Y-80277048D01*
X176903000Y-80277048D01*
X176903000Y-81542000D01*
X178164223Y-81542000D01*
X178246220Y-81265528D01*
X178202807Y-81160687D01*
X178023505Y-80848833D01*
X177786809Y-80577951D01*
X177501815Y-80358451D01*
X177179474Y-80198768D01*
X176903000Y-80277048D01*
X176157000Y-80277048D01*
X175880526Y-80198768D01*
X175558185Y-80358451D01*
X175273191Y-80577951D01*
X175036495Y-80848833D01*
X174857193Y-81160687D01*
X174813780Y-81265528D01*
X174624866Y-81265528D01*
X174803360Y-80834606D01*
X174912000Y-80288435D01*
X174912000Y-79731565D01*
X174803360Y-79185394D01*
X174743743Y-79041466D01*
X175190913Y-79340255D01*
X175705394Y-79553360D01*
X176251565Y-79662000D01*
X176808435Y-79662000D01*
X177354606Y-79553360D01*
X177869087Y-79340255D01*
X178332108Y-79030875D01*
X178725875Y-78637108D01*
X179035255Y-78174087D01*
X179248360Y-77659606D01*
X179357000Y-77113435D01*
X179357000Y-76556565D01*
X179248360Y-76010394D01*
X179035255Y-75495913D01*
X178725875Y-75032892D01*
X178332108Y-74639125D01*
X177869087Y-74329745D01*
X177354606Y-74116640D01*
X176808435Y-74008000D01*
X176251565Y-74008000D01*
X175705394Y-74116640D01*
X175190913Y-74329745D01*
X174727892Y-74639125D01*
X174334125Y-75032892D01*
X174024745Y-75495913D01*
X173811640Y-76010394D01*
X173703000Y-76556565D01*
X173703000Y-77113435D01*
X173811640Y-77659606D01*
X173871257Y-77803534D01*
X173424087Y-77504745D01*
X172909606Y-77291640D01*
X172363435Y-77183000D01*
X171806565Y-77183000D01*
X171260394Y-77291640D01*
X170745913Y-77504745D01*
X170282892Y-77814125D01*
X169889125Y-78207892D01*
X169579745Y-78670913D01*
X169545000Y-78754795D01*
X169510255Y-78670913D01*
X169200875Y-78207892D01*
X168807108Y-77814125D01*
X168344087Y-77504745D01*
X167829606Y-77291640D01*
X167283435Y-77183000D01*
X166726565Y-77183000D01*
X166180394Y-77291640D01*
X165665913Y-77504745D01*
X165202892Y-77814125D01*
X164809125Y-78207892D01*
X164499745Y-78670913D01*
X164286640Y-79185394D01*
X164178000Y-79731565D01*
X160291459Y-79731565D01*
X160307000Y-79653435D01*
X160307000Y-79096565D01*
X160198360Y-78550394D01*
X159985255Y-78035913D01*
X159675875Y-77572892D01*
X159282108Y-77179125D01*
X158819087Y-76869745D01*
X158304606Y-76656640D01*
X157758435Y-76548000D01*
X157201565Y-76548000D01*
X156655394Y-76656640D01*
X156140913Y-76869745D01*
X155677892Y-77179125D01*
X155284125Y-77572892D01*
X155259441Y-77609835D01*
X155029803Y-77380197D01*
X155010557Y-77364403D01*
X154988601Y-77352667D01*
X154964776Y-77345440D01*
X154940000Y-77343000D01*
X154491222Y-77343000D01*
X154292626Y-77236848D01*
X153987412Y-77144262D01*
X153670000Y-77113000D01*
X144294537Y-77113000D01*
X144217930Y-77081268D01*
X143749039Y-76988000D01*
X143270961Y-76988000D01*
X142802070Y-77081268D01*
X142725463Y-77113000D01*
X142062606Y-77113000D01*
X141097000Y-76147394D01*
X141097000Y-72560000D01*
X145220128Y-72560000D01*
X145220128Y-74760000D01*
X145251542Y-75078948D01*
X145344575Y-75385638D01*
X145495654Y-75668286D01*
X145698971Y-75916029D01*
X145946714Y-76119346D01*
X146229362Y-76270425D01*
X146536052Y-76363458D01*
X146855000Y-76394872D01*
X149055000Y-76394872D01*
X149373948Y-76363458D01*
X149680638Y-76270425D01*
X149963286Y-76119346D01*
X150211029Y-75916029D01*
X150414346Y-75668286D01*
X150565425Y-75385638D01*
X150658458Y-75078948D01*
X150689872Y-74760000D01*
X150689872Y-74033002D01*
X150864306Y-74033002D01*
X150784768Y-74293477D01*
X150939389Y-74596421D01*
X151150141Y-74863379D01*
X151408924Y-75084092D01*
X151705794Y-75250078D01*
X151766525Y-75275220D01*
X152027000Y-75191481D01*
X152027000Y-74033000D01*
X152773000Y-74033000D01*
X152773000Y-75191481D01*
X153033475Y-75275220D01*
X153094206Y-75250078D01*
X153391076Y-75084092D01*
X153649859Y-74863379D01*
X153860611Y-74596421D01*
X154015232Y-74293477D01*
X153935693Y-74033000D01*
X152773000Y-74033000D01*
X152027000Y-74033000D01*
X152007000Y-74033000D01*
X152007000Y-73287000D01*
X152027000Y-73287000D01*
X152027000Y-72128519D01*
X152773000Y-72128519D01*
X152773000Y-73287000D01*
X153935693Y-73287000D01*
X154015232Y-73026523D01*
X153860611Y-72723579D01*
X153649859Y-72456621D01*
X153391076Y-72235908D01*
X153094206Y-72069922D01*
X153033475Y-72044780D01*
X152773000Y-72128519D01*
X152027000Y-72128519D01*
X151766525Y-72044780D01*
X151705794Y-72069922D01*
X151408924Y-72235908D01*
X151150141Y-72456621D01*
X150939389Y-72723579D01*
X150784768Y-73026523D01*
X150864306Y-73286998D01*
X150689872Y-73286998D01*
X150689872Y-72560000D01*
X150658458Y-72241052D01*
X150565425Y-71934362D01*
X150414346Y-71651714D01*
X150211029Y-71403971D01*
X149963286Y-71200654D01*
X149680638Y-71049575D01*
X149373948Y-70956542D01*
X149055000Y-70925128D01*
X146855000Y-70925128D01*
X146536052Y-70956542D01*
X146229362Y-71049575D01*
X145946714Y-71200654D01*
X145698971Y-71403971D01*
X145495654Y-71651714D01*
X145344575Y-71934362D01*
X145251542Y-72241052D01*
X145220128Y-72560000D01*
X141097000Y-72560000D01*
X141097000Y-65761565D01*
X160368000Y-65761565D01*
X160368000Y-66318435D01*
X160476640Y-66864606D01*
X160689745Y-67379087D01*
X160999125Y-67842108D01*
X161392892Y-68235875D01*
X161855913Y-68545255D01*
X162370394Y-68758360D01*
X162916565Y-68867000D01*
X163473435Y-68867000D01*
X164019606Y-68758360D01*
X164534087Y-68545255D01*
X164997108Y-68235875D01*
X165390875Y-67842108D01*
X165700255Y-67379087D01*
X165913360Y-66864606D01*
X166022000Y-66318435D01*
X166022000Y-65761565D01*
X167988000Y-65761565D01*
X167988000Y-66318435D01*
X168096640Y-66864606D01*
X168309745Y-67379087D01*
X168619125Y-67842108D01*
X169012892Y-68235875D01*
X169475913Y-68545255D01*
X169990394Y-68758360D01*
X170536565Y-68867000D01*
X171093435Y-68867000D01*
X171639606Y-68758360D01*
X172154087Y-68545255D01*
X172617108Y-68235875D01*
X173010875Y-67842108D01*
X173320255Y-67379087D01*
X173533360Y-66864606D01*
X173642000Y-66318435D01*
X173642000Y-65761565D01*
X173533360Y-65215394D01*
X173377867Y-64840000D01*
X173695128Y-64840000D01*
X173695128Y-67240000D01*
X173726542Y-67558948D01*
X173819575Y-67865638D01*
X173970654Y-68148286D01*
X174173971Y-68396029D01*
X174421714Y-68599346D01*
X174704362Y-68750425D01*
X175011052Y-68843458D01*
X175330000Y-68874872D01*
X177730000Y-68874872D01*
X178048948Y-68843458D01*
X178355638Y-68750425D01*
X178543519Y-68650000D01*
X188935128Y-68650000D01*
X188935128Y-71050000D01*
X188966542Y-71368948D01*
X189059575Y-71675638D01*
X189210654Y-71958286D01*
X189413971Y-72206029D01*
X189661714Y-72409346D01*
X189944362Y-72560425D01*
X190251052Y-72653458D01*
X190570000Y-72684872D01*
X192970000Y-72684872D01*
X193288948Y-72653458D01*
X193595638Y-72560425D01*
X193878286Y-72409346D01*
X194126029Y-72206029D01*
X194329346Y-71958286D01*
X194480425Y-71675638D01*
X194573458Y-71368948D01*
X194604872Y-71050000D01*
X194604872Y-69791148D01*
X197427060Y-69791148D01*
X197450990Y-70151819D01*
X197544824Y-70500890D01*
X197589867Y-70609634D01*
X197844240Y-70748258D01*
X198742498Y-69850000D01*
X197844240Y-68951742D01*
X197589867Y-69090366D01*
X197473953Y-69432739D01*
X197427060Y-69791148D01*
X194604872Y-69791148D01*
X194604872Y-68650000D01*
X194573458Y-68331052D01*
X194480425Y-68024362D01*
X194329346Y-67741714D01*
X194126029Y-67493971D01*
X193878286Y-67290654D01*
X193595638Y-67139575D01*
X193288948Y-67046542D01*
X192970000Y-67015128D01*
X190570000Y-67015128D01*
X190251052Y-67046542D01*
X189944362Y-67139575D01*
X189661714Y-67290654D01*
X189413971Y-67493971D01*
X189210654Y-67741714D01*
X189059575Y-68024362D01*
X188966542Y-68331052D01*
X188935128Y-68650000D01*
X178543519Y-68650000D01*
X178638286Y-68599346D01*
X178886029Y-68396029D01*
X179089346Y-68148286D01*
X179240425Y-67865638D01*
X179333458Y-67558948D01*
X179342636Y-67465760D01*
X183131742Y-67465760D01*
X183270366Y-67720133D01*
X183612739Y-67836047D01*
X183971148Y-67882940D01*
X184331819Y-67859010D01*
X184680890Y-67765176D01*
X184789634Y-67720133D01*
X184928258Y-67465760D01*
X184030000Y-66567502D01*
X183131742Y-67465760D01*
X179342636Y-67465760D01*
X179364872Y-67240000D01*
X179364872Y-65981148D01*
X182187060Y-65981148D01*
X182210990Y-66341819D01*
X182304824Y-66690890D01*
X182349867Y-66799634D01*
X182604240Y-66938258D01*
X183502498Y-66040000D01*
X184557502Y-66040000D01*
X185455760Y-66938258D01*
X185710133Y-66799634D01*
X185826047Y-66457261D01*
X185872940Y-66098852D01*
X185849010Y-65738181D01*
X185755176Y-65389110D01*
X185710133Y-65280366D01*
X185455760Y-65141742D01*
X184557502Y-66040000D01*
X183502498Y-66040000D01*
X182604240Y-65141742D01*
X182349867Y-65280366D01*
X182233953Y-65622739D01*
X182187060Y-65981148D01*
X179364872Y-65981148D01*
X179364872Y-64840000D01*
X179342637Y-64614240D01*
X183131742Y-64614240D01*
X184030000Y-65512498D01*
X184928258Y-64614240D01*
X184789634Y-64359867D01*
X184447261Y-64243953D01*
X184088852Y-64197060D01*
X183728181Y-64220990D01*
X183379110Y-64314824D01*
X183270366Y-64359867D01*
X183131742Y-64614240D01*
X179342637Y-64614240D01*
X179333458Y-64521052D01*
X179240425Y-64214362D01*
X179089346Y-63931714D01*
X178886029Y-63683971D01*
X178638286Y-63480654D01*
X178355638Y-63329575D01*
X178048948Y-63236542D01*
X177730000Y-63205128D01*
X175330000Y-63205128D01*
X175011052Y-63236542D01*
X174704362Y-63329575D01*
X174421714Y-63480654D01*
X174173971Y-63683971D01*
X173970654Y-63931714D01*
X173819575Y-64214362D01*
X173726542Y-64521052D01*
X173695128Y-64840000D01*
X173377867Y-64840000D01*
X173320255Y-64700913D01*
X173010875Y-64237892D01*
X172617108Y-63844125D01*
X172154087Y-63534745D01*
X171639606Y-63321640D01*
X171093435Y-63213000D01*
X170536565Y-63213000D01*
X169990394Y-63321640D01*
X169475913Y-63534745D01*
X169012892Y-63844125D01*
X168619125Y-64237892D01*
X168309745Y-64700913D01*
X168096640Y-65215394D01*
X167988000Y-65761565D01*
X166022000Y-65761565D01*
X165913360Y-65215394D01*
X165700255Y-64700913D01*
X165390875Y-64237892D01*
X164997108Y-63844125D01*
X164534087Y-63534745D01*
X164019606Y-63321640D01*
X163473435Y-63213000D01*
X162916565Y-63213000D01*
X162370394Y-63321640D01*
X161855913Y-63534745D01*
X161392892Y-63844125D01*
X160999125Y-64237892D01*
X160689745Y-64700913D01*
X160476640Y-65215394D01*
X160368000Y-65761565D01*
X141097000Y-65761565D01*
X141097000Y-60072000D01*
X145371138Y-60072000D01*
X145332797Y-60164563D01*
%TA.AperFunction,Conductor*%
D34*
G36*
X145332797Y-60164563D02*
G01*
X145228000Y-60691414D01*
X145228000Y-61228586D01*
X145332797Y-61755437D01*
X145538364Y-62251719D01*
X145836801Y-62698361D01*
X146216639Y-63078199D01*
X146663281Y-63376636D01*
X147159563Y-63582203D01*
X147686414Y-63687000D01*
X148223586Y-63687000D01*
X148750437Y-63582203D01*
X149246719Y-63376636D01*
X149693361Y-63078199D01*
X149892801Y-62878759D01*
X149940654Y-62968286D01*
X150143971Y-63216029D01*
X150391714Y-63419346D01*
X150674362Y-63570425D01*
X150981052Y-63663458D01*
X151300000Y-63694872D01*
X153500000Y-63694872D01*
X153818948Y-63663458D01*
X154125638Y-63570425D01*
X154408286Y-63419346D01*
X154656029Y-63216029D01*
X154859346Y-62968286D01*
X155010425Y-62685638D01*
X155103458Y-62378948D01*
X155134872Y-62060000D01*
X155134872Y-60072000D01*
X186748871Y-60072000D01*
X186745128Y-60110000D01*
X186745128Y-61810000D01*
X186776542Y-62128948D01*
X186869575Y-62435638D01*
X187020654Y-62718286D01*
X187223971Y-62966029D01*
X187471714Y-63169346D01*
X187754362Y-63320425D01*
X188061052Y-63413458D01*
X188380000Y-63444872D01*
X190080000Y-63444872D01*
X190398948Y-63413458D01*
X190705638Y-63320425D01*
X190832348Y-63252697D01*
X191047486Y-63341810D01*
X191526037Y-63437000D01*
X192013963Y-63437000D01*
X192492514Y-63341810D01*
X192943299Y-63155089D01*
X193040000Y-63090475D01*
X193136701Y-63155089D01*
X193587486Y-63341810D01*
X194066037Y-63437000D01*
X194553963Y-63437000D01*
X195032514Y-63341810D01*
X195483299Y-63155089D01*
X195888995Y-62884011D01*
X196234011Y-62538995D01*
X196424561Y-62253818D01*
X196477000Y-62232718D01*
X196477000Y-62175337D01*
X196505089Y-62133299D01*
X196691810Y-61682514D01*
X196761332Y-61333000D01*
X197223000Y-61333000D01*
X197223000Y-62232718D01*
X197443265Y-62321345D01*
X197652328Y-62209615D01*
X197880699Y-62029078D01*
X198069461Y-61807457D01*
X198120000Y-61716925D01*
X198170539Y-61807457D01*
X198359301Y-62029078D01*
X198587672Y-62209615D01*
X198796735Y-62321345D01*
X199017000Y-62232718D01*
X199017000Y-61333000D01*
X197223000Y-61333000D01*
X196761332Y-61333000D01*
X196787000Y-61203963D01*
X196787000Y-60716037D01*
X196757355Y-60567000D01*
X197223000Y-60567000D01*
X197223000Y-60587000D01*
X199017000Y-60587000D01*
X199017000Y-60567000D01*
X199763000Y-60567000D01*
X199763000Y-60587000D01*
X199783000Y-60587000D01*
X199783000Y-61333000D01*
X199763000Y-61333000D01*
X199763000Y-62232718D01*
X199983265Y-62321345D01*
X200192328Y-62209615D01*
X200278001Y-62141887D01*
X200278001Y-68314494D01*
X200168257Y-68424238D01*
X200029634Y-68169867D01*
X199687261Y-68053953D01*
X199328852Y-68007060D01*
X198968181Y-68030990D01*
X198619110Y-68124824D01*
X198510366Y-68169867D01*
X198371742Y-68424240D01*
X199270000Y-69322498D01*
X199284142Y-69308356D01*
X199811644Y-69835858D01*
X199797502Y-69850000D01*
X199811644Y-69864142D01*
X199284142Y-70391644D01*
X199270000Y-70377502D01*
X198371742Y-71275760D01*
X198510366Y-71530133D01*
X198852739Y-71646047D01*
X199211148Y-71692940D01*
X199571819Y-71669010D01*
X199920890Y-71575176D01*
X200029634Y-71530133D01*
X200168257Y-71275762D01*
X200278001Y-71385506D01*
X200278000Y-84659891D01*
X200230638Y-84634575D01*
X199923948Y-84541542D01*
X199605000Y-84510128D01*
X197905000Y-84510128D01*
X197586052Y-84541542D01*
X197507325Y-84565423D01*
X197762122Y-84395174D01*
X198100174Y-84057122D01*
X198365779Y-83659615D01*
X198548732Y-83217930D01*
X198642000Y-82749039D01*
X198642000Y-82270961D01*
X198548732Y-81802070D01*
X198365779Y-81360385D01*
X198100174Y-80962878D01*
X197762122Y-80624826D01*
X197650094Y-80549972D01*
X197650000Y-80541750D01*
X197491250Y-80383000D01*
X197400203Y-80383000D01*
X197364615Y-80359221D01*
X196922930Y-80176268D01*
X196454039Y-80083000D01*
X195975961Y-80083000D01*
X195507070Y-80176268D01*
X195065385Y-80359221D01*
X195029797Y-80383000D01*
X194938750Y-80383000D01*
X194780000Y-80541750D01*
X194779906Y-80549972D01*
X194667878Y-80624826D01*
X194329826Y-80962878D01*
X194064221Y-81360385D01*
X193881268Y-81802070D01*
X193788000Y-82270961D01*
X193788000Y-82749039D01*
X193881268Y-83217930D01*
X194064221Y-83659615D01*
X194329826Y-84057122D01*
X194667878Y-84395174D01*
X195065385Y-84660779D01*
X195507070Y-84843732D01*
X195975961Y-84937000D01*
X196454039Y-84937000D01*
X196922930Y-84843732D01*
X196929019Y-84841210D01*
X196748971Y-84988971D01*
X196545654Y-85236714D01*
X196394575Y-85519362D01*
X196301542Y-85826052D01*
X196270128Y-86145000D01*
X196270128Y-87845000D01*
X196301542Y-88163948D01*
X196356672Y-88345689D01*
X196239108Y-88228125D01*
X195776087Y-87918745D01*
X195261606Y-87705640D01*
X194715435Y-87597000D01*
X194158565Y-87597000D01*
X193612394Y-87705640D01*
X193097913Y-87918745D01*
X192634892Y-88228125D01*
X192383553Y-88479464D01*
X192391872Y-88395000D01*
X192391872Y-85595000D01*
X192360458Y-85276052D01*
X192267425Y-84969362D01*
X192116346Y-84686714D01*
X191913029Y-84438971D01*
X191665286Y-84235654D01*
X191382638Y-84084575D01*
X191133870Y-84009113D01*
X191425875Y-83717108D01*
X191735255Y-83254087D01*
X191948360Y-82739606D01*
X192057000Y-82193435D01*
X192057000Y-81636565D01*
X191948360Y-81090394D01*
X191735255Y-80575913D01*
X191425875Y-80112892D01*
X191032108Y-79719125D01*
X190569087Y-79409745D01*
X190485205Y-79375000D01*
X190569087Y-79340255D01*
X190764027Y-79210000D01*
X194776928Y-79210000D01*
X194780000Y-79478250D01*
X194938750Y-79637000D01*
X195842000Y-79637000D01*
X195842000Y-78733750D01*
X196588000Y-78733750D01*
X196588000Y-79637000D01*
X197491250Y-79637000D01*
X197650000Y-79478250D01*
X197653072Y-79210000D01*
X197640812Y-79085518D01*
X197604502Y-78965820D01*
X197545537Y-78855506D01*
X197466185Y-78758815D01*
X197369494Y-78679463D01*
X197259180Y-78620498D01*
X197139482Y-78584188D01*
X197015000Y-78571928D01*
X196746750Y-78575000D01*
X196588000Y-78733750D01*
X195842000Y-78733750D01*
X195683250Y-78575000D01*
X195415000Y-78571928D01*
X195290518Y-78584188D01*
X195170820Y-78620498D01*
X195060506Y-78679463D01*
X194963815Y-78758815D01*
X194884463Y-78855506D01*
X194825498Y-78965820D01*
X194789188Y-79085518D01*
X194776928Y-79210000D01*
X190764027Y-79210000D01*
X191032108Y-79030875D01*
X191425875Y-78637108D01*
X191735255Y-78174087D01*
X191948360Y-77659606D01*
X192057000Y-77113435D01*
X192057000Y-76556565D01*
X191948360Y-76010394D01*
X191735255Y-75495913D01*
X191425875Y-75032892D01*
X191032108Y-74639125D01*
X190569087Y-74329745D01*
X190054606Y-74116640D01*
X189508435Y-74008000D01*
X188951565Y-74008000D01*
X188405394Y-74116640D01*
X187890913Y-74329745D01*
X187427892Y-74639125D01*
X187034125Y-75032892D01*
X186724745Y-75495913D01*
X186511640Y-76010394D01*
X186403000Y-76556565D01*
X186403000Y-77113435D01*
X186511640Y-77659606D01*
X186724745Y-78174087D01*
X187034125Y-78637108D01*
X187427892Y-79030875D01*
X187890913Y-79340255D01*
X187974795Y-79375000D01*
X187890913Y-79409745D01*
X187427892Y-79719125D01*
X187034125Y-80112892D01*
X186724745Y-80575913D01*
X186511640Y-81090394D01*
X186403000Y-81636565D01*
X186403000Y-82193435D01*
X186511640Y-82739606D01*
X186724745Y-83254087D01*
X187034125Y-83717108D01*
X187385246Y-84068229D01*
X187331362Y-84084575D01*
X187048714Y-84235654D01*
X186800971Y-84438971D01*
X186597654Y-84686714D01*
X186446575Y-84969362D01*
X186353542Y-85276052D01*
X186322128Y-85595000D01*
X186322128Y-88395000D01*
X186353542Y-88713948D01*
X186446575Y-89020638D01*
X186597654Y-89303286D01*
X186800971Y-89551029D01*
X187048714Y-89754346D01*
X187331362Y-89905425D01*
X187638052Y-89998458D01*
X187957000Y-90029872D01*
X190757000Y-90029872D01*
X191075948Y-89998458D01*
X191382638Y-89905425D01*
X191665286Y-89754346D01*
X191692214Y-89732247D01*
X191610000Y-90145565D01*
X191610000Y-90702435D01*
X191718640Y-91248606D01*
X191931745Y-91763087D01*
X192241125Y-92226108D01*
X192634892Y-92619875D01*
X193097913Y-92929255D01*
X193612394Y-93142360D01*
X194158565Y-93251000D01*
X194715435Y-93251000D01*
X195261606Y-93142360D01*
X195776087Y-92929255D01*
X196239108Y-92619875D01*
X196321472Y-92537511D01*
X196373190Y-92797514D01*
X196559911Y-93248299D01*
X196624525Y-93345000D01*
X196559911Y-93441701D01*
X196373190Y-93892486D01*
X196278000Y-94371037D01*
X196278000Y-94858963D01*
X196373190Y-95337514D01*
X196559911Y-95788299D01*
X196624525Y-95885000D01*
X196559911Y-95981701D01*
X196373190Y-96432486D01*
X196278000Y-96911037D01*
X196278000Y-97398963D01*
X196373190Y-97877514D01*
X196559911Y-98328299D01*
X196624525Y-98425000D01*
X196559911Y-98521701D01*
X196373190Y-98972486D01*
X196278000Y-99451037D01*
X196278000Y-99938963D01*
X196373190Y-100417514D01*
X196559911Y-100868299D01*
X196624525Y-100965000D01*
X196559911Y-101061701D01*
X196373190Y-101512486D01*
X196278000Y-101991037D01*
X196278000Y-102478963D01*
X196373190Y-102957514D01*
X196559911Y-103408299D01*
X196830989Y-103813995D01*
X197176005Y-104159011D01*
X197461182Y-104349561D01*
X197482282Y-104402000D01*
X197539663Y-104402000D01*
X197581701Y-104430089D01*
X198032486Y-104616810D01*
X198511037Y-104712000D01*
X198998963Y-104712000D01*
X199477514Y-104616810D01*
X199928299Y-104430089D01*
X199970337Y-104402000D01*
X200027718Y-104402000D01*
X200048818Y-104349561D01*
X200278000Y-104196426D01*
X200278000Y-106298000D01*
X180555589Y-106298000D01*
X181075855Y-106194512D01*
X181584876Y-105983669D01*
X182042983Y-105677571D01*
X182432571Y-105287983D01*
X182685872Y-104908892D01*
X184383610Y-104908892D01*
X184518465Y-105160220D01*
X184855631Y-105273082D01*
X185208337Y-105317997D01*
X185563027Y-105293240D01*
X185906073Y-105199762D01*
X186001535Y-105160220D01*
X186136390Y-104908892D01*
X185786086Y-104558588D01*
X190771305Y-104558588D01*
X190773745Y-104583364D01*
X190780972Y-104607189D01*
X190792708Y-104629145D01*
X190808502Y-104648391D01*
X191515609Y-105355498D01*
X191533137Y-105370124D01*
X191554899Y-105382217D01*
X191578602Y-105389833D01*
X191603335Y-105392678D01*
X191628148Y-105390643D01*
X191652088Y-105383807D01*
X191674233Y-105372431D01*
X191679482Y-105368265D01*
X197393655Y-105368265D01*
X197505385Y-105577328D01*
X197685922Y-105805699D01*
X197907543Y-105994461D01*
X198161732Y-106136360D01*
X198382000Y-106053657D01*
X198382000Y-105148000D01*
X199128000Y-105148000D01*
X199128000Y-106053657D01*
X199348268Y-106136360D01*
X199602457Y-105994461D01*
X199824078Y-105805699D01*
X200004615Y-105577328D01*
X200116345Y-105368265D01*
X200027718Y-105148000D01*
X199128000Y-105148000D01*
X198382000Y-105148000D01*
X197482282Y-105148000D01*
X197393655Y-105368265D01*
X191679482Y-105368265D01*
X191693734Y-105356954D01*
X191852015Y-105203767D01*
X191990642Y-105080330D01*
X192115296Y-104981003D01*
X192230655Y-104901120D01*
X192341977Y-104835755D01*
X192454912Y-104780110D01*
X192575178Y-104729714D01*
X192708051Y-104680436D01*
X192857897Y-104628385D01*
X193028483Y-104569710D01*
X193055655Y-104556572D01*
X193075205Y-104541157D01*
X193091372Y-104522224D01*
X193103535Y-104500501D01*
X193111227Y-104476822D01*
X193114151Y-104452098D01*
X193139529Y-103153929D01*
X193136605Y-103124241D01*
X193128913Y-103100562D01*
X193116750Y-103078839D01*
X193100583Y-103059906D01*
X193081033Y-103044491D01*
X193058851Y-103033187D01*
X193034890Y-103026427D01*
X193010071Y-103024471D01*
X191711902Y-103049849D01*
X191682011Y-103054020D01*
X191658675Y-103062696D01*
X191637480Y-103075757D01*
X191619240Y-103092702D01*
X191604657Y-103112880D01*
X191594290Y-103135516D01*
X191535578Y-103306203D01*
X191483563Y-103455948D01*
X191434285Y-103588821D01*
X191383889Y-103709087D01*
X191328244Y-103822022D01*
X191262879Y-103933344D01*
X191182996Y-104048703D01*
X191083669Y-104173357D01*
X190960243Y-104311972D01*
X190807045Y-104470266D01*
X190792708Y-104488031D01*
X190780972Y-104509987D01*
X190773745Y-104533812D01*
X190771305Y-104558588D01*
X185786086Y-104558588D01*
X185260000Y-104032502D01*
X184383610Y-104908892D01*
X182685872Y-104908892D01*
X182738669Y-104829876D01*
X182949512Y-104320855D01*
X183057000Y-103780480D01*
X183057000Y-103453337D01*
X183447003Y-103453337D01*
X183471760Y-103808027D01*
X183565238Y-104151073D01*
X183604780Y-104246535D01*
X183856108Y-104381390D01*
X184732498Y-103505000D01*
X185787502Y-103505000D01*
X186663892Y-104381390D01*
X186915220Y-104246535D01*
X187028082Y-103909369D01*
X187072997Y-103556663D01*
X187048240Y-103201973D01*
X186954762Y-102858927D01*
X186915220Y-102763465D01*
X186663892Y-102628610D01*
X185787502Y-103505000D01*
X184732498Y-103505000D01*
X183856108Y-102628610D01*
X183604780Y-102763465D01*
X183491918Y-103100631D01*
X183447003Y-103453337D01*
X183057000Y-103453337D01*
X183057000Y-103229520D01*
X182949512Y-102689145D01*
X182738669Y-102180124D01*
X182685873Y-102101108D01*
X184383610Y-102101108D01*
X185260000Y-102977498D01*
X186136390Y-102101108D01*
X186001535Y-101849780D01*
X185664369Y-101736918D01*
X185311663Y-101692003D01*
X184956973Y-101716760D01*
X184613927Y-101810238D01*
X184518465Y-101849780D01*
X184383610Y-102101108D01*
X182685873Y-102101108D01*
X182432571Y-101722017D01*
X182042983Y-101332429D01*
X181584876Y-101026331D01*
X181075855Y-100815488D01*
X180535480Y-100708000D01*
X179984520Y-100708000D01*
X179444145Y-100815488D01*
X178935124Y-101026331D01*
X178477017Y-101332429D01*
X178087429Y-101722017D01*
X177781331Y-102180124D01*
X177760000Y-102231622D01*
X177738669Y-102180124D01*
X177432571Y-101722017D01*
X177042983Y-101332429D01*
X176584876Y-101026331D01*
X176075855Y-100815488D01*
X175535480Y-100708000D01*
X174984520Y-100708000D01*
X174444145Y-100815488D01*
X173935124Y-101026331D01*
X173477017Y-101332429D01*
X173087429Y-101722017D01*
X172781331Y-102180124D01*
X172570488Y-102689145D01*
X172463000Y-103229520D01*
X172463000Y-103780480D01*
X172570488Y-104320855D01*
X172781331Y-104829876D01*
X173087429Y-105287983D01*
X173477017Y-105677571D01*
X173935124Y-105983669D01*
X174444145Y-106194512D01*
X174964411Y-106298000D01*
X160235589Y-106298000D01*
X160755855Y-106194512D01*
X161264876Y-105983669D01*
X161722983Y-105677571D01*
X162112571Y-105287983D01*
X162365872Y-104908892D01*
X164063610Y-104908892D01*
X164198465Y-105160220D01*
X164535631Y-105273082D01*
X164888337Y-105317997D01*
X165243027Y-105293240D01*
X165586073Y-105199762D01*
X165681535Y-105160220D01*
X165816390Y-104908892D01*
X164940000Y-104032502D01*
X164063610Y-104908892D01*
X162365872Y-104908892D01*
X162418669Y-104829876D01*
X162629512Y-104320855D01*
X162737000Y-103780480D01*
X162737000Y-103453337D01*
X163127003Y-103453337D01*
X163151760Y-103808027D01*
X163245238Y-104151073D01*
X163284780Y-104246535D01*
X163536108Y-104381390D01*
X164412498Y-103505000D01*
X165467502Y-103505000D01*
X166343892Y-104381390D01*
X166595220Y-104246535D01*
X166708082Y-103909369D01*
X166752997Y-103556663D01*
X166728240Y-103201973D01*
X166715149Y-103153929D01*
X169572471Y-103153929D01*
X169597849Y-104452098D01*
X169602021Y-104481990D01*
X169610696Y-104505326D01*
X169623758Y-104526521D01*
X169640703Y-104544760D01*
X169660881Y-104559344D01*
X169683517Y-104569710D01*
X169854101Y-104628385D01*
X170003948Y-104680436D01*
X170136821Y-104729714D01*
X170257087Y-104780110D01*
X170370022Y-104835755D01*
X170481344Y-104901120D01*
X170596703Y-104981003D01*
X170721357Y-105080330D01*
X170859984Y-105203767D01*
X171018266Y-105356954D01*
X171036031Y-105371292D01*
X171057987Y-105383028D01*
X171081812Y-105390255D01*
X171106588Y-105392695D01*
X171131364Y-105390255D01*
X171155189Y-105383028D01*
X171177145Y-105371292D01*
X171196391Y-105355498D01*
X171903498Y-104648391D01*
X171918124Y-104630863D01*
X171930217Y-104609101D01*
X171937833Y-104585398D01*
X171940678Y-104560665D01*
X171938643Y-104535852D01*
X171931807Y-104511913D01*
X171920431Y-104489767D01*
X171904954Y-104470266D01*
X171751767Y-104311984D01*
X171628330Y-104173357D01*
X171529003Y-104048703D01*
X171449120Y-103933344D01*
X171383755Y-103822022D01*
X171328110Y-103709087D01*
X171277714Y-103588821D01*
X171228436Y-103455948D01*
X171176385Y-103306101D01*
X171117710Y-103135517D01*
X171104572Y-103108345D01*
X171089157Y-103088795D01*
X171070224Y-103072628D01*
X171048501Y-103060465D01*
X171024822Y-103052773D01*
X171000098Y-103049849D01*
X169701929Y-103024471D01*
X169672241Y-103027395D01*
X169648562Y-103035087D01*
X169626839Y-103047250D01*
X169607906Y-103063417D01*
X169592491Y-103082967D01*
X169581187Y-103105149D01*
X169574427Y-103129110D01*
X169572471Y-103153929D01*
X166715149Y-103153929D01*
X166634762Y-102858927D01*
X166595220Y-102763465D01*
X166343892Y-102628610D01*
X165467502Y-103505000D01*
X164412498Y-103505000D01*
X163536108Y-102628610D01*
X163284780Y-102763465D01*
X163171918Y-103100631D01*
X163127003Y-103453337D01*
X162737000Y-103453337D01*
X162737000Y-103229520D01*
X162629512Y-102689145D01*
X162418669Y-102180124D01*
X162365873Y-102101108D01*
X164063610Y-102101108D01*
X164940000Y-102977498D01*
X165816390Y-102101108D01*
X165681535Y-101849780D01*
X165344369Y-101736918D01*
X164991663Y-101692003D01*
X164636973Y-101716760D01*
X164293927Y-101810238D01*
X164198465Y-101849780D01*
X164063610Y-102101108D01*
X162365873Y-102101108D01*
X162112571Y-101722017D01*
X161722983Y-101332429D01*
X161264876Y-101026331D01*
X160755855Y-100815488D01*
X160215480Y-100708000D01*
X159664520Y-100708000D01*
X159124145Y-100815488D01*
X158615124Y-101026331D01*
X158157017Y-101332429D01*
X157767429Y-101722017D01*
X157461331Y-102180124D01*
X157440000Y-102231622D01*
X157418669Y-102180124D01*
X157112571Y-101722017D01*
X156722983Y-101332429D01*
X156567000Y-101228204D01*
X156567000Y-99347000D01*
X157123435Y-99347000D01*
X157669606Y-99238360D01*
X158184087Y-99025255D01*
X158647108Y-98715875D01*
X159040875Y-98322108D01*
X159350255Y-97859087D01*
X159563360Y-97344606D01*
X159672000Y-96798435D01*
X159672000Y-96241565D01*
X166718000Y-96241565D01*
X166718000Y-96798435D01*
X166826640Y-97344606D01*
X167039745Y-97859087D01*
X167349125Y-98322108D01*
X167742892Y-98715875D01*
X168205913Y-99025255D01*
X168720394Y-99238360D01*
X169266565Y-99347000D01*
X169823435Y-99347000D01*
X170369606Y-99238360D01*
X170884087Y-99025255D01*
X171347108Y-98715875D01*
X171567017Y-98495966D01*
X171651052Y-98521458D01*
X171970000Y-98552872D01*
X173470000Y-98552872D01*
X173788948Y-98521458D01*
X174095638Y-98428425D01*
X174378286Y-98277346D01*
X174626029Y-98074029D01*
X174829346Y-97826286D01*
X174980425Y-97543638D01*
X175073458Y-97236948D01*
X175104872Y-96918000D01*
X175104872Y-95868000D01*
X175073458Y-95549052D01*
X175067413Y-95529123D01*
X175107412Y-95123000D01*
X175065862Y-94701134D01*
X175001208Y-94488000D01*
X175065862Y-94274866D01*
X175107412Y-93853000D01*
X175065862Y-93431134D01*
X174943597Y-93028081D01*
X175030425Y-92865638D01*
X175123458Y-92558948D01*
X175154872Y-92240000D01*
X175154872Y-91849760D01*
X180838742Y-91849760D01*
X180977366Y-92104133D01*
X181319739Y-92220047D01*
X181678148Y-92266940D01*
X182038819Y-92243010D01*
X182387890Y-92149176D01*
X182496634Y-92104133D01*
X182635258Y-91849760D01*
X181737000Y-90951502D01*
X180838742Y-91849760D01*
X175154872Y-91849760D01*
X175154872Y-90640000D01*
X175127802Y-90365148D01*
X179894060Y-90365148D01*
X179917990Y-90725819D01*
X180011824Y-91074890D01*
X180056867Y-91183634D01*
X180311240Y-91322258D01*
X181209498Y-90424000D01*
X182264502Y-90424000D01*
X183162760Y-91322258D01*
X183417133Y-91183634D01*
X183533047Y-90841261D01*
X183579940Y-90482852D01*
X183556010Y-90122181D01*
X183462176Y-89773110D01*
X183417133Y-89664366D01*
X183162760Y-89525742D01*
X182264502Y-90424000D01*
X181209498Y-90424000D01*
X180311240Y-89525742D01*
X180056867Y-89664366D01*
X179940953Y-90006739D01*
X179894060Y-90365148D01*
X175127802Y-90365148D01*
X175123458Y-90321052D01*
X175030425Y-90014362D01*
X174948708Y-89861480D01*
X175053732Y-89607930D01*
X175147000Y-89139039D01*
X175147000Y-88998240D01*
X180838742Y-88998240D01*
X181737000Y-89896498D01*
X182635258Y-88998240D01*
X182496634Y-88743867D01*
X182154261Y-88627953D01*
X181795852Y-88581060D01*
X181435181Y-88604990D01*
X181086110Y-88698824D01*
X180977366Y-88743867D01*
X180838742Y-88998240D01*
X175147000Y-88998240D01*
X175147000Y-88660961D01*
X175066506Y-88256291D01*
X175293689Y-88505844D01*
X175614636Y-88742782D01*
X175975640Y-88912554D01*
X176284000Y-88836784D01*
X176284000Y-87368000D01*
X177030000Y-87368000D01*
X177030000Y-88836784D01*
X177338360Y-88912554D01*
X177699364Y-88742782D01*
X178020311Y-88505844D01*
X178288866Y-88210845D01*
X178494710Y-87869122D01*
X178574544Y-87676359D01*
X178495800Y-87368000D01*
X177030000Y-87368000D01*
X176284000Y-87368000D01*
X174818200Y-87368000D01*
X174762091Y-87587721D01*
X174605174Y-87352878D01*
X174267122Y-87014826D01*
X173869615Y-86749221D01*
X173427930Y-86566268D01*
X172959039Y-86473000D01*
X172480961Y-86473000D01*
X172012070Y-86566268D01*
X171570385Y-86749221D01*
X171172878Y-87014826D01*
X170834826Y-87352878D01*
X170569221Y-87750385D01*
X170386268Y-88192070D01*
X170293000Y-88660961D01*
X170293000Y-89139039D01*
X170386268Y-89607930D01*
X170491292Y-89861480D01*
X170409575Y-90014362D01*
X170316542Y-90321052D01*
X170285128Y-90640000D01*
X170285128Y-92240000D01*
X170316542Y-92558948D01*
X170409575Y-92865638D01*
X170496403Y-93028081D01*
X170374138Y-93431134D01*
X170338261Y-93795405D01*
X169823435Y-93693000D01*
X169266565Y-93693000D01*
X168720394Y-93801640D01*
X168205913Y-94014745D01*
X167742892Y-94324125D01*
X167349125Y-94717892D01*
X167039745Y-95180913D01*
X166826640Y-95695394D01*
X166718000Y-96241565D01*
X159672000Y-96241565D01*
X159563360Y-95695394D01*
X159350255Y-95180913D01*
X159040875Y-94717892D01*
X158869532Y-94546549D01*
X159282108Y-94270875D01*
X159675875Y-93877108D01*
X159985255Y-93414087D01*
X160198360Y-92899606D01*
X160307000Y-92353435D01*
X160307000Y-92342833D01*
X160409221Y-92589615D01*
X160674826Y-92987122D01*
X161012878Y-93325174D01*
X161410385Y-93590779D01*
X161852070Y-93773732D01*
X162320961Y-93867000D01*
X162799039Y-93867000D01*
X163267930Y-93773732D01*
X163709615Y-93590779D01*
X164107122Y-93325174D01*
X164445174Y-92987122D01*
X164710779Y-92589615D01*
X164893732Y-92147930D01*
X164987000Y-91679039D01*
X164987000Y-91200961D01*
X164893732Y-90732070D01*
X164710779Y-90290385D01*
X164630341Y-90170000D01*
X164710779Y-90049615D01*
X164893732Y-89607930D01*
X164987000Y-89139039D01*
X164987000Y-88660961D01*
X164893732Y-88192070D01*
X164710779Y-87750385D01*
X164445174Y-87352878D01*
X164107122Y-87014826D01*
X163709615Y-86749221D01*
X163267930Y-86566268D01*
X162799039Y-86473000D01*
X162320961Y-86473000D01*
X161852070Y-86566268D01*
X161761767Y-86603673D01*
X161382771Y-86350435D01*
X161293943Y-86313641D01*
X174739456Y-86313641D01*
X174818200Y-86622000D01*
X176284000Y-86622000D01*
X176284000Y-85153216D01*
X177030000Y-85153216D01*
X177030000Y-86622000D01*
X178495800Y-86622000D01*
X178574544Y-86313641D01*
X178494710Y-86120878D01*
X178288866Y-85779155D01*
X178020311Y-85484156D01*
X177699364Y-85247218D01*
X177338360Y-85077446D01*
X177030000Y-85153216D01*
X176284000Y-85153216D01*
X175975640Y-85077446D01*
X175614636Y-85247218D01*
X175293689Y-85484156D01*
X175025134Y-85779155D01*
X174819290Y-86120878D01*
X174739456Y-86313641D01*
X161293943Y-86313641D01*
X160859190Y-86133561D01*
X160303360Y-86023000D01*
X159736640Y-86023000D01*
X159180810Y-86133561D01*
X158657229Y-86350435D01*
X158186019Y-86665288D01*
X158079331Y-86771976D01*
X158016718Y-86773000D01*
X156567000Y-86773000D01*
X156567000Y-82056746D01*
X156655394Y-82093360D01*
X157201565Y-82202000D01*
X157758435Y-82202000D01*
X158304606Y-82093360D01*
X158819087Y-81880255D01*
X159282108Y-81570875D01*
X159675875Y-81177108D01*
X159985255Y-80714087D01*
X160198360Y-80199606D01*
X160291459Y-79731565D01*
X164178000Y-79731565D01*
X164178000Y-80288435D01*
X164286640Y-80834606D01*
X164499745Y-81349087D01*
X164809125Y-81812108D01*
X165202892Y-82205875D01*
X165665913Y-82515255D01*
X166180394Y-82728360D01*
X166726565Y-82837000D01*
X167283435Y-82837000D01*
X167829606Y-82728360D01*
X168344087Y-82515255D01*
X168807108Y-82205875D01*
X169200875Y-81812108D01*
X169510255Y-81349087D01*
X169545000Y-81265205D01*
X169579745Y-81349087D01*
X169889125Y-81812108D01*
X170282892Y-82205875D01*
X170745913Y-82515255D01*
X171260394Y-82728360D01*
X171806565Y-82837000D01*
X172363435Y-82837000D01*
X172909606Y-82728360D01*
X173305266Y-82564472D01*
X174813780Y-82564472D01*
X174857193Y-82669313D01*
X175036495Y-82981167D01*
X175273191Y-83252049D01*
X175558185Y-83471549D01*
X175880526Y-83631232D01*
X176157000Y-83552952D01*
X176157000Y-82288000D01*
X176903000Y-82288000D01*
X176903000Y-83552952D01*
X177179474Y-83631232D01*
X177501815Y-83471549D01*
X177786809Y-83252049D01*
X178023505Y-82981167D01*
X178202807Y-82669313D01*
X178246220Y-82564472D01*
X178164223Y-82288000D01*
X176903000Y-82288000D01*
X176157000Y-82288000D01*
X174895777Y-82288000D01*
X174813780Y-82564472D01*
X173305266Y-82564472D01*
X173424087Y-82515255D01*
X173887108Y-82205875D01*
X174280875Y-81812108D01*
X174590255Y-81349087D01*
X174624866Y-81265528D01*
X174813780Y-81265528D01*
X174895777Y-81542000D01*
X176157000Y-81542000D01*
X176157000Y-80277048D01*
X176903000Y-80277048D01*
X176903000Y-81542000D01*
X178164223Y-81542000D01*
X178246220Y-81265528D01*
X178202807Y-81160687D01*
X178023505Y-80848833D01*
X177786809Y-80577951D01*
X177501815Y-80358451D01*
X177179474Y-80198768D01*
X176903000Y-80277048D01*
X176157000Y-80277048D01*
X175880526Y-80198768D01*
X175558185Y-80358451D01*
X175273191Y-80577951D01*
X175036495Y-80848833D01*
X174857193Y-81160687D01*
X174813780Y-81265528D01*
X174624866Y-81265528D01*
X174803360Y-80834606D01*
X174912000Y-80288435D01*
X174912000Y-79731565D01*
X174803360Y-79185394D01*
X174743743Y-79041466D01*
X175190913Y-79340255D01*
X175705394Y-79553360D01*
X176251565Y-79662000D01*
X176808435Y-79662000D01*
X177354606Y-79553360D01*
X177869087Y-79340255D01*
X178332108Y-79030875D01*
X178725875Y-78637108D01*
X179035255Y-78174087D01*
X179248360Y-77659606D01*
X179357000Y-77113435D01*
X179357000Y-76556565D01*
X179248360Y-76010394D01*
X179035255Y-75495913D01*
X178725875Y-75032892D01*
X178332108Y-74639125D01*
X177869087Y-74329745D01*
X177354606Y-74116640D01*
X176808435Y-74008000D01*
X176251565Y-74008000D01*
X175705394Y-74116640D01*
X175190913Y-74329745D01*
X174727892Y-74639125D01*
X174334125Y-75032892D01*
X174024745Y-75495913D01*
X173811640Y-76010394D01*
X173703000Y-76556565D01*
X173703000Y-77113435D01*
X173811640Y-77659606D01*
X173871257Y-77803534D01*
X173424087Y-77504745D01*
X172909606Y-77291640D01*
X172363435Y-77183000D01*
X171806565Y-77183000D01*
X171260394Y-77291640D01*
X170745913Y-77504745D01*
X170282892Y-77814125D01*
X169889125Y-78207892D01*
X169579745Y-78670913D01*
X169545000Y-78754795D01*
X169510255Y-78670913D01*
X169200875Y-78207892D01*
X168807108Y-77814125D01*
X168344087Y-77504745D01*
X167829606Y-77291640D01*
X167283435Y-77183000D01*
X166726565Y-77183000D01*
X166180394Y-77291640D01*
X165665913Y-77504745D01*
X165202892Y-77814125D01*
X164809125Y-78207892D01*
X164499745Y-78670913D01*
X164286640Y-79185394D01*
X164178000Y-79731565D01*
X160291459Y-79731565D01*
X160307000Y-79653435D01*
X160307000Y-79096565D01*
X160198360Y-78550394D01*
X159985255Y-78035913D01*
X159675875Y-77572892D01*
X159282108Y-77179125D01*
X158819087Y-76869745D01*
X158304606Y-76656640D01*
X157758435Y-76548000D01*
X157201565Y-76548000D01*
X156655394Y-76656640D01*
X156140913Y-76869745D01*
X155677892Y-77179125D01*
X155284125Y-77572892D01*
X155259441Y-77609835D01*
X155029803Y-77380197D01*
X155010557Y-77364403D01*
X154988601Y-77352667D01*
X154964776Y-77345440D01*
X154940000Y-77343000D01*
X154491222Y-77343000D01*
X154292626Y-77236848D01*
X153987412Y-77144262D01*
X153670000Y-77113000D01*
X144294537Y-77113000D01*
X144217930Y-77081268D01*
X143749039Y-76988000D01*
X143270961Y-76988000D01*
X142802070Y-77081268D01*
X142725463Y-77113000D01*
X142062606Y-77113000D01*
X141097000Y-76147394D01*
X141097000Y-72560000D01*
X145220128Y-72560000D01*
X145220128Y-74760000D01*
X145251542Y-75078948D01*
X145344575Y-75385638D01*
X145495654Y-75668286D01*
X145698971Y-75916029D01*
X145946714Y-76119346D01*
X146229362Y-76270425D01*
X146536052Y-76363458D01*
X146855000Y-76394872D01*
X149055000Y-76394872D01*
X149373948Y-76363458D01*
X149680638Y-76270425D01*
X149963286Y-76119346D01*
X150211029Y-75916029D01*
X150414346Y-75668286D01*
X150565425Y-75385638D01*
X150658458Y-75078948D01*
X150689872Y-74760000D01*
X150689872Y-74033002D01*
X150864306Y-74033002D01*
X150784768Y-74293477D01*
X150939389Y-74596421D01*
X151150141Y-74863379D01*
X151408924Y-75084092D01*
X151705794Y-75250078D01*
X151766525Y-75275220D01*
X152027000Y-75191481D01*
X152027000Y-74033000D01*
X152773000Y-74033000D01*
X152773000Y-75191481D01*
X153033475Y-75275220D01*
X153094206Y-75250078D01*
X153391076Y-75084092D01*
X153649859Y-74863379D01*
X153860611Y-74596421D01*
X154015232Y-74293477D01*
X153935693Y-74033000D01*
X152773000Y-74033000D01*
X152027000Y-74033000D01*
X152007000Y-74033000D01*
X152007000Y-73287000D01*
X152027000Y-73287000D01*
X152027000Y-72128519D01*
X152773000Y-72128519D01*
X152773000Y-73287000D01*
X153935693Y-73287000D01*
X154015232Y-73026523D01*
X153860611Y-72723579D01*
X153649859Y-72456621D01*
X153391076Y-72235908D01*
X153094206Y-72069922D01*
X153033475Y-72044780D01*
X152773000Y-72128519D01*
X152027000Y-72128519D01*
X151766525Y-72044780D01*
X151705794Y-72069922D01*
X151408924Y-72235908D01*
X151150141Y-72456621D01*
X150939389Y-72723579D01*
X150784768Y-73026523D01*
X150864306Y-73286998D01*
X150689872Y-73286998D01*
X150689872Y-72560000D01*
X150658458Y-72241052D01*
X150565425Y-71934362D01*
X150414346Y-71651714D01*
X150211029Y-71403971D01*
X149963286Y-71200654D01*
X149680638Y-71049575D01*
X149373948Y-70956542D01*
X149055000Y-70925128D01*
X146855000Y-70925128D01*
X146536052Y-70956542D01*
X146229362Y-71049575D01*
X145946714Y-71200654D01*
X145698971Y-71403971D01*
X145495654Y-71651714D01*
X145344575Y-71934362D01*
X145251542Y-72241052D01*
X145220128Y-72560000D01*
X141097000Y-72560000D01*
X141097000Y-65761565D01*
X160368000Y-65761565D01*
X160368000Y-66318435D01*
X160476640Y-66864606D01*
X160689745Y-67379087D01*
X160999125Y-67842108D01*
X161392892Y-68235875D01*
X161855913Y-68545255D01*
X162370394Y-68758360D01*
X162916565Y-68867000D01*
X163473435Y-68867000D01*
X164019606Y-68758360D01*
X164534087Y-68545255D01*
X164997108Y-68235875D01*
X165390875Y-67842108D01*
X165700255Y-67379087D01*
X165913360Y-66864606D01*
X166022000Y-66318435D01*
X166022000Y-65761565D01*
X167988000Y-65761565D01*
X167988000Y-66318435D01*
X168096640Y-66864606D01*
X168309745Y-67379087D01*
X168619125Y-67842108D01*
X169012892Y-68235875D01*
X169475913Y-68545255D01*
X169990394Y-68758360D01*
X170536565Y-68867000D01*
X171093435Y-68867000D01*
X171639606Y-68758360D01*
X172154087Y-68545255D01*
X172617108Y-68235875D01*
X173010875Y-67842108D01*
X173320255Y-67379087D01*
X173533360Y-66864606D01*
X173642000Y-66318435D01*
X173642000Y-65761565D01*
X173533360Y-65215394D01*
X173377867Y-64840000D01*
X173695128Y-64840000D01*
X173695128Y-67240000D01*
X173726542Y-67558948D01*
X173819575Y-67865638D01*
X173970654Y-68148286D01*
X174173971Y-68396029D01*
X174421714Y-68599346D01*
X174704362Y-68750425D01*
X175011052Y-68843458D01*
X175330000Y-68874872D01*
X177730000Y-68874872D01*
X178048948Y-68843458D01*
X178355638Y-68750425D01*
X178543519Y-68650000D01*
X188935128Y-68650000D01*
X188935128Y-71050000D01*
X188966542Y-71368948D01*
X189059575Y-71675638D01*
X189210654Y-71958286D01*
X189413971Y-72206029D01*
X189661714Y-72409346D01*
X189944362Y-72560425D01*
X190251052Y-72653458D01*
X190570000Y-72684872D01*
X192970000Y-72684872D01*
X193288948Y-72653458D01*
X193595638Y-72560425D01*
X193878286Y-72409346D01*
X194126029Y-72206029D01*
X194329346Y-71958286D01*
X194480425Y-71675638D01*
X194573458Y-71368948D01*
X194604872Y-71050000D01*
X194604872Y-69791148D01*
X197427060Y-69791148D01*
X197450990Y-70151819D01*
X197544824Y-70500890D01*
X197589867Y-70609634D01*
X197844240Y-70748258D01*
X198742498Y-69850000D01*
X197844240Y-68951742D01*
X197589867Y-69090366D01*
X197473953Y-69432739D01*
X197427060Y-69791148D01*
X194604872Y-69791148D01*
X194604872Y-68650000D01*
X194573458Y-68331052D01*
X194480425Y-68024362D01*
X194329346Y-67741714D01*
X194126029Y-67493971D01*
X193878286Y-67290654D01*
X193595638Y-67139575D01*
X193288948Y-67046542D01*
X192970000Y-67015128D01*
X190570000Y-67015128D01*
X190251052Y-67046542D01*
X189944362Y-67139575D01*
X189661714Y-67290654D01*
X189413971Y-67493971D01*
X189210654Y-67741714D01*
X189059575Y-68024362D01*
X188966542Y-68331052D01*
X188935128Y-68650000D01*
X178543519Y-68650000D01*
X178638286Y-68599346D01*
X178886029Y-68396029D01*
X179089346Y-68148286D01*
X179240425Y-67865638D01*
X179333458Y-67558948D01*
X179342636Y-67465760D01*
X183131742Y-67465760D01*
X183270366Y-67720133D01*
X183612739Y-67836047D01*
X183971148Y-67882940D01*
X184331819Y-67859010D01*
X184680890Y-67765176D01*
X184789634Y-67720133D01*
X184928258Y-67465760D01*
X184030000Y-66567502D01*
X183131742Y-67465760D01*
X179342636Y-67465760D01*
X179364872Y-67240000D01*
X179364872Y-65981148D01*
X182187060Y-65981148D01*
X182210990Y-66341819D01*
X182304824Y-66690890D01*
X182349867Y-66799634D01*
X182604240Y-66938258D01*
X183502498Y-66040000D01*
X184557502Y-66040000D01*
X185455760Y-66938258D01*
X185710133Y-66799634D01*
X185826047Y-66457261D01*
X185872940Y-66098852D01*
X185849010Y-65738181D01*
X185755176Y-65389110D01*
X185710133Y-65280366D01*
X185455760Y-65141742D01*
X184557502Y-66040000D01*
X183502498Y-66040000D01*
X182604240Y-65141742D01*
X182349867Y-65280366D01*
X182233953Y-65622739D01*
X182187060Y-65981148D01*
X179364872Y-65981148D01*
X179364872Y-64840000D01*
X179342637Y-64614240D01*
X183131742Y-64614240D01*
X184030000Y-65512498D01*
X184928258Y-64614240D01*
X184789634Y-64359867D01*
X184447261Y-64243953D01*
X184088852Y-64197060D01*
X183728181Y-64220990D01*
X183379110Y-64314824D01*
X183270366Y-64359867D01*
X183131742Y-64614240D01*
X179342637Y-64614240D01*
X179333458Y-64521052D01*
X179240425Y-64214362D01*
X179089346Y-63931714D01*
X178886029Y-63683971D01*
X178638286Y-63480654D01*
X178355638Y-63329575D01*
X178048948Y-63236542D01*
X177730000Y-63205128D01*
X175330000Y-63205128D01*
X175011052Y-63236542D01*
X174704362Y-63329575D01*
X174421714Y-63480654D01*
X174173971Y-63683971D01*
X173970654Y-63931714D01*
X173819575Y-64214362D01*
X173726542Y-64521052D01*
X173695128Y-64840000D01*
X173377867Y-64840000D01*
X173320255Y-64700913D01*
X173010875Y-64237892D01*
X172617108Y-63844125D01*
X172154087Y-63534745D01*
X171639606Y-63321640D01*
X171093435Y-63213000D01*
X170536565Y-63213000D01*
X169990394Y-63321640D01*
X169475913Y-63534745D01*
X169012892Y-63844125D01*
X168619125Y-64237892D01*
X168309745Y-64700913D01*
X168096640Y-65215394D01*
X167988000Y-65761565D01*
X166022000Y-65761565D01*
X165913360Y-65215394D01*
X165700255Y-64700913D01*
X165390875Y-64237892D01*
X164997108Y-63844125D01*
X164534087Y-63534745D01*
X164019606Y-63321640D01*
X163473435Y-63213000D01*
X162916565Y-63213000D01*
X162370394Y-63321640D01*
X161855913Y-63534745D01*
X161392892Y-63844125D01*
X160999125Y-64237892D01*
X160689745Y-64700913D01*
X160476640Y-65215394D01*
X160368000Y-65761565D01*
X141097000Y-65761565D01*
X141097000Y-60072000D01*
X145371138Y-60072000D01*
X145332797Y-60164563D01*
G37*
%TD.AperFunction*%
%TD*%
M02*
