%TF.GenerationSoftware,KiCad,Pcbnew,(5.1.8)-1*%
%TF.CreationDate,2022-06-16T12:56:30+03:00*%
%TF.ProjectId,FORWARD_CONVERTER,464f5257-4152-4445-9f43-4f4e56455254,rev?*%
%TF.SameCoordinates,Original*%
%TF.FileFunction,Soldermask,Top*%
%TF.FilePolarity,Negative*%
%FSLAX46Y46*%
G04 Gerber Fmt 4.6, Leading zero omitted, Abs format (unit mm)*
G04 Created by KiCad (PCBNEW (5.1.8)-1) date 2022-06-16 12:56:30*
%MOMM*%
%LPD*%
G01*
G04 APERTURE LIST*
%ADD10O,1.500000X1.050000*%
%ADD11R,1.500000X1.050000*%
%ADD12R,2.000000X1.905000*%
%ADD13O,2.000000X1.905000*%
%ADD14C,2.400000*%
%ADD15O,2.400000X2.400000*%
%ADD16R,1.600000X1.600000*%
%ADD17C,1.600000*%
%ADD18O,1.600000X1.600000*%
%ADD19R,2.200000X1.300000*%
%ADD20C,2.340000*%
%ADD21R,1.700000X1.700000*%
%ADD22O,1.700000X1.700000*%
%ADD23R,3.000000X3.000000*%
%ADD24C,3.000000*%
%ADD25R,2.800000X2.800000*%
%ADD26O,2.800000X2.800000*%
%ADD27R,2.200000X2.200000*%
%ADD28O,2.200000X2.200000*%
%ADD29R,2.400000X2.400000*%
G04 APERTURE END LIST*
D10*
%TO.C,Q2*%
X172720000Y-95123000D03*
X172720000Y-93853000D03*
D11*
X172720000Y-96393000D03*
%TD*%
D12*
%TO.C,Q1*%
X108204000Y-79248000D03*
D13*
X108204000Y-76708000D03*
X108204000Y-74168000D03*
%TD*%
D14*
%TO.C,R3*%
X113284000Y-85725000D03*
D15*
X113284000Y-73025000D03*
%TD*%
D16*
%TO.C,C3*%
X112395000Y-67945000D03*
D17*
X114895000Y-67945000D03*
%TD*%
D12*
%TO.C,U3*%
X145415000Y-92075000D03*
D13*
X145415000Y-89535000D03*
X145415000Y-86995000D03*
%TD*%
D16*
%TO.C,U2*%
X122555000Y-93980000D03*
D18*
X137795000Y-86360000D03*
X125095000Y-93980000D03*
X135255000Y-86360000D03*
X127635000Y-93980000D03*
X132715000Y-86360000D03*
X130175000Y-93980000D03*
X130175000Y-86360000D03*
X132715000Y-93980000D03*
X127635000Y-86360000D03*
X135255000Y-93980000D03*
X125095000Y-86360000D03*
X137795000Y-93980000D03*
X122555000Y-86360000D03*
%TD*%
D16*
%TO.C,U1*%
X172720000Y-91440000D03*
D18*
X162560000Y-88900000D03*
X172720000Y-88900000D03*
X162560000Y-91440000D03*
%TD*%
D19*
%TO.C,TF1*%
X125805000Y-71000000D03*
X142165000Y-71000000D03*
X125805000Y-68520000D03*
X142165000Y-68520000D03*
X125805000Y-66040000D03*
X142165000Y-66040000D03*
X125805000Y-63560000D03*
X142165000Y-63560000D03*
X125805000Y-61080000D03*
X142165000Y-61080000D03*
%TD*%
D20*
%TO.C,RV2*%
X164940000Y-103505000D03*
X159940000Y-103505000D03*
X154940000Y-103505000D03*
%TD*%
%TO.C,RV1*%
X185260000Y-103505000D03*
X180260000Y-103505000D03*
X175260000Y-103505000D03*
%TD*%
D14*
%TO.C,R10*%
X169545000Y-96520000D03*
D15*
X156845000Y-96520000D03*
%TD*%
D14*
%TO.C,R7*%
X181737000Y-90424000D03*
D15*
X194437000Y-90424000D03*
%TD*%
D14*
%TO.C,R6*%
X157480000Y-79375000D03*
D15*
X157480000Y-92075000D03*
%TD*%
D14*
%TO.C,R5*%
X117475000Y-78105000D03*
D15*
X117475000Y-90805000D03*
%TD*%
D14*
%TO.C,R4*%
X124460000Y-76835000D03*
D15*
X137160000Y-76835000D03*
%TD*%
D14*
%TO.C,R2*%
X189230000Y-81915000D03*
D15*
X176530000Y-81915000D03*
%TD*%
D14*
%TO.C,R1*%
X176530000Y-76835000D03*
D15*
X189230000Y-76835000D03*
%TD*%
D14*
%TO.C,L2*%
X167005000Y-80010000D03*
D15*
X172085000Y-80010000D03*
%TD*%
D14*
%TO.C,L1*%
X163195000Y-66040000D03*
D15*
X170815000Y-66040000D03*
%TD*%
D21*
%TO.C,J5*%
X198755000Y-86995000D03*
D22*
X198755000Y-89535000D03*
X198755000Y-92075000D03*
X198755000Y-94615000D03*
X198755000Y-97155000D03*
X198755000Y-99695000D03*
X198755000Y-102235000D03*
X198755000Y-104775000D03*
%TD*%
D23*
%TO.C,J4*%
X106680000Y-100330000D03*
D24*
X106680000Y-105410000D03*
%TD*%
D21*
%TO.C,J2*%
X189230000Y-60960000D03*
D22*
X191770000Y-60960000D03*
X194310000Y-60960000D03*
X196850000Y-60960000D03*
X199390000Y-60960000D03*
%TD*%
D23*
%TO.C,J1*%
X106680000Y-62230000D03*
D24*
X106680000Y-67310000D03*
%TD*%
D25*
%TO.C,D5*%
X189357000Y-86995000D03*
D26*
X176657000Y-86995000D03*
%TD*%
D27*
%TO.C,D3*%
X124460000Y-81915000D03*
D28*
X137160000Y-81915000D03*
%TD*%
D27*
%TO.C,D2*%
X152400000Y-60960000D03*
D28*
X152400000Y-73660000D03*
%TD*%
D27*
%TO.C,D1*%
X147955000Y-73660000D03*
D28*
X147955000Y-60960000D03*
%TD*%
D16*
%TO.C,C12*%
X151765000Y-80010000D03*
D17*
X151765000Y-82510000D03*
%TD*%
D16*
%TO.C,C11*%
X151765000Y-88900000D03*
D17*
X151765000Y-86400000D03*
%TD*%
D16*
%TO.C,C10*%
X151765000Y-92710000D03*
D17*
X151765000Y-95210000D03*
%TD*%
D29*
%TO.C,C9*%
X139700000Y-103505000D03*
D14*
X144700000Y-103505000D03*
%TD*%
D16*
%TO.C,C8*%
X114300000Y-105410000D03*
D17*
X114300000Y-102910000D03*
%TD*%
D16*
%TO.C,C7*%
X196215000Y-80010000D03*
D17*
X196215000Y-82510000D03*
%TD*%
D29*
%TO.C,C6*%
X122555000Y-104140000D03*
D14*
X130055000Y-104140000D03*
%TD*%
D16*
%TO.C,C5*%
X143510000Y-81915000D03*
D17*
X143510000Y-79415000D03*
%TD*%
D29*
%TO.C,C4*%
X106680000Y-88392000D03*
D14*
X106680000Y-93392000D03*
%TD*%
D29*
%TO.C,C2*%
X176530000Y-66040000D03*
D14*
X184030000Y-66040000D03*
%TD*%
D29*
%TO.C,C1*%
X191770000Y-69850000D03*
D14*
X199270000Y-69850000D03*
%TD*%
M02*
