%TF.GenerationSoftware,KiCad,Pcbnew,(5.1.8)-1*%
%TF.CreationDate,2022-06-16T12:56:30+03:00*%
%TF.ProjectId,FORWARD_CONVERTER,464f5257-4152-4445-9f43-4f4e56455254,rev?*%
%TF.SameCoordinates,Original*%
%TF.FileFunction,Legend,Top*%
%TF.FilePolarity,Positive*%
%FSLAX46Y46*%
G04 Gerber Fmt 4.6, Leading zero omitted, Abs format (unit mm)*
G04 Created by KiCad (PCBNEW (5.1.8)-1) date 2022-06-16 12:56:30*
%MOMM*%
%LPD*%
G01*
G04 APERTURE LIST*
%ADD10C,0.120000*%
%ADD11C,0.150000*%
G04 APERTURE END LIST*
D10*
%TO.C,Q2*%
X174570000Y-96923000D02*
X174570000Y-93323000D01*
X174558478Y-96961478D02*
G75*
G02*
X170120000Y-95123000I-1838478J1838478D01*
G01*
X174558478Y-93284522D02*
G75*
G03*
X170120000Y-95123000I-1838478J-1838478D01*
G01*
%TO.C,Q1*%
X104934000Y-81828000D02*
X104934000Y-71588000D01*
X109575000Y-81828000D02*
X109575000Y-71588000D01*
X104934000Y-81828000D02*
X109575000Y-81828000D01*
X104934000Y-71588000D02*
X109575000Y-71588000D01*
X106444000Y-81828000D02*
X106444000Y-71588000D01*
X104934000Y-78558000D02*
X106444000Y-78558000D01*
X104934000Y-74857000D02*
X106444000Y-74857000D01*
%TO.C,R3*%
X111844000Y-84445000D02*
X111364000Y-84445000D01*
X111364000Y-84445000D02*
X111364000Y-74305000D01*
X111364000Y-74305000D02*
X111844000Y-74305000D01*
X114724000Y-84445000D02*
X115204000Y-84445000D01*
X115204000Y-84445000D02*
X115204000Y-74305000D01*
X115204000Y-74305000D02*
X114724000Y-74305000D01*
%TO.C,C3*%
X111090225Y-66220000D02*
X111090225Y-66720000D01*
X110840225Y-66470000D02*
X111340225Y-66470000D01*
X116246000Y-67661000D02*
X116246000Y-68229000D01*
X116206000Y-67427000D02*
X116206000Y-68463000D01*
X116166000Y-67268000D02*
X116166000Y-68622000D01*
X116126000Y-67140000D02*
X116126000Y-68750000D01*
X116086000Y-67030000D02*
X116086000Y-68860000D01*
X116046000Y-66934000D02*
X116046000Y-68956000D01*
X116006000Y-66847000D02*
X116006000Y-69043000D01*
X115966000Y-66767000D02*
X115966000Y-69123000D01*
X115926000Y-68985000D02*
X115926000Y-69196000D01*
X115926000Y-66694000D02*
X115926000Y-66905000D01*
X115886000Y-68985000D02*
X115886000Y-69264000D01*
X115886000Y-66626000D02*
X115886000Y-66905000D01*
X115846000Y-68985000D02*
X115846000Y-69328000D01*
X115846000Y-66562000D02*
X115846000Y-66905000D01*
X115806000Y-68985000D02*
X115806000Y-69388000D01*
X115806000Y-66502000D02*
X115806000Y-66905000D01*
X115766000Y-68985000D02*
X115766000Y-69445000D01*
X115766000Y-66445000D02*
X115766000Y-66905000D01*
X115726000Y-68985000D02*
X115726000Y-69499000D01*
X115726000Y-66391000D02*
X115726000Y-66905000D01*
X115686000Y-68985000D02*
X115686000Y-69550000D01*
X115686000Y-66340000D02*
X115686000Y-66905000D01*
X115646000Y-68985000D02*
X115646000Y-69598000D01*
X115646000Y-66292000D02*
X115646000Y-66905000D01*
X115606000Y-68985000D02*
X115606000Y-69644000D01*
X115606000Y-66246000D02*
X115606000Y-66905000D01*
X115566000Y-68985000D02*
X115566000Y-69688000D01*
X115566000Y-66202000D02*
X115566000Y-66905000D01*
X115526000Y-68985000D02*
X115526000Y-69730000D01*
X115526000Y-66160000D02*
X115526000Y-66905000D01*
X115486000Y-68985000D02*
X115486000Y-69771000D01*
X115486000Y-66119000D02*
X115486000Y-66905000D01*
X115446000Y-68985000D02*
X115446000Y-69809000D01*
X115446000Y-66081000D02*
X115446000Y-66905000D01*
X115406000Y-68985000D02*
X115406000Y-69846000D01*
X115406000Y-66044000D02*
X115406000Y-66905000D01*
X115366000Y-68985000D02*
X115366000Y-69882000D01*
X115366000Y-66008000D02*
X115366000Y-66905000D01*
X115326000Y-68985000D02*
X115326000Y-69916000D01*
X115326000Y-65974000D02*
X115326000Y-66905000D01*
X115286000Y-68985000D02*
X115286000Y-69949000D01*
X115286000Y-65941000D02*
X115286000Y-66905000D01*
X115246000Y-68985000D02*
X115246000Y-69980000D01*
X115246000Y-65910000D02*
X115246000Y-66905000D01*
X115206000Y-68985000D02*
X115206000Y-70010000D01*
X115206000Y-65880000D02*
X115206000Y-66905000D01*
X115166000Y-68985000D02*
X115166000Y-70040000D01*
X115166000Y-65850000D02*
X115166000Y-66905000D01*
X115126000Y-68985000D02*
X115126000Y-70067000D01*
X115126000Y-65823000D02*
X115126000Y-66905000D01*
X115086000Y-68985000D02*
X115086000Y-70094000D01*
X115086000Y-65796000D02*
X115086000Y-66905000D01*
X115046000Y-68985000D02*
X115046000Y-70120000D01*
X115046000Y-65770000D02*
X115046000Y-66905000D01*
X115006000Y-68985000D02*
X115006000Y-70145000D01*
X115006000Y-65745000D02*
X115006000Y-66905000D01*
X114966000Y-68985000D02*
X114966000Y-70169000D01*
X114966000Y-65721000D02*
X114966000Y-66905000D01*
X114926000Y-68985000D02*
X114926000Y-70192000D01*
X114926000Y-65698000D02*
X114926000Y-66905000D01*
X114886000Y-68985000D02*
X114886000Y-70213000D01*
X114886000Y-65677000D02*
X114886000Y-66905000D01*
X114846000Y-68985000D02*
X114846000Y-70235000D01*
X114846000Y-65655000D02*
X114846000Y-66905000D01*
X114806000Y-68985000D02*
X114806000Y-70255000D01*
X114806000Y-65635000D02*
X114806000Y-66905000D01*
X114766000Y-68985000D02*
X114766000Y-70274000D01*
X114766000Y-65616000D02*
X114766000Y-66905000D01*
X114726000Y-68985000D02*
X114726000Y-70293000D01*
X114726000Y-65597000D02*
X114726000Y-66905000D01*
X114686000Y-68985000D02*
X114686000Y-70310000D01*
X114686000Y-65580000D02*
X114686000Y-66905000D01*
X114646000Y-68985000D02*
X114646000Y-70327000D01*
X114646000Y-65563000D02*
X114646000Y-66905000D01*
X114606000Y-68985000D02*
X114606000Y-70343000D01*
X114606000Y-65547000D02*
X114606000Y-66905000D01*
X114566000Y-68985000D02*
X114566000Y-70359000D01*
X114566000Y-65531000D02*
X114566000Y-66905000D01*
X114526000Y-68985000D02*
X114526000Y-70373000D01*
X114526000Y-65517000D02*
X114526000Y-66905000D01*
X114486000Y-68985000D02*
X114486000Y-70387000D01*
X114486000Y-65503000D02*
X114486000Y-66905000D01*
X114446000Y-68985000D02*
X114446000Y-70400000D01*
X114446000Y-65490000D02*
X114446000Y-66905000D01*
X114406000Y-68985000D02*
X114406000Y-70413000D01*
X114406000Y-65477000D02*
X114406000Y-66905000D01*
X114366000Y-68985000D02*
X114366000Y-70425000D01*
X114366000Y-65465000D02*
X114366000Y-66905000D01*
X114325000Y-68985000D02*
X114325000Y-70436000D01*
X114325000Y-65454000D02*
X114325000Y-66905000D01*
X114285000Y-68985000D02*
X114285000Y-70446000D01*
X114285000Y-65444000D02*
X114285000Y-66905000D01*
X114245000Y-68985000D02*
X114245000Y-70456000D01*
X114245000Y-65434000D02*
X114245000Y-66905000D01*
X114205000Y-68985000D02*
X114205000Y-70465000D01*
X114205000Y-65425000D02*
X114205000Y-66905000D01*
X114165000Y-68985000D02*
X114165000Y-70473000D01*
X114165000Y-65417000D02*
X114165000Y-66905000D01*
X114125000Y-68985000D02*
X114125000Y-70481000D01*
X114125000Y-65409000D02*
X114125000Y-66905000D01*
X114085000Y-68985000D02*
X114085000Y-70488000D01*
X114085000Y-65402000D02*
X114085000Y-66905000D01*
X114045000Y-68985000D02*
X114045000Y-70495000D01*
X114045000Y-65395000D02*
X114045000Y-66905000D01*
X114005000Y-68985000D02*
X114005000Y-70501000D01*
X114005000Y-65389000D02*
X114005000Y-66905000D01*
X113965000Y-68985000D02*
X113965000Y-70506000D01*
X113965000Y-65384000D02*
X113965000Y-66905000D01*
X113925000Y-68985000D02*
X113925000Y-70510000D01*
X113925000Y-65380000D02*
X113925000Y-66905000D01*
X113885000Y-68985000D02*
X113885000Y-70514000D01*
X113885000Y-65376000D02*
X113885000Y-66905000D01*
X113845000Y-65372000D02*
X113845000Y-70518000D01*
X113805000Y-65369000D02*
X113805000Y-70521000D01*
X113765000Y-65367000D02*
X113765000Y-70523000D01*
X113725000Y-65366000D02*
X113725000Y-70524000D01*
X113685000Y-65365000D02*
X113685000Y-70525000D01*
X113645000Y-65365000D02*
X113645000Y-70525000D01*
X116265000Y-67945000D02*
G75*
G03*
X116265000Y-67945000I-2620000J0D01*
G01*
%TO.C,U3*%
X142145000Y-94655000D02*
X142145000Y-84415000D01*
X146786000Y-94655000D02*
X146786000Y-84415000D01*
X142145000Y-94655000D02*
X146786000Y-94655000D01*
X142145000Y-84415000D02*
X146786000Y-84415000D01*
X143655000Y-94655000D02*
X143655000Y-84415000D01*
X142145000Y-91385000D02*
X143655000Y-91385000D01*
X142145000Y-87684000D02*
X143655000Y-87684000D01*
%TO.C,U2*%
X121225000Y-89170000D02*
G75*
G02*
X121225000Y-91170000I0J-1000000D01*
G01*
X121225000Y-91170000D02*
X121225000Y-92820000D01*
X121225000Y-92820000D02*
X139125000Y-92820000D01*
X139125000Y-92820000D02*
X139125000Y-87520000D01*
X139125000Y-87520000D02*
X121225000Y-87520000D01*
X121225000Y-87520000D02*
X121225000Y-89170000D01*
%TO.C,U1*%
X166640000Y-92770000D02*
G75*
G02*
X168640000Y-92770000I1000000J0D01*
G01*
X168640000Y-92770000D02*
X170875000Y-92770000D01*
X170875000Y-92770000D02*
X170875000Y-87570000D01*
X170875000Y-87570000D02*
X164405000Y-87570000D01*
X164405000Y-87570000D02*
X164405000Y-92770000D01*
X164405000Y-92770000D02*
X166640000Y-92770000D01*
%TO.C,TF1*%
X124205000Y-72150000D02*
X124205000Y-60730000D01*
X143765000Y-72150000D02*
X124205000Y-72150000D01*
X143765000Y-59930000D02*
X143765000Y-72150000D01*
X125005000Y-59930000D02*
X143765000Y-59930000D01*
X124205000Y-60730000D02*
X125005000Y-59930000D01*
%TO.C,RV2*%
X169010000Y-96685000D02*
X169010000Y-107425000D01*
X150870000Y-96685000D02*
X150870000Y-107425000D01*
X169010000Y-96685000D02*
X150870000Y-96685000D01*
X169010000Y-107425000D02*
X150870000Y-107425000D01*
X163560000Y-107425000D02*
X163560000Y-112425000D01*
X156320000Y-107425000D02*
X156320000Y-112425000D01*
X163560000Y-107425000D02*
X156320000Y-107425000D01*
X163560000Y-112425000D02*
X156320000Y-112425000D01*
X163060000Y-112425000D02*
X163060000Y-122425000D01*
X156819000Y-112425000D02*
X156819000Y-122425000D01*
X163060000Y-112425000D02*
X156819000Y-112425000D01*
X163060000Y-122425000D02*
X156819000Y-122425000D01*
%TO.C,RV1*%
X189330000Y-96685000D02*
X189330000Y-107425000D01*
X171190000Y-96685000D02*
X171190000Y-107425000D01*
X189330000Y-96685000D02*
X171190000Y-96685000D01*
X189330000Y-107425000D02*
X171190000Y-107425000D01*
X183880000Y-107425000D02*
X183880000Y-112425000D01*
X176640000Y-107425000D02*
X176640000Y-112425000D01*
X183880000Y-107425000D02*
X176640000Y-107425000D01*
X183880000Y-112425000D02*
X176640000Y-112425000D01*
X183380000Y-112425000D02*
X183380000Y-122425000D01*
X177139000Y-112425000D02*
X177139000Y-122425000D01*
X183380000Y-112425000D02*
X177139000Y-112425000D01*
X183380000Y-122425000D02*
X177139000Y-122425000D01*
%TO.C,R10*%
X168265000Y-97960000D02*
X168265000Y-98440000D01*
X168265000Y-98440000D02*
X158125000Y-98440000D01*
X158125000Y-98440000D02*
X158125000Y-97960000D01*
X168265000Y-95080000D02*
X168265000Y-94600000D01*
X168265000Y-94600000D02*
X158125000Y-94600000D01*
X158125000Y-94600000D02*
X158125000Y-95080000D01*
%TO.C,R7*%
X183017000Y-88984000D02*
X183017000Y-88504000D01*
X183017000Y-88504000D02*
X193157000Y-88504000D01*
X193157000Y-88504000D02*
X193157000Y-88984000D01*
X183017000Y-91864000D02*
X183017000Y-92344000D01*
X183017000Y-92344000D02*
X193157000Y-92344000D01*
X193157000Y-92344000D02*
X193157000Y-91864000D01*
%TO.C,R6*%
X158920000Y-80655000D02*
X159400000Y-80655000D01*
X159400000Y-80655000D02*
X159400000Y-90795000D01*
X159400000Y-90795000D02*
X158920000Y-90795000D01*
X156040000Y-80655000D02*
X155560000Y-80655000D01*
X155560000Y-80655000D02*
X155560000Y-90795000D01*
X155560000Y-90795000D02*
X156040000Y-90795000D01*
%TO.C,R5*%
X118915000Y-79385000D02*
X119395000Y-79385000D01*
X119395000Y-79385000D02*
X119395000Y-89525000D01*
X119395000Y-89525000D02*
X118915000Y-89525000D01*
X116035000Y-79385000D02*
X115555000Y-79385000D01*
X115555000Y-79385000D02*
X115555000Y-89525000D01*
X115555000Y-89525000D02*
X116035000Y-89525000D01*
%TO.C,R4*%
X125740000Y-75395000D02*
X125740000Y-74915000D01*
X125740000Y-74915000D02*
X135880000Y-74915000D01*
X135880000Y-74915000D02*
X135880000Y-75395000D01*
X125740000Y-78275000D02*
X125740000Y-78755000D01*
X125740000Y-78755000D02*
X135880000Y-78755000D01*
X135880000Y-78755000D02*
X135880000Y-78275000D01*
%TO.C,R2*%
X187950000Y-83355000D02*
X187950000Y-83835000D01*
X187950000Y-83835000D02*
X177810000Y-83835000D01*
X177810000Y-83835000D02*
X177810000Y-83355000D01*
X187950000Y-80475000D02*
X187950000Y-79995000D01*
X187950000Y-79995000D02*
X177810000Y-79995000D01*
X177810000Y-79995000D02*
X177810000Y-80475000D01*
%TO.C,R1*%
X177810000Y-75395000D02*
X177810000Y-74915000D01*
X177810000Y-74915000D02*
X187950000Y-74915000D01*
X187950000Y-74915000D02*
X187950000Y-75395000D01*
X177810000Y-78275000D02*
X177810000Y-78755000D01*
X177810000Y-78755000D02*
X187950000Y-78755000D01*
X187950000Y-78755000D02*
X187950000Y-78275000D01*
%TO.C,L2*%
X172467783Y-81330000D02*
G75*
G02*
X172467783Y-78690000I-5462783J1320000D01*
G01*
%TO.C,L1*%
X170176305Y-67360000D02*
G75*
G02*
X170176305Y-64720000I-6981305J1320000D01*
G01*
%TO.C,J5*%
X197425000Y-106105000D02*
X200085000Y-106105000D01*
X197425000Y-88265000D02*
X197425000Y-106105000D01*
X200085000Y-88265000D02*
X200085000Y-106105000D01*
X197425000Y-88265000D02*
X200085000Y-88265000D01*
X197425000Y-86995000D02*
X197425000Y-85665000D01*
X197425000Y-85665000D02*
X198755000Y-85665000D01*
%TO.C,J4*%
X104140000Y-107950000D02*
X104140000Y-97790000D01*
X102870000Y-107950000D02*
X110490000Y-107950000D01*
X110490000Y-107950000D02*
X110490000Y-97790000D01*
X110490000Y-97790000D02*
X102870000Y-97790000D01*
X102870000Y-97790000D02*
X102870000Y-107950000D01*
%TO.C,J2*%
X200720000Y-62290000D02*
X200720000Y-59630000D01*
X190500000Y-62290000D02*
X200720000Y-62290000D01*
X190500000Y-59630000D02*
X200720000Y-59630000D01*
X190500000Y-62290000D02*
X190500000Y-59630000D01*
X189230000Y-62290000D02*
X187900000Y-62290000D01*
X187900000Y-62290000D02*
X187900000Y-60960000D01*
%TO.C,J1*%
X104140000Y-69850000D02*
X104140000Y-59690000D01*
X102870000Y-69850000D02*
X110490000Y-69850000D01*
X110490000Y-69850000D02*
X110490000Y-59690000D01*
X110490000Y-59690000D02*
X102870000Y-59690000D01*
X102870000Y-59690000D02*
X102870000Y-69850000D01*
%TO.C,D5*%
X187577000Y-88965000D02*
X187577000Y-85025000D01*
X187577000Y-85025000D02*
X178437000Y-85025000D01*
X178437000Y-85025000D02*
X178437000Y-88965000D01*
X178437000Y-88965000D02*
X187577000Y-88965000D01*
X187717000Y-86995000D02*
X187577000Y-86995000D01*
X178297000Y-86995000D02*
X178437000Y-86995000D01*
X186122000Y-88965000D02*
X186122000Y-85025000D01*
X186002000Y-88965000D02*
X186002000Y-85025000D01*
X186242000Y-88965000D02*
X186242000Y-85025000D01*
%TO.C,D3*%
X128090000Y-80445000D02*
X128090000Y-83385000D01*
X128090000Y-83385000D02*
X133530000Y-83385000D01*
X133530000Y-83385000D02*
X133530000Y-80445000D01*
X133530000Y-80445000D02*
X128090000Y-80445000D01*
X125800000Y-81915000D02*
X128090000Y-81915000D01*
X135820000Y-81915000D02*
X133530000Y-81915000D01*
X128990000Y-80445000D02*
X128990000Y-83385000D01*
X129110000Y-80445000D02*
X129110000Y-83385000D01*
X128870000Y-80445000D02*
X128870000Y-83385000D01*
%TO.C,D2*%
X153870000Y-64590000D02*
X150930000Y-64590000D01*
X150930000Y-64590000D02*
X150930000Y-70030000D01*
X150930000Y-70030000D02*
X153870000Y-70030000D01*
X153870000Y-70030000D02*
X153870000Y-64590000D01*
X152400000Y-62300000D02*
X152400000Y-64590000D01*
X152400000Y-72320000D02*
X152400000Y-70030000D01*
X153870000Y-65490000D02*
X150930000Y-65490000D01*
X153870000Y-65610000D02*
X150930000Y-65610000D01*
X153870000Y-65370000D02*
X150930000Y-65370000D01*
%TO.C,D1*%
X146485000Y-70030000D02*
X149425000Y-70030000D01*
X149425000Y-70030000D02*
X149425000Y-64590000D01*
X149425000Y-64590000D02*
X146485000Y-64590000D01*
X146485000Y-64590000D02*
X146485000Y-70030000D01*
X147955000Y-72320000D02*
X147955000Y-70030000D01*
X147955000Y-62300000D02*
X147955000Y-64590000D01*
X146485000Y-69130000D02*
X149425000Y-69130000D01*
X146485000Y-69010000D02*
X149425000Y-69010000D01*
X146485000Y-69250000D02*
X149425000Y-69250000D01*
%TO.C,C12*%
X154385000Y-81260000D02*
G75*
G03*
X154385000Y-81260000I-2620000J0D01*
G01*
X154345000Y-81260000D02*
X149185000Y-81260000D01*
X154345000Y-81300000D02*
X149185000Y-81300000D01*
X154344000Y-81340000D02*
X149186000Y-81340000D01*
X154343000Y-81380000D02*
X149187000Y-81380000D01*
X154341000Y-81420000D02*
X149189000Y-81420000D01*
X154338000Y-81460000D02*
X149192000Y-81460000D01*
X154334000Y-81500000D02*
X152805000Y-81500000D01*
X150725000Y-81500000D02*
X149196000Y-81500000D01*
X154330000Y-81540000D02*
X152805000Y-81540000D01*
X150725000Y-81540000D02*
X149200000Y-81540000D01*
X154326000Y-81580000D02*
X152805000Y-81580000D01*
X150725000Y-81580000D02*
X149204000Y-81580000D01*
X154321000Y-81620000D02*
X152805000Y-81620000D01*
X150725000Y-81620000D02*
X149209000Y-81620000D01*
X154315000Y-81660000D02*
X152805000Y-81660000D01*
X150725000Y-81660000D02*
X149215000Y-81660000D01*
X154308000Y-81700000D02*
X152805000Y-81700000D01*
X150725000Y-81700000D02*
X149222000Y-81700000D01*
X154301000Y-81740000D02*
X152805000Y-81740000D01*
X150725000Y-81740000D02*
X149229000Y-81740000D01*
X154293000Y-81780000D02*
X152805000Y-81780000D01*
X150725000Y-81780000D02*
X149237000Y-81780000D01*
X154285000Y-81820000D02*
X152805000Y-81820000D01*
X150725000Y-81820000D02*
X149245000Y-81820000D01*
X154276000Y-81860000D02*
X152805000Y-81860000D01*
X150725000Y-81860000D02*
X149254000Y-81860000D01*
X154266000Y-81900000D02*
X152805000Y-81900000D01*
X150725000Y-81900000D02*
X149264000Y-81900000D01*
X154256000Y-81940000D02*
X152805000Y-81940000D01*
X150725000Y-81940000D02*
X149274000Y-81940000D01*
X154245000Y-81981000D02*
X152805000Y-81981000D01*
X150725000Y-81981000D02*
X149285000Y-81981000D01*
X154233000Y-82021000D02*
X152805000Y-82021000D01*
X150725000Y-82021000D02*
X149297000Y-82021000D01*
X154220000Y-82061000D02*
X152805000Y-82061000D01*
X150725000Y-82061000D02*
X149310000Y-82061000D01*
X154207000Y-82101000D02*
X152805000Y-82101000D01*
X150725000Y-82101000D02*
X149323000Y-82101000D01*
X154193000Y-82141000D02*
X152805000Y-82141000D01*
X150725000Y-82141000D02*
X149337000Y-82141000D01*
X154179000Y-82181000D02*
X152805000Y-82181000D01*
X150725000Y-82181000D02*
X149351000Y-82181000D01*
X154163000Y-82221000D02*
X152805000Y-82221000D01*
X150725000Y-82221000D02*
X149367000Y-82221000D01*
X154147000Y-82261000D02*
X152805000Y-82261000D01*
X150725000Y-82261000D02*
X149383000Y-82261000D01*
X154130000Y-82301000D02*
X152805000Y-82301000D01*
X150725000Y-82301000D02*
X149400000Y-82301000D01*
X154113000Y-82341000D02*
X152805000Y-82341000D01*
X150725000Y-82341000D02*
X149417000Y-82341000D01*
X154094000Y-82381000D02*
X152805000Y-82381000D01*
X150725000Y-82381000D02*
X149436000Y-82381000D01*
X154075000Y-82421000D02*
X152805000Y-82421000D01*
X150725000Y-82421000D02*
X149455000Y-82421000D01*
X154055000Y-82461000D02*
X152805000Y-82461000D01*
X150725000Y-82461000D02*
X149475000Y-82461000D01*
X154033000Y-82501000D02*
X152805000Y-82501000D01*
X150725000Y-82501000D02*
X149497000Y-82501000D01*
X154012000Y-82541000D02*
X152805000Y-82541000D01*
X150725000Y-82541000D02*
X149518000Y-82541000D01*
X153989000Y-82581000D02*
X152805000Y-82581000D01*
X150725000Y-82581000D02*
X149541000Y-82581000D01*
X153965000Y-82621000D02*
X152805000Y-82621000D01*
X150725000Y-82621000D02*
X149565000Y-82621000D01*
X153940000Y-82661000D02*
X152805000Y-82661000D01*
X150725000Y-82661000D02*
X149590000Y-82661000D01*
X153914000Y-82701000D02*
X152805000Y-82701000D01*
X150725000Y-82701000D02*
X149616000Y-82701000D01*
X153887000Y-82741000D02*
X152805000Y-82741000D01*
X150725000Y-82741000D02*
X149643000Y-82741000D01*
X153860000Y-82781000D02*
X152805000Y-82781000D01*
X150725000Y-82781000D02*
X149670000Y-82781000D01*
X153830000Y-82821000D02*
X152805000Y-82821000D01*
X150725000Y-82821000D02*
X149700000Y-82821000D01*
X153800000Y-82861000D02*
X152805000Y-82861000D01*
X150725000Y-82861000D02*
X149730000Y-82861000D01*
X153769000Y-82901000D02*
X152805000Y-82901000D01*
X150725000Y-82901000D02*
X149761000Y-82901000D01*
X153736000Y-82941000D02*
X152805000Y-82941000D01*
X150725000Y-82941000D02*
X149794000Y-82941000D01*
X153702000Y-82981000D02*
X152805000Y-82981000D01*
X150725000Y-82981000D02*
X149828000Y-82981000D01*
X153666000Y-83021000D02*
X152805000Y-83021000D01*
X150725000Y-83021000D02*
X149864000Y-83021000D01*
X153629000Y-83061000D02*
X152805000Y-83061000D01*
X150725000Y-83061000D02*
X149901000Y-83061000D01*
X153591000Y-83101000D02*
X152805000Y-83101000D01*
X150725000Y-83101000D02*
X149939000Y-83101000D01*
X153550000Y-83141000D02*
X152805000Y-83141000D01*
X150725000Y-83141000D02*
X149980000Y-83141000D01*
X153508000Y-83181000D02*
X152805000Y-83181000D01*
X150725000Y-83181000D02*
X150022000Y-83181000D01*
X153464000Y-83221000D02*
X152805000Y-83221000D01*
X150725000Y-83221000D02*
X150066000Y-83221000D01*
X153418000Y-83261000D02*
X152805000Y-83261000D01*
X150725000Y-83261000D02*
X150112000Y-83261000D01*
X153370000Y-83301000D02*
X152805000Y-83301000D01*
X150725000Y-83301000D02*
X150160000Y-83301000D01*
X153319000Y-83341000D02*
X152805000Y-83341000D01*
X150725000Y-83341000D02*
X150211000Y-83341000D01*
X153265000Y-83381000D02*
X152805000Y-83381000D01*
X150725000Y-83381000D02*
X150265000Y-83381000D01*
X153208000Y-83421000D02*
X152805000Y-83421000D01*
X150725000Y-83421000D02*
X150322000Y-83421000D01*
X153148000Y-83461000D02*
X152805000Y-83461000D01*
X150725000Y-83461000D02*
X150382000Y-83461000D01*
X153084000Y-83501000D02*
X152805000Y-83501000D01*
X150725000Y-83501000D02*
X150446000Y-83501000D01*
X153016000Y-83541000D02*
X152805000Y-83541000D01*
X150725000Y-83541000D02*
X150514000Y-83541000D01*
X152943000Y-83581000D02*
X150587000Y-83581000D01*
X152863000Y-83621000D02*
X150667000Y-83621000D01*
X152776000Y-83661000D02*
X150754000Y-83661000D01*
X152680000Y-83701000D02*
X150850000Y-83701000D01*
X152570000Y-83741000D02*
X150960000Y-83741000D01*
X152442000Y-83781000D02*
X151088000Y-83781000D01*
X152283000Y-83821000D02*
X151247000Y-83821000D01*
X152049000Y-83861000D02*
X151481000Y-83861000D01*
X153240000Y-78455225D02*
X153240000Y-78955225D01*
X153490000Y-78705225D02*
X152990000Y-78705225D01*
%TO.C,C11*%
X154385000Y-87650000D02*
G75*
G03*
X154385000Y-87650000I-2620000J0D01*
G01*
X149185000Y-87650000D02*
X154345000Y-87650000D01*
X149185000Y-87610000D02*
X154345000Y-87610000D01*
X149186000Y-87570000D02*
X154344000Y-87570000D01*
X149187000Y-87530000D02*
X154343000Y-87530000D01*
X149189000Y-87490000D02*
X154341000Y-87490000D01*
X149192000Y-87450000D02*
X154338000Y-87450000D01*
X149196000Y-87410000D02*
X150725000Y-87410000D01*
X152805000Y-87410000D02*
X154334000Y-87410000D01*
X149200000Y-87370000D02*
X150725000Y-87370000D01*
X152805000Y-87370000D02*
X154330000Y-87370000D01*
X149204000Y-87330000D02*
X150725000Y-87330000D01*
X152805000Y-87330000D02*
X154326000Y-87330000D01*
X149209000Y-87290000D02*
X150725000Y-87290000D01*
X152805000Y-87290000D02*
X154321000Y-87290000D01*
X149215000Y-87250000D02*
X150725000Y-87250000D01*
X152805000Y-87250000D02*
X154315000Y-87250000D01*
X149222000Y-87210000D02*
X150725000Y-87210000D01*
X152805000Y-87210000D02*
X154308000Y-87210000D01*
X149229000Y-87170000D02*
X150725000Y-87170000D01*
X152805000Y-87170000D02*
X154301000Y-87170000D01*
X149237000Y-87130000D02*
X150725000Y-87130000D01*
X152805000Y-87130000D02*
X154293000Y-87130000D01*
X149245000Y-87090000D02*
X150725000Y-87090000D01*
X152805000Y-87090000D02*
X154285000Y-87090000D01*
X149254000Y-87050000D02*
X150725000Y-87050000D01*
X152805000Y-87050000D02*
X154276000Y-87050000D01*
X149264000Y-87010000D02*
X150725000Y-87010000D01*
X152805000Y-87010000D02*
X154266000Y-87010000D01*
X149274000Y-86970000D02*
X150725000Y-86970000D01*
X152805000Y-86970000D02*
X154256000Y-86970000D01*
X149285000Y-86929000D02*
X150725000Y-86929000D01*
X152805000Y-86929000D02*
X154245000Y-86929000D01*
X149297000Y-86889000D02*
X150725000Y-86889000D01*
X152805000Y-86889000D02*
X154233000Y-86889000D01*
X149310000Y-86849000D02*
X150725000Y-86849000D01*
X152805000Y-86849000D02*
X154220000Y-86849000D01*
X149323000Y-86809000D02*
X150725000Y-86809000D01*
X152805000Y-86809000D02*
X154207000Y-86809000D01*
X149337000Y-86769000D02*
X150725000Y-86769000D01*
X152805000Y-86769000D02*
X154193000Y-86769000D01*
X149351000Y-86729000D02*
X150725000Y-86729000D01*
X152805000Y-86729000D02*
X154179000Y-86729000D01*
X149367000Y-86689000D02*
X150725000Y-86689000D01*
X152805000Y-86689000D02*
X154163000Y-86689000D01*
X149383000Y-86649000D02*
X150725000Y-86649000D01*
X152805000Y-86649000D02*
X154147000Y-86649000D01*
X149400000Y-86609000D02*
X150725000Y-86609000D01*
X152805000Y-86609000D02*
X154130000Y-86609000D01*
X149417000Y-86569000D02*
X150725000Y-86569000D01*
X152805000Y-86569000D02*
X154113000Y-86569000D01*
X149436000Y-86529000D02*
X150725000Y-86529000D01*
X152805000Y-86529000D02*
X154094000Y-86529000D01*
X149455000Y-86489000D02*
X150725000Y-86489000D01*
X152805000Y-86489000D02*
X154075000Y-86489000D01*
X149475000Y-86449000D02*
X150725000Y-86449000D01*
X152805000Y-86449000D02*
X154055000Y-86449000D01*
X149497000Y-86409000D02*
X150725000Y-86409000D01*
X152805000Y-86409000D02*
X154033000Y-86409000D01*
X149518000Y-86369000D02*
X150725000Y-86369000D01*
X152805000Y-86369000D02*
X154012000Y-86369000D01*
X149541000Y-86329000D02*
X150725000Y-86329000D01*
X152805000Y-86329000D02*
X153989000Y-86329000D01*
X149565000Y-86289000D02*
X150725000Y-86289000D01*
X152805000Y-86289000D02*
X153965000Y-86289000D01*
X149590000Y-86249000D02*
X150725000Y-86249000D01*
X152805000Y-86249000D02*
X153940000Y-86249000D01*
X149616000Y-86209000D02*
X150725000Y-86209000D01*
X152805000Y-86209000D02*
X153914000Y-86209000D01*
X149643000Y-86169000D02*
X150725000Y-86169000D01*
X152805000Y-86169000D02*
X153887000Y-86169000D01*
X149670000Y-86129000D02*
X150725000Y-86129000D01*
X152805000Y-86129000D02*
X153860000Y-86129000D01*
X149700000Y-86089000D02*
X150725000Y-86089000D01*
X152805000Y-86089000D02*
X153830000Y-86089000D01*
X149730000Y-86049000D02*
X150725000Y-86049000D01*
X152805000Y-86049000D02*
X153800000Y-86049000D01*
X149761000Y-86009000D02*
X150725000Y-86009000D01*
X152805000Y-86009000D02*
X153769000Y-86009000D01*
X149794000Y-85969000D02*
X150725000Y-85969000D01*
X152805000Y-85969000D02*
X153736000Y-85969000D01*
X149828000Y-85929000D02*
X150725000Y-85929000D01*
X152805000Y-85929000D02*
X153702000Y-85929000D01*
X149864000Y-85889000D02*
X150725000Y-85889000D01*
X152805000Y-85889000D02*
X153666000Y-85889000D01*
X149901000Y-85849000D02*
X150725000Y-85849000D01*
X152805000Y-85849000D02*
X153629000Y-85849000D01*
X149939000Y-85809000D02*
X150725000Y-85809000D01*
X152805000Y-85809000D02*
X153591000Y-85809000D01*
X149980000Y-85769000D02*
X150725000Y-85769000D01*
X152805000Y-85769000D02*
X153550000Y-85769000D01*
X150022000Y-85729000D02*
X150725000Y-85729000D01*
X152805000Y-85729000D02*
X153508000Y-85729000D01*
X150066000Y-85689000D02*
X150725000Y-85689000D01*
X152805000Y-85689000D02*
X153464000Y-85689000D01*
X150112000Y-85649000D02*
X150725000Y-85649000D01*
X152805000Y-85649000D02*
X153418000Y-85649000D01*
X150160000Y-85609000D02*
X150725000Y-85609000D01*
X152805000Y-85609000D02*
X153370000Y-85609000D01*
X150211000Y-85569000D02*
X150725000Y-85569000D01*
X152805000Y-85569000D02*
X153319000Y-85569000D01*
X150265000Y-85529000D02*
X150725000Y-85529000D01*
X152805000Y-85529000D02*
X153265000Y-85529000D01*
X150322000Y-85489000D02*
X150725000Y-85489000D01*
X152805000Y-85489000D02*
X153208000Y-85489000D01*
X150382000Y-85449000D02*
X150725000Y-85449000D01*
X152805000Y-85449000D02*
X153148000Y-85449000D01*
X150446000Y-85409000D02*
X150725000Y-85409000D01*
X152805000Y-85409000D02*
X153084000Y-85409000D01*
X150514000Y-85369000D02*
X150725000Y-85369000D01*
X152805000Y-85369000D02*
X153016000Y-85369000D01*
X150587000Y-85329000D02*
X152943000Y-85329000D01*
X150667000Y-85289000D02*
X152863000Y-85289000D01*
X150754000Y-85249000D02*
X152776000Y-85249000D01*
X150850000Y-85209000D02*
X152680000Y-85209000D01*
X150960000Y-85169000D02*
X152570000Y-85169000D01*
X151088000Y-85129000D02*
X152442000Y-85129000D01*
X151247000Y-85089000D02*
X152283000Y-85089000D01*
X151481000Y-85049000D02*
X152049000Y-85049000D01*
X150290000Y-90454775D02*
X150290000Y-89954775D01*
X150040000Y-90204775D02*
X150540000Y-90204775D01*
%TO.C,C10*%
X154385000Y-93960000D02*
G75*
G03*
X154385000Y-93960000I-2620000J0D01*
G01*
X154345000Y-93960000D02*
X149185000Y-93960000D01*
X154345000Y-94000000D02*
X149185000Y-94000000D01*
X154344000Y-94040000D02*
X149186000Y-94040000D01*
X154343000Y-94080000D02*
X149187000Y-94080000D01*
X154341000Y-94120000D02*
X149189000Y-94120000D01*
X154338000Y-94160000D02*
X149192000Y-94160000D01*
X154334000Y-94200000D02*
X152805000Y-94200000D01*
X150725000Y-94200000D02*
X149196000Y-94200000D01*
X154330000Y-94240000D02*
X152805000Y-94240000D01*
X150725000Y-94240000D02*
X149200000Y-94240000D01*
X154326000Y-94280000D02*
X152805000Y-94280000D01*
X150725000Y-94280000D02*
X149204000Y-94280000D01*
X154321000Y-94320000D02*
X152805000Y-94320000D01*
X150725000Y-94320000D02*
X149209000Y-94320000D01*
X154315000Y-94360000D02*
X152805000Y-94360000D01*
X150725000Y-94360000D02*
X149215000Y-94360000D01*
X154308000Y-94400000D02*
X152805000Y-94400000D01*
X150725000Y-94400000D02*
X149222000Y-94400000D01*
X154301000Y-94440000D02*
X152805000Y-94440000D01*
X150725000Y-94440000D02*
X149229000Y-94440000D01*
X154293000Y-94480000D02*
X152805000Y-94480000D01*
X150725000Y-94480000D02*
X149237000Y-94480000D01*
X154285000Y-94520000D02*
X152805000Y-94520000D01*
X150725000Y-94520000D02*
X149245000Y-94520000D01*
X154276000Y-94560000D02*
X152805000Y-94560000D01*
X150725000Y-94560000D02*
X149254000Y-94560000D01*
X154266000Y-94600000D02*
X152805000Y-94600000D01*
X150725000Y-94600000D02*
X149264000Y-94600000D01*
X154256000Y-94640000D02*
X152805000Y-94640000D01*
X150725000Y-94640000D02*
X149274000Y-94640000D01*
X154245000Y-94681000D02*
X152805000Y-94681000D01*
X150725000Y-94681000D02*
X149285000Y-94681000D01*
X154233000Y-94721000D02*
X152805000Y-94721000D01*
X150725000Y-94721000D02*
X149297000Y-94721000D01*
X154220000Y-94761000D02*
X152805000Y-94761000D01*
X150725000Y-94761000D02*
X149310000Y-94761000D01*
X154207000Y-94801000D02*
X152805000Y-94801000D01*
X150725000Y-94801000D02*
X149323000Y-94801000D01*
X154193000Y-94841000D02*
X152805000Y-94841000D01*
X150725000Y-94841000D02*
X149337000Y-94841000D01*
X154179000Y-94881000D02*
X152805000Y-94881000D01*
X150725000Y-94881000D02*
X149351000Y-94881000D01*
X154163000Y-94921000D02*
X152805000Y-94921000D01*
X150725000Y-94921000D02*
X149367000Y-94921000D01*
X154147000Y-94961000D02*
X152805000Y-94961000D01*
X150725000Y-94961000D02*
X149383000Y-94961000D01*
X154130000Y-95001000D02*
X152805000Y-95001000D01*
X150725000Y-95001000D02*
X149400000Y-95001000D01*
X154113000Y-95041000D02*
X152805000Y-95041000D01*
X150725000Y-95041000D02*
X149417000Y-95041000D01*
X154094000Y-95081000D02*
X152805000Y-95081000D01*
X150725000Y-95081000D02*
X149436000Y-95081000D01*
X154075000Y-95121000D02*
X152805000Y-95121000D01*
X150725000Y-95121000D02*
X149455000Y-95121000D01*
X154055000Y-95161000D02*
X152805000Y-95161000D01*
X150725000Y-95161000D02*
X149475000Y-95161000D01*
X154033000Y-95201000D02*
X152805000Y-95201000D01*
X150725000Y-95201000D02*
X149497000Y-95201000D01*
X154012000Y-95241000D02*
X152805000Y-95241000D01*
X150725000Y-95241000D02*
X149518000Y-95241000D01*
X153989000Y-95281000D02*
X152805000Y-95281000D01*
X150725000Y-95281000D02*
X149541000Y-95281000D01*
X153965000Y-95321000D02*
X152805000Y-95321000D01*
X150725000Y-95321000D02*
X149565000Y-95321000D01*
X153940000Y-95361000D02*
X152805000Y-95361000D01*
X150725000Y-95361000D02*
X149590000Y-95361000D01*
X153914000Y-95401000D02*
X152805000Y-95401000D01*
X150725000Y-95401000D02*
X149616000Y-95401000D01*
X153887000Y-95441000D02*
X152805000Y-95441000D01*
X150725000Y-95441000D02*
X149643000Y-95441000D01*
X153860000Y-95481000D02*
X152805000Y-95481000D01*
X150725000Y-95481000D02*
X149670000Y-95481000D01*
X153830000Y-95521000D02*
X152805000Y-95521000D01*
X150725000Y-95521000D02*
X149700000Y-95521000D01*
X153800000Y-95561000D02*
X152805000Y-95561000D01*
X150725000Y-95561000D02*
X149730000Y-95561000D01*
X153769000Y-95601000D02*
X152805000Y-95601000D01*
X150725000Y-95601000D02*
X149761000Y-95601000D01*
X153736000Y-95641000D02*
X152805000Y-95641000D01*
X150725000Y-95641000D02*
X149794000Y-95641000D01*
X153702000Y-95681000D02*
X152805000Y-95681000D01*
X150725000Y-95681000D02*
X149828000Y-95681000D01*
X153666000Y-95721000D02*
X152805000Y-95721000D01*
X150725000Y-95721000D02*
X149864000Y-95721000D01*
X153629000Y-95761000D02*
X152805000Y-95761000D01*
X150725000Y-95761000D02*
X149901000Y-95761000D01*
X153591000Y-95801000D02*
X152805000Y-95801000D01*
X150725000Y-95801000D02*
X149939000Y-95801000D01*
X153550000Y-95841000D02*
X152805000Y-95841000D01*
X150725000Y-95841000D02*
X149980000Y-95841000D01*
X153508000Y-95881000D02*
X152805000Y-95881000D01*
X150725000Y-95881000D02*
X150022000Y-95881000D01*
X153464000Y-95921000D02*
X152805000Y-95921000D01*
X150725000Y-95921000D02*
X150066000Y-95921000D01*
X153418000Y-95961000D02*
X152805000Y-95961000D01*
X150725000Y-95961000D02*
X150112000Y-95961000D01*
X153370000Y-96001000D02*
X152805000Y-96001000D01*
X150725000Y-96001000D02*
X150160000Y-96001000D01*
X153319000Y-96041000D02*
X152805000Y-96041000D01*
X150725000Y-96041000D02*
X150211000Y-96041000D01*
X153265000Y-96081000D02*
X152805000Y-96081000D01*
X150725000Y-96081000D02*
X150265000Y-96081000D01*
X153208000Y-96121000D02*
X152805000Y-96121000D01*
X150725000Y-96121000D02*
X150322000Y-96121000D01*
X153148000Y-96161000D02*
X152805000Y-96161000D01*
X150725000Y-96161000D02*
X150382000Y-96161000D01*
X153084000Y-96201000D02*
X152805000Y-96201000D01*
X150725000Y-96201000D02*
X150446000Y-96201000D01*
X153016000Y-96241000D02*
X152805000Y-96241000D01*
X150725000Y-96241000D02*
X150514000Y-96241000D01*
X152943000Y-96281000D02*
X150587000Y-96281000D01*
X152863000Y-96321000D02*
X150667000Y-96321000D01*
X152776000Y-96361000D02*
X150754000Y-96361000D01*
X152680000Y-96401000D02*
X150850000Y-96401000D01*
X152570000Y-96441000D02*
X150960000Y-96441000D01*
X152442000Y-96481000D02*
X151088000Y-96481000D01*
X152283000Y-96521000D02*
X151247000Y-96521000D01*
X152049000Y-96561000D02*
X151481000Y-96561000D01*
X153240000Y-91155225D02*
X153240000Y-91655225D01*
X153490000Y-91405225D02*
X152990000Y-91405225D01*
%TO.C,C9*%
X148570000Y-103505000D02*
G75*
G03*
X148570000Y-103505000I-6370000J0D01*
G01*
X142200000Y-97175000D02*
X142200000Y-109835000D01*
X142240000Y-97175000D02*
X142240000Y-109835000D01*
X142280000Y-97175000D02*
X142280000Y-109835000D01*
X142320000Y-97176000D02*
X142320000Y-109834000D01*
X142360000Y-97177000D02*
X142360000Y-109833000D01*
X142400000Y-97178000D02*
X142400000Y-109832000D01*
X142440000Y-97179000D02*
X142440000Y-109831000D01*
X142480000Y-97181000D02*
X142480000Y-109829000D01*
X142520000Y-97183000D02*
X142520000Y-109827000D01*
X142560000Y-97185000D02*
X142560000Y-109825000D01*
X142600000Y-97187000D02*
X142600000Y-109823000D01*
X142640000Y-97190000D02*
X142640000Y-109820000D01*
X142680000Y-97193000D02*
X142680000Y-109817000D01*
X142720000Y-97196000D02*
X142720000Y-109814000D01*
X142760000Y-97199000D02*
X142760000Y-109811000D01*
X142800000Y-97203000D02*
X142800000Y-109807000D01*
X142840000Y-97207000D02*
X142840000Y-109803000D01*
X142880000Y-97211000D02*
X142880000Y-109799000D01*
X142921000Y-97215000D02*
X142921000Y-109795000D01*
X142961000Y-97220000D02*
X142961000Y-109790000D01*
X143001000Y-97225000D02*
X143001000Y-109785000D01*
X143041000Y-97230000D02*
X143041000Y-109780000D01*
X143081000Y-97236000D02*
X143081000Y-109774000D01*
X143121000Y-97241000D02*
X143121000Y-109769000D01*
X143161000Y-97247000D02*
X143161000Y-109763000D01*
X143201000Y-97253000D02*
X143201000Y-109757000D01*
X143241000Y-97260000D02*
X143241000Y-109750000D01*
X143281000Y-97267000D02*
X143281000Y-102065000D01*
X143281000Y-104945000D02*
X143281000Y-109743000D01*
X143321000Y-97274000D02*
X143321000Y-102065000D01*
X143321000Y-104945000D02*
X143321000Y-109736000D01*
X143361000Y-97281000D02*
X143361000Y-102065000D01*
X143361000Y-104945000D02*
X143361000Y-109729000D01*
X143401000Y-97289000D02*
X143401000Y-102065000D01*
X143401000Y-104945000D02*
X143401000Y-109721000D01*
X143441000Y-97296000D02*
X143441000Y-102065000D01*
X143441000Y-104945000D02*
X143441000Y-109714000D01*
X143481000Y-97304000D02*
X143481000Y-102065000D01*
X143481000Y-104945000D02*
X143481000Y-109706000D01*
X143521000Y-97313000D02*
X143521000Y-102065000D01*
X143521000Y-104945000D02*
X143521000Y-109697000D01*
X143561000Y-97321000D02*
X143561000Y-102065000D01*
X143561000Y-104945000D02*
X143561000Y-109689000D01*
X143601000Y-97330000D02*
X143601000Y-102065000D01*
X143601000Y-104945000D02*
X143601000Y-109680000D01*
X143641000Y-97339000D02*
X143641000Y-102065000D01*
X143641000Y-104945000D02*
X143641000Y-109671000D01*
X143681000Y-97349000D02*
X143681000Y-102065000D01*
X143681000Y-104945000D02*
X143681000Y-109661000D01*
X143721000Y-97359000D02*
X143721000Y-102065000D01*
X143721000Y-104945000D02*
X143721000Y-109651000D01*
X143761000Y-97368000D02*
X143761000Y-102065000D01*
X143761000Y-104945000D02*
X143761000Y-109642000D01*
X143801000Y-97379000D02*
X143801000Y-102065000D01*
X143801000Y-104945000D02*
X143801000Y-109631000D01*
X143841000Y-97389000D02*
X143841000Y-102065000D01*
X143841000Y-104945000D02*
X143841000Y-109621000D01*
X143881000Y-97400000D02*
X143881000Y-102065000D01*
X143881000Y-104945000D02*
X143881000Y-109610000D01*
X143921000Y-97411000D02*
X143921000Y-102065000D01*
X143921000Y-104945000D02*
X143921000Y-109599000D01*
X143961000Y-97422000D02*
X143961000Y-102065000D01*
X143961000Y-104945000D02*
X143961000Y-109588000D01*
X144001000Y-97434000D02*
X144001000Y-102065000D01*
X144001000Y-104945000D02*
X144001000Y-109576000D01*
X144041000Y-97446000D02*
X144041000Y-102065000D01*
X144041000Y-104945000D02*
X144041000Y-109564000D01*
X144081000Y-97458000D02*
X144081000Y-102065000D01*
X144081000Y-104945000D02*
X144081000Y-109552000D01*
X144121000Y-97471000D02*
X144121000Y-102065000D01*
X144121000Y-104945000D02*
X144121000Y-109539000D01*
X144161000Y-97484000D02*
X144161000Y-102065000D01*
X144161000Y-104945000D02*
X144161000Y-109526000D01*
X144201000Y-97497000D02*
X144201000Y-102065000D01*
X144201000Y-104945000D02*
X144201000Y-109513000D01*
X144241000Y-97510000D02*
X144241000Y-102065000D01*
X144241000Y-104945000D02*
X144241000Y-109500000D01*
X144281000Y-97524000D02*
X144281000Y-102065000D01*
X144281000Y-104945000D02*
X144281000Y-109486000D01*
X144321000Y-97538000D02*
X144321000Y-102065000D01*
X144321000Y-104945000D02*
X144321000Y-109472000D01*
X144361000Y-97552000D02*
X144361000Y-102065000D01*
X144361000Y-104945000D02*
X144361000Y-109458000D01*
X144401000Y-97566000D02*
X144401000Y-102065000D01*
X144401000Y-104945000D02*
X144401000Y-109444000D01*
X144441000Y-97581000D02*
X144441000Y-102065000D01*
X144441000Y-104945000D02*
X144441000Y-109429000D01*
X144481000Y-97597000D02*
X144481000Y-102065000D01*
X144481000Y-104945000D02*
X144481000Y-109413000D01*
X144521000Y-97612000D02*
X144521000Y-102065000D01*
X144521000Y-104945000D02*
X144521000Y-109398000D01*
X144561000Y-97628000D02*
X144561000Y-102065000D01*
X144561000Y-104945000D02*
X144561000Y-109382000D01*
X144601000Y-97644000D02*
X144601000Y-102065000D01*
X144601000Y-104945000D02*
X144601000Y-109366000D01*
X144641000Y-97660000D02*
X144641000Y-102065000D01*
X144641000Y-104945000D02*
X144641000Y-109350000D01*
X144681000Y-97677000D02*
X144681000Y-102065000D01*
X144681000Y-104945000D02*
X144681000Y-109333000D01*
X144721000Y-97694000D02*
X144721000Y-102065000D01*
X144721000Y-104945000D02*
X144721000Y-109316000D01*
X144761000Y-97712000D02*
X144761000Y-102065000D01*
X144761000Y-104945000D02*
X144761000Y-109298000D01*
X144801000Y-97729000D02*
X144801000Y-102065000D01*
X144801000Y-104945000D02*
X144801000Y-109281000D01*
X144841000Y-97747000D02*
X144841000Y-102065000D01*
X144841000Y-104945000D02*
X144841000Y-109263000D01*
X144881000Y-97766000D02*
X144881000Y-102065000D01*
X144881000Y-104945000D02*
X144881000Y-109244000D01*
X144921000Y-97784000D02*
X144921000Y-102065000D01*
X144921000Y-104945000D02*
X144921000Y-109226000D01*
X144961000Y-97803000D02*
X144961000Y-102065000D01*
X144961000Y-104945000D02*
X144961000Y-109207000D01*
X145001000Y-97823000D02*
X145001000Y-102065000D01*
X145001000Y-104945000D02*
X145001000Y-109187000D01*
X145041000Y-97843000D02*
X145041000Y-102065000D01*
X145041000Y-104945000D02*
X145041000Y-109167000D01*
X145081000Y-97863000D02*
X145081000Y-102065000D01*
X145081000Y-104945000D02*
X145081000Y-109147000D01*
X145121000Y-97883000D02*
X145121000Y-102065000D01*
X145121000Y-104945000D02*
X145121000Y-109127000D01*
X145161000Y-97904000D02*
X145161000Y-102065000D01*
X145161000Y-104945000D02*
X145161000Y-109106000D01*
X145201000Y-97925000D02*
X145201000Y-102065000D01*
X145201000Y-104945000D02*
X145201000Y-109085000D01*
X145241000Y-97947000D02*
X145241000Y-102065000D01*
X145241000Y-104945000D02*
X145241000Y-109063000D01*
X145281000Y-97969000D02*
X145281000Y-102065000D01*
X145281000Y-104945000D02*
X145281000Y-109041000D01*
X145321000Y-97991000D02*
X145321000Y-102065000D01*
X145321000Y-104945000D02*
X145321000Y-109019000D01*
X145361000Y-98014000D02*
X145361000Y-102065000D01*
X145361000Y-104945000D02*
X145361000Y-108996000D01*
X145401000Y-98037000D02*
X145401000Y-102065000D01*
X145401000Y-104945000D02*
X145401000Y-108973000D01*
X145441000Y-98060000D02*
X145441000Y-102065000D01*
X145441000Y-104945000D02*
X145441000Y-108950000D01*
X145481000Y-98084000D02*
X145481000Y-102065000D01*
X145481000Y-104945000D02*
X145481000Y-108926000D01*
X145521000Y-98108000D02*
X145521000Y-102065000D01*
X145521000Y-104945000D02*
X145521000Y-108902000D01*
X145561000Y-98133000D02*
X145561000Y-102065000D01*
X145561000Y-104945000D02*
X145561000Y-108877000D01*
X145601000Y-98158000D02*
X145601000Y-102065000D01*
X145601000Y-104945000D02*
X145601000Y-108852000D01*
X145641000Y-98183000D02*
X145641000Y-102065000D01*
X145641000Y-104945000D02*
X145641000Y-108827000D01*
X145681000Y-98209000D02*
X145681000Y-102065000D01*
X145681000Y-104945000D02*
X145681000Y-108801000D01*
X145721000Y-98235000D02*
X145721000Y-102065000D01*
X145721000Y-104945000D02*
X145721000Y-108775000D01*
X145761000Y-98262000D02*
X145761000Y-102065000D01*
X145761000Y-104945000D02*
X145761000Y-108748000D01*
X145801000Y-98289000D02*
X145801000Y-102065000D01*
X145801000Y-104945000D02*
X145801000Y-108721000D01*
X145841000Y-98317000D02*
X145841000Y-102065000D01*
X145841000Y-104945000D02*
X145841000Y-108693000D01*
X145881000Y-98345000D02*
X145881000Y-102065000D01*
X145881000Y-104945000D02*
X145881000Y-108665000D01*
X145921000Y-98374000D02*
X145921000Y-102065000D01*
X145921000Y-104945000D02*
X145921000Y-108636000D01*
X145961000Y-98403000D02*
X145961000Y-102065000D01*
X145961000Y-104945000D02*
X145961000Y-108607000D01*
X146001000Y-98432000D02*
X146001000Y-102065000D01*
X146001000Y-104945000D02*
X146001000Y-108578000D01*
X146041000Y-98462000D02*
X146041000Y-102065000D01*
X146041000Y-104945000D02*
X146041000Y-108548000D01*
X146081000Y-98493000D02*
X146081000Y-102065000D01*
X146081000Y-104945000D02*
X146081000Y-108517000D01*
X146121000Y-98523000D02*
X146121000Y-102065000D01*
X146121000Y-104945000D02*
X146121000Y-108487000D01*
X146161000Y-98555000D02*
X146161000Y-108455000D01*
X146201000Y-98587000D02*
X146201000Y-108423000D01*
X146241000Y-98620000D02*
X146241000Y-108390000D01*
X146281000Y-98653000D02*
X146281000Y-108357000D01*
X146321000Y-98686000D02*
X146321000Y-108324000D01*
X146361000Y-98720000D02*
X146361000Y-108290000D01*
X146401000Y-98755000D02*
X146401000Y-108255000D01*
X146441000Y-98791000D02*
X146441000Y-108219000D01*
X146481000Y-98827000D02*
X146481000Y-108183000D01*
X146521000Y-98863000D02*
X146521000Y-108147000D01*
X146561000Y-98900000D02*
X146561000Y-108110000D01*
X146601000Y-98938000D02*
X146601000Y-108072000D01*
X146641000Y-98977000D02*
X146641000Y-108033000D01*
X146681000Y-99016000D02*
X146681000Y-107994000D01*
X146721000Y-99056000D02*
X146721000Y-107954000D01*
X146761000Y-99097000D02*
X146761000Y-107913000D01*
X146801000Y-99138000D02*
X146801000Y-107872000D01*
X146841000Y-99180000D02*
X146841000Y-107830000D01*
X146881000Y-99223000D02*
X146881000Y-107787000D01*
X146921000Y-99267000D02*
X146921000Y-107743000D01*
X146961000Y-99311000D02*
X146961000Y-107699000D01*
X147001000Y-99357000D02*
X147001000Y-107653000D01*
X147041000Y-99403000D02*
X147041000Y-107607000D01*
X147081000Y-99450000D02*
X147081000Y-107560000D01*
X147121000Y-99498000D02*
X147121000Y-107512000D01*
X147161000Y-99548000D02*
X147161000Y-107462000D01*
X147201000Y-99598000D02*
X147201000Y-107412000D01*
X147241000Y-99649000D02*
X147241000Y-107361000D01*
X147281000Y-99701000D02*
X147281000Y-107309000D01*
X147321000Y-99755000D02*
X147321000Y-107255000D01*
X147361000Y-99809000D02*
X147361000Y-107201000D01*
X147401000Y-99865000D02*
X147401000Y-107145000D01*
X147441000Y-99922000D02*
X147441000Y-107088000D01*
X147481000Y-99981000D02*
X147481000Y-107029000D01*
X147521000Y-100041000D02*
X147521000Y-106969000D01*
X147561000Y-100103000D02*
X147561000Y-106907000D01*
X147601000Y-100166000D02*
X147601000Y-106844000D01*
X147641000Y-100230000D02*
X147641000Y-106780000D01*
X147681000Y-100297000D02*
X147681000Y-106713000D01*
X147721000Y-100365000D02*
X147721000Y-106645000D01*
X147761000Y-100436000D02*
X147761000Y-106574000D01*
X147801000Y-100509000D02*
X147801000Y-106501000D01*
X147841000Y-100584000D02*
X147841000Y-106426000D01*
X147881000Y-100661000D02*
X147881000Y-106349000D01*
X147921000Y-100741000D02*
X147921000Y-106269000D01*
X147961000Y-100824000D02*
X147961000Y-106186000D01*
X148001000Y-100911000D02*
X148001000Y-106099000D01*
X148041000Y-101001000D02*
X148041000Y-106009000D01*
X148081000Y-101095000D02*
X148081000Y-105915000D01*
X148121000Y-101193000D02*
X148121000Y-105817000D01*
X148161000Y-101296000D02*
X148161000Y-105714000D01*
X148201000Y-101405000D02*
X148201000Y-105605000D01*
X148241000Y-101521000D02*
X148241000Y-105489000D01*
X148281000Y-101644000D02*
X148281000Y-105366000D01*
X148321000Y-101777000D02*
X148321000Y-105233000D01*
X148361000Y-101922000D02*
X148361000Y-105088000D01*
X148401000Y-102083000D02*
X148401000Y-104927000D01*
X148441000Y-102264000D02*
X148441000Y-104746000D01*
X148481000Y-102477000D02*
X148481000Y-104533000D01*
X148521000Y-102748000D02*
X148521000Y-104262000D01*
X148561000Y-103188000D02*
X148561000Y-103822000D01*
X135382918Y-99930000D02*
X136632918Y-99930000D01*
X136007918Y-99305000D02*
X136007918Y-100555000D01*
%TO.C,C8*%
X116920000Y-104160000D02*
G75*
G03*
X116920000Y-104160000I-2620000J0D01*
G01*
X111720000Y-104160000D02*
X116880000Y-104160000D01*
X111720000Y-104120000D02*
X116880000Y-104120000D01*
X111721000Y-104080000D02*
X116879000Y-104080000D01*
X111722000Y-104040000D02*
X116878000Y-104040000D01*
X111724000Y-104000000D02*
X116876000Y-104000000D01*
X111727000Y-103960000D02*
X116873000Y-103960000D01*
X111731000Y-103920000D02*
X113260000Y-103920000D01*
X115340000Y-103920000D02*
X116869000Y-103920000D01*
X111735000Y-103880000D02*
X113260000Y-103880000D01*
X115340000Y-103880000D02*
X116865000Y-103880000D01*
X111739000Y-103840000D02*
X113260000Y-103840000D01*
X115340000Y-103840000D02*
X116861000Y-103840000D01*
X111744000Y-103800000D02*
X113260000Y-103800000D01*
X115340000Y-103800000D02*
X116856000Y-103800000D01*
X111750000Y-103760000D02*
X113260000Y-103760000D01*
X115340000Y-103760000D02*
X116850000Y-103760000D01*
X111757000Y-103720000D02*
X113260000Y-103720000D01*
X115340000Y-103720000D02*
X116843000Y-103720000D01*
X111764000Y-103680000D02*
X113260000Y-103680000D01*
X115340000Y-103680000D02*
X116836000Y-103680000D01*
X111772000Y-103640000D02*
X113260000Y-103640000D01*
X115340000Y-103640000D02*
X116828000Y-103640000D01*
X111780000Y-103600000D02*
X113260000Y-103600000D01*
X115340000Y-103600000D02*
X116820000Y-103600000D01*
X111789000Y-103560000D02*
X113260000Y-103560000D01*
X115340000Y-103560000D02*
X116811000Y-103560000D01*
X111799000Y-103520000D02*
X113260000Y-103520000D01*
X115340000Y-103520000D02*
X116801000Y-103520000D01*
X111809000Y-103480000D02*
X113260000Y-103480000D01*
X115340000Y-103480000D02*
X116791000Y-103480000D01*
X111820000Y-103439000D02*
X113260000Y-103439000D01*
X115340000Y-103439000D02*
X116780000Y-103439000D01*
X111832000Y-103399000D02*
X113260000Y-103399000D01*
X115340000Y-103399000D02*
X116768000Y-103399000D01*
X111845000Y-103359000D02*
X113260000Y-103359000D01*
X115340000Y-103359000D02*
X116755000Y-103359000D01*
X111858000Y-103319000D02*
X113260000Y-103319000D01*
X115340000Y-103319000D02*
X116742000Y-103319000D01*
X111872000Y-103279000D02*
X113260000Y-103279000D01*
X115340000Y-103279000D02*
X116728000Y-103279000D01*
X111886000Y-103239000D02*
X113260000Y-103239000D01*
X115340000Y-103239000D02*
X116714000Y-103239000D01*
X111902000Y-103199000D02*
X113260000Y-103199000D01*
X115340000Y-103199000D02*
X116698000Y-103199000D01*
X111918000Y-103159000D02*
X113260000Y-103159000D01*
X115340000Y-103159000D02*
X116682000Y-103159000D01*
X111935000Y-103119000D02*
X113260000Y-103119000D01*
X115340000Y-103119000D02*
X116665000Y-103119000D01*
X111952000Y-103079000D02*
X113260000Y-103079000D01*
X115340000Y-103079000D02*
X116648000Y-103079000D01*
X111971000Y-103039000D02*
X113260000Y-103039000D01*
X115340000Y-103039000D02*
X116629000Y-103039000D01*
X111990000Y-102999000D02*
X113260000Y-102999000D01*
X115340000Y-102999000D02*
X116610000Y-102999000D01*
X112010000Y-102959000D02*
X113260000Y-102959000D01*
X115340000Y-102959000D02*
X116590000Y-102959000D01*
X112032000Y-102919000D02*
X113260000Y-102919000D01*
X115340000Y-102919000D02*
X116568000Y-102919000D01*
X112053000Y-102879000D02*
X113260000Y-102879000D01*
X115340000Y-102879000D02*
X116547000Y-102879000D01*
X112076000Y-102839000D02*
X113260000Y-102839000D01*
X115340000Y-102839000D02*
X116524000Y-102839000D01*
X112100000Y-102799000D02*
X113260000Y-102799000D01*
X115340000Y-102799000D02*
X116500000Y-102799000D01*
X112125000Y-102759000D02*
X113260000Y-102759000D01*
X115340000Y-102759000D02*
X116475000Y-102759000D01*
X112151000Y-102719000D02*
X113260000Y-102719000D01*
X115340000Y-102719000D02*
X116449000Y-102719000D01*
X112178000Y-102679000D02*
X113260000Y-102679000D01*
X115340000Y-102679000D02*
X116422000Y-102679000D01*
X112205000Y-102639000D02*
X113260000Y-102639000D01*
X115340000Y-102639000D02*
X116395000Y-102639000D01*
X112235000Y-102599000D02*
X113260000Y-102599000D01*
X115340000Y-102599000D02*
X116365000Y-102599000D01*
X112265000Y-102559000D02*
X113260000Y-102559000D01*
X115340000Y-102559000D02*
X116335000Y-102559000D01*
X112296000Y-102519000D02*
X113260000Y-102519000D01*
X115340000Y-102519000D02*
X116304000Y-102519000D01*
X112329000Y-102479000D02*
X113260000Y-102479000D01*
X115340000Y-102479000D02*
X116271000Y-102479000D01*
X112363000Y-102439000D02*
X113260000Y-102439000D01*
X115340000Y-102439000D02*
X116237000Y-102439000D01*
X112399000Y-102399000D02*
X113260000Y-102399000D01*
X115340000Y-102399000D02*
X116201000Y-102399000D01*
X112436000Y-102359000D02*
X113260000Y-102359000D01*
X115340000Y-102359000D02*
X116164000Y-102359000D01*
X112474000Y-102319000D02*
X113260000Y-102319000D01*
X115340000Y-102319000D02*
X116126000Y-102319000D01*
X112515000Y-102279000D02*
X113260000Y-102279000D01*
X115340000Y-102279000D02*
X116085000Y-102279000D01*
X112557000Y-102239000D02*
X113260000Y-102239000D01*
X115340000Y-102239000D02*
X116043000Y-102239000D01*
X112601000Y-102199000D02*
X113260000Y-102199000D01*
X115340000Y-102199000D02*
X115999000Y-102199000D01*
X112647000Y-102159000D02*
X113260000Y-102159000D01*
X115340000Y-102159000D02*
X115953000Y-102159000D01*
X112695000Y-102119000D02*
X113260000Y-102119000D01*
X115340000Y-102119000D02*
X115905000Y-102119000D01*
X112746000Y-102079000D02*
X113260000Y-102079000D01*
X115340000Y-102079000D02*
X115854000Y-102079000D01*
X112800000Y-102039000D02*
X113260000Y-102039000D01*
X115340000Y-102039000D02*
X115800000Y-102039000D01*
X112857000Y-101999000D02*
X113260000Y-101999000D01*
X115340000Y-101999000D02*
X115743000Y-101999000D01*
X112917000Y-101959000D02*
X113260000Y-101959000D01*
X115340000Y-101959000D02*
X115683000Y-101959000D01*
X112981000Y-101919000D02*
X113260000Y-101919000D01*
X115340000Y-101919000D02*
X115619000Y-101919000D01*
X113049000Y-101879000D02*
X113260000Y-101879000D01*
X115340000Y-101879000D02*
X115551000Y-101879000D01*
X113122000Y-101839000D02*
X115478000Y-101839000D01*
X113202000Y-101799000D02*
X115398000Y-101799000D01*
X113289000Y-101759000D02*
X115311000Y-101759000D01*
X113385000Y-101719000D02*
X115215000Y-101719000D01*
X113495000Y-101679000D02*
X115105000Y-101679000D01*
X113623000Y-101639000D02*
X114977000Y-101639000D01*
X113782000Y-101599000D02*
X114818000Y-101599000D01*
X114016000Y-101559000D02*
X114584000Y-101559000D01*
X112825000Y-106964775D02*
X112825000Y-106464775D01*
X112575000Y-106714775D02*
X113075000Y-106714775D01*
%TO.C,C7*%
X198835000Y-81260000D02*
G75*
G03*
X198835000Y-81260000I-2620000J0D01*
G01*
X198795000Y-81260000D02*
X193635000Y-81260000D01*
X198795000Y-81300000D02*
X193635000Y-81300000D01*
X198794000Y-81340000D02*
X193636000Y-81340000D01*
X198793000Y-81380000D02*
X193637000Y-81380000D01*
X198791000Y-81420000D02*
X193639000Y-81420000D01*
X198788000Y-81460000D02*
X193642000Y-81460000D01*
X198784000Y-81500000D02*
X197255000Y-81500000D01*
X195175000Y-81500000D02*
X193646000Y-81500000D01*
X198780000Y-81540000D02*
X197255000Y-81540000D01*
X195175000Y-81540000D02*
X193650000Y-81540000D01*
X198776000Y-81580000D02*
X197255000Y-81580000D01*
X195175000Y-81580000D02*
X193654000Y-81580000D01*
X198771000Y-81620000D02*
X197255000Y-81620000D01*
X195175000Y-81620000D02*
X193659000Y-81620000D01*
X198765000Y-81660000D02*
X197255000Y-81660000D01*
X195175000Y-81660000D02*
X193665000Y-81660000D01*
X198758000Y-81700000D02*
X197255000Y-81700000D01*
X195175000Y-81700000D02*
X193672000Y-81700000D01*
X198751000Y-81740000D02*
X197255000Y-81740000D01*
X195175000Y-81740000D02*
X193679000Y-81740000D01*
X198743000Y-81780000D02*
X197255000Y-81780000D01*
X195175000Y-81780000D02*
X193687000Y-81780000D01*
X198735000Y-81820000D02*
X197255000Y-81820000D01*
X195175000Y-81820000D02*
X193695000Y-81820000D01*
X198726000Y-81860000D02*
X197255000Y-81860000D01*
X195175000Y-81860000D02*
X193704000Y-81860000D01*
X198716000Y-81900000D02*
X197255000Y-81900000D01*
X195175000Y-81900000D02*
X193714000Y-81900000D01*
X198706000Y-81940000D02*
X197255000Y-81940000D01*
X195175000Y-81940000D02*
X193724000Y-81940000D01*
X198695000Y-81981000D02*
X197255000Y-81981000D01*
X195175000Y-81981000D02*
X193735000Y-81981000D01*
X198683000Y-82021000D02*
X197255000Y-82021000D01*
X195175000Y-82021000D02*
X193747000Y-82021000D01*
X198670000Y-82061000D02*
X197255000Y-82061000D01*
X195175000Y-82061000D02*
X193760000Y-82061000D01*
X198657000Y-82101000D02*
X197255000Y-82101000D01*
X195175000Y-82101000D02*
X193773000Y-82101000D01*
X198643000Y-82141000D02*
X197255000Y-82141000D01*
X195175000Y-82141000D02*
X193787000Y-82141000D01*
X198629000Y-82181000D02*
X197255000Y-82181000D01*
X195175000Y-82181000D02*
X193801000Y-82181000D01*
X198613000Y-82221000D02*
X197255000Y-82221000D01*
X195175000Y-82221000D02*
X193817000Y-82221000D01*
X198597000Y-82261000D02*
X197255000Y-82261000D01*
X195175000Y-82261000D02*
X193833000Y-82261000D01*
X198580000Y-82301000D02*
X197255000Y-82301000D01*
X195175000Y-82301000D02*
X193850000Y-82301000D01*
X198563000Y-82341000D02*
X197255000Y-82341000D01*
X195175000Y-82341000D02*
X193867000Y-82341000D01*
X198544000Y-82381000D02*
X197255000Y-82381000D01*
X195175000Y-82381000D02*
X193886000Y-82381000D01*
X198525000Y-82421000D02*
X197255000Y-82421000D01*
X195175000Y-82421000D02*
X193905000Y-82421000D01*
X198505000Y-82461000D02*
X197255000Y-82461000D01*
X195175000Y-82461000D02*
X193925000Y-82461000D01*
X198483000Y-82501000D02*
X197255000Y-82501000D01*
X195175000Y-82501000D02*
X193947000Y-82501000D01*
X198462000Y-82541000D02*
X197255000Y-82541000D01*
X195175000Y-82541000D02*
X193968000Y-82541000D01*
X198439000Y-82581000D02*
X197255000Y-82581000D01*
X195175000Y-82581000D02*
X193991000Y-82581000D01*
X198415000Y-82621000D02*
X197255000Y-82621000D01*
X195175000Y-82621000D02*
X194015000Y-82621000D01*
X198390000Y-82661000D02*
X197255000Y-82661000D01*
X195175000Y-82661000D02*
X194040000Y-82661000D01*
X198364000Y-82701000D02*
X197255000Y-82701000D01*
X195175000Y-82701000D02*
X194066000Y-82701000D01*
X198337000Y-82741000D02*
X197255000Y-82741000D01*
X195175000Y-82741000D02*
X194093000Y-82741000D01*
X198310000Y-82781000D02*
X197255000Y-82781000D01*
X195175000Y-82781000D02*
X194120000Y-82781000D01*
X198280000Y-82821000D02*
X197255000Y-82821000D01*
X195175000Y-82821000D02*
X194150000Y-82821000D01*
X198250000Y-82861000D02*
X197255000Y-82861000D01*
X195175000Y-82861000D02*
X194180000Y-82861000D01*
X198219000Y-82901000D02*
X197255000Y-82901000D01*
X195175000Y-82901000D02*
X194211000Y-82901000D01*
X198186000Y-82941000D02*
X197255000Y-82941000D01*
X195175000Y-82941000D02*
X194244000Y-82941000D01*
X198152000Y-82981000D02*
X197255000Y-82981000D01*
X195175000Y-82981000D02*
X194278000Y-82981000D01*
X198116000Y-83021000D02*
X197255000Y-83021000D01*
X195175000Y-83021000D02*
X194314000Y-83021000D01*
X198079000Y-83061000D02*
X197255000Y-83061000D01*
X195175000Y-83061000D02*
X194351000Y-83061000D01*
X198041000Y-83101000D02*
X197255000Y-83101000D01*
X195175000Y-83101000D02*
X194389000Y-83101000D01*
X198000000Y-83141000D02*
X197255000Y-83141000D01*
X195175000Y-83141000D02*
X194430000Y-83141000D01*
X197958000Y-83181000D02*
X197255000Y-83181000D01*
X195175000Y-83181000D02*
X194472000Y-83181000D01*
X197914000Y-83221000D02*
X197255000Y-83221000D01*
X195175000Y-83221000D02*
X194516000Y-83221000D01*
X197868000Y-83261000D02*
X197255000Y-83261000D01*
X195175000Y-83261000D02*
X194562000Y-83261000D01*
X197820000Y-83301000D02*
X197255000Y-83301000D01*
X195175000Y-83301000D02*
X194610000Y-83301000D01*
X197769000Y-83341000D02*
X197255000Y-83341000D01*
X195175000Y-83341000D02*
X194661000Y-83341000D01*
X197715000Y-83381000D02*
X197255000Y-83381000D01*
X195175000Y-83381000D02*
X194715000Y-83381000D01*
X197658000Y-83421000D02*
X197255000Y-83421000D01*
X195175000Y-83421000D02*
X194772000Y-83421000D01*
X197598000Y-83461000D02*
X197255000Y-83461000D01*
X195175000Y-83461000D02*
X194832000Y-83461000D01*
X197534000Y-83501000D02*
X197255000Y-83501000D01*
X195175000Y-83501000D02*
X194896000Y-83501000D01*
X197466000Y-83541000D02*
X197255000Y-83541000D01*
X195175000Y-83541000D02*
X194964000Y-83541000D01*
X197393000Y-83581000D02*
X195037000Y-83581000D01*
X197313000Y-83621000D02*
X195117000Y-83621000D01*
X197226000Y-83661000D02*
X195204000Y-83661000D01*
X197130000Y-83701000D02*
X195300000Y-83701000D01*
X197020000Y-83741000D02*
X195410000Y-83741000D01*
X196892000Y-83781000D02*
X195538000Y-83781000D01*
X196733000Y-83821000D02*
X195697000Y-83821000D01*
X196499000Y-83861000D02*
X195931000Y-83861000D01*
X197690000Y-78455225D02*
X197690000Y-78955225D01*
X197940000Y-78705225D02*
X197440000Y-78705225D01*
%TO.C,C6*%
X132675000Y-104140000D02*
G75*
G03*
X132675000Y-104140000I-6370000J0D01*
G01*
X126305000Y-97810000D02*
X126305000Y-110470000D01*
X126345000Y-97810000D02*
X126345000Y-110470000D01*
X126385000Y-97810000D02*
X126385000Y-110470000D01*
X126425000Y-97811000D02*
X126425000Y-110469000D01*
X126465000Y-97812000D02*
X126465000Y-110468000D01*
X126505000Y-97813000D02*
X126505000Y-110467000D01*
X126545000Y-97814000D02*
X126545000Y-110466000D01*
X126585000Y-97816000D02*
X126585000Y-110464000D01*
X126625000Y-97818000D02*
X126625000Y-110462000D01*
X126665000Y-97820000D02*
X126665000Y-110460000D01*
X126705000Y-97822000D02*
X126705000Y-110458000D01*
X126745000Y-97825000D02*
X126745000Y-110455000D01*
X126785000Y-97828000D02*
X126785000Y-110452000D01*
X126825000Y-97831000D02*
X126825000Y-110449000D01*
X126865000Y-97834000D02*
X126865000Y-110446000D01*
X126905000Y-97838000D02*
X126905000Y-110442000D01*
X126945000Y-97842000D02*
X126945000Y-110438000D01*
X126985000Y-97846000D02*
X126985000Y-110434000D01*
X127026000Y-97850000D02*
X127026000Y-110430000D01*
X127066000Y-97855000D02*
X127066000Y-110425000D01*
X127106000Y-97860000D02*
X127106000Y-110420000D01*
X127146000Y-97865000D02*
X127146000Y-110415000D01*
X127186000Y-97871000D02*
X127186000Y-110409000D01*
X127226000Y-97876000D02*
X127226000Y-110404000D01*
X127266000Y-97882000D02*
X127266000Y-110398000D01*
X127306000Y-97888000D02*
X127306000Y-110392000D01*
X127346000Y-97895000D02*
X127346000Y-110385000D01*
X127386000Y-97902000D02*
X127386000Y-110378000D01*
X127426000Y-97909000D02*
X127426000Y-110371000D01*
X127466000Y-97916000D02*
X127466000Y-110364000D01*
X127506000Y-97924000D02*
X127506000Y-110356000D01*
X127546000Y-97931000D02*
X127546000Y-110349000D01*
X127586000Y-97939000D02*
X127586000Y-110341000D01*
X127626000Y-97948000D02*
X127626000Y-110332000D01*
X127666000Y-97956000D02*
X127666000Y-110324000D01*
X127706000Y-97965000D02*
X127706000Y-110315000D01*
X127746000Y-97974000D02*
X127746000Y-110306000D01*
X127786000Y-97984000D02*
X127786000Y-110296000D01*
X127826000Y-97994000D02*
X127826000Y-110286000D01*
X127866000Y-98003000D02*
X127866000Y-110277000D01*
X127906000Y-98014000D02*
X127906000Y-110266000D01*
X127946000Y-98024000D02*
X127946000Y-110256000D01*
X127986000Y-98035000D02*
X127986000Y-110245000D01*
X128026000Y-98046000D02*
X128026000Y-110234000D01*
X128066000Y-98057000D02*
X128066000Y-110223000D01*
X128106000Y-98069000D02*
X128106000Y-110211000D01*
X128146000Y-98081000D02*
X128146000Y-110199000D01*
X128186000Y-98093000D02*
X128186000Y-110187000D01*
X128226000Y-98106000D02*
X128226000Y-110174000D01*
X128266000Y-98119000D02*
X128266000Y-110161000D01*
X128306000Y-98132000D02*
X128306000Y-110148000D01*
X128346000Y-98145000D02*
X128346000Y-110135000D01*
X128386000Y-98159000D02*
X128386000Y-110121000D01*
X128426000Y-98173000D02*
X128426000Y-110107000D01*
X128466000Y-98187000D02*
X128466000Y-110093000D01*
X128506000Y-98201000D02*
X128506000Y-110079000D01*
X128546000Y-98216000D02*
X128546000Y-110064000D01*
X128586000Y-98232000D02*
X128586000Y-110048000D01*
X128626000Y-98247000D02*
X128626000Y-102700000D01*
X128626000Y-105580000D02*
X128626000Y-110033000D01*
X128666000Y-98263000D02*
X128666000Y-102700000D01*
X128666000Y-105580000D02*
X128666000Y-110017000D01*
X128706000Y-98279000D02*
X128706000Y-102700000D01*
X128706000Y-105580000D02*
X128706000Y-110001000D01*
X128746000Y-98295000D02*
X128746000Y-102700000D01*
X128746000Y-105580000D02*
X128746000Y-109985000D01*
X128786000Y-98312000D02*
X128786000Y-102700000D01*
X128786000Y-105580000D02*
X128786000Y-109968000D01*
X128826000Y-98329000D02*
X128826000Y-102700000D01*
X128826000Y-105580000D02*
X128826000Y-109951000D01*
X128866000Y-98347000D02*
X128866000Y-102700000D01*
X128866000Y-105580000D02*
X128866000Y-109933000D01*
X128906000Y-98364000D02*
X128906000Y-102700000D01*
X128906000Y-105580000D02*
X128906000Y-109916000D01*
X128946000Y-98382000D02*
X128946000Y-102700000D01*
X128946000Y-105580000D02*
X128946000Y-109898000D01*
X128986000Y-98401000D02*
X128986000Y-102700000D01*
X128986000Y-105580000D02*
X128986000Y-109879000D01*
X129026000Y-98419000D02*
X129026000Y-102700000D01*
X129026000Y-105580000D02*
X129026000Y-109861000D01*
X129066000Y-98438000D02*
X129066000Y-102700000D01*
X129066000Y-105580000D02*
X129066000Y-109842000D01*
X129106000Y-98458000D02*
X129106000Y-102700000D01*
X129106000Y-105580000D02*
X129106000Y-109822000D01*
X129146000Y-98478000D02*
X129146000Y-102700000D01*
X129146000Y-105580000D02*
X129146000Y-109802000D01*
X129186000Y-98498000D02*
X129186000Y-102700000D01*
X129186000Y-105580000D02*
X129186000Y-109782000D01*
X129226000Y-98518000D02*
X129226000Y-102700000D01*
X129226000Y-105580000D02*
X129226000Y-109762000D01*
X129266000Y-98539000D02*
X129266000Y-102700000D01*
X129266000Y-105580000D02*
X129266000Y-109741000D01*
X129306000Y-98560000D02*
X129306000Y-102700000D01*
X129306000Y-105580000D02*
X129306000Y-109720000D01*
X129346000Y-98582000D02*
X129346000Y-102700000D01*
X129346000Y-105580000D02*
X129346000Y-109698000D01*
X129386000Y-98604000D02*
X129386000Y-102700000D01*
X129386000Y-105580000D02*
X129386000Y-109676000D01*
X129426000Y-98626000D02*
X129426000Y-102700000D01*
X129426000Y-105580000D02*
X129426000Y-109654000D01*
X129466000Y-98649000D02*
X129466000Y-102700000D01*
X129466000Y-105580000D02*
X129466000Y-109631000D01*
X129506000Y-98672000D02*
X129506000Y-102700000D01*
X129506000Y-105580000D02*
X129506000Y-109608000D01*
X129546000Y-98695000D02*
X129546000Y-102700000D01*
X129546000Y-105580000D02*
X129546000Y-109585000D01*
X129586000Y-98719000D02*
X129586000Y-102700000D01*
X129586000Y-105580000D02*
X129586000Y-109561000D01*
X129626000Y-98743000D02*
X129626000Y-102700000D01*
X129626000Y-105580000D02*
X129626000Y-109537000D01*
X129666000Y-98768000D02*
X129666000Y-102700000D01*
X129666000Y-105580000D02*
X129666000Y-109512000D01*
X129706000Y-98793000D02*
X129706000Y-102700000D01*
X129706000Y-105580000D02*
X129706000Y-109487000D01*
X129746000Y-98818000D02*
X129746000Y-102700000D01*
X129746000Y-105580000D02*
X129746000Y-109462000D01*
X129786000Y-98844000D02*
X129786000Y-102700000D01*
X129786000Y-105580000D02*
X129786000Y-109436000D01*
X129826000Y-98870000D02*
X129826000Y-102700000D01*
X129826000Y-105580000D02*
X129826000Y-109410000D01*
X129866000Y-98897000D02*
X129866000Y-102700000D01*
X129866000Y-105580000D02*
X129866000Y-109383000D01*
X129906000Y-98924000D02*
X129906000Y-102700000D01*
X129906000Y-105580000D02*
X129906000Y-109356000D01*
X129946000Y-98952000D02*
X129946000Y-102700000D01*
X129946000Y-105580000D02*
X129946000Y-109328000D01*
X129986000Y-98980000D02*
X129986000Y-102700000D01*
X129986000Y-105580000D02*
X129986000Y-109300000D01*
X130026000Y-99009000D02*
X130026000Y-102700000D01*
X130026000Y-105580000D02*
X130026000Y-109271000D01*
X130066000Y-99038000D02*
X130066000Y-102700000D01*
X130066000Y-105580000D02*
X130066000Y-109242000D01*
X130106000Y-99067000D02*
X130106000Y-102700000D01*
X130106000Y-105580000D02*
X130106000Y-109213000D01*
X130146000Y-99097000D02*
X130146000Y-102700000D01*
X130146000Y-105580000D02*
X130146000Y-109183000D01*
X130186000Y-99128000D02*
X130186000Y-102700000D01*
X130186000Y-105580000D02*
X130186000Y-109152000D01*
X130226000Y-99158000D02*
X130226000Y-102700000D01*
X130226000Y-105580000D02*
X130226000Y-109122000D01*
X130266000Y-99190000D02*
X130266000Y-102700000D01*
X130266000Y-105580000D02*
X130266000Y-109090000D01*
X130306000Y-99222000D02*
X130306000Y-102700000D01*
X130306000Y-105580000D02*
X130306000Y-109058000D01*
X130346000Y-99255000D02*
X130346000Y-102700000D01*
X130346000Y-105580000D02*
X130346000Y-109025000D01*
X130386000Y-99288000D02*
X130386000Y-102700000D01*
X130386000Y-105580000D02*
X130386000Y-108992000D01*
X130426000Y-99321000D02*
X130426000Y-102700000D01*
X130426000Y-105580000D02*
X130426000Y-108959000D01*
X130466000Y-99355000D02*
X130466000Y-102700000D01*
X130466000Y-105580000D02*
X130466000Y-108925000D01*
X130506000Y-99390000D02*
X130506000Y-102700000D01*
X130506000Y-105580000D02*
X130506000Y-108890000D01*
X130546000Y-99426000D02*
X130546000Y-102700000D01*
X130546000Y-105580000D02*
X130546000Y-108854000D01*
X130586000Y-99462000D02*
X130586000Y-102700000D01*
X130586000Y-105580000D02*
X130586000Y-108818000D01*
X130626000Y-99498000D02*
X130626000Y-102700000D01*
X130626000Y-105580000D02*
X130626000Y-108782000D01*
X130666000Y-99535000D02*
X130666000Y-102700000D01*
X130666000Y-105580000D02*
X130666000Y-108745000D01*
X130706000Y-99573000D02*
X130706000Y-102700000D01*
X130706000Y-105580000D02*
X130706000Y-108707000D01*
X130746000Y-99612000D02*
X130746000Y-102700000D01*
X130746000Y-105580000D02*
X130746000Y-108668000D01*
X130786000Y-99651000D02*
X130786000Y-102700000D01*
X130786000Y-105580000D02*
X130786000Y-108629000D01*
X130826000Y-99691000D02*
X130826000Y-102700000D01*
X130826000Y-105580000D02*
X130826000Y-108589000D01*
X130866000Y-99732000D02*
X130866000Y-102700000D01*
X130866000Y-105580000D02*
X130866000Y-108548000D01*
X130906000Y-99773000D02*
X130906000Y-102700000D01*
X130906000Y-105580000D02*
X130906000Y-108507000D01*
X130946000Y-99815000D02*
X130946000Y-102700000D01*
X130946000Y-105580000D02*
X130946000Y-108465000D01*
X130986000Y-99858000D02*
X130986000Y-102700000D01*
X130986000Y-105580000D02*
X130986000Y-108422000D01*
X131026000Y-99902000D02*
X131026000Y-102700000D01*
X131026000Y-105580000D02*
X131026000Y-108378000D01*
X131066000Y-99946000D02*
X131066000Y-102700000D01*
X131066000Y-105580000D02*
X131066000Y-108334000D01*
X131106000Y-99992000D02*
X131106000Y-102700000D01*
X131106000Y-105580000D02*
X131106000Y-108288000D01*
X131146000Y-100038000D02*
X131146000Y-102700000D01*
X131146000Y-105580000D02*
X131146000Y-108242000D01*
X131186000Y-100085000D02*
X131186000Y-102700000D01*
X131186000Y-105580000D02*
X131186000Y-108195000D01*
X131226000Y-100133000D02*
X131226000Y-102700000D01*
X131226000Y-105580000D02*
X131226000Y-108147000D01*
X131266000Y-100183000D02*
X131266000Y-102700000D01*
X131266000Y-105580000D02*
X131266000Y-108097000D01*
X131306000Y-100233000D02*
X131306000Y-102700000D01*
X131306000Y-105580000D02*
X131306000Y-108047000D01*
X131346000Y-100284000D02*
X131346000Y-102700000D01*
X131346000Y-105580000D02*
X131346000Y-107996000D01*
X131386000Y-100336000D02*
X131386000Y-102700000D01*
X131386000Y-105580000D02*
X131386000Y-107944000D01*
X131426000Y-100390000D02*
X131426000Y-102700000D01*
X131426000Y-105580000D02*
X131426000Y-107890000D01*
X131466000Y-100444000D02*
X131466000Y-102700000D01*
X131466000Y-105580000D02*
X131466000Y-107836000D01*
X131506000Y-100500000D02*
X131506000Y-107780000D01*
X131546000Y-100557000D02*
X131546000Y-107723000D01*
X131586000Y-100616000D02*
X131586000Y-107664000D01*
X131626000Y-100676000D02*
X131626000Y-107604000D01*
X131666000Y-100738000D02*
X131666000Y-107542000D01*
X131706000Y-100801000D02*
X131706000Y-107479000D01*
X131746000Y-100865000D02*
X131746000Y-107415000D01*
X131786000Y-100932000D02*
X131786000Y-107348000D01*
X131826000Y-101000000D02*
X131826000Y-107280000D01*
X131866000Y-101071000D02*
X131866000Y-107209000D01*
X131906000Y-101144000D02*
X131906000Y-107136000D01*
X131946000Y-101219000D02*
X131946000Y-107061000D01*
X131986000Y-101296000D02*
X131986000Y-106984000D01*
X132026000Y-101376000D02*
X132026000Y-106904000D01*
X132066000Y-101459000D02*
X132066000Y-106821000D01*
X132106000Y-101546000D02*
X132106000Y-106734000D01*
X132146000Y-101636000D02*
X132146000Y-106644000D01*
X132186000Y-101730000D02*
X132186000Y-106550000D01*
X132226000Y-101828000D02*
X132226000Y-106452000D01*
X132266000Y-101931000D02*
X132266000Y-106349000D01*
X132306000Y-102040000D02*
X132306000Y-106240000D01*
X132346000Y-102156000D02*
X132346000Y-106124000D01*
X132386000Y-102279000D02*
X132386000Y-106001000D01*
X132426000Y-102412000D02*
X132426000Y-105868000D01*
X132466000Y-102557000D02*
X132466000Y-105723000D01*
X132506000Y-102718000D02*
X132506000Y-105562000D01*
X132546000Y-102899000D02*
X132546000Y-105381000D01*
X132586000Y-103112000D02*
X132586000Y-105168000D01*
X132626000Y-103383000D02*
X132626000Y-104897000D01*
X132666000Y-103823000D02*
X132666000Y-104457000D01*
X119487918Y-100565000D02*
X120737918Y-100565000D01*
X120112918Y-99940000D02*
X120112918Y-101190000D01*
%TO.C,C5*%
X146130000Y-80665000D02*
G75*
G03*
X146130000Y-80665000I-2620000J0D01*
G01*
X140930000Y-80665000D02*
X146090000Y-80665000D01*
X140930000Y-80625000D02*
X146090000Y-80625000D01*
X140931000Y-80585000D02*
X146089000Y-80585000D01*
X140932000Y-80545000D02*
X146088000Y-80545000D01*
X140934000Y-80505000D02*
X146086000Y-80505000D01*
X140937000Y-80465000D02*
X146083000Y-80465000D01*
X140941000Y-80425000D02*
X142470000Y-80425000D01*
X144550000Y-80425000D02*
X146079000Y-80425000D01*
X140945000Y-80385000D02*
X142470000Y-80385000D01*
X144550000Y-80385000D02*
X146075000Y-80385000D01*
X140949000Y-80345000D02*
X142470000Y-80345000D01*
X144550000Y-80345000D02*
X146071000Y-80345000D01*
X140954000Y-80305000D02*
X142470000Y-80305000D01*
X144550000Y-80305000D02*
X146066000Y-80305000D01*
X140960000Y-80265000D02*
X142470000Y-80265000D01*
X144550000Y-80265000D02*
X146060000Y-80265000D01*
X140967000Y-80225000D02*
X142470000Y-80225000D01*
X144550000Y-80225000D02*
X146053000Y-80225000D01*
X140974000Y-80185000D02*
X142470000Y-80185000D01*
X144550000Y-80185000D02*
X146046000Y-80185000D01*
X140982000Y-80145000D02*
X142470000Y-80145000D01*
X144550000Y-80145000D02*
X146038000Y-80145000D01*
X140990000Y-80105000D02*
X142470000Y-80105000D01*
X144550000Y-80105000D02*
X146030000Y-80105000D01*
X140999000Y-80065000D02*
X142470000Y-80065000D01*
X144550000Y-80065000D02*
X146021000Y-80065000D01*
X141009000Y-80025000D02*
X142470000Y-80025000D01*
X144550000Y-80025000D02*
X146011000Y-80025000D01*
X141019000Y-79985000D02*
X142470000Y-79985000D01*
X144550000Y-79985000D02*
X146001000Y-79985000D01*
X141030000Y-79944000D02*
X142470000Y-79944000D01*
X144550000Y-79944000D02*
X145990000Y-79944000D01*
X141042000Y-79904000D02*
X142470000Y-79904000D01*
X144550000Y-79904000D02*
X145978000Y-79904000D01*
X141055000Y-79864000D02*
X142470000Y-79864000D01*
X144550000Y-79864000D02*
X145965000Y-79864000D01*
X141068000Y-79824000D02*
X142470000Y-79824000D01*
X144550000Y-79824000D02*
X145952000Y-79824000D01*
X141082000Y-79784000D02*
X142470000Y-79784000D01*
X144550000Y-79784000D02*
X145938000Y-79784000D01*
X141096000Y-79744000D02*
X142470000Y-79744000D01*
X144550000Y-79744000D02*
X145924000Y-79744000D01*
X141112000Y-79704000D02*
X142470000Y-79704000D01*
X144550000Y-79704000D02*
X145908000Y-79704000D01*
X141128000Y-79664000D02*
X142470000Y-79664000D01*
X144550000Y-79664000D02*
X145892000Y-79664000D01*
X141145000Y-79624000D02*
X142470000Y-79624000D01*
X144550000Y-79624000D02*
X145875000Y-79624000D01*
X141162000Y-79584000D02*
X142470000Y-79584000D01*
X144550000Y-79584000D02*
X145858000Y-79584000D01*
X141181000Y-79544000D02*
X142470000Y-79544000D01*
X144550000Y-79544000D02*
X145839000Y-79544000D01*
X141200000Y-79504000D02*
X142470000Y-79504000D01*
X144550000Y-79504000D02*
X145820000Y-79504000D01*
X141220000Y-79464000D02*
X142470000Y-79464000D01*
X144550000Y-79464000D02*
X145800000Y-79464000D01*
X141242000Y-79424000D02*
X142470000Y-79424000D01*
X144550000Y-79424000D02*
X145778000Y-79424000D01*
X141263000Y-79384000D02*
X142470000Y-79384000D01*
X144550000Y-79384000D02*
X145757000Y-79384000D01*
X141286000Y-79344000D02*
X142470000Y-79344000D01*
X144550000Y-79344000D02*
X145734000Y-79344000D01*
X141310000Y-79304000D02*
X142470000Y-79304000D01*
X144550000Y-79304000D02*
X145710000Y-79304000D01*
X141335000Y-79264000D02*
X142470000Y-79264000D01*
X144550000Y-79264000D02*
X145685000Y-79264000D01*
X141361000Y-79224000D02*
X142470000Y-79224000D01*
X144550000Y-79224000D02*
X145659000Y-79224000D01*
X141388000Y-79184000D02*
X142470000Y-79184000D01*
X144550000Y-79184000D02*
X145632000Y-79184000D01*
X141415000Y-79144000D02*
X142470000Y-79144000D01*
X144550000Y-79144000D02*
X145605000Y-79144000D01*
X141445000Y-79104000D02*
X142470000Y-79104000D01*
X144550000Y-79104000D02*
X145575000Y-79104000D01*
X141475000Y-79064000D02*
X142470000Y-79064000D01*
X144550000Y-79064000D02*
X145545000Y-79064000D01*
X141506000Y-79024000D02*
X142470000Y-79024000D01*
X144550000Y-79024000D02*
X145514000Y-79024000D01*
X141539000Y-78984000D02*
X142470000Y-78984000D01*
X144550000Y-78984000D02*
X145481000Y-78984000D01*
X141573000Y-78944000D02*
X142470000Y-78944000D01*
X144550000Y-78944000D02*
X145447000Y-78944000D01*
X141609000Y-78904000D02*
X142470000Y-78904000D01*
X144550000Y-78904000D02*
X145411000Y-78904000D01*
X141646000Y-78864000D02*
X142470000Y-78864000D01*
X144550000Y-78864000D02*
X145374000Y-78864000D01*
X141684000Y-78824000D02*
X142470000Y-78824000D01*
X144550000Y-78824000D02*
X145336000Y-78824000D01*
X141725000Y-78784000D02*
X142470000Y-78784000D01*
X144550000Y-78784000D02*
X145295000Y-78784000D01*
X141767000Y-78744000D02*
X142470000Y-78744000D01*
X144550000Y-78744000D02*
X145253000Y-78744000D01*
X141811000Y-78704000D02*
X142470000Y-78704000D01*
X144550000Y-78704000D02*
X145209000Y-78704000D01*
X141857000Y-78664000D02*
X142470000Y-78664000D01*
X144550000Y-78664000D02*
X145163000Y-78664000D01*
X141905000Y-78624000D02*
X142470000Y-78624000D01*
X144550000Y-78624000D02*
X145115000Y-78624000D01*
X141956000Y-78584000D02*
X142470000Y-78584000D01*
X144550000Y-78584000D02*
X145064000Y-78584000D01*
X142010000Y-78544000D02*
X142470000Y-78544000D01*
X144550000Y-78544000D02*
X145010000Y-78544000D01*
X142067000Y-78504000D02*
X142470000Y-78504000D01*
X144550000Y-78504000D02*
X144953000Y-78504000D01*
X142127000Y-78464000D02*
X142470000Y-78464000D01*
X144550000Y-78464000D02*
X144893000Y-78464000D01*
X142191000Y-78424000D02*
X142470000Y-78424000D01*
X144550000Y-78424000D02*
X144829000Y-78424000D01*
X142259000Y-78384000D02*
X142470000Y-78384000D01*
X144550000Y-78384000D02*
X144761000Y-78384000D01*
X142332000Y-78344000D02*
X144688000Y-78344000D01*
X142412000Y-78304000D02*
X144608000Y-78304000D01*
X142499000Y-78264000D02*
X144521000Y-78264000D01*
X142595000Y-78224000D02*
X144425000Y-78224000D01*
X142705000Y-78184000D02*
X144315000Y-78184000D01*
X142833000Y-78144000D02*
X144187000Y-78144000D01*
X142992000Y-78104000D02*
X144028000Y-78104000D01*
X143226000Y-78064000D02*
X143794000Y-78064000D01*
X142035000Y-83469775D02*
X142035000Y-82969775D01*
X141785000Y-83219775D02*
X142285000Y-83219775D01*
%TO.C,C4*%
X113050000Y-90892000D02*
G75*
G03*
X113050000Y-90892000I-6370000J0D01*
G01*
X113010000Y-90892000D02*
X100350000Y-90892000D01*
X113010000Y-90932000D02*
X100350000Y-90932000D01*
X113010000Y-90972000D02*
X100350000Y-90972000D01*
X113009000Y-91012000D02*
X100351000Y-91012000D01*
X113008000Y-91052000D02*
X100352000Y-91052000D01*
X113007000Y-91092000D02*
X100353000Y-91092000D01*
X113006000Y-91132000D02*
X100354000Y-91132000D01*
X113004000Y-91172000D02*
X100356000Y-91172000D01*
X113002000Y-91212000D02*
X100358000Y-91212000D01*
X113000000Y-91252000D02*
X100360000Y-91252000D01*
X112998000Y-91292000D02*
X100362000Y-91292000D01*
X112995000Y-91332000D02*
X100365000Y-91332000D01*
X112992000Y-91372000D02*
X100368000Y-91372000D01*
X112989000Y-91412000D02*
X100371000Y-91412000D01*
X112986000Y-91452000D02*
X100374000Y-91452000D01*
X112982000Y-91492000D02*
X100378000Y-91492000D01*
X112978000Y-91532000D02*
X100382000Y-91532000D01*
X112974000Y-91572000D02*
X100386000Y-91572000D01*
X112970000Y-91613000D02*
X100390000Y-91613000D01*
X112965000Y-91653000D02*
X100395000Y-91653000D01*
X112960000Y-91693000D02*
X100400000Y-91693000D01*
X112955000Y-91733000D02*
X100405000Y-91733000D01*
X112949000Y-91773000D02*
X100411000Y-91773000D01*
X112944000Y-91813000D02*
X100416000Y-91813000D01*
X112938000Y-91853000D02*
X100422000Y-91853000D01*
X112932000Y-91893000D02*
X100428000Y-91893000D01*
X112925000Y-91933000D02*
X100435000Y-91933000D01*
X112918000Y-91973000D02*
X108120000Y-91973000D01*
X105240000Y-91973000D02*
X100442000Y-91973000D01*
X112911000Y-92013000D02*
X108120000Y-92013000D01*
X105240000Y-92013000D02*
X100449000Y-92013000D01*
X112904000Y-92053000D02*
X108120000Y-92053000D01*
X105240000Y-92053000D02*
X100456000Y-92053000D01*
X112896000Y-92093000D02*
X108120000Y-92093000D01*
X105240000Y-92093000D02*
X100464000Y-92093000D01*
X112889000Y-92133000D02*
X108120000Y-92133000D01*
X105240000Y-92133000D02*
X100471000Y-92133000D01*
X112881000Y-92173000D02*
X108120000Y-92173000D01*
X105240000Y-92173000D02*
X100479000Y-92173000D01*
X112872000Y-92213000D02*
X108120000Y-92213000D01*
X105240000Y-92213000D02*
X100488000Y-92213000D01*
X112864000Y-92253000D02*
X108120000Y-92253000D01*
X105240000Y-92253000D02*
X100496000Y-92253000D01*
X112855000Y-92293000D02*
X108120000Y-92293000D01*
X105240000Y-92293000D02*
X100505000Y-92293000D01*
X112846000Y-92333000D02*
X108120000Y-92333000D01*
X105240000Y-92333000D02*
X100514000Y-92333000D01*
X112836000Y-92373000D02*
X108120000Y-92373000D01*
X105240000Y-92373000D02*
X100524000Y-92373000D01*
X112826000Y-92413000D02*
X108120000Y-92413000D01*
X105240000Y-92413000D02*
X100534000Y-92413000D01*
X112817000Y-92453000D02*
X108120000Y-92453000D01*
X105240000Y-92453000D02*
X100543000Y-92453000D01*
X112806000Y-92493000D02*
X108120000Y-92493000D01*
X105240000Y-92493000D02*
X100554000Y-92493000D01*
X112796000Y-92533000D02*
X108120000Y-92533000D01*
X105240000Y-92533000D02*
X100564000Y-92533000D01*
X112785000Y-92573000D02*
X108120000Y-92573000D01*
X105240000Y-92573000D02*
X100575000Y-92573000D01*
X112774000Y-92613000D02*
X108120000Y-92613000D01*
X105240000Y-92613000D02*
X100586000Y-92613000D01*
X112763000Y-92653000D02*
X108120000Y-92653000D01*
X105240000Y-92653000D02*
X100597000Y-92653000D01*
X112751000Y-92693000D02*
X108120000Y-92693000D01*
X105240000Y-92693000D02*
X100609000Y-92693000D01*
X112739000Y-92733000D02*
X108120000Y-92733000D01*
X105240000Y-92733000D02*
X100621000Y-92733000D01*
X112727000Y-92773000D02*
X108120000Y-92773000D01*
X105240000Y-92773000D02*
X100633000Y-92773000D01*
X112714000Y-92813000D02*
X108120000Y-92813000D01*
X105240000Y-92813000D02*
X100646000Y-92813000D01*
X112701000Y-92853000D02*
X108120000Y-92853000D01*
X105240000Y-92853000D02*
X100659000Y-92853000D01*
X112688000Y-92893000D02*
X108120000Y-92893000D01*
X105240000Y-92893000D02*
X100672000Y-92893000D01*
X112675000Y-92933000D02*
X108120000Y-92933000D01*
X105240000Y-92933000D02*
X100685000Y-92933000D01*
X112661000Y-92973000D02*
X108120000Y-92973000D01*
X105240000Y-92973000D02*
X100699000Y-92973000D01*
X112647000Y-93013000D02*
X108120000Y-93013000D01*
X105240000Y-93013000D02*
X100713000Y-93013000D01*
X112633000Y-93053000D02*
X108120000Y-93053000D01*
X105240000Y-93053000D02*
X100727000Y-93053000D01*
X112619000Y-93093000D02*
X108120000Y-93093000D01*
X105240000Y-93093000D02*
X100741000Y-93093000D01*
X112604000Y-93133000D02*
X108120000Y-93133000D01*
X105240000Y-93133000D02*
X100756000Y-93133000D01*
X112588000Y-93173000D02*
X108120000Y-93173000D01*
X105240000Y-93173000D02*
X100772000Y-93173000D01*
X112573000Y-93213000D02*
X108120000Y-93213000D01*
X105240000Y-93213000D02*
X100787000Y-93213000D01*
X112557000Y-93253000D02*
X108120000Y-93253000D01*
X105240000Y-93253000D02*
X100803000Y-93253000D01*
X112541000Y-93293000D02*
X108120000Y-93293000D01*
X105240000Y-93293000D02*
X100819000Y-93293000D01*
X112525000Y-93333000D02*
X108120000Y-93333000D01*
X105240000Y-93333000D02*
X100835000Y-93333000D01*
X112508000Y-93373000D02*
X108120000Y-93373000D01*
X105240000Y-93373000D02*
X100852000Y-93373000D01*
X112491000Y-93413000D02*
X108120000Y-93413000D01*
X105240000Y-93413000D02*
X100869000Y-93413000D01*
X112473000Y-93453000D02*
X108120000Y-93453000D01*
X105240000Y-93453000D02*
X100887000Y-93453000D01*
X112456000Y-93493000D02*
X108120000Y-93493000D01*
X105240000Y-93493000D02*
X100904000Y-93493000D01*
X112438000Y-93533000D02*
X108120000Y-93533000D01*
X105240000Y-93533000D02*
X100922000Y-93533000D01*
X112419000Y-93573000D02*
X108120000Y-93573000D01*
X105240000Y-93573000D02*
X100941000Y-93573000D01*
X112401000Y-93613000D02*
X108120000Y-93613000D01*
X105240000Y-93613000D02*
X100959000Y-93613000D01*
X112382000Y-93653000D02*
X108120000Y-93653000D01*
X105240000Y-93653000D02*
X100978000Y-93653000D01*
X112362000Y-93693000D02*
X108120000Y-93693000D01*
X105240000Y-93693000D02*
X100998000Y-93693000D01*
X112342000Y-93733000D02*
X108120000Y-93733000D01*
X105240000Y-93733000D02*
X101018000Y-93733000D01*
X112322000Y-93773000D02*
X108120000Y-93773000D01*
X105240000Y-93773000D02*
X101038000Y-93773000D01*
X112302000Y-93813000D02*
X108120000Y-93813000D01*
X105240000Y-93813000D02*
X101058000Y-93813000D01*
X112281000Y-93853000D02*
X108120000Y-93853000D01*
X105240000Y-93853000D02*
X101079000Y-93853000D01*
X112260000Y-93893000D02*
X108120000Y-93893000D01*
X105240000Y-93893000D02*
X101100000Y-93893000D01*
X112238000Y-93933000D02*
X108120000Y-93933000D01*
X105240000Y-93933000D02*
X101122000Y-93933000D01*
X112216000Y-93973000D02*
X108120000Y-93973000D01*
X105240000Y-93973000D02*
X101144000Y-93973000D01*
X112194000Y-94013000D02*
X108120000Y-94013000D01*
X105240000Y-94013000D02*
X101166000Y-94013000D01*
X112171000Y-94053000D02*
X108120000Y-94053000D01*
X105240000Y-94053000D02*
X101189000Y-94053000D01*
X112148000Y-94093000D02*
X108120000Y-94093000D01*
X105240000Y-94093000D02*
X101212000Y-94093000D01*
X112125000Y-94133000D02*
X108120000Y-94133000D01*
X105240000Y-94133000D02*
X101235000Y-94133000D01*
X112101000Y-94173000D02*
X108120000Y-94173000D01*
X105240000Y-94173000D02*
X101259000Y-94173000D01*
X112077000Y-94213000D02*
X108120000Y-94213000D01*
X105240000Y-94213000D02*
X101283000Y-94213000D01*
X112052000Y-94253000D02*
X108120000Y-94253000D01*
X105240000Y-94253000D02*
X101308000Y-94253000D01*
X112027000Y-94293000D02*
X108120000Y-94293000D01*
X105240000Y-94293000D02*
X101333000Y-94293000D01*
X112002000Y-94333000D02*
X108120000Y-94333000D01*
X105240000Y-94333000D02*
X101358000Y-94333000D01*
X111976000Y-94373000D02*
X108120000Y-94373000D01*
X105240000Y-94373000D02*
X101384000Y-94373000D01*
X111950000Y-94413000D02*
X108120000Y-94413000D01*
X105240000Y-94413000D02*
X101410000Y-94413000D01*
X111923000Y-94453000D02*
X108120000Y-94453000D01*
X105240000Y-94453000D02*
X101437000Y-94453000D01*
X111896000Y-94493000D02*
X108120000Y-94493000D01*
X105240000Y-94493000D02*
X101464000Y-94493000D01*
X111868000Y-94533000D02*
X108120000Y-94533000D01*
X105240000Y-94533000D02*
X101492000Y-94533000D01*
X111840000Y-94573000D02*
X108120000Y-94573000D01*
X105240000Y-94573000D02*
X101520000Y-94573000D01*
X111811000Y-94613000D02*
X108120000Y-94613000D01*
X105240000Y-94613000D02*
X101549000Y-94613000D01*
X111782000Y-94653000D02*
X108120000Y-94653000D01*
X105240000Y-94653000D02*
X101578000Y-94653000D01*
X111753000Y-94693000D02*
X108120000Y-94693000D01*
X105240000Y-94693000D02*
X101607000Y-94693000D01*
X111723000Y-94733000D02*
X108120000Y-94733000D01*
X105240000Y-94733000D02*
X101637000Y-94733000D01*
X111692000Y-94773000D02*
X108120000Y-94773000D01*
X105240000Y-94773000D02*
X101668000Y-94773000D01*
X111662000Y-94813000D02*
X108120000Y-94813000D01*
X105240000Y-94813000D02*
X101698000Y-94813000D01*
X111630000Y-94853000D02*
X101730000Y-94853000D01*
X111598000Y-94893000D02*
X101762000Y-94893000D01*
X111565000Y-94933000D02*
X101795000Y-94933000D01*
X111532000Y-94973000D02*
X101828000Y-94973000D01*
X111499000Y-95013000D02*
X101861000Y-95013000D01*
X111465000Y-95053000D02*
X101895000Y-95053000D01*
X111430000Y-95093000D02*
X101930000Y-95093000D01*
X111394000Y-95133000D02*
X101966000Y-95133000D01*
X111358000Y-95173000D02*
X102002000Y-95173000D01*
X111322000Y-95213000D02*
X102038000Y-95213000D01*
X111285000Y-95253000D02*
X102075000Y-95253000D01*
X111247000Y-95293000D02*
X102113000Y-95293000D01*
X111208000Y-95333000D02*
X102152000Y-95333000D01*
X111169000Y-95373000D02*
X102191000Y-95373000D01*
X111129000Y-95413000D02*
X102231000Y-95413000D01*
X111088000Y-95453000D02*
X102272000Y-95453000D01*
X111047000Y-95493000D02*
X102313000Y-95493000D01*
X111005000Y-95533000D02*
X102355000Y-95533000D01*
X110962000Y-95573000D02*
X102398000Y-95573000D01*
X110918000Y-95613000D02*
X102442000Y-95613000D01*
X110874000Y-95653000D02*
X102486000Y-95653000D01*
X110828000Y-95693000D02*
X102532000Y-95693000D01*
X110782000Y-95733000D02*
X102578000Y-95733000D01*
X110735000Y-95773000D02*
X102625000Y-95773000D01*
X110687000Y-95813000D02*
X102673000Y-95813000D01*
X110637000Y-95853000D02*
X102723000Y-95853000D01*
X110587000Y-95893000D02*
X102773000Y-95893000D01*
X110536000Y-95933000D02*
X102824000Y-95933000D01*
X110484000Y-95973000D02*
X102876000Y-95973000D01*
X110430000Y-96013000D02*
X102930000Y-96013000D01*
X110376000Y-96053000D02*
X102984000Y-96053000D01*
X110320000Y-96093000D02*
X103040000Y-96093000D01*
X110263000Y-96133000D02*
X103097000Y-96133000D01*
X110204000Y-96173000D02*
X103156000Y-96173000D01*
X110144000Y-96213000D02*
X103216000Y-96213000D01*
X110082000Y-96253000D02*
X103278000Y-96253000D01*
X110019000Y-96293000D02*
X103341000Y-96293000D01*
X109955000Y-96333000D02*
X103405000Y-96333000D01*
X109888000Y-96373000D02*
X103472000Y-96373000D01*
X109820000Y-96413000D02*
X103540000Y-96413000D01*
X109749000Y-96453000D02*
X103611000Y-96453000D01*
X109676000Y-96493000D02*
X103684000Y-96493000D01*
X109601000Y-96533000D02*
X103759000Y-96533000D01*
X109524000Y-96573000D02*
X103836000Y-96573000D01*
X109444000Y-96613000D02*
X103916000Y-96613000D01*
X109361000Y-96653000D02*
X103999000Y-96653000D01*
X109274000Y-96693000D02*
X104086000Y-96693000D01*
X109184000Y-96733000D02*
X104176000Y-96733000D01*
X109090000Y-96773000D02*
X104270000Y-96773000D01*
X108992000Y-96813000D02*
X104368000Y-96813000D01*
X108889000Y-96853000D02*
X104471000Y-96853000D01*
X108780000Y-96893000D02*
X104580000Y-96893000D01*
X108664000Y-96933000D02*
X104696000Y-96933000D01*
X108541000Y-96973000D02*
X104819000Y-96973000D01*
X108408000Y-97013000D02*
X104952000Y-97013000D01*
X108263000Y-97053000D02*
X105097000Y-97053000D01*
X108102000Y-97093000D02*
X105258000Y-97093000D01*
X107921000Y-97133000D02*
X105439000Y-97133000D01*
X107708000Y-97173000D02*
X105652000Y-97173000D01*
X107437000Y-97213000D02*
X105923000Y-97213000D01*
X106997000Y-97253000D02*
X106363000Y-97253000D01*
X110255000Y-84074918D02*
X110255000Y-85324918D01*
X110880000Y-84699918D02*
X109630000Y-84699918D01*
%TO.C,C2*%
X186650000Y-66040000D02*
G75*
G03*
X186650000Y-66040000I-6370000J0D01*
G01*
X180280000Y-59710000D02*
X180280000Y-72370000D01*
X180320000Y-59710000D02*
X180320000Y-72370000D01*
X180360000Y-59710000D02*
X180360000Y-72370000D01*
X180400000Y-59711000D02*
X180400000Y-72369000D01*
X180440000Y-59712000D02*
X180440000Y-72368000D01*
X180480000Y-59713000D02*
X180480000Y-72367000D01*
X180520000Y-59714000D02*
X180520000Y-72366000D01*
X180560000Y-59716000D02*
X180560000Y-72364000D01*
X180600000Y-59718000D02*
X180600000Y-72362000D01*
X180640000Y-59720000D02*
X180640000Y-72360000D01*
X180680000Y-59722000D02*
X180680000Y-72358000D01*
X180720000Y-59725000D02*
X180720000Y-72355000D01*
X180760000Y-59728000D02*
X180760000Y-72352000D01*
X180800000Y-59731000D02*
X180800000Y-72349000D01*
X180840000Y-59734000D02*
X180840000Y-72346000D01*
X180880000Y-59738000D02*
X180880000Y-72342000D01*
X180920000Y-59742000D02*
X180920000Y-72338000D01*
X180960000Y-59746000D02*
X180960000Y-72334000D01*
X181001000Y-59750000D02*
X181001000Y-72330000D01*
X181041000Y-59755000D02*
X181041000Y-72325000D01*
X181081000Y-59760000D02*
X181081000Y-72320000D01*
X181121000Y-59765000D02*
X181121000Y-72315000D01*
X181161000Y-59771000D02*
X181161000Y-72309000D01*
X181201000Y-59776000D02*
X181201000Y-72304000D01*
X181241000Y-59782000D02*
X181241000Y-72298000D01*
X181281000Y-59788000D02*
X181281000Y-72292000D01*
X181321000Y-59795000D02*
X181321000Y-72285000D01*
X181361000Y-59802000D02*
X181361000Y-72278000D01*
X181401000Y-59809000D02*
X181401000Y-72271000D01*
X181441000Y-59816000D02*
X181441000Y-72264000D01*
X181481000Y-59824000D02*
X181481000Y-72256000D01*
X181521000Y-59831000D02*
X181521000Y-72249000D01*
X181561000Y-59839000D02*
X181561000Y-72241000D01*
X181601000Y-59848000D02*
X181601000Y-72232000D01*
X181641000Y-59856000D02*
X181641000Y-72224000D01*
X181681000Y-59865000D02*
X181681000Y-72215000D01*
X181721000Y-59874000D02*
X181721000Y-72206000D01*
X181761000Y-59884000D02*
X181761000Y-72196000D01*
X181801000Y-59894000D02*
X181801000Y-72186000D01*
X181841000Y-59903000D02*
X181841000Y-72177000D01*
X181881000Y-59914000D02*
X181881000Y-72166000D01*
X181921000Y-59924000D02*
X181921000Y-72156000D01*
X181961000Y-59935000D02*
X181961000Y-72145000D01*
X182001000Y-59946000D02*
X182001000Y-72134000D01*
X182041000Y-59957000D02*
X182041000Y-72123000D01*
X182081000Y-59969000D02*
X182081000Y-72111000D01*
X182121000Y-59981000D02*
X182121000Y-72099000D01*
X182161000Y-59993000D02*
X182161000Y-72087000D01*
X182201000Y-60006000D02*
X182201000Y-72074000D01*
X182241000Y-60019000D02*
X182241000Y-72061000D01*
X182281000Y-60032000D02*
X182281000Y-72048000D01*
X182321000Y-60045000D02*
X182321000Y-72035000D01*
X182361000Y-60059000D02*
X182361000Y-72021000D01*
X182401000Y-60073000D02*
X182401000Y-72007000D01*
X182441000Y-60087000D02*
X182441000Y-71993000D01*
X182481000Y-60101000D02*
X182481000Y-71979000D01*
X182521000Y-60116000D02*
X182521000Y-71964000D01*
X182561000Y-60132000D02*
X182561000Y-71948000D01*
X182601000Y-60147000D02*
X182601000Y-64600000D01*
X182601000Y-67480000D02*
X182601000Y-71933000D01*
X182641000Y-60163000D02*
X182641000Y-64600000D01*
X182641000Y-67480000D02*
X182641000Y-71917000D01*
X182681000Y-60179000D02*
X182681000Y-64600000D01*
X182681000Y-67480000D02*
X182681000Y-71901000D01*
X182721000Y-60195000D02*
X182721000Y-64600000D01*
X182721000Y-67480000D02*
X182721000Y-71885000D01*
X182761000Y-60212000D02*
X182761000Y-64600000D01*
X182761000Y-67480000D02*
X182761000Y-71868000D01*
X182801000Y-60229000D02*
X182801000Y-64600000D01*
X182801000Y-67480000D02*
X182801000Y-71851000D01*
X182841000Y-60247000D02*
X182841000Y-64600000D01*
X182841000Y-67480000D02*
X182841000Y-71833000D01*
X182881000Y-60264000D02*
X182881000Y-64600000D01*
X182881000Y-67480000D02*
X182881000Y-71816000D01*
X182921000Y-60282000D02*
X182921000Y-64600000D01*
X182921000Y-67480000D02*
X182921000Y-71798000D01*
X182961000Y-60301000D02*
X182961000Y-64600000D01*
X182961000Y-67480000D02*
X182961000Y-71779000D01*
X183001000Y-60319000D02*
X183001000Y-64600000D01*
X183001000Y-67480000D02*
X183001000Y-71761000D01*
X183041000Y-60338000D02*
X183041000Y-64600000D01*
X183041000Y-67480000D02*
X183041000Y-71742000D01*
X183081000Y-60358000D02*
X183081000Y-64600000D01*
X183081000Y-67480000D02*
X183081000Y-71722000D01*
X183121000Y-60378000D02*
X183121000Y-64600000D01*
X183121000Y-67480000D02*
X183121000Y-71702000D01*
X183161000Y-60398000D02*
X183161000Y-64600000D01*
X183161000Y-67480000D02*
X183161000Y-71682000D01*
X183201000Y-60418000D02*
X183201000Y-64600000D01*
X183201000Y-67480000D02*
X183201000Y-71662000D01*
X183241000Y-60439000D02*
X183241000Y-64600000D01*
X183241000Y-67480000D02*
X183241000Y-71641000D01*
X183281000Y-60460000D02*
X183281000Y-64600000D01*
X183281000Y-67480000D02*
X183281000Y-71620000D01*
X183321000Y-60482000D02*
X183321000Y-64600000D01*
X183321000Y-67480000D02*
X183321000Y-71598000D01*
X183361000Y-60504000D02*
X183361000Y-64600000D01*
X183361000Y-67480000D02*
X183361000Y-71576000D01*
X183401000Y-60526000D02*
X183401000Y-64600000D01*
X183401000Y-67480000D02*
X183401000Y-71554000D01*
X183441000Y-60549000D02*
X183441000Y-64600000D01*
X183441000Y-67480000D02*
X183441000Y-71531000D01*
X183481000Y-60572000D02*
X183481000Y-64600000D01*
X183481000Y-67480000D02*
X183481000Y-71508000D01*
X183521000Y-60595000D02*
X183521000Y-64600000D01*
X183521000Y-67480000D02*
X183521000Y-71485000D01*
X183561000Y-60619000D02*
X183561000Y-64600000D01*
X183561000Y-67480000D02*
X183561000Y-71461000D01*
X183601000Y-60643000D02*
X183601000Y-64600000D01*
X183601000Y-67480000D02*
X183601000Y-71437000D01*
X183641000Y-60668000D02*
X183641000Y-64600000D01*
X183641000Y-67480000D02*
X183641000Y-71412000D01*
X183681000Y-60693000D02*
X183681000Y-64600000D01*
X183681000Y-67480000D02*
X183681000Y-71387000D01*
X183721000Y-60718000D02*
X183721000Y-64600000D01*
X183721000Y-67480000D02*
X183721000Y-71362000D01*
X183761000Y-60744000D02*
X183761000Y-64600000D01*
X183761000Y-67480000D02*
X183761000Y-71336000D01*
X183801000Y-60770000D02*
X183801000Y-64600000D01*
X183801000Y-67480000D02*
X183801000Y-71310000D01*
X183841000Y-60797000D02*
X183841000Y-64600000D01*
X183841000Y-67480000D02*
X183841000Y-71283000D01*
X183881000Y-60824000D02*
X183881000Y-64600000D01*
X183881000Y-67480000D02*
X183881000Y-71256000D01*
X183921000Y-60852000D02*
X183921000Y-64600000D01*
X183921000Y-67480000D02*
X183921000Y-71228000D01*
X183961000Y-60880000D02*
X183961000Y-64600000D01*
X183961000Y-67480000D02*
X183961000Y-71200000D01*
X184001000Y-60909000D02*
X184001000Y-64600000D01*
X184001000Y-67480000D02*
X184001000Y-71171000D01*
X184041000Y-60938000D02*
X184041000Y-64600000D01*
X184041000Y-67480000D02*
X184041000Y-71142000D01*
X184081000Y-60967000D02*
X184081000Y-64600000D01*
X184081000Y-67480000D02*
X184081000Y-71113000D01*
X184121000Y-60997000D02*
X184121000Y-64600000D01*
X184121000Y-67480000D02*
X184121000Y-71083000D01*
X184161000Y-61028000D02*
X184161000Y-64600000D01*
X184161000Y-67480000D02*
X184161000Y-71052000D01*
X184201000Y-61058000D02*
X184201000Y-64600000D01*
X184201000Y-67480000D02*
X184201000Y-71022000D01*
X184241000Y-61090000D02*
X184241000Y-64600000D01*
X184241000Y-67480000D02*
X184241000Y-70990000D01*
X184281000Y-61122000D02*
X184281000Y-64600000D01*
X184281000Y-67480000D02*
X184281000Y-70958000D01*
X184321000Y-61155000D02*
X184321000Y-64600000D01*
X184321000Y-67480000D02*
X184321000Y-70925000D01*
X184361000Y-61188000D02*
X184361000Y-64600000D01*
X184361000Y-67480000D02*
X184361000Y-70892000D01*
X184401000Y-61221000D02*
X184401000Y-64600000D01*
X184401000Y-67480000D02*
X184401000Y-70859000D01*
X184441000Y-61255000D02*
X184441000Y-64600000D01*
X184441000Y-67480000D02*
X184441000Y-70825000D01*
X184481000Y-61290000D02*
X184481000Y-64600000D01*
X184481000Y-67480000D02*
X184481000Y-70790000D01*
X184521000Y-61326000D02*
X184521000Y-64600000D01*
X184521000Y-67480000D02*
X184521000Y-70754000D01*
X184561000Y-61362000D02*
X184561000Y-64600000D01*
X184561000Y-67480000D02*
X184561000Y-70718000D01*
X184601000Y-61398000D02*
X184601000Y-64600000D01*
X184601000Y-67480000D02*
X184601000Y-70682000D01*
X184641000Y-61435000D02*
X184641000Y-64600000D01*
X184641000Y-67480000D02*
X184641000Y-70645000D01*
X184681000Y-61473000D02*
X184681000Y-64600000D01*
X184681000Y-67480000D02*
X184681000Y-70607000D01*
X184721000Y-61512000D02*
X184721000Y-64600000D01*
X184721000Y-67480000D02*
X184721000Y-70568000D01*
X184761000Y-61551000D02*
X184761000Y-64600000D01*
X184761000Y-67480000D02*
X184761000Y-70529000D01*
X184801000Y-61591000D02*
X184801000Y-64600000D01*
X184801000Y-67480000D02*
X184801000Y-70489000D01*
X184841000Y-61632000D02*
X184841000Y-64600000D01*
X184841000Y-67480000D02*
X184841000Y-70448000D01*
X184881000Y-61673000D02*
X184881000Y-64600000D01*
X184881000Y-67480000D02*
X184881000Y-70407000D01*
X184921000Y-61715000D02*
X184921000Y-64600000D01*
X184921000Y-67480000D02*
X184921000Y-70365000D01*
X184961000Y-61758000D02*
X184961000Y-64600000D01*
X184961000Y-67480000D02*
X184961000Y-70322000D01*
X185001000Y-61802000D02*
X185001000Y-64600000D01*
X185001000Y-67480000D02*
X185001000Y-70278000D01*
X185041000Y-61846000D02*
X185041000Y-64600000D01*
X185041000Y-67480000D02*
X185041000Y-70234000D01*
X185081000Y-61892000D02*
X185081000Y-64600000D01*
X185081000Y-67480000D02*
X185081000Y-70188000D01*
X185121000Y-61938000D02*
X185121000Y-64600000D01*
X185121000Y-67480000D02*
X185121000Y-70142000D01*
X185161000Y-61985000D02*
X185161000Y-64600000D01*
X185161000Y-67480000D02*
X185161000Y-70095000D01*
X185201000Y-62033000D02*
X185201000Y-64600000D01*
X185201000Y-67480000D02*
X185201000Y-70047000D01*
X185241000Y-62083000D02*
X185241000Y-64600000D01*
X185241000Y-67480000D02*
X185241000Y-69997000D01*
X185281000Y-62133000D02*
X185281000Y-64600000D01*
X185281000Y-67480000D02*
X185281000Y-69947000D01*
X185321000Y-62184000D02*
X185321000Y-64600000D01*
X185321000Y-67480000D02*
X185321000Y-69896000D01*
X185361000Y-62236000D02*
X185361000Y-64600000D01*
X185361000Y-67480000D02*
X185361000Y-69844000D01*
X185401000Y-62290000D02*
X185401000Y-64600000D01*
X185401000Y-67480000D02*
X185401000Y-69790000D01*
X185441000Y-62344000D02*
X185441000Y-64600000D01*
X185441000Y-67480000D02*
X185441000Y-69736000D01*
X185481000Y-62400000D02*
X185481000Y-69680000D01*
X185521000Y-62457000D02*
X185521000Y-69623000D01*
X185561000Y-62516000D02*
X185561000Y-69564000D01*
X185601000Y-62576000D02*
X185601000Y-69504000D01*
X185641000Y-62638000D02*
X185641000Y-69442000D01*
X185681000Y-62701000D02*
X185681000Y-69379000D01*
X185721000Y-62765000D02*
X185721000Y-69315000D01*
X185761000Y-62832000D02*
X185761000Y-69248000D01*
X185801000Y-62900000D02*
X185801000Y-69180000D01*
X185841000Y-62971000D02*
X185841000Y-69109000D01*
X185881000Y-63044000D02*
X185881000Y-69036000D01*
X185921000Y-63119000D02*
X185921000Y-68961000D01*
X185961000Y-63196000D02*
X185961000Y-68884000D01*
X186001000Y-63276000D02*
X186001000Y-68804000D01*
X186041000Y-63359000D02*
X186041000Y-68721000D01*
X186081000Y-63446000D02*
X186081000Y-68634000D01*
X186121000Y-63536000D02*
X186121000Y-68544000D01*
X186161000Y-63630000D02*
X186161000Y-68450000D01*
X186201000Y-63728000D02*
X186201000Y-68352000D01*
X186241000Y-63831000D02*
X186241000Y-68249000D01*
X186281000Y-63940000D02*
X186281000Y-68140000D01*
X186321000Y-64056000D02*
X186321000Y-68024000D01*
X186361000Y-64179000D02*
X186361000Y-67901000D01*
X186401000Y-64312000D02*
X186401000Y-67768000D01*
X186441000Y-64457000D02*
X186441000Y-67623000D01*
X186481000Y-64618000D02*
X186481000Y-67462000D01*
X186521000Y-64799000D02*
X186521000Y-67281000D01*
X186561000Y-65012000D02*
X186561000Y-67068000D01*
X186601000Y-65283000D02*
X186601000Y-66797000D01*
X186641000Y-65723000D02*
X186641000Y-66357000D01*
X173462918Y-62465000D02*
X174712918Y-62465000D01*
X174087918Y-61840000D02*
X174087918Y-63090000D01*
%TO.C,C1*%
X201890000Y-69850000D02*
G75*
G03*
X201890000Y-69850000I-6370000J0D01*
G01*
X195520000Y-63520000D02*
X195520000Y-76180000D01*
X195560000Y-63520000D02*
X195560000Y-76180000D01*
X195600000Y-63520000D02*
X195600000Y-76180000D01*
X195640000Y-63521000D02*
X195640000Y-76179000D01*
X195680000Y-63522000D02*
X195680000Y-76178000D01*
X195720000Y-63523000D02*
X195720000Y-76177000D01*
X195760000Y-63524000D02*
X195760000Y-76176000D01*
X195800000Y-63526000D02*
X195800000Y-76174000D01*
X195840000Y-63528000D02*
X195840000Y-76172000D01*
X195880000Y-63530000D02*
X195880000Y-76170000D01*
X195920000Y-63532000D02*
X195920000Y-76168000D01*
X195960000Y-63535000D02*
X195960000Y-76165000D01*
X196000000Y-63538000D02*
X196000000Y-76162000D01*
X196040000Y-63541000D02*
X196040000Y-76159000D01*
X196080000Y-63544000D02*
X196080000Y-76156000D01*
X196120000Y-63548000D02*
X196120000Y-76152000D01*
X196160000Y-63552000D02*
X196160000Y-76148000D01*
X196200000Y-63556000D02*
X196200000Y-76144000D01*
X196241000Y-63560000D02*
X196241000Y-76140000D01*
X196281000Y-63565000D02*
X196281000Y-76135000D01*
X196321000Y-63570000D02*
X196321000Y-76130000D01*
X196361000Y-63575000D02*
X196361000Y-76125000D01*
X196401000Y-63581000D02*
X196401000Y-76119000D01*
X196441000Y-63586000D02*
X196441000Y-76114000D01*
X196481000Y-63592000D02*
X196481000Y-76108000D01*
X196521000Y-63598000D02*
X196521000Y-76102000D01*
X196561000Y-63605000D02*
X196561000Y-76095000D01*
X196601000Y-63612000D02*
X196601000Y-76088000D01*
X196641000Y-63619000D02*
X196641000Y-76081000D01*
X196681000Y-63626000D02*
X196681000Y-76074000D01*
X196721000Y-63634000D02*
X196721000Y-76066000D01*
X196761000Y-63641000D02*
X196761000Y-76059000D01*
X196801000Y-63649000D02*
X196801000Y-76051000D01*
X196841000Y-63658000D02*
X196841000Y-76042000D01*
X196881000Y-63666000D02*
X196881000Y-76034000D01*
X196921000Y-63675000D02*
X196921000Y-76025000D01*
X196961000Y-63684000D02*
X196961000Y-76016000D01*
X197001000Y-63694000D02*
X197001000Y-76006000D01*
X197041000Y-63704000D02*
X197041000Y-75996000D01*
X197081000Y-63713000D02*
X197081000Y-75987000D01*
X197121000Y-63724000D02*
X197121000Y-75976000D01*
X197161000Y-63734000D02*
X197161000Y-75966000D01*
X197201000Y-63745000D02*
X197201000Y-75955000D01*
X197241000Y-63756000D02*
X197241000Y-75944000D01*
X197281000Y-63767000D02*
X197281000Y-75933000D01*
X197321000Y-63779000D02*
X197321000Y-75921000D01*
X197361000Y-63791000D02*
X197361000Y-75909000D01*
X197401000Y-63803000D02*
X197401000Y-75897000D01*
X197441000Y-63816000D02*
X197441000Y-75884000D01*
X197481000Y-63829000D02*
X197481000Y-75871000D01*
X197521000Y-63842000D02*
X197521000Y-75858000D01*
X197561000Y-63855000D02*
X197561000Y-75845000D01*
X197601000Y-63869000D02*
X197601000Y-75831000D01*
X197641000Y-63883000D02*
X197641000Y-75817000D01*
X197681000Y-63897000D02*
X197681000Y-75803000D01*
X197721000Y-63911000D02*
X197721000Y-75789000D01*
X197761000Y-63926000D02*
X197761000Y-75774000D01*
X197801000Y-63942000D02*
X197801000Y-75758000D01*
X197841000Y-63957000D02*
X197841000Y-68410000D01*
X197841000Y-71290000D02*
X197841000Y-75743000D01*
X197881000Y-63973000D02*
X197881000Y-68410000D01*
X197881000Y-71290000D02*
X197881000Y-75727000D01*
X197921000Y-63989000D02*
X197921000Y-68410000D01*
X197921000Y-71290000D02*
X197921000Y-75711000D01*
X197961000Y-64005000D02*
X197961000Y-68410000D01*
X197961000Y-71290000D02*
X197961000Y-75695000D01*
X198001000Y-64022000D02*
X198001000Y-68410000D01*
X198001000Y-71290000D02*
X198001000Y-75678000D01*
X198041000Y-64039000D02*
X198041000Y-68410000D01*
X198041000Y-71290000D02*
X198041000Y-75661000D01*
X198081000Y-64057000D02*
X198081000Y-68410000D01*
X198081000Y-71290000D02*
X198081000Y-75643000D01*
X198121000Y-64074000D02*
X198121000Y-68410000D01*
X198121000Y-71290000D02*
X198121000Y-75626000D01*
X198161000Y-64092000D02*
X198161000Y-68410000D01*
X198161000Y-71290000D02*
X198161000Y-75608000D01*
X198201000Y-64111000D02*
X198201000Y-68410000D01*
X198201000Y-71290000D02*
X198201000Y-75589000D01*
X198241000Y-64129000D02*
X198241000Y-68410000D01*
X198241000Y-71290000D02*
X198241000Y-75571000D01*
X198281000Y-64148000D02*
X198281000Y-68410000D01*
X198281000Y-71290000D02*
X198281000Y-75552000D01*
X198321000Y-64168000D02*
X198321000Y-68410000D01*
X198321000Y-71290000D02*
X198321000Y-75532000D01*
X198361000Y-64188000D02*
X198361000Y-68410000D01*
X198361000Y-71290000D02*
X198361000Y-75512000D01*
X198401000Y-64208000D02*
X198401000Y-68410000D01*
X198401000Y-71290000D02*
X198401000Y-75492000D01*
X198441000Y-64228000D02*
X198441000Y-68410000D01*
X198441000Y-71290000D02*
X198441000Y-75472000D01*
X198481000Y-64249000D02*
X198481000Y-68410000D01*
X198481000Y-71290000D02*
X198481000Y-75451000D01*
X198521000Y-64270000D02*
X198521000Y-68410000D01*
X198521000Y-71290000D02*
X198521000Y-75430000D01*
X198561000Y-64292000D02*
X198561000Y-68410000D01*
X198561000Y-71290000D02*
X198561000Y-75408000D01*
X198601000Y-64314000D02*
X198601000Y-68410000D01*
X198601000Y-71290000D02*
X198601000Y-75386000D01*
X198641000Y-64336000D02*
X198641000Y-68410000D01*
X198641000Y-71290000D02*
X198641000Y-75364000D01*
X198681000Y-64359000D02*
X198681000Y-68410000D01*
X198681000Y-71290000D02*
X198681000Y-75341000D01*
X198721000Y-64382000D02*
X198721000Y-68410000D01*
X198721000Y-71290000D02*
X198721000Y-75318000D01*
X198761000Y-64405000D02*
X198761000Y-68410000D01*
X198761000Y-71290000D02*
X198761000Y-75295000D01*
X198801000Y-64429000D02*
X198801000Y-68410000D01*
X198801000Y-71290000D02*
X198801000Y-75271000D01*
X198841000Y-64453000D02*
X198841000Y-68410000D01*
X198841000Y-71290000D02*
X198841000Y-75247000D01*
X198881000Y-64478000D02*
X198881000Y-68410000D01*
X198881000Y-71290000D02*
X198881000Y-75222000D01*
X198921000Y-64503000D02*
X198921000Y-68410000D01*
X198921000Y-71290000D02*
X198921000Y-75197000D01*
X198961000Y-64528000D02*
X198961000Y-68410000D01*
X198961000Y-71290000D02*
X198961000Y-75172000D01*
X199001000Y-64554000D02*
X199001000Y-68410000D01*
X199001000Y-71290000D02*
X199001000Y-75146000D01*
X199041000Y-64580000D02*
X199041000Y-68410000D01*
X199041000Y-71290000D02*
X199041000Y-75120000D01*
X199081000Y-64607000D02*
X199081000Y-68410000D01*
X199081000Y-71290000D02*
X199081000Y-75093000D01*
X199121000Y-64634000D02*
X199121000Y-68410000D01*
X199121000Y-71290000D02*
X199121000Y-75066000D01*
X199161000Y-64662000D02*
X199161000Y-68410000D01*
X199161000Y-71290000D02*
X199161000Y-75038000D01*
X199201000Y-64690000D02*
X199201000Y-68410000D01*
X199201000Y-71290000D02*
X199201000Y-75010000D01*
X199241000Y-64719000D02*
X199241000Y-68410000D01*
X199241000Y-71290000D02*
X199241000Y-74981000D01*
X199281000Y-64748000D02*
X199281000Y-68410000D01*
X199281000Y-71290000D02*
X199281000Y-74952000D01*
X199321000Y-64777000D02*
X199321000Y-68410000D01*
X199321000Y-71290000D02*
X199321000Y-74923000D01*
X199361000Y-64807000D02*
X199361000Y-68410000D01*
X199361000Y-71290000D02*
X199361000Y-74893000D01*
X199401000Y-64838000D02*
X199401000Y-68410000D01*
X199401000Y-71290000D02*
X199401000Y-74862000D01*
X199441000Y-64868000D02*
X199441000Y-68410000D01*
X199441000Y-71290000D02*
X199441000Y-74832000D01*
X199481000Y-64900000D02*
X199481000Y-68410000D01*
X199481000Y-71290000D02*
X199481000Y-74800000D01*
X199521000Y-64932000D02*
X199521000Y-68410000D01*
X199521000Y-71290000D02*
X199521000Y-74768000D01*
X199561000Y-64965000D02*
X199561000Y-68410000D01*
X199561000Y-71290000D02*
X199561000Y-74735000D01*
X199601000Y-64998000D02*
X199601000Y-68410000D01*
X199601000Y-71290000D02*
X199601000Y-74702000D01*
X199641000Y-65031000D02*
X199641000Y-68410000D01*
X199641000Y-71290000D02*
X199641000Y-74669000D01*
X199681000Y-65065000D02*
X199681000Y-68410000D01*
X199681000Y-71290000D02*
X199681000Y-74635000D01*
X199721000Y-65100000D02*
X199721000Y-68410000D01*
X199721000Y-71290000D02*
X199721000Y-74600000D01*
X199761000Y-65136000D02*
X199761000Y-68410000D01*
X199761000Y-71290000D02*
X199761000Y-74564000D01*
X199801000Y-65172000D02*
X199801000Y-68410000D01*
X199801000Y-71290000D02*
X199801000Y-74528000D01*
X199841000Y-65208000D02*
X199841000Y-68410000D01*
X199841000Y-71290000D02*
X199841000Y-74492000D01*
X199881000Y-65245000D02*
X199881000Y-68410000D01*
X199881000Y-71290000D02*
X199881000Y-74455000D01*
X199921000Y-65283000D02*
X199921000Y-68410000D01*
X199921000Y-71290000D02*
X199921000Y-74417000D01*
X199961000Y-65322000D02*
X199961000Y-68410000D01*
X199961000Y-71290000D02*
X199961000Y-74378000D01*
X200001000Y-65361000D02*
X200001000Y-68410000D01*
X200001000Y-71290000D02*
X200001000Y-74339000D01*
X200041000Y-65401000D02*
X200041000Y-68410000D01*
X200041000Y-71290000D02*
X200041000Y-74299000D01*
X200081000Y-65442000D02*
X200081000Y-68410000D01*
X200081000Y-71290000D02*
X200081000Y-74258000D01*
X200121000Y-65483000D02*
X200121000Y-68410000D01*
X200121000Y-71290000D02*
X200121000Y-74217000D01*
X200161000Y-65525000D02*
X200161000Y-68410000D01*
X200161000Y-71290000D02*
X200161000Y-74175000D01*
X200201000Y-65568000D02*
X200201000Y-68410000D01*
X200201000Y-71290000D02*
X200201000Y-74132000D01*
X200241000Y-65612000D02*
X200241000Y-68410000D01*
X200241000Y-71290000D02*
X200241000Y-74088000D01*
X200281000Y-65656000D02*
X200281000Y-68410000D01*
X200281000Y-71290000D02*
X200281000Y-74044000D01*
X200321000Y-65702000D02*
X200321000Y-68410000D01*
X200321000Y-71290000D02*
X200321000Y-73998000D01*
X200361000Y-65748000D02*
X200361000Y-68410000D01*
X200361000Y-71290000D02*
X200361000Y-73952000D01*
X200401000Y-65795000D02*
X200401000Y-68410000D01*
X200401000Y-71290000D02*
X200401000Y-73905000D01*
X200441000Y-65843000D02*
X200441000Y-68410000D01*
X200441000Y-71290000D02*
X200441000Y-73857000D01*
X200481000Y-65893000D02*
X200481000Y-68410000D01*
X200481000Y-71290000D02*
X200481000Y-73807000D01*
X200521000Y-65943000D02*
X200521000Y-68410000D01*
X200521000Y-71290000D02*
X200521000Y-73757000D01*
X200561000Y-65994000D02*
X200561000Y-68410000D01*
X200561000Y-71290000D02*
X200561000Y-73706000D01*
X200601000Y-66046000D02*
X200601000Y-68410000D01*
X200601000Y-71290000D02*
X200601000Y-73654000D01*
X200641000Y-66100000D02*
X200641000Y-68410000D01*
X200641000Y-71290000D02*
X200641000Y-73600000D01*
X200681000Y-66154000D02*
X200681000Y-68410000D01*
X200681000Y-71290000D02*
X200681000Y-73546000D01*
X200721000Y-66210000D02*
X200721000Y-73490000D01*
X200761000Y-66267000D02*
X200761000Y-73433000D01*
X200801000Y-66326000D02*
X200801000Y-73374000D01*
X200841000Y-66386000D02*
X200841000Y-73314000D01*
X200881000Y-66448000D02*
X200881000Y-73252000D01*
X200921000Y-66511000D02*
X200921000Y-73189000D01*
X200961000Y-66575000D02*
X200961000Y-73125000D01*
X201001000Y-66642000D02*
X201001000Y-73058000D01*
X201041000Y-66710000D02*
X201041000Y-72990000D01*
X201081000Y-66781000D02*
X201081000Y-72919000D01*
X201121000Y-66854000D02*
X201121000Y-72846000D01*
X201161000Y-66929000D02*
X201161000Y-72771000D01*
X201201000Y-67006000D02*
X201201000Y-72694000D01*
X201241000Y-67086000D02*
X201241000Y-72614000D01*
X201281000Y-67169000D02*
X201281000Y-72531000D01*
X201321000Y-67256000D02*
X201321000Y-72444000D01*
X201361000Y-67346000D02*
X201361000Y-72354000D01*
X201401000Y-67440000D02*
X201401000Y-72260000D01*
X201441000Y-67538000D02*
X201441000Y-72162000D01*
X201481000Y-67641000D02*
X201481000Y-72059000D01*
X201521000Y-67750000D02*
X201521000Y-71950000D01*
X201561000Y-67866000D02*
X201561000Y-71834000D01*
X201601000Y-67989000D02*
X201601000Y-71711000D01*
X201641000Y-68122000D02*
X201641000Y-71578000D01*
X201681000Y-68267000D02*
X201681000Y-71433000D01*
X201721000Y-68428000D02*
X201721000Y-71272000D01*
X201761000Y-68609000D02*
X201761000Y-71091000D01*
X201801000Y-68822000D02*
X201801000Y-70878000D01*
X201841000Y-69093000D02*
X201841000Y-70607000D01*
X201881000Y-69533000D02*
X201881000Y-70167000D01*
X188702918Y-66275000D02*
X189952918Y-66275000D01*
X189327918Y-65650000D02*
X189327918Y-66900000D01*
%TO.C,Q2*%
D11*
X173005761Y-99353619D02*
X172910523Y-99306000D01*
X172815285Y-99210761D01*
X172672428Y-99067904D01*
X172577190Y-99020285D01*
X172481952Y-99020285D01*
X172529571Y-99258380D02*
X172434333Y-99210761D01*
X172339095Y-99115523D01*
X172291476Y-98925047D01*
X172291476Y-98591714D01*
X172339095Y-98401238D01*
X172434333Y-98306000D01*
X172529571Y-98258380D01*
X172720047Y-98258380D01*
X172815285Y-98306000D01*
X172910523Y-98401238D01*
X172958142Y-98591714D01*
X172958142Y-98925047D01*
X172910523Y-99115523D01*
X172815285Y-99210761D01*
X172720047Y-99258380D01*
X172529571Y-99258380D01*
X173339095Y-98353619D02*
X173386714Y-98306000D01*
X173481952Y-98258380D01*
X173720047Y-98258380D01*
X173815285Y-98306000D01*
X173862904Y-98353619D01*
X173910523Y-98448857D01*
X173910523Y-98544095D01*
X173862904Y-98686952D01*
X173291476Y-99258380D01*
X173910523Y-99258380D01*
%TO.C,Q1*%
X106211619Y-72993238D02*
X106164000Y-73088476D01*
X106068761Y-73183714D01*
X105925904Y-73326571D01*
X105878285Y-73421809D01*
X105878285Y-73517047D01*
X106116380Y-73469428D02*
X106068761Y-73564666D01*
X105973523Y-73659904D01*
X105783047Y-73707523D01*
X105449714Y-73707523D01*
X105259238Y-73659904D01*
X105164000Y-73564666D01*
X105116380Y-73469428D01*
X105116380Y-73278952D01*
X105164000Y-73183714D01*
X105259238Y-73088476D01*
X105449714Y-73040857D01*
X105783047Y-73040857D01*
X105973523Y-73088476D01*
X106068761Y-73183714D01*
X106116380Y-73278952D01*
X106116380Y-73469428D01*
X106116380Y-72088476D02*
X106116380Y-72659904D01*
X106116380Y-72374190D02*
X105116380Y-72374190D01*
X105259238Y-72469428D01*
X105354476Y-72564666D01*
X105402095Y-72659904D01*
%TO.C,R3*%
X116784380Y-73318666D02*
X116308190Y-73652000D01*
X116784380Y-73890095D02*
X115784380Y-73890095D01*
X115784380Y-73509142D01*
X115832000Y-73413904D01*
X115879619Y-73366285D01*
X115974857Y-73318666D01*
X116117714Y-73318666D01*
X116212952Y-73366285D01*
X116260571Y-73413904D01*
X116308190Y-73509142D01*
X116308190Y-73890095D01*
X115784380Y-72985333D02*
X115784380Y-72366285D01*
X116165333Y-72699619D01*
X116165333Y-72556761D01*
X116212952Y-72461523D01*
X116260571Y-72413904D01*
X116355809Y-72366285D01*
X116593904Y-72366285D01*
X116689142Y-72413904D01*
X116736761Y-72461523D01*
X116784380Y-72556761D01*
X116784380Y-72842476D01*
X116736761Y-72937714D01*
X116689142Y-72985333D01*
%TO.C,C3*%
X113478333Y-64873142D02*
X113430714Y-64920761D01*
X113287857Y-64968380D01*
X113192619Y-64968380D01*
X113049761Y-64920761D01*
X112954523Y-64825523D01*
X112906904Y-64730285D01*
X112859285Y-64539809D01*
X112859285Y-64396952D01*
X112906904Y-64206476D01*
X112954523Y-64111238D01*
X113049761Y-64016000D01*
X113192619Y-63968380D01*
X113287857Y-63968380D01*
X113430714Y-64016000D01*
X113478333Y-64063619D01*
X113811666Y-63968380D02*
X114430714Y-63968380D01*
X114097380Y-64349333D01*
X114240238Y-64349333D01*
X114335476Y-64396952D01*
X114383095Y-64444571D01*
X114430714Y-64539809D01*
X114430714Y-64777904D01*
X114383095Y-64873142D01*
X114335476Y-64920761D01*
X114240238Y-64968380D01*
X113954523Y-64968380D01*
X113859285Y-64920761D01*
X113811666Y-64873142D01*
%TO.C,U3*%
X140597380Y-90296904D02*
X141406904Y-90296904D01*
X141502142Y-90249285D01*
X141549761Y-90201666D01*
X141597380Y-90106428D01*
X141597380Y-89915952D01*
X141549761Y-89820714D01*
X141502142Y-89773095D01*
X141406904Y-89725476D01*
X140597380Y-89725476D01*
X140597380Y-89344523D02*
X140597380Y-88725476D01*
X140978333Y-89058809D01*
X140978333Y-88915952D01*
X141025952Y-88820714D01*
X141073571Y-88773095D01*
X141168809Y-88725476D01*
X141406904Y-88725476D01*
X141502142Y-88773095D01*
X141549761Y-88820714D01*
X141597380Y-88915952D01*
X141597380Y-89201666D01*
X141549761Y-89296904D01*
X141502142Y-89344523D01*
%TO.C,U2*%
X119848380Y-94741904D02*
X120657904Y-94741904D01*
X120753142Y-94694285D01*
X120800761Y-94646666D01*
X120848380Y-94551428D01*
X120848380Y-94360952D01*
X120800761Y-94265714D01*
X120753142Y-94218095D01*
X120657904Y-94170476D01*
X119848380Y-94170476D01*
X119943619Y-93741904D02*
X119896000Y-93694285D01*
X119848380Y-93599047D01*
X119848380Y-93360952D01*
X119896000Y-93265714D01*
X119943619Y-93218095D01*
X120038857Y-93170476D01*
X120134095Y-93170476D01*
X120276952Y-93218095D01*
X120848380Y-93789523D01*
X120848380Y-93170476D01*
%TO.C,U1*%
X166878095Y-86320380D02*
X166878095Y-87129904D01*
X166925714Y-87225142D01*
X166973333Y-87272761D01*
X167068571Y-87320380D01*
X167259047Y-87320380D01*
X167354285Y-87272761D01*
X167401904Y-87225142D01*
X167449523Y-87129904D01*
X167449523Y-86320380D01*
X168449523Y-87320380D02*
X167878095Y-87320380D01*
X168163809Y-87320380D02*
X168163809Y-86320380D01*
X168068571Y-86463238D01*
X167973333Y-86558476D01*
X167878095Y-86606095D01*
%TO.C,TF1*%
X122388380Y-67230476D02*
X122388380Y-66659047D01*
X123388380Y-66944761D02*
X122388380Y-66944761D01*
X122864571Y-65992380D02*
X122864571Y-66325714D01*
X123388380Y-66325714D02*
X122388380Y-66325714D01*
X122388380Y-65849523D01*
X123388380Y-64944761D02*
X123388380Y-65516190D01*
X123388380Y-65230476D02*
X122388380Y-65230476D01*
X122531238Y-65325714D01*
X122626476Y-65420952D01*
X122674095Y-65516190D01*
%TO.C,RV2*%
X150312380Y-102195238D02*
X149836190Y-102528571D01*
X150312380Y-102766666D02*
X149312380Y-102766666D01*
X149312380Y-102385714D01*
X149360000Y-102290476D01*
X149407619Y-102242857D01*
X149502857Y-102195238D01*
X149645714Y-102195238D01*
X149740952Y-102242857D01*
X149788571Y-102290476D01*
X149836190Y-102385714D01*
X149836190Y-102766666D01*
X149312380Y-101909523D02*
X150312380Y-101576190D01*
X149312380Y-101242857D01*
X149407619Y-100957142D02*
X149360000Y-100909523D01*
X149312380Y-100814285D01*
X149312380Y-100576190D01*
X149360000Y-100480952D01*
X149407619Y-100433333D01*
X149502857Y-100385714D01*
X149598095Y-100385714D01*
X149740952Y-100433333D01*
X150312380Y-101004761D01*
X150312380Y-100385714D01*
%TO.C,RV1*%
X170632380Y-102703238D02*
X170156190Y-103036571D01*
X170632380Y-103274666D02*
X169632380Y-103274666D01*
X169632380Y-102893714D01*
X169680000Y-102798476D01*
X169727619Y-102750857D01*
X169822857Y-102703238D01*
X169965714Y-102703238D01*
X170060952Y-102750857D01*
X170108571Y-102798476D01*
X170156190Y-102893714D01*
X170156190Y-103274666D01*
X169632380Y-102417523D02*
X170632380Y-102084190D01*
X169632380Y-101750857D01*
X170632380Y-100893714D02*
X170632380Y-101465142D01*
X170632380Y-101179428D02*
X169632380Y-101179428D01*
X169775238Y-101274666D01*
X169870476Y-101369904D01*
X169918095Y-101465142D01*
%TO.C,R10*%
X162425142Y-94432380D02*
X162091809Y-93956190D01*
X161853714Y-94432380D02*
X161853714Y-93432380D01*
X162234666Y-93432380D01*
X162329904Y-93480000D01*
X162377523Y-93527619D01*
X162425142Y-93622857D01*
X162425142Y-93765714D01*
X162377523Y-93860952D01*
X162329904Y-93908571D01*
X162234666Y-93956190D01*
X161853714Y-93956190D01*
X163377523Y-94432380D02*
X162806095Y-94432380D01*
X163091809Y-94432380D02*
X163091809Y-93432380D01*
X162996571Y-93575238D01*
X162901333Y-93670476D01*
X162806095Y-93718095D01*
X163996571Y-93432380D02*
X164091809Y-93432380D01*
X164187047Y-93480000D01*
X164234666Y-93527619D01*
X164282285Y-93622857D01*
X164329904Y-93813333D01*
X164329904Y-94051428D01*
X164282285Y-94241904D01*
X164234666Y-94337142D01*
X164187047Y-94384761D01*
X164091809Y-94432380D01*
X163996571Y-94432380D01*
X163901333Y-94384761D01*
X163853714Y-94337142D01*
X163806095Y-94241904D01*
X163758476Y-94051428D01*
X163758476Y-93813333D01*
X163806095Y-93622857D01*
X163853714Y-93527619D01*
X163901333Y-93480000D01*
X163996571Y-93432380D01*
%TO.C,R7*%
X194397333Y-88209380D02*
X194064000Y-87733190D01*
X193825904Y-88209380D02*
X193825904Y-87209380D01*
X194206857Y-87209380D01*
X194302095Y-87257000D01*
X194349714Y-87304619D01*
X194397333Y-87399857D01*
X194397333Y-87542714D01*
X194349714Y-87637952D01*
X194302095Y-87685571D01*
X194206857Y-87733190D01*
X193825904Y-87733190D01*
X194730666Y-87209380D02*
X195397333Y-87209380D01*
X194968761Y-88209380D01*
%TO.C,R6*%
X160472380Y-86526666D02*
X159996190Y-86860000D01*
X160472380Y-87098095D02*
X159472380Y-87098095D01*
X159472380Y-86717142D01*
X159520000Y-86621904D01*
X159567619Y-86574285D01*
X159662857Y-86526666D01*
X159805714Y-86526666D01*
X159900952Y-86574285D01*
X159948571Y-86621904D01*
X159996190Y-86717142D01*
X159996190Y-87098095D01*
X159472380Y-85669523D02*
X159472380Y-85860000D01*
X159520000Y-85955238D01*
X159567619Y-86002857D01*
X159710476Y-86098095D01*
X159900952Y-86145714D01*
X160281904Y-86145714D01*
X160377142Y-86098095D01*
X160424761Y-86050476D01*
X160472380Y-85955238D01*
X160472380Y-85764761D01*
X160424761Y-85669523D01*
X160377142Y-85621904D01*
X160281904Y-85574285D01*
X160043809Y-85574285D01*
X159948571Y-85621904D01*
X159900952Y-85669523D01*
X159853333Y-85764761D01*
X159853333Y-85955238D01*
X159900952Y-86050476D01*
X159948571Y-86098095D01*
X160043809Y-86145714D01*
%TO.C,R5*%
X121102380Y-81446666D02*
X120626190Y-81780000D01*
X121102380Y-82018095D02*
X120102380Y-82018095D01*
X120102380Y-81637142D01*
X120150000Y-81541904D01*
X120197619Y-81494285D01*
X120292857Y-81446666D01*
X120435714Y-81446666D01*
X120530952Y-81494285D01*
X120578571Y-81541904D01*
X120626190Y-81637142D01*
X120626190Y-82018095D01*
X120102380Y-80541904D02*
X120102380Y-81018095D01*
X120578571Y-81065714D01*
X120530952Y-81018095D01*
X120483333Y-80922857D01*
X120483333Y-80684761D01*
X120530952Y-80589523D01*
X120578571Y-80541904D01*
X120673809Y-80494285D01*
X120911904Y-80494285D01*
X121007142Y-80541904D01*
X121054761Y-80589523D01*
X121102380Y-80684761D01*
X121102380Y-80922857D01*
X121054761Y-81018095D01*
X121007142Y-81065714D01*
%TO.C,R4*%
X124293333Y-74112380D02*
X123960000Y-73636190D01*
X123721904Y-74112380D02*
X123721904Y-73112380D01*
X124102857Y-73112380D01*
X124198095Y-73160000D01*
X124245714Y-73207619D01*
X124293333Y-73302857D01*
X124293333Y-73445714D01*
X124245714Y-73540952D01*
X124198095Y-73588571D01*
X124102857Y-73636190D01*
X123721904Y-73636190D01*
X125150476Y-73445714D02*
X125150476Y-74112380D01*
X124912380Y-73064761D02*
X124674285Y-73779047D01*
X125293333Y-73779047D01*
%TO.C,R2*%
X191968380Y-82081666D02*
X191492190Y-82415000D01*
X191968380Y-82653095D02*
X190968380Y-82653095D01*
X190968380Y-82272142D01*
X191016000Y-82176904D01*
X191063619Y-82129285D01*
X191158857Y-82081666D01*
X191301714Y-82081666D01*
X191396952Y-82129285D01*
X191444571Y-82176904D01*
X191492190Y-82272142D01*
X191492190Y-82653095D01*
X191063619Y-81700714D02*
X191016000Y-81653095D01*
X190968380Y-81557857D01*
X190968380Y-81319761D01*
X191016000Y-81224523D01*
X191063619Y-81176904D01*
X191158857Y-81129285D01*
X191254095Y-81129285D01*
X191396952Y-81176904D01*
X191968380Y-81748333D01*
X191968380Y-81129285D01*
%TO.C,R1*%
X191968380Y-76874666D02*
X191492190Y-77208000D01*
X191968380Y-77446095D02*
X190968380Y-77446095D01*
X190968380Y-77065142D01*
X191016000Y-76969904D01*
X191063619Y-76922285D01*
X191158857Y-76874666D01*
X191301714Y-76874666D01*
X191396952Y-76922285D01*
X191444571Y-76969904D01*
X191492190Y-77065142D01*
X191492190Y-77446095D01*
X191968380Y-75922285D02*
X191968380Y-76493714D01*
X191968380Y-76208000D02*
X190968380Y-76208000D01*
X191111238Y-76303238D01*
X191206476Y-76398476D01*
X191254095Y-76493714D01*
%TO.C,L2*%
X160980380Y-76366666D02*
X160980380Y-76842857D01*
X159980380Y-76842857D01*
X160075619Y-76080952D02*
X160028000Y-76033333D01*
X159980380Y-75938095D01*
X159980380Y-75700000D01*
X160028000Y-75604761D01*
X160075619Y-75557142D01*
X160170857Y-75509523D01*
X160266095Y-75509523D01*
X160408952Y-75557142D01*
X160980380Y-76128571D01*
X160980380Y-75509523D01*
%TO.C,L1*%
X158329333Y-74620380D02*
X157853142Y-74620380D01*
X157853142Y-73620380D01*
X159186476Y-74620380D02*
X158615047Y-74620380D01*
X158900761Y-74620380D02*
X158900761Y-73620380D01*
X158805523Y-73763238D01*
X158710285Y-73858476D01*
X158615047Y-73906095D01*
%TO.C,J5*%
X198421666Y-84117380D02*
X198421666Y-84831666D01*
X198374047Y-84974523D01*
X198278809Y-85069761D01*
X198135952Y-85117380D01*
X198040714Y-85117380D01*
X199374047Y-84117380D02*
X198897857Y-84117380D01*
X198850238Y-84593571D01*
X198897857Y-84545952D01*
X198993095Y-84498333D01*
X199231190Y-84498333D01*
X199326428Y-84545952D01*
X199374047Y-84593571D01*
X199421666Y-84688809D01*
X199421666Y-84926904D01*
X199374047Y-85022142D01*
X199326428Y-85069761D01*
X199231190Y-85117380D01*
X198993095Y-85117380D01*
X198897857Y-85069761D01*
X198850238Y-85022142D01*
%TO.C,J4*%
X111212380Y-99393333D02*
X111926666Y-99393333D01*
X112069523Y-99440952D01*
X112164761Y-99536190D01*
X112212380Y-99679047D01*
X112212380Y-99774285D01*
X111545714Y-98488571D02*
X112212380Y-98488571D01*
X111164761Y-98726666D02*
X111879047Y-98964761D01*
X111879047Y-98345714D01*
%TO.C,J2*%
X186352380Y-61293333D02*
X187066666Y-61293333D01*
X187209523Y-61340952D01*
X187304761Y-61436190D01*
X187352380Y-61579047D01*
X187352380Y-61674285D01*
X186447619Y-60864761D02*
X186400000Y-60817142D01*
X186352380Y-60721904D01*
X186352380Y-60483809D01*
X186400000Y-60388571D01*
X186447619Y-60340952D01*
X186542857Y-60293333D01*
X186638095Y-60293333D01*
X186780952Y-60340952D01*
X187352380Y-60912380D01*
X187352380Y-60293333D01*
%TO.C,J1*%
X111212380Y-60785333D02*
X111926666Y-60785333D01*
X112069523Y-60832952D01*
X112164761Y-60928190D01*
X112212380Y-61071047D01*
X112212380Y-61166285D01*
X112212380Y-59785333D02*
X112212380Y-60356761D01*
X112212380Y-60071047D02*
X111212380Y-60071047D01*
X111355238Y-60166285D01*
X111450476Y-60261523D01*
X111498095Y-60356761D01*
%TO.C,D5*%
X192095380Y-87733095D02*
X191095380Y-87733095D01*
X191095380Y-87495000D01*
X191143000Y-87352142D01*
X191238238Y-87256904D01*
X191333476Y-87209285D01*
X191523952Y-87161666D01*
X191666809Y-87161666D01*
X191857285Y-87209285D01*
X191952523Y-87256904D01*
X192047761Y-87352142D01*
X192095380Y-87495000D01*
X192095380Y-87733095D01*
X191095380Y-86256904D02*
X191095380Y-86733095D01*
X191571571Y-86780714D01*
X191523952Y-86733095D01*
X191476333Y-86637857D01*
X191476333Y-86399761D01*
X191523952Y-86304523D01*
X191571571Y-86256904D01*
X191666809Y-86209285D01*
X191904904Y-86209285D01*
X192000142Y-86256904D01*
X192047761Y-86304523D01*
X192095380Y-86399761D01*
X192095380Y-86637857D01*
X192047761Y-86733095D01*
X192000142Y-86780714D01*
X191381095Y-85796380D02*
X191381095Y-84796380D01*
X191952523Y-85796380D02*
X191523952Y-85224952D01*
X191952523Y-84796380D02*
X191381095Y-85367809D01*
%TO.C,D3*%
X130071904Y-84780380D02*
X130071904Y-83780380D01*
X130310000Y-83780380D01*
X130452857Y-83828000D01*
X130548095Y-83923238D01*
X130595714Y-84018476D01*
X130643333Y-84208952D01*
X130643333Y-84351809D01*
X130595714Y-84542285D01*
X130548095Y-84637523D01*
X130452857Y-84732761D01*
X130310000Y-84780380D01*
X130071904Y-84780380D01*
X130976666Y-83780380D02*
X131595714Y-83780380D01*
X131262380Y-84161333D01*
X131405238Y-84161333D01*
X131500476Y-84208952D01*
X131548095Y-84256571D01*
X131595714Y-84351809D01*
X131595714Y-84589904D01*
X131548095Y-84685142D01*
X131500476Y-84732761D01*
X131405238Y-84780380D01*
X131119523Y-84780380D01*
X131024285Y-84732761D01*
X130976666Y-84685142D01*
X124198095Y-80267380D02*
X124198095Y-79267380D01*
X124769523Y-80267380D02*
X124340952Y-79695952D01*
X124769523Y-79267380D02*
X124198095Y-79838809D01*
%TO.C,D2*%
X155392380Y-68683095D02*
X154392380Y-68683095D01*
X154392380Y-68445000D01*
X154440000Y-68302142D01*
X154535238Y-68206904D01*
X154630476Y-68159285D01*
X154820952Y-68111666D01*
X154963809Y-68111666D01*
X155154285Y-68159285D01*
X155249523Y-68206904D01*
X155344761Y-68302142D01*
X155392380Y-68445000D01*
X155392380Y-68683095D01*
X154487619Y-67730714D02*
X154440000Y-67683095D01*
X154392380Y-67587857D01*
X154392380Y-67349761D01*
X154440000Y-67254523D01*
X154487619Y-67206904D01*
X154582857Y-67159285D01*
X154678095Y-67159285D01*
X154820952Y-67206904D01*
X155392380Y-67778333D01*
X155392380Y-67159285D01*
X154952380Y-61221904D02*
X153952380Y-61221904D01*
X154952380Y-60650476D02*
X154380952Y-61079047D01*
X153952380Y-60650476D02*
X154523809Y-61221904D01*
%TO.C,D1*%
X145740380Y-68302095D02*
X144740380Y-68302095D01*
X144740380Y-68064000D01*
X144788000Y-67921142D01*
X144883238Y-67825904D01*
X144978476Y-67778285D01*
X145168952Y-67730666D01*
X145311809Y-67730666D01*
X145502285Y-67778285D01*
X145597523Y-67825904D01*
X145692761Y-67921142D01*
X145740380Y-68064000D01*
X145740380Y-68302095D01*
X145740380Y-66778285D02*
X145740380Y-67349714D01*
X145740380Y-67064000D02*
X144740380Y-67064000D01*
X144883238Y-67159238D01*
X144978476Y-67254476D01*
X145026095Y-67349714D01*
X146307380Y-73921904D02*
X145307380Y-73921904D01*
X146307380Y-73350476D02*
X145735952Y-73779047D01*
X145307380Y-73350476D02*
X145878809Y-73921904D01*
%TO.C,C12*%
X148312142Y-81287857D02*
X148359761Y-81335476D01*
X148407380Y-81478333D01*
X148407380Y-81573571D01*
X148359761Y-81716428D01*
X148264523Y-81811666D01*
X148169285Y-81859285D01*
X147978809Y-81906904D01*
X147835952Y-81906904D01*
X147645476Y-81859285D01*
X147550238Y-81811666D01*
X147455000Y-81716428D01*
X147407380Y-81573571D01*
X147407380Y-81478333D01*
X147455000Y-81335476D01*
X147502619Y-81287857D01*
X148407380Y-80335476D02*
X148407380Y-80906904D01*
X148407380Y-80621190D02*
X147407380Y-80621190D01*
X147550238Y-80716428D01*
X147645476Y-80811666D01*
X147693095Y-80906904D01*
X147502619Y-79954523D02*
X147455000Y-79906904D01*
X147407380Y-79811666D01*
X147407380Y-79573571D01*
X147455000Y-79478333D01*
X147502619Y-79430714D01*
X147597857Y-79383095D01*
X147693095Y-79383095D01*
X147835952Y-79430714D01*
X148407380Y-80002142D01*
X148407380Y-79383095D01*
%TO.C,C11*%
X148312142Y-88272857D02*
X148359761Y-88320476D01*
X148407380Y-88463333D01*
X148407380Y-88558571D01*
X148359761Y-88701428D01*
X148264523Y-88796666D01*
X148169285Y-88844285D01*
X147978809Y-88891904D01*
X147835952Y-88891904D01*
X147645476Y-88844285D01*
X147550238Y-88796666D01*
X147455000Y-88701428D01*
X147407380Y-88558571D01*
X147407380Y-88463333D01*
X147455000Y-88320476D01*
X147502619Y-88272857D01*
X148407380Y-87320476D02*
X148407380Y-87891904D01*
X148407380Y-87606190D02*
X147407380Y-87606190D01*
X147550238Y-87701428D01*
X147645476Y-87796666D01*
X147693095Y-87891904D01*
X148407380Y-86368095D02*
X148407380Y-86939523D01*
X148407380Y-86653809D02*
X147407380Y-86653809D01*
X147550238Y-86749047D01*
X147645476Y-86844285D01*
X147693095Y-86939523D01*
%TO.C,C10*%
X148312142Y-94622857D02*
X148359761Y-94670476D01*
X148407380Y-94813333D01*
X148407380Y-94908571D01*
X148359761Y-95051428D01*
X148264523Y-95146666D01*
X148169285Y-95194285D01*
X147978809Y-95241904D01*
X147835952Y-95241904D01*
X147645476Y-95194285D01*
X147550238Y-95146666D01*
X147455000Y-95051428D01*
X147407380Y-94908571D01*
X147407380Y-94813333D01*
X147455000Y-94670476D01*
X147502619Y-94622857D01*
X148407380Y-93670476D02*
X148407380Y-94241904D01*
X148407380Y-93956190D02*
X147407380Y-93956190D01*
X147550238Y-94051428D01*
X147645476Y-94146666D01*
X147693095Y-94241904D01*
X147407380Y-93051428D02*
X147407380Y-92956190D01*
X147455000Y-92860952D01*
X147502619Y-92813333D01*
X147597857Y-92765714D01*
X147788333Y-92718095D01*
X148026428Y-92718095D01*
X148216904Y-92765714D01*
X148312142Y-92813333D01*
X148359761Y-92860952D01*
X148407380Y-92956190D01*
X148407380Y-93051428D01*
X148359761Y-93146666D01*
X148312142Y-93194285D01*
X148216904Y-93241904D01*
X148026428Y-93289523D01*
X147788333Y-93289523D01*
X147597857Y-93241904D01*
X147502619Y-93194285D01*
X147455000Y-93146666D01*
X147407380Y-93051428D01*
%TO.C,C9*%
X137501333Y-97893142D02*
X137453714Y-97940761D01*
X137310857Y-97988380D01*
X137215619Y-97988380D01*
X137072761Y-97940761D01*
X136977523Y-97845523D01*
X136929904Y-97750285D01*
X136882285Y-97559809D01*
X136882285Y-97416952D01*
X136929904Y-97226476D01*
X136977523Y-97131238D01*
X137072761Y-97036000D01*
X137215619Y-96988380D01*
X137310857Y-96988380D01*
X137453714Y-97036000D01*
X137501333Y-97083619D01*
X137977523Y-97988380D02*
X138168000Y-97988380D01*
X138263238Y-97940761D01*
X138310857Y-97893142D01*
X138406095Y-97750285D01*
X138453714Y-97559809D01*
X138453714Y-97178857D01*
X138406095Y-97083619D01*
X138358476Y-97036000D01*
X138263238Y-96988380D01*
X138072761Y-96988380D01*
X137977523Y-97036000D01*
X137929904Y-97083619D01*
X137882285Y-97178857D01*
X137882285Y-97416952D01*
X137929904Y-97512190D01*
X137977523Y-97559809D01*
X138072761Y-97607428D01*
X138263238Y-97607428D01*
X138358476Y-97559809D01*
X138406095Y-97512190D01*
X138453714Y-97416952D01*
%TO.C,C8*%
X114657142Y-100496666D02*
X114704761Y-100544285D01*
X114752380Y-100687142D01*
X114752380Y-100782380D01*
X114704761Y-100925238D01*
X114609523Y-101020476D01*
X114514285Y-101068095D01*
X114323809Y-101115714D01*
X114180952Y-101115714D01*
X113990476Y-101068095D01*
X113895238Y-101020476D01*
X113800000Y-100925238D01*
X113752380Y-100782380D01*
X113752380Y-100687142D01*
X113800000Y-100544285D01*
X113847619Y-100496666D01*
X114180952Y-99925238D02*
X114133333Y-100020476D01*
X114085714Y-100068095D01*
X113990476Y-100115714D01*
X113942857Y-100115714D01*
X113847619Y-100068095D01*
X113800000Y-100020476D01*
X113752380Y-99925238D01*
X113752380Y-99734761D01*
X113800000Y-99639523D01*
X113847619Y-99591904D01*
X113942857Y-99544285D01*
X113990476Y-99544285D01*
X114085714Y-99591904D01*
X114133333Y-99639523D01*
X114180952Y-99734761D01*
X114180952Y-99925238D01*
X114228571Y-100020476D01*
X114276190Y-100068095D01*
X114371428Y-100115714D01*
X114561904Y-100115714D01*
X114657142Y-100068095D01*
X114704761Y-100020476D01*
X114752380Y-99925238D01*
X114752380Y-99734761D01*
X114704761Y-99639523D01*
X114657142Y-99591904D01*
X114561904Y-99544285D01*
X114371428Y-99544285D01*
X114276190Y-99591904D01*
X114228571Y-99639523D01*
X114180952Y-99734761D01*
%TO.C,C7*%
X193381333Y-79097142D02*
X193333714Y-79144761D01*
X193190857Y-79192380D01*
X193095619Y-79192380D01*
X192952761Y-79144761D01*
X192857523Y-79049523D01*
X192809904Y-78954285D01*
X192762285Y-78763809D01*
X192762285Y-78620952D01*
X192809904Y-78430476D01*
X192857523Y-78335238D01*
X192952761Y-78240000D01*
X193095619Y-78192380D01*
X193190857Y-78192380D01*
X193333714Y-78240000D01*
X193381333Y-78287619D01*
X193714666Y-78192380D02*
X194381333Y-78192380D01*
X193952761Y-79192380D01*
%TO.C,C6*%
X120737333Y-98909142D02*
X120689714Y-98956761D01*
X120546857Y-99004380D01*
X120451619Y-99004380D01*
X120308761Y-98956761D01*
X120213523Y-98861523D01*
X120165904Y-98766285D01*
X120118285Y-98575809D01*
X120118285Y-98432952D01*
X120165904Y-98242476D01*
X120213523Y-98147238D01*
X120308761Y-98052000D01*
X120451619Y-98004380D01*
X120546857Y-98004380D01*
X120689714Y-98052000D01*
X120737333Y-98099619D01*
X121594476Y-98004380D02*
X121404000Y-98004380D01*
X121308761Y-98052000D01*
X121261142Y-98099619D01*
X121165904Y-98242476D01*
X121118285Y-98432952D01*
X121118285Y-98813904D01*
X121165904Y-98909142D01*
X121213523Y-98956761D01*
X121308761Y-99004380D01*
X121499238Y-99004380D01*
X121594476Y-98956761D01*
X121642095Y-98909142D01*
X121689714Y-98813904D01*
X121689714Y-98575809D01*
X121642095Y-98480571D01*
X121594476Y-98432952D01*
X121499238Y-98385333D01*
X121308761Y-98385333D01*
X121213523Y-98432952D01*
X121165904Y-98480571D01*
X121118285Y-98575809D01*
%TO.C,C5*%
X140692142Y-80811666D02*
X140739761Y-80859285D01*
X140787380Y-81002142D01*
X140787380Y-81097380D01*
X140739761Y-81240238D01*
X140644523Y-81335476D01*
X140549285Y-81383095D01*
X140358809Y-81430714D01*
X140215952Y-81430714D01*
X140025476Y-81383095D01*
X139930238Y-81335476D01*
X139835000Y-81240238D01*
X139787380Y-81097380D01*
X139787380Y-81002142D01*
X139835000Y-80859285D01*
X139882619Y-80811666D01*
X139787380Y-79906904D02*
X139787380Y-80383095D01*
X140263571Y-80430714D01*
X140215952Y-80383095D01*
X140168333Y-80287857D01*
X140168333Y-80049761D01*
X140215952Y-79954523D01*
X140263571Y-79906904D01*
X140358809Y-79859285D01*
X140596904Y-79859285D01*
X140692142Y-79906904D01*
X140739761Y-79954523D01*
X140787380Y-80049761D01*
X140787380Y-80287857D01*
X140739761Y-80383095D01*
X140692142Y-80430714D01*
%TO.C,C4*%
X114657142Y-91606666D02*
X114704761Y-91654285D01*
X114752380Y-91797142D01*
X114752380Y-91892380D01*
X114704761Y-92035238D01*
X114609523Y-92130476D01*
X114514285Y-92178095D01*
X114323809Y-92225714D01*
X114180952Y-92225714D01*
X113990476Y-92178095D01*
X113895238Y-92130476D01*
X113800000Y-92035238D01*
X113752380Y-91892380D01*
X113752380Y-91797142D01*
X113800000Y-91654285D01*
X113847619Y-91606666D01*
X114085714Y-90749523D02*
X114752380Y-90749523D01*
X113704761Y-90987619D02*
X114419047Y-91225714D01*
X114419047Y-90606666D01*
%TO.C,C2*%
X174585333Y-60809142D02*
X174537714Y-60856761D01*
X174394857Y-60904380D01*
X174299619Y-60904380D01*
X174156761Y-60856761D01*
X174061523Y-60761523D01*
X174013904Y-60666285D01*
X173966285Y-60475809D01*
X173966285Y-60332952D01*
X174013904Y-60142476D01*
X174061523Y-60047238D01*
X174156761Y-59952000D01*
X174299619Y-59904380D01*
X174394857Y-59904380D01*
X174537714Y-59952000D01*
X174585333Y-59999619D01*
X174966285Y-59999619D02*
X175013904Y-59952000D01*
X175109142Y-59904380D01*
X175347238Y-59904380D01*
X175442476Y-59952000D01*
X175490095Y-59999619D01*
X175537714Y-60094857D01*
X175537714Y-60190095D01*
X175490095Y-60332952D01*
X174918666Y-60904380D01*
X175537714Y-60904380D01*
%TO.C,C1*%
X190333333Y-64365142D02*
X190285714Y-64412761D01*
X190142857Y-64460380D01*
X190047619Y-64460380D01*
X189904761Y-64412761D01*
X189809523Y-64317523D01*
X189761904Y-64222285D01*
X189714285Y-64031809D01*
X189714285Y-63888952D01*
X189761904Y-63698476D01*
X189809523Y-63603238D01*
X189904761Y-63508000D01*
X190047619Y-63460380D01*
X190142857Y-63460380D01*
X190285714Y-63508000D01*
X190333333Y-63555619D01*
X191285714Y-64460380D02*
X190714285Y-64460380D01*
X191000000Y-64460380D02*
X191000000Y-63460380D01*
X190904761Y-63603238D01*
X190809523Y-63698476D01*
X190714285Y-63746095D01*
%TD*%
M02*
