M48
; DRILL file {KiCad (5.1.8)-1} date 06/16/22 12:55:35
; FORMAT={3:3/ absolute / metric / suppress leading zeros}
; #@! TF.CreationDate,2022-06-16T12:55:35+03:00
; #@! TF.GenerationSoftware,Kicad,Pcbnew,(5.1.8)-1
FMAT,2
METRIC,TZ
T1C0.300
T2C0.500
T3C0.750
T4C0.800
T5C1.000
T6C1.100
T7C1.200
T8C1.300
T9C1.400
T10C1.520
%
G90
G05
T1
X160020Y-74930
X160020Y-88900
X163830Y-99060
X170053Y-103505
X182880Y-77470
X196850Y-76200
T2
X117475Y-86614
X130048Y-89313
X134112Y-97536
X134112Y-104140
X135509Y-89281
X192659Y-103505
T3
X172720Y-93853
X172720Y-95123
X172720Y-96393
T4
X151765Y-80010
X151765Y-82510
X114300Y-102910
X114300Y-105410
X162560Y-88900
X162560Y-91440
X172720Y-88900
X172720Y-91440
X122555Y-86360
X122555Y-93980
X125095Y-86360
X125095Y-93980
X127635Y-86360
X127635Y-93980
X130175Y-86360
X130175Y-93980
X132715Y-86360
X132715Y-93980
X135255Y-86360
X135255Y-93980
X137795Y-86360
X137795Y-93980
X151765Y-92710
X151765Y-95210
X196215Y-80010
X196215Y-82510
X143510Y-79415
X143510Y-81915
X112395Y-67945
X114895Y-67945
X151765Y-86400
X151765Y-88900
T5
X189230Y-60960
X191770Y-60960
X194310Y-60960
X196850Y-60960
X199390Y-60960
X198755Y-86995
X198755Y-89535
X198755Y-92075
X198755Y-94615
X198755Y-97155
X198755Y-99695
X198755Y-102235
X198755Y-104775
T6
X152400Y-60960
X152400Y-73660
X145415Y-86995
X145415Y-89535
X145415Y-92075
X124460Y-81915
X137160Y-81915
X108204Y-74168
X108204Y-76708
X108204Y-79248
X147955Y-60960
X147955Y-73660
T7
X157480Y-79375
X157480Y-92075
X117475Y-78105
X117475Y-90805
X176530Y-66040
X184030Y-66040
X106680Y-88392
X106680Y-93392
X176530Y-76835
X189230Y-76835
X191770Y-69850
X199270Y-69850
X124460Y-76835
X137160Y-76835
X139700Y-103505
X144700Y-103505
X181737Y-90424
X194437Y-90424
X167005Y-80010
X172085Y-80010
X156845Y-96520
X169545Y-96520
X163195Y-66040
X170815Y-66040
X113284Y-73025
X113284Y-85725
X176530Y-81915
X189230Y-81915
X122555Y-104140
X130055Y-104140
T8
X175260Y-103505
X180260Y-103505
X185260Y-103505
X154940Y-103505
X159940Y-103505
X164940Y-103505
T9
X176657Y-86995
X189357Y-86995
T10
X106680Y-100330
X106680Y-105410
X106680Y-62230
X106680Y-67310
T0
M30
